<?xml version="1.0" encoding="utf-8" standalone="no"?>
<!DOCTYPE svg PUBLIC "-//W3C//DTD SVG 1.1//EN"
  "http://www.w3.org/Graphics/SVG/1.1/DTD/svg11.dtd">
<!-- Created with matplotlib (http://matplotlib.org/) -->
<svg height="432pt" version="1.1" viewBox="0 0 576 432" width="576pt" xmlns="http://www.w3.org/2000/svg" xmlns:xlink="http://www.w3.org/1999/xlink">
 <defs>
  <style type="text/css">
*{stroke-linecap:butt;stroke-linejoin:round;}
  </style>
 </defs>
 <g id="figure_1">
  <g id="patch_1">
   <path d="
M0 432
L576 432
L576 0
L0 0
z
" style="fill:#ffffff;"/>
  </g>
  <g id="axes_1">
   <g id="patch_2">
    <path d="
M72 388.8
L518.4 388.8
L518.4 43.2
L72 43.2
z
" style="fill:#ffffff;"/>
   </g>
   <g id="PolyCollection_1">
    <defs>
     <path d="
M72 -214.604
L72 -214.604
L73.395 -209.512
L73.395 -209.512
L73.395 -209.512
L73.395 -209.512
L76.185 -199.585
L76.185 -199.585
L76.185 -199.585
L76.185 -199.585
L76.185 -199.585
L76.185 -199.585
L76.185 -199.585
L76.185 -199.585
L76.185 -199.585
L76.185 -199.585
L76.185 -199.585
L77.58 -194.751
L77.58 -194.751
L77.58 -194.751
L77.58 -194.751
L78.975 -190.004
L81.765 -180.769
L81.765 -180.769
L81.765 -180.769
L81.765 -180.769
L81.765 -180.769
L81.765 -180.769
L81.765 -180.769
L81.765 -180.769
L81.765 -180.769
L83.16 -176.276
L83.16 -176.276
L83.16 -176.276
L83.16 -176.276
L84.555 -171.864
L84.555 -171.864
L84.555 -171.864
L84.555 -171.864
L85.95 -167.527
L85.95 -167.527
L85.95 -167.527
L85.95 -167.527
L85.95 -167.527
L85.95 -167.527
L85.95 -167.527
L85.95 -167.527
L85.95 -167.527
L87.345 -163.263
L87.345 -163.263
L87.345 -163.263
L87.345 -163.263
L88.74 -159.065
L88.74 -159.065
L88.74 -159.065
L88.74 -159.065
L88.74 -159.065
L88.74 -159.065
L90.135 -154.931
L91.53 -150.854
L91.53 -150.854
L91.53 -150.854
L92.925 -146.83
L92.925 -146.83
L92.925 -146.83
L92.925 -146.83
L92.925 -146.83
L92.925 -146.83
L92.925 -146.83
L92.925 -146.83
L92.925 -146.83
L92.925 -146.83
L92.925 -146.83
L94.32 -142.856
L94.32 -142.856
L94.32 -142.856
L95.715 -138.928
L95.715 -138.928
L95.715 -138.928
L95.715 -138.928
L97.11 -135.042
L97.11 -135.042
L97.11 -135.042
L98.505 -131.197
L98.505 -131.197
L98.505 -131.197
L98.505 -131.197
L98.505 -131.197
L98.505 -131.197
L98.505 -131.197
L98.505 -131.197
L102.69 -119.893
L102.69 -119.893
L102.69 -119.893
L102.69 -119.893
L102.69 -119.893
L102.69 -119.893
L104.085 -116.203
L104.085 -116.203
L105.48 -112.555
L105.48 -112.555
L105.48 -112.555
L105.48 -112.555
L106.875 -108.951
L106.875 -108.951
L106.875 -108.951
L108.27 -105.394
L108.27 -105.394
L108.27 -105.394
L108.27 -105.394
L108.27 -105.394
L108.27 -105.394
L108.27 -105.394
L108.27 -105.394
L108.27 -105.394
L108.27 -105.394
L108.27 -105.394
L108.27 -105.394
L108.27 -105.394
L108.27 -105.394
L108.27 -105.394
L108.27 -105.394
L109.665 -101.887
L109.665 -101.887
L109.665 -101.887
L111.06 -98.4364
L112.455 -95.0455
L112.455 -95.0455
L113.85 -91.7198
L113.85 -91.7198
L113.85 -91.7198
L113.85 -91.7198
L113.85 -91.7198
L115.245 -88.4645
L115.245 -88.4645
L115.245 -88.4645
L115.245 -88.4645
L118.035 -82.1876
L118.035 -82.1876
L118.035 -82.1876
L118.035 -82.1876
L118.035 -82.1876
L118.035 -82.1876
L118.035 -82.1876
L118.035 -82.1876
L118.035 -82.1876
L118.035 -82.1876
L118.035 -82.1876
L119.43 -79.1772
L119.43 -79.1772
L119.43 -79.1772
L119.43 -79.1772
L120.825 -76.2597
L123.615 -70.7244
L123.615 -70.7244
L123.615 -70.7244
L123.615 -70.7244
L123.615 -70.7244
L123.615 -70.7244
L123.615 -70.7244
L123.615 -70.7244
L123.615 -70.7244
L125.01 -68.117
L125.01 -68.117
L125.01 -68.117
L125.01 -68.117
L126.405 -65.6227
L126.405 -65.6227
L126.405 -65.6227
L126.405 -65.6227
L127.8 -63.246
L127.8 -63.246
L127.8 -63.246
L127.8 -63.246
L127.8 -63.246
L127.8 -63.246
L127.8 -63.246
L127.8 -63.246
L127.8 -63.246
L129.195 -60.9908
L129.195 -60.9908
L129.195 -60.9908
L129.195 -60.9908
L130.59 -58.8609
L130.59 -58.8609
L130.59 -58.8609
L130.59 -58.8609
L130.59 -58.8609
L130.59 -58.8609
L131.985 -56.8595
L133.38 -54.9894
L133.38 -54.9894
L133.38 -54.9894
L134.775 -53.253
L134.775 -53.253
L134.775 -53.253
L134.775 -53.253
L134.775 -53.253
L134.775 -53.253
L134.775 -53.253
L134.775 -53.253
L134.775 -53.253
L134.775 -53.253
L134.775 -53.253
L136.17 -51.6524
L136.17 -51.6524
L136.17 -51.6524
L137.565 -50.1893
L137.565 -50.1893
L137.565 -50.1893
L137.565 -50.1893
L138.96 -48.8647
L138.96 -48.8647
L138.96 -48.8647
L140.355 -47.6796
L140.355 -47.6796
L140.355 -47.6796
L140.355 -47.6796
L140.355 -47.6796
L140.355 -47.6796
L140.355 -47.6796
L140.355 -47.6796
L144.54 -44.9632
L144.54 -44.9632
L144.54 -44.9632
L144.54 -44.9632
L144.54 -44.9632
L144.54 -44.9632
L145.935 -44.3367
L145.935 -44.3367
L147.33 -43.8483
L147.33 -43.8483
L147.33 -43.8483
L147.33 -43.8483
L148.725 -43.4971
L148.725 -43.4971
L148.725 -43.4971
L150.12 -43.2815
L150.12 -43.2815
L150.12 -43.2815
L150.12 -43.2815
L150.12 -43.2815
L150.12 -43.2815
L150.12 -43.2815
L150.12 -43.2815
L150.12 -43.2815
L150.12 -43.2815
L150.12 -43.2815
L150.12 -43.2815
L150.12 -43.2815
L150.12 -43.2815
L150.12 -43.2815
L150.12 -43.2815
L151.515 -43.2
L151.515 -43.2
L151.515 -43.2
L152.91 -43.2507
L154.305 -43.4317
L154.305 -43.4317
L155.7 -43.7407
L155.7 -43.7407
L155.7 -43.7407
L155.7 -43.7407
L155.7 -43.7407
L157.095 -44.1754
L157.095 -44.1754
L157.095 -44.1754
L157.095 -44.1754
L159.885 -45.4123
L159.885 -45.4123
L159.885 -45.4123
L159.885 -45.4123
L159.885 -45.4123
L159.885 -45.4123
L159.885 -45.4123
L159.885 -45.4123
L159.885 -45.4123
L159.885 -45.4123
L159.885 -45.4123
L161.28 -46.2094
L161.28 -46.2094
L161.28 -46.2094
L161.28 -46.2094
L162.675 -47.1221
L165.465 -49.2833
L165.465 -49.2833
L165.465 -49.2833
L165.465 -49.2833
L165.465 -49.2833
L165.465 -49.2833
L165.465 -49.2833
L165.465 -49.2833
L165.465 -49.2833
L166.86 -50.5264
L166.86 -50.5264
L166.86 -50.5264
L166.86 -50.5264
L168.255 -51.8741
L168.255 -51.8741
L168.255 -51.8741
L168.255 -51.8741
L169.65 -53.3237
L169.65 -53.3237
L169.65 -53.3237
L169.65 -53.3237
L169.65 -53.3237
L169.65 -53.3237
L169.65 -53.3237
L169.65 -53.3237
L169.65 -53.3237
L171.045 -54.8726
L171.045 -54.8726
L171.045 -54.8726
L171.045 -54.8726
L172.44 -56.5178
L172.44 -56.5178
L172.44 -56.5178
L172.44 -56.5178
L172.44 -56.5178
L172.44 -56.5178
L173.835 -58.2569
L175.23 -60.0872
L175.23 -60.0872
L175.23 -60.0872
L176.625 -62.0059
L176.625 -62.0059
L176.625 -62.0059
L176.625 -62.0059
L176.625 -62.0059
L176.625 -62.0059
L176.625 -62.0059
L176.625 -62.0059
L176.625 -62.0059
L176.625 -62.0059
L176.625 -62.0059
L178.02 -64.0107
L178.02 -64.0107
L178.02 -64.0107
L179.415 -66.099
L179.415 -66.099
L179.415 -66.099
L179.415 -66.099
L180.81 -68.2683
L180.81 -68.2683
L180.81 -68.2683
L182.205 -70.5162
L182.205 -70.5162
L182.205 -70.5162
L182.205 -70.5162
L182.205 -70.5162
L182.205 -70.5162
L182.205 -70.5162
L182.205 -70.5162
L186.39 -77.708
L186.39 -77.708
L186.39 -77.708
L186.39 -77.708
L186.39 -77.708
L186.39 -77.708
L187.785 -80.2471
L187.785 -80.2471
L189.18 -82.8535
L189.18 -82.8535
L189.18 -82.8535
L189.18 -82.8535
L190.575 -85.525
L190.575 -85.525
L190.575 -85.525
L191.97 -88.2595
L191.97 -88.2595
L191.97 -88.2595
L191.97 -88.2595
L191.97 -88.2595
L191.97 -88.2595
L191.97 -88.2595
L191.97 -88.2595
L191.97 -88.2595
L191.97 -88.2595
L191.97 -88.2595
L191.97 -88.2595
L191.97 -88.2595
L191.97 -88.2595
L191.97 -88.2595
L191.97 -88.2595
L193.365 -91.0551
L193.365 -91.0551
L193.365 -91.0551
L194.76 -93.9097
L196.155 -96.8214
L196.155 -96.8214
L197.55 -99.7882
L197.55 -99.7882
L197.55 -99.7882
L197.55 -99.7882
L197.55 -99.7882
L198.945 -102.808
L198.945 -102.808
L198.945 -102.808
L198.945 -102.808
L201.735 -109.001
L201.735 -109.001
L201.735 -109.001
L201.735 -109.001
L201.735 -109.001
L201.735 -109.001
L201.735 -109.001
L201.735 -109.001
L201.735 -109.001
L201.735 -109.001
L201.735 -109.001
L203.13 -112.169
L203.13 -112.169
L203.13 -112.169
L203.13 -112.169
L204.525 -115.384
L207.315 -121.945
L207.315 -121.945
L207.315 -121.945
L207.315 -121.945
L207.315 -121.945
L207.315 -121.945
L207.315 -121.945
L207.315 -121.945
L207.315 -121.945
L208.71 -125.287
L208.71 -125.287
L208.71 -125.287
L208.71 -125.287
L210.105 -128.669
L210.105 -128.669
L210.105 -128.669
L210.105 -128.669
L211.5 -132.088
L211.5 -132.088
L211.5 -132.088
L211.5 -132.088
L211.5 -132.088
L211.5 -132.088
L211.5 -132.088
L211.5 -132.088
L211.5 -132.088
L212.895 -135.542
L212.895 -135.542
L212.895 -135.542
L212.895 -135.542
L214.29 -139.031
L214.29 -139.031
L214.29 -139.031
L214.29 -139.031
L214.29 -139.031
L214.29 -139.031
L215.685 -142.552
L217.08 -146.104
L217.08 -146.104
L217.08 -146.104
L218.475 -149.686
L218.475 -149.686
L218.475 -149.686
L218.475 -149.686
L218.475 -149.686
L218.475 -149.686
L218.475 -149.686
L218.475 -149.686
L218.475 -149.686
L218.475 -149.686
L218.475 -149.686
L219.87 -153.294
L219.87 -153.294
L219.87 -153.294
L221.265 -156.929
L221.265 -156.929
L221.265 -156.929
L221.265 -156.929
L222.66 -160.588
L222.66 -160.588
L222.66 -160.588
L224.055 -164.269
L224.055 -164.269
L224.055 -164.269
L224.055 -164.269
L224.055 -164.269
L224.055 -164.269
L224.055 -164.269
L224.055 -164.269
L228.24 -175.432
L228.24 -175.432
L228.24 -175.432
L228.24 -175.432
L228.24 -175.432
L228.24 -175.432
L229.635 -179.187
L229.635 -179.187
L231.03 -182.957
L231.03 -182.957
L231.03 -182.957
L231.03 -182.957
L232.425 -186.739
L232.425 -186.739
L232.425 -186.739
L233.82 -190.532
L233.82 -190.532
L233.82 -190.532
L233.82 -190.532
L233.82 -190.532
L233.82 -190.532
L233.82 -190.532
L233.82 -190.532
L233.82 -190.532
L233.82 -190.532
L233.82 -190.532
L233.82 -190.532
L233.82 -190.532
L233.82 -190.532
L233.82 -190.532
L233.82 -190.532
L235.215 -194.334
L235.215 -194.334
L235.215 -194.334
L236.61 -198.143
L238.005 -201.959
L238.005 -201.959
L239.4 -205.778
L239.4 -205.778
L239.4 -205.778
L239.4 -205.778
L239.4 -205.778
L240.795 -209.6
L240.795 -209.6
L240.795 -209.6
L240.795 -209.6
L243.585 -217.242
L243.585 -217.242
L243.585 -217.242
L243.585 -217.242
L243.585 -217.242
L243.585 -217.242
L243.585 -217.242
L243.585 -217.242
L243.585 -217.242
L243.585 -217.242
L243.585 -217.242
L244.98 -221.06
L244.98 -221.06
L244.98 -221.06
L244.98 -221.06
L246.375 -224.873
L249.165 -232.476
L249.165 -232.476
L249.165 -232.476
L249.165 -232.476
L249.165 -232.476
L249.165 -232.476
L249.165 -232.476
L249.165 -232.476
L249.165 -232.476
L250.56 -236.263
L250.56 -236.263
L250.56 -236.263
L250.56 -236.263
L251.955 -240.037
L253.35 -243.798
L253.35 -243.798
L253.35 -243.798
L253.35 -243.798
L253.35 -243.798
L253.35 -243.798
L253.35 -243.798
L253.35 -243.798
L253.35 -243.798
L254.745 -247.542
L254.745 -247.542
L254.745 -247.542
L254.745 -247.542
L256.14 -251.268
L256.14 -251.268
L256.14 -251.268
L256.14 -251.268
L256.14 -251.268
L256.14 -251.268
L257.535 -254.974
L258.93 -258.659
L258.93 -258.659
L258.93 -258.659
L260.325 -262.319
L260.325 -262.319
L260.325 -262.319
L260.325 -262.319
L260.325 -262.319
L260.325 -262.319
L260.325 -262.319
L260.325 -262.319
L260.325 -262.319
L260.325 -262.319
L260.325 -262.319
L261.72 -265.954
L261.72 -265.954
L261.72 -265.954
L263.115 -269.562
L263.115 -269.562
L263.115 -269.562
L263.115 -269.562
L264.51 -273.139
L264.51 -273.139
L264.51 -273.139
L265.905 -276.686
L265.905 -276.686
L265.905 -276.686
L265.905 -276.686
L265.905 -276.686
L265.905 -276.686
L265.905 -276.686
L265.905 -276.686
L270.09 -287.115
L270.09 -287.115
L270.09 -287.115
L270.09 -287.115
L270.09 -287.115
L270.09 -287.115
L271.485 -290.515
L271.485 -290.515
L272.88 -293.874
L272.88 -293.874
L272.88 -293.874
L272.88 -293.874
L274.275 -297.189
L274.275 -297.189
L274.275 -297.189
L275.67 -300.459
L275.67 -300.459
L275.67 -300.459
L275.67 -300.459
L275.67 -300.459
L275.67 -300.459
L275.67 -300.459
L275.67 -300.459
L275.67 -300.459
L275.67 -300.459
L275.67 -300.459
L275.67 -300.459
L275.67 -300.459
L275.67 -300.459
L275.67 -300.459
L275.67 -300.459
L277.065 -303.682
L277.065 -303.682
L277.065 -303.682
L278.46 -306.856
L279.855 -309.979
L279.855 -309.979
L281.25 -313.048
L281.25 -313.048
L281.25 -313.048
L281.25 -313.048
L281.25 -313.048
L282.645 -316.063
L282.645 -316.063
L282.645 -316.063
L282.645 -316.063
L285.435 -321.92
L285.435 -321.92
L285.435 -321.92
L285.435 -321.92
L285.435 -321.92
L285.435 -321.92
L285.435 -321.92
L285.435 -321.92
L285.435 -321.92
L285.435 -321.92
L285.435 -321.92
L286.83 -324.758
L286.83 -324.758
L286.83 -324.758
L286.83 -324.758
L288.225 -327.535
L291.015 -332.893
L291.015 -332.893
L291.015 -332.893
L291.015 -332.893
L291.015 -332.893
L291.015 -332.893
L291.015 -332.893
L291.015 -332.893
L291.015 -332.893
L292.41 -335.471
L292.41 -335.471
L292.41 -335.471
L292.41 -335.471
L293.805 -337.98
L295.2 -340.419
L295.2 -340.419
L295.2 -340.419
L295.2 -340.419
L295.2 -340.419
L295.2 -340.419
L295.2 -340.419
L295.2 -340.419
L295.2 -340.419
L296.595 -342.784
L296.595 -342.784
L296.595 -342.784
L296.595 -342.784
L297.99 -345.075
L297.99 -345.075
L297.99 -345.075
L297.99 -345.075
L297.99 -345.075
L297.99 -345.075
L299.385 -347.29
L300.78 -349.428
L300.78 -349.428
L300.78 -349.428
L302.175 -351.486
L302.175 -351.486
L302.175 -351.486
L302.175 -351.486
L302.175 -351.486
L302.175 -351.486
L302.175 -351.486
L302.175 -351.486
L302.175 -351.486
L302.175 -351.486
L302.175 -351.486
L303.57 -353.465
L303.57 -353.465
L304.965 -355.361
L304.965 -355.361
L304.965 -355.361
L304.965 -355.361
L306.36 -357.175
L306.36 -357.175
L306.36 -357.175
L307.755 -358.904
L307.755 -358.904
L307.755 -358.904
L307.755 -358.904
L307.755 -358.904
L307.755 -358.904
L307.755 -358.904
L307.755 -358.904
L311.94 -363.572
L311.94 -363.572
L311.94 -363.572
L311.94 -363.572
L311.94 -363.572
L311.94 -363.572
L313.335 -364.951
L313.335 -364.951
L314.73 -366.24
L314.73 -366.24
L314.73 -366.24
L314.73 -366.24
L316.125 -367.438
L316.125 -367.438
L316.125 -367.438
L317.52 -368.544
L317.52 -368.544
L317.52 -368.544
L317.52 -368.544
L317.52 -368.544
L317.52 -368.544
L317.52 -368.544
L317.52 -368.544
L317.52 -368.544
L317.52 -368.544
L317.52 -368.544
L317.52 -368.544
L317.52 -368.544
L317.52 -368.544
L317.52 -368.544
L317.52 -368.544
L318.915 -369.557
L318.915 -369.557
L318.915 -369.557
L320.31 -370.477
L321.705 -371.302
L321.705 -371.302
L323.1 -372.032
L323.1 -372.032
L323.1 -372.032
L323.1 -372.032
L323.1 -372.032
L324.495 -372.667
L324.495 -372.667
L324.495 -372.667
L324.495 -372.667
L327.285 -373.648
L327.285 -373.648
L327.285 -373.648
L327.285 -373.648
L327.285 -373.648
L327.285 -373.648
L327.285 -373.648
L327.285 -373.648
L327.285 -373.648
L327.285 -373.648
L327.285 -373.648
L328.68 -373.994
L328.68 -373.994
L328.68 -373.994
L328.68 -373.994
L330.075 -374.243
L332.865 -374.448
L332.865 -374.448
L332.865 -374.448
L332.865 -374.448
L332.865 -374.448
L332.865 -374.448
L332.865 -374.448
L332.865 -374.448
L332.865 -374.448
L334.26 -374.405
L334.26 -374.405
L334.26 -374.405
L334.26 -374.405
L335.655 -374.264
L337.05 -374.027
L337.05 -374.027
L337.05 -374.027
L337.05 -374.027
L337.05 -374.027
L337.05 -374.027
L337.05 -374.027
L337.05 -374.027
L337.05 -374.027
L338.445 -373.692
L338.445 -373.692
L338.445 -373.692
L338.445 -373.692
L339.84 -373.26
L339.84 -373.26
L339.84 -373.26
L339.84 -373.26
L339.84 -373.26
L339.84 -373.26
L341.235 -372.732
L342.63 -372.108
L342.63 -372.108
L342.63 -372.108
L344.025 -371.389
L344.025 -371.389
L344.025 -371.389
L344.025 -371.389
L344.025 -371.389
L344.025 -371.389
L344.025 -371.389
L344.025 -371.389
L344.025 -371.389
L344.025 -371.389
L344.025 -371.389
L345.42 -370.575
L345.42 -370.575
L346.815 -369.667
L346.815 -369.667
L346.815 -369.667
L346.815 -369.667
L348.21 -368.666
L348.21 -368.666
L348.21 -368.666
L349.605 -367.572
L349.605 -367.572
L349.605 -367.572
L349.605 -367.572
L349.605 -367.572
L349.605 -367.572
L349.605 -367.572
L349.605 -367.572
L353.79 -363.745
L353.79 -363.745
L353.79 -363.745
L353.79 -363.745
L353.79 -363.745
L353.79 -363.745
L355.185 -362.291
L355.185 -362.291
L356.58 -360.751
L356.58 -360.751
L356.58 -360.751
L357.975 -359.124
L357.975 -359.124
L357.975 -359.124
L359.37 -357.414
L359.37 -357.414
L359.37 -357.414
L359.37 -357.414
L359.37 -357.414
L359.37 -357.414
L359.37 -357.414
L359.37 -357.414
L359.37 -357.414
L359.37 -357.414
L359.37 -357.414
L359.37 -357.414
L359.37 -357.414
L359.37 -357.414
L359.37 -357.414
L359.37 -357.414
L360.765 -355.62
L360.765 -355.62
L360.765 -355.62
L362.16 -353.745
L363.555 -351.791
L363.555 -351.791
L364.95 -349.758
L364.95 -349.758
L364.95 -349.758
L364.95 -349.758
L364.95 -349.758
L366.345 -347.65
L366.345 -347.65
L366.345 -347.65
L366.345 -347.65
L369.135 -343.211
L369.135 -343.211
L369.135 -343.211
L369.135 -343.211
L369.135 -343.211
L369.135 -343.211
L369.135 -343.211
L369.135 -343.211
L369.135 -343.211
L369.135 -343.211
L369.135 -343.211
L370.53 -340.886
L370.53 -340.886
L370.53 -340.886
L370.53 -340.886
L371.925 -338.491
L374.715 -333.506
L374.715 -333.506
L374.715 -333.506
L374.715 -333.506
L374.715 -333.506
L374.715 -333.506
L374.715 -333.506
L374.715 -333.506
L374.715 -333.506
L376.11 -330.919
L376.11 -330.919
L376.11 -330.919
L376.11 -330.919
L377.505 -328.273
L378.9 -325.569
L378.9 -325.569
L378.9 -325.569
L378.9 -325.569
L378.9 -325.569
L378.9 -325.569
L378.9 -325.569
L378.9 -325.569
L378.9 -325.569
L380.295 -322.81
L380.295 -322.81
L380.295 -322.81
L380.295 -322.81
L381.69 -319.999
L381.69 -319.999
L381.69 -319.999
L381.69 -319.999
L381.69 -319.999
L381.69 -319.999
L383.085 -317.137
L384.48 -314.228
L384.48 -314.228
L384.48 -314.228
L385.875 -311.274
L385.875 -311.274
L385.875 -311.274
L385.875 -311.274
L385.875 -311.274
L385.875 -311.274
L385.875 -311.274
L385.875 -311.274
L385.875 -311.274
L385.875 -311.274
L385.875 -311.274
L387.27 -308.278
L387.27 -308.278
L388.665 -305.241
L388.665 -305.241
L388.665 -305.241
L388.665 -305.241
L390.06 -302.168
L390.06 -302.168
L390.06 -302.168
L391.455 -299.061
L391.455 -299.061
L391.455 -299.061
L391.455 -299.061
L391.455 -299.061
L391.455 -299.061
L391.455 -299.061
L391.455 -299.061
L395.64 -289.559
L395.64 -289.559
L395.64 -289.559
L395.64 -289.559
L395.64 -289.559
L395.64 -289.559
L397.035 -286.341
L397.035 -286.341
L398.43 -283.103
L398.43 -283.103
L398.43 -283.103
L399.825 -279.848
L399.825 -279.848
L399.825 -279.848
L401.22 -276.578
L401.22 -276.578
L401.22 -276.578
L401.22 -276.578
L401.22 -276.578
L401.22 -276.578
L401.22 -276.578
L401.22 -276.578
L401.22 -276.578
L401.22 -276.578
L401.22 -276.578
L401.22 -276.578
L401.22 -276.578
L401.22 -276.578
L401.22 -276.578
L401.22 -276.578
L402.615 -273.296
L402.615 -273.296
L402.615 -273.296
L404.01 -270.005
L405.405 -266.709
L405.405 -266.709
L406.8 -263.409
L406.8 -263.409
L406.8 -263.409
L406.8 -263.409
L406.8 -263.409
L408.195 -260.11
L408.195 -260.11
L408.195 -260.11
L410.985 -253.523
L410.985 -253.523
L410.985 -253.523
L410.985 -253.523
L410.985 -253.523
L410.985 -253.523
L410.985 -253.523
L410.985 -253.523
L410.985 -253.523
L410.985 -253.523
L410.985 -253.523
L412.38 -250.241
L412.38 -250.241
L412.38 -250.241
L412.38 -250.241
L413.775 -246.971
L416.565 -240.479
L416.565 -240.479
L416.565 -240.479
L416.565 -240.479
L416.565 -240.479
L416.565 -240.479
L416.565 -240.479
L416.565 -240.479
L416.565 -240.479
L417.96 -237.262
L417.96 -237.262
L417.96 -237.262
L417.96 -237.262
L419.355 -234.07
L420.75 -230.904
L420.75 -230.904
L420.75 -230.904
L420.75 -230.904
L420.75 -230.904
L420.75 -230.904
L420.75 -230.904
L420.75 -230.904
L420.75 -230.904
L422.145 -227.768
L422.145 -227.768
L422.145 -227.768
L422.145 -227.768
L423.54 -224.666
L423.54 -224.666
L423.54 -224.666
L423.54 -224.666
L423.54 -224.666
L423.54 -224.666
L424.935 -221.598
L426.33 -218.57
L426.33 -218.57
L426.33 -218.57
L427.725 -215.583
L427.725 -215.583
L427.725 -215.583
L427.725 -215.583
L427.725 -215.583
L427.725 -215.583
L427.725 -215.583
L427.725 -215.583
L427.725 -215.583
L427.725 -215.583
L427.725 -215.583
L429.12 -212.642
L429.12 -212.642
L430.515 -209.747
L430.515 -209.747
L430.515 -209.747
L430.515 -209.747
L431.91 -206.904
L431.91 -206.904
L431.91 -206.904
L433.305 -204.114
L433.305 -204.114
L433.305 -204.114
L433.305 -204.114
L433.305 -204.114
L433.305 -204.114
L433.305 -204.114
L433.305 -204.114
L437.49 -196.094
L437.49 -196.094
L437.49 -196.094
L437.49 -196.094
L437.49 -196.094
L437.49 -196.094
L438.885 -193.546
L438.885 -193.546
L440.28 -191.066
L440.28 -191.066
L440.28 -191.066
L441.675 -188.657
L441.675 -188.657
L441.675 -188.657
L443.07 -186.321
L443.07 -186.321
L443.07 -186.321
L443.07 -186.321
L443.07 -186.321
L443.07 -186.321
L443.07 -186.321
L443.07 -186.321
L443.07 -186.321
L443.07 -186.321
L443.07 -186.321
L443.07 -186.321
L443.07 -186.321
L443.07 -186.321
L443.07 -186.321
L443.07 -186.321
L444.465 -184.06
L444.465 -184.06
L444.465 -184.06
L445.86 -181.878
L447.255 -179.777
L447.255 -179.777
L448.65 -177.759
L448.65 -177.759
L448.65 -177.759
L448.65 -177.759
L448.65 -177.759
L450.045 -175.827
L450.045 -175.827
L450.045 -175.827
L452.835 -172.228
L452.835 -172.228
L452.835 -172.228
L452.835 -172.228
L452.835 -172.228
L452.835 -172.228
L452.835 -172.228
L452.835 -172.228
L452.835 -172.228
L452.835 -172.228
L452.835 -172.228
L454.23 -170.567
L454.23 -170.567
L454.23 -170.567
L454.23 -170.567
L455.625 -169.001
L458.415 -166.16
L458.415 -166.16
L458.415 -166.16
L458.415 -166.16
L458.415 -166.16
L458.415 -166.16
L458.415 -166.16
L458.415 -166.16
L458.415 -166.16
L459.81 -164.89
L461.205 -163.722
L462.6 -162.659
L462.6 -162.659
L462.6 -162.659
L462.6 -162.659
L462.6 -162.659
L462.6 -162.659
L462.6 -162.659
L462.6 -162.659
L462.6 -162.659
L463.995 -161.702
L463.995 -161.702
L463.995 -161.702
L463.995 -161.702
L465.39 -160.852
L465.39 -160.852
L465.39 -160.852
L465.39 -160.852
L465.39 -160.852
L465.39 -160.852
L466.785 -160.112
L468.18 -159.482
L468.18 -159.482
L468.18 -159.482
L469.575 -158.964
L469.575 -158.964
L469.575 -158.964
L469.575 -158.964
L469.575 -158.964
L469.575 -158.964
L469.575 -158.964
L469.575 -158.964
L469.575 -158.964
L469.575 -158.964
L469.575 -158.964
L470.97 -158.558
L470.97 -158.558
L472.365 -158.267
L472.365 -158.267
L472.365 -158.267
L472.365 -158.267
L473.76 -158.091
L473.76 -158.091
L473.76 -158.091
L475.155 -158.032
L475.155 -158.032
L475.155 -158.032
L475.155 -158.032
L475.155 -158.032
L475.155 -158.032
L475.155 -158.032
L475.155 -158.032
L479.34 -158.558
L479.34 -158.558
L479.34 -158.558
L479.34 -158.558
L479.34 -158.558
L479.34 -158.558
L480.735 -158.971
L480.735 -158.971
L482.13 -159.503
L482.13 -159.503
L482.13 -159.503
L483.525 -160.155
L483.525 -160.155
L483.525 -160.155
L484.92 -160.927
L484.92 -160.927
L484.92 -160.927
L484.92 -160.927
L484.92 -160.927
L484.92 -160.927
L484.92 -160.927
L484.92 -160.927
L484.92 -160.927
L484.92 -160.927
L484.92 -160.927
L484.92 -160.927
L484.92 -160.927
L484.92 -160.927
L484.92 -160.927
L484.92 -160.927
L486.315 -161.819
L486.315 -161.819
L486.315 -161.819
L487.71 -162.832
L489.105 -163.966
L489.105 -163.966
L490.5 -165.219
L490.5 -165.219
L490.5 -165.219
L490.5 -165.219
L490.5 -165.219
L491.895 -166.593
L491.895 -166.593
L491.895 -166.593
L494.685 -169.7
L494.685 -169.7
L494.685 -169.7
L494.685 -169.7
L494.685 -169.7
L494.685 -169.7
L494.685 -169.7
L494.685 -169.7
L494.685 -169.7
L494.685 -169.7
L494.685 -169.7
L496.08 -171.432
L496.08 -171.432
L496.08 -171.432
L496.08 -171.432
L497.475 -173.283
L500.265 -177.336
L500.265 -177.336
L500.265 -177.336
L500.265 -177.336
L500.265 -177.336
L500.265 -177.336
L500.265 -177.336
L500.265 -177.336
L500.265 -177.336
L501.66 -179.538
L503.055 -181.855
L504.45 -184.286
L504.45 -184.286
L504.45 -184.286
L504.45 -184.286
L504.45 -184.286
L504.45 -184.286
L504.45 -184.286
L504.45 -184.286
L504.45 -184.286
L505.845 -186.83
L505.845 -186.83
L505.845 -186.83
L505.845 -186.83
L507.24 -189.487
L507.24 -189.487
L507.24 -189.487
L507.24 -189.487
L507.24 -189.487
L507.24 -189.487
L508.635 -192.254
L510.03 -195.13
L510.03 -195.13
L510.03 -195.13
L511.425 -198.115
L511.425 -198.115
L511.425 -198.115
L511.425 -198.115
L511.425 -198.115
L511.425 -198.115
L511.425 -198.115
L511.425 -198.115
L511.425 -198.115
L511.425 -198.115
L511.425 -198.115
L512.82 -201.206
L512.82 -201.206
L514.215 -204.402
L514.215 -204.402
L514.215 -204.402
L514.215 -204.402
L515.61 -207.702
L515.61 -207.702
L515.61 -207.702
L517.005 -211.103
L517.005 -211.103
L517.005 -211.103
L517.005 -211.103
L517.005 -211.103
L517.005 -211.103
L517.005 -211.103
L518.4 -214.604
L518.4 -214.604
L518.4 -214.604
L517.005 -212.125
L517.005 -212.125
L517.005 -212.125
L517.005 -212.125
L517.005 -212.125
L517.005 -212.125
L517.005 -212.125
L515.61 -209.703
L515.61 -209.703
L515.61 -209.703
L514.215 -207.342
L514.215 -207.342
L514.215 -207.342
L514.215 -207.342
L512.82 -205.043
L512.82 -205.043
L511.425 -202.81
L511.425 -202.81
L511.425 -202.81
L511.425 -202.81
L511.425 -202.81
L511.425 -202.81
L511.425 -202.81
L511.425 -202.81
L511.425 -202.81
L511.425 -202.81
L511.425 -202.81
L510.03 -200.643
L510.03 -200.643
L510.03 -200.643
L508.635 -198.546
L507.24 -196.52
L507.24 -196.52
L507.24 -196.52
L507.24 -196.52
L507.24 -196.52
L507.24 -196.52
L505.845 -194.568
L505.845 -194.568
L505.845 -194.568
L505.845 -194.568
L504.45 -192.691
L504.45 -192.691
L504.45 -192.691
L504.45 -192.691
L504.45 -192.691
L504.45 -192.691
L504.45 -192.691
L504.45 -192.691
L504.45 -192.691
L503.055 -190.891
L501.66 -189.171
L500.265 -187.532
L500.265 -187.532
L500.265 -187.532
L500.265 -187.532
L500.265 -187.532
L500.265 -187.532
L500.265 -187.532
L500.265 -187.532
L500.265 -187.532
L497.475 -184.503
L496.08 -183.116
L496.08 -183.116
L496.08 -183.116
L496.08 -183.116
L494.685 -181.817
L494.685 -181.817
L494.685 -181.817
L494.685 -181.817
L494.685 -181.817
L494.685 -181.817
L494.685 -181.817
L494.685 -181.817
L494.685 -181.817
L494.685 -181.817
L494.685 -181.817
L491.895 -179.486
L491.895 -179.486
L491.895 -179.486
L490.5 -178.457
L490.5 -178.457
L490.5 -178.457
L490.5 -178.457
L490.5 -178.457
L489.105 -177.52
L489.105 -177.52
L487.71 -176.676
L486.315 -175.927
L486.315 -175.927
L486.315 -175.927
L484.92 -175.274
L484.92 -175.274
L484.92 -175.274
L484.92 -175.274
L484.92 -175.274
L484.92 -175.274
L484.92 -175.274
L484.92 -175.274
L484.92 -175.274
L484.92 -175.274
L484.92 -175.274
L484.92 -175.274
L484.92 -175.274
L484.92 -175.274
L484.92 -175.274
L484.92 -175.274
L483.525 -174.716
L483.525 -174.716
L483.525 -174.716
L482.13 -174.255
L482.13 -174.255
L482.13 -174.255
L480.735 -173.892
L480.735 -173.892
L479.34 -173.626
L479.34 -173.626
L479.34 -173.626
L479.34 -173.626
L479.34 -173.626
L479.34 -173.626
L475.155 -173.42
L475.155 -173.42
L475.155 -173.42
L475.155 -173.42
L475.155 -173.42
L475.155 -173.42
L475.155 -173.42
L475.155 -173.42
L473.76 -173.549
L473.76 -173.549
L473.76 -173.549
L472.365 -173.778
L472.365 -173.778
L472.365 -173.778
L472.365 -173.778
L470.97 -174.105
L470.97 -174.105
L469.575 -174.532
L469.575 -174.532
L469.575 -174.532
L469.575 -174.532
L469.575 -174.532
L469.575 -174.532
L469.575 -174.532
L469.575 -174.532
L469.575 -174.532
L469.575 -174.532
L469.575 -174.532
L468.18 -175.057
L468.18 -175.057
L468.18 -175.057
L466.785 -175.68
L465.39 -176.401
L465.39 -176.401
L465.39 -176.401
L465.39 -176.401
L465.39 -176.401
L465.39 -176.401
L463.995 -177.22
L463.995 -177.22
L463.995 -177.22
L463.995 -177.22
L462.6 -178.136
L462.6 -178.136
L462.6 -178.136
L462.6 -178.136
L462.6 -178.136
L462.6 -178.136
L462.6 -178.136
L462.6 -178.136
L462.6 -178.136
L461.205 -179.148
L459.81 -180.255
L458.415 -181.457
L458.415 -181.457
L458.415 -181.457
L458.415 -181.457
L458.415 -181.457
L458.415 -181.457
L458.415 -181.457
L458.415 -181.457
L458.415 -181.457
L455.625 -184.141
L454.23 -185.62
L454.23 -185.62
L454.23 -185.62
L454.23 -185.62
L452.835 -187.19
L452.835 -187.19
L452.835 -187.19
L452.835 -187.19
L452.835 -187.19
L452.835 -187.19
L452.835 -187.19
L452.835 -187.19
L452.835 -187.19
L452.835 -187.19
L452.835 -187.19
L450.045 -190.594
L450.045 -190.594
L450.045 -190.594
L448.65 -192.426
L448.65 -192.426
L448.65 -192.426
L448.65 -192.426
L448.65 -192.426
L447.255 -194.342
L447.255 -194.342
L445.86 -196.341
L444.465 -198.42
L444.465 -198.42
L444.465 -198.42
L443.07 -200.579
L443.07 -200.579
L443.07 -200.579
L443.07 -200.579
L443.07 -200.579
L443.07 -200.579
L443.07 -200.579
L443.07 -200.579
L443.07 -200.579
L443.07 -200.579
L443.07 -200.579
L443.07 -200.579
L443.07 -200.579
L443.07 -200.579
L443.07 -200.579
L443.07 -200.579
L441.675 -202.815
L441.675 -202.815
L441.675 -202.815
L440.28 -205.126
L440.28 -205.126
L440.28 -205.126
L438.885 -207.511
L438.885 -207.511
L437.49 -209.966
L437.49 -209.966
L437.49 -209.966
L437.49 -209.966
L437.49 -209.966
L437.49 -209.966
L433.305 -217.734
L433.305 -217.734
L433.305 -217.734
L433.305 -217.734
L433.305 -217.734
L433.305 -217.734
L433.305 -217.734
L433.305 -217.734
L431.91 -220.45
L431.91 -220.45
L431.91 -220.45
L430.515 -223.224
L430.515 -223.224
L430.515 -223.224
L430.515 -223.224
L429.12 -226.055
L429.12 -226.055
L427.725 -228.939
L427.725 -228.939
L427.725 -228.939
L427.725 -228.939
L427.725 -228.939
L427.725 -228.939
L427.725 -228.939
L427.725 -228.939
L427.725 -228.939
L427.725 -228.939
L427.725 -228.939
L426.33 -231.874
L426.33 -231.874
L426.33 -231.874
L424.935 -234.858
L423.54 -237.886
L423.54 -237.886
L423.54 -237.886
L423.54 -237.886
L423.54 -237.886
L423.54 -237.886
L422.145 -240.956
L422.145 -240.956
L422.145 -240.956
L422.145 -240.956
L420.75 -244.066
L420.75 -244.066
L420.75 -244.066
L420.75 -244.066
L420.75 -244.066
L420.75 -244.066
L420.75 -244.066
L420.75 -244.066
L420.75 -244.066
L419.355 -247.212
L417.96 -250.391
L417.96 -250.391
L417.96 -250.391
L417.96 -250.391
L416.565 -253.6
L416.565 -253.6
L416.565 -253.6
L416.565 -253.6
L416.565 -253.6
L416.565 -253.6
L416.565 -253.6
L416.565 -253.6
L416.565 -253.6
L413.775 -260.094
L412.38 -263.374
L412.38 -263.374
L412.38 -263.374
L412.38 -263.374
L410.985 -266.67
L410.985 -266.67
L410.985 -266.67
L410.985 -266.67
L410.985 -266.67
L410.985 -266.67
L410.985 -266.67
L410.985 -266.67
L410.985 -266.67
L410.985 -266.67
L410.985 -266.67
L408.195 -273.3
L408.195 -273.3
L408.195 -273.3
L406.8 -276.628
L406.8 -276.628
L406.8 -276.628
L406.8 -276.628
L406.8 -276.628
L405.405 -279.96
L405.405 -279.96
L404.01 -283.292
L402.615 -286.621
L402.615 -286.621
L402.615 -286.621
L401.22 -289.944
L401.22 -289.944
L401.22 -289.944
L401.22 -289.944
L401.22 -289.944
L401.22 -289.944
L401.22 -289.944
L401.22 -289.944
L401.22 -289.944
L401.22 -289.944
L401.22 -289.944
L401.22 -289.944
L401.22 -289.944
L401.22 -289.944
L401.22 -289.944
L401.22 -289.944
L399.825 -293.258
L399.825 -293.258
L399.825 -293.258
L398.43 -296.559
L398.43 -296.559
L398.43 -296.559
L397.035 -299.845
L397.035 -299.845
L395.64 -303.111
L395.64 -303.111
L395.64 -303.111
L395.64 -303.111
L395.64 -303.111
L395.64 -303.111
L391.455 -312.765
L391.455 -312.765
L391.455 -312.765
L391.455 -312.765
L391.455 -312.765
L391.455 -312.765
L391.455 -312.765
L391.455 -312.765
L390.06 -315.924
L390.06 -315.924
L390.06 -315.924
L388.665 -319.048
L388.665 -319.048
L388.665 -319.048
L388.665 -319.048
L387.27 -322.135
L387.27 -322.135
L385.875 -325.182
L385.875 -325.182
L385.875 -325.182
L385.875 -325.182
L385.875 -325.182
L385.875 -325.182
L385.875 -325.182
L385.875 -325.182
L385.875 -325.182
L385.875 -325.182
L385.875 -325.182
L384.48 -328.185
L384.48 -328.185
L384.48 -328.185
L383.085 -331.142
L381.69 -334.05
L381.69 -334.05
L381.69 -334.05
L381.69 -334.05
L381.69 -334.05
L381.69 -334.05
L380.295 -336.906
L380.295 -336.906
L380.295 -336.906
L380.295 -336.906
L378.9 -339.709
L378.9 -339.709
L378.9 -339.709
L378.9 -339.709
L378.9 -339.709
L378.9 -339.709
L378.9 -339.709
L378.9 -339.709
L378.9 -339.709
L377.505 -342.454
L376.11 -345.141
L376.11 -345.141
L376.11 -345.141
L376.11 -345.141
L374.715 -347.765
L374.715 -347.765
L374.715 -347.765
L374.715 -347.765
L374.715 -347.765
L374.715 -347.765
L374.715 -347.765
L374.715 -347.765
L374.715 -347.765
L371.925 -352.819
L370.53 -355.244
L370.53 -355.244
L370.53 -355.244
L370.53 -355.244
L369.135 -357.599
L369.135 -357.599
L369.135 -357.599
L369.135 -357.599
L369.135 -357.599
L369.135 -357.599
L369.135 -357.599
L369.135 -357.599
L369.135 -357.599
L369.135 -357.599
L369.135 -357.599
L366.345 -362.087
L366.345 -362.087
L366.345 -362.087
L366.345 -362.087
L364.95 -364.217
L364.95 -364.217
L364.95 -364.217
L364.95 -364.217
L364.95 -364.217
L363.555 -366.268
L363.555 -366.268
L362.16 -368.239
L360.765 -370.127
L360.765 -370.127
L360.765 -370.127
L359.37 -371.932
L359.37 -371.932
L359.37 -371.932
L359.37 -371.932
L359.37 -371.932
L359.37 -371.932
L359.37 -371.932
L359.37 -371.932
L359.37 -371.932
L359.37 -371.932
L359.37 -371.932
L359.37 -371.932
L359.37 -371.932
L359.37 -371.932
L359.37 -371.932
L359.37 -371.932
L357.975 -373.652
L357.975 -373.652
L357.975 -373.652
L356.58 -375.285
L356.58 -375.285
L356.58 -375.285
L355.185 -376.829
L355.185 -376.829
L353.79 -378.285
L353.79 -378.285
L353.79 -378.285
L353.79 -378.285
L353.79 -378.285
L353.79 -378.285
L349.605 -382.105
L349.605 -382.105
L349.605 -382.105
L349.605 -382.105
L349.605 -382.105
L349.605 -382.105
L349.605 -382.105
L349.605 -382.105
L348.21 -383.192
L348.21 -383.192
L348.21 -383.192
L346.815 -384.185
L346.815 -384.185
L346.815 -384.185
L346.815 -384.185
L345.42 -385.083
L345.42 -385.083
L344.025 -385.885
L344.025 -385.885
L344.025 -385.885
L344.025 -385.885
L344.025 -385.885
L344.025 -385.885
L344.025 -385.885
L344.025 -385.885
L344.025 -385.885
L344.025 -385.885
L344.025 -385.885
L342.63 -386.591
L342.63 -386.591
L342.63 -386.591
L341.235 -387.2
L339.84 -387.711
L339.84 -387.711
L339.84 -387.711
L339.84 -387.711
L339.84 -387.711
L339.84 -387.711
L338.445 -388.125
L338.445 -388.125
L338.445 -388.125
L338.445 -388.125
L337.05 -388.441
L337.05 -388.441
L337.05 -388.441
L337.05 -388.441
L337.05 -388.441
L337.05 -388.441
L337.05 -388.441
L337.05 -388.441
L337.05 -388.441
L335.655 -388.659
L334.26 -388.778
L334.26 -388.778
L334.26 -388.778
L334.26 -388.778
L332.865 -388.8
L332.865 -388.8
L332.865 -388.8
L332.865 -388.8
L332.865 -388.8
L332.865 -388.8
L332.865 -388.8
L332.865 -388.8
L332.865 -388.8
L330.075 -388.549
L328.68 -388.277
L328.68 -388.277
L328.68 -388.277
L328.68 -388.277
L327.285 -387.907
L327.285 -387.907
L327.285 -387.907
L327.285 -387.907
L327.285 -387.907
L327.285 -387.907
L327.285 -387.907
L327.285 -387.907
L327.285 -387.907
L327.285 -387.907
L327.285 -387.907
L324.495 -386.877
L324.495 -386.877
L324.495 -386.877
L324.495 -386.877
L323.1 -386.218
L323.1 -386.218
L323.1 -386.218
L323.1 -386.218
L323.1 -386.218
L321.705 -385.463
L321.705 -385.463
L320.31 -384.613
L318.915 -383.669
L318.915 -383.669
L318.915 -383.669
L317.52 -382.632
L317.52 -382.632
L317.52 -382.632
L317.52 -382.632
L317.52 -382.632
L317.52 -382.632
L317.52 -382.632
L317.52 -382.632
L317.52 -382.632
L317.52 -382.632
L317.52 -382.632
L317.52 -382.632
L317.52 -382.632
L317.52 -382.632
L317.52 -382.632
L317.52 -382.632
L316.125 -381.503
L316.125 -381.503
L316.125 -381.503
L314.73 -380.282
L314.73 -380.282
L314.73 -380.282
L314.73 -380.282
L313.335 -378.97
L313.335 -378.97
L311.94 -377.569
L311.94 -377.569
L311.94 -377.569
L311.94 -377.569
L311.94 -377.569
L311.94 -377.569
L307.755 -372.841
L307.755 -372.841
L307.755 -372.841
L307.755 -372.841
L307.755 -372.841
L307.755 -372.841
L307.755 -372.841
L307.755 -372.841
L306.36 -371.094
L306.36 -371.094
L306.36 -371.094
L304.965 -369.264
L304.965 -369.264
L304.965 -369.264
L304.965 -369.264
L303.57 -367.351
L303.57 -367.351
L302.175 -365.358
L302.175 -365.358
L302.175 -365.358
L302.175 -365.358
L302.175 -365.358
L302.175 -365.358
L302.175 -365.358
L302.175 -365.358
L302.175 -365.358
L302.175 -365.358
L302.175 -365.358
L300.78 -363.286
L300.78 -363.286
L300.78 -363.286
L299.385 -361.136
L297.99 -358.91
L297.99 -358.91
L297.99 -358.91
L297.99 -358.91
L297.99 -358.91
L297.99 -358.91
L296.595 -356.609
L296.595 -356.609
L296.595 -356.609
L296.595 -356.609
L295.2 -354.235
L295.2 -354.235
L295.2 -354.235
L295.2 -354.235
L295.2 -354.235
L295.2 -354.235
L295.2 -354.235
L295.2 -354.235
L295.2 -354.235
L293.805 -351.791
L292.41 -349.276
L292.41 -349.276
L292.41 -349.276
L292.41 -349.276
L291.015 -346.693
L291.015 -346.693
L291.015 -346.693
L291.015 -346.693
L291.015 -346.693
L291.015 -346.693
L291.015 -346.693
L291.015 -346.693
L291.015 -346.693
L288.225 -341.331
L286.83 -338.555
L286.83 -338.555
L286.83 -338.555
L286.83 -338.555
L285.435 -335.718
L285.435 -335.718
L285.435 -335.718
L285.435 -335.718
L285.435 -335.718
L285.435 -335.718
L285.435 -335.718
L285.435 -335.718
L285.435 -335.718
L285.435 -335.718
L285.435 -335.718
L282.645 -329.869
L282.645 -329.869
L282.645 -329.869
L282.645 -329.869
L281.25 -326.86
L281.25 -326.86
L281.25 -326.86
L281.25 -326.86
L281.25 -326.86
L279.855 -323.798
L279.855 -323.798
L278.46 -320.683
L277.065 -317.519
L277.065 -317.519
L277.065 -317.519
L275.67 -314.307
L275.67 -314.307
L275.67 -314.307
L275.67 -314.307
L275.67 -314.307
L275.67 -314.307
L275.67 -314.307
L275.67 -314.307
L275.67 -314.307
L275.67 -314.307
L275.67 -314.307
L275.67 -314.307
L275.67 -314.307
L275.67 -314.307
L275.67 -314.307
L275.67 -314.307
L274.275 -311.049
L274.275 -311.049
L274.275 -311.049
L272.88 -307.746
L272.88 -307.746
L272.88 -307.746
L272.88 -307.746
L271.485 -304.401
L271.485 -304.401
L270.09 -301.016
L270.09 -301.016
L270.09 -301.016
L270.09 -301.016
L270.09 -301.016
L270.09 -301.016
L265.905 -290.636
L265.905 -290.636
L265.905 -290.636
L265.905 -290.636
L265.905 -290.636
L265.905 -290.636
L265.905 -290.636
L265.905 -290.636
L264.51 -287.107
L264.51 -287.107
L264.51 -287.107
L263.115 -283.547
L263.115 -283.547
L263.115 -283.547
L263.115 -283.547
L261.72 -279.958
L261.72 -279.958
L261.72 -279.958
L260.325 -276.342
L260.325 -276.342
L260.325 -276.342
L260.325 -276.342
L260.325 -276.342
L260.325 -276.342
L260.325 -276.342
L260.325 -276.342
L260.325 -276.342
L260.325 -276.342
L260.325 -276.342
L258.93 -272.7
L258.93 -272.7
L258.93 -272.7
L257.535 -269.034
L256.14 -265.347
L256.14 -265.347
L256.14 -265.347
L256.14 -265.347
L256.14 -265.347
L256.14 -265.347
L254.745 -261.639
L254.745 -261.639
L254.745 -261.639
L254.745 -261.639
L253.35 -257.913
L253.35 -257.913
L253.35 -257.913
L253.35 -257.913
L253.35 -257.913
L253.35 -257.913
L253.35 -257.913
L253.35 -257.913
L253.35 -257.913
L251.955 -254.17
L250.56 -250.413
L250.56 -250.413
L250.56 -250.413
L250.56 -250.413
L249.165 -246.643
L249.165 -246.643
L249.165 -246.643
L249.165 -246.643
L249.165 -246.643
L249.165 -246.643
L249.165 -246.643
L249.165 -246.643
L249.165 -246.643
L246.375 -239.07
L244.98 -235.271
L244.98 -235.271
L244.98 -235.271
L244.98 -235.271
L243.585 -231.466
L243.585 -231.466
L243.585 -231.466
L243.585 -231.466
L243.585 -231.466
L243.585 -231.466
L243.585 -231.466
L243.585 -231.466
L243.585 -231.466
L243.585 -231.466
L243.585 -231.466
L240.795 -223.844
L240.795 -223.844
L240.795 -223.844
L240.795 -223.844
L239.4 -220.031
L239.4 -220.031
L239.4 -220.031
L239.4 -220.031
L239.4 -220.031
L238.005 -216.219
L238.005 -216.219
L236.61 -212.409
L235.215 -208.602
L235.215 -208.602
L235.215 -208.602
L233.82 -204.802
L233.82 -204.802
L233.82 -204.802
L233.82 -204.802
L233.82 -204.802
L233.82 -204.802
L233.82 -204.802
L233.82 -204.802
L233.82 -204.802
L233.82 -204.802
L233.82 -204.802
L233.82 -204.802
L233.82 -204.802
L233.82 -204.802
L233.82 -204.802
L233.82 -204.802
L232.425 -201.008
L232.425 -201.008
L232.425 -201.008
L231.03 -197.224
L231.03 -197.224
L231.03 -197.224
L231.03 -197.224
L229.635 -193.45
L229.635 -193.45
L228.24 -189.688
L228.24 -189.688
L228.24 -189.688
L228.24 -189.688
L228.24 -189.688
L228.24 -189.688
L224.055 -178.49
L224.055 -178.49
L224.055 -178.49
L224.055 -178.49
L224.055 -178.49
L224.055 -178.49
L224.055 -178.49
L224.055 -178.49
L222.66 -174.793
L222.66 -174.793
L222.66 -174.793
L221.265 -171.116
L221.265 -171.116
L221.265 -171.116
L221.265 -171.116
L219.87 -167.461
L219.87 -167.461
L219.87 -167.461
L218.475 -163.829
L218.475 -163.829
L218.475 -163.829
L218.475 -163.829
L218.475 -163.829
L218.475 -163.829
L218.475 -163.829
L218.475 -163.829
L218.475 -163.829
L218.475 -163.829
L218.475 -163.829
L217.08 -160.223
L217.08 -160.223
L217.08 -160.223
L215.685 -156.643
L214.29 -153.092
L214.29 -153.092
L214.29 -153.092
L214.29 -153.092
L214.29 -153.092
L214.29 -153.092
L212.895 -149.571
L212.895 -149.571
L212.895 -149.571
L212.895 -149.571
L211.5 -146.083
L211.5 -146.083
L211.5 -146.083
L211.5 -146.083
L211.5 -146.083
L211.5 -146.083
L211.5 -146.083
L211.5 -146.083
L211.5 -146.083
L210.105 -142.628
L210.105 -142.628
L210.105 -142.628
L210.105 -142.628
L208.71 -139.209
L208.71 -139.209
L208.71 -139.209
L208.71 -139.209
L207.315 -135.827
L207.315 -135.827
L207.315 -135.827
L207.315 -135.827
L207.315 -135.827
L207.315 -135.827
L207.315 -135.827
L207.315 -135.827
L207.315 -135.827
L204.525 -129.182
L203.13 -125.924
L203.13 -125.924
L203.13 -125.924
L203.13 -125.924
L201.735 -122.71
L201.735 -122.71
L201.735 -122.71
L201.735 -122.71
L201.735 -122.71
L201.735 -122.71
L201.735 -122.71
L201.735 -122.71
L201.735 -122.71
L201.735 -122.71
L201.735 -122.71
L198.945 -116.426
L198.945 -116.426
L198.945 -116.426
L198.945 -116.426
L197.55 -113.359
L197.55 -113.359
L197.55 -113.359
L197.55 -113.359
L197.55 -113.359
L196.155 -110.346
L196.155 -110.346
L194.76 -107.388
L193.365 -104.488
L193.365 -104.488
L193.365 -104.488
L191.97 -101.647
L191.97 -101.647
L191.97 -101.647
L191.97 -101.647
L191.97 -101.647
L191.97 -101.647
L191.97 -101.647
L191.97 -101.647
L191.97 -101.647
L191.97 -101.647
L191.97 -101.647
L191.97 -101.647
L191.97 -101.647
L191.97 -101.647
L191.97 -101.647
L191.97 -101.647
L190.575 -98.8684
L190.575 -98.8684
L190.575 -98.8684
L189.18 -96.1544
L189.18 -96.1544
L189.18 -96.1544
L189.18 -96.1544
L187.785 -93.5073
L187.785 -93.5073
L186.39 -90.9297
L186.39 -90.9297
L186.39 -90.9297
L186.39 -90.9297
L186.39 -90.9297
L186.39 -90.9297
L182.205 -83.6383
L182.205 -83.6383
L182.205 -83.6383
L182.205 -83.6383
L182.205 -83.6383
L182.205 -83.6383
L182.205 -83.6383
L182.205 -83.6383
L180.81 -81.3638
L180.81 -81.3638
L180.81 -81.3638
L179.415 -79.1717
L179.415 -79.1717
L179.415 -79.1717
L179.415 -79.1717
L178.02 -77.0649
L178.02 -77.0649
L178.02 -77.0649
L176.625 -75.0459
L176.625 -75.0459
L176.625 -75.0459
L176.625 -75.0459
L176.625 -75.0459
L176.625 -75.0459
L176.625 -75.0459
L176.625 -75.0459
L176.625 -75.0459
L176.625 -75.0459
L176.625 -75.0459
L175.23 -73.1177
L175.23 -73.1177
L175.23 -73.1177
L173.835 -71.2831
L172.44 -69.545
L172.44 -69.545
L172.44 -69.545
L172.44 -69.545
L172.44 -69.545
L172.44 -69.545
L171.045 -67.906
L171.045 -67.906
L171.045 -67.906
L171.045 -67.906
L169.65 -66.3693
L169.65 -66.3693
L169.65 -66.3693
L169.65 -66.3693
L169.65 -66.3693
L169.65 -66.3693
L169.65 -66.3693
L169.65 -66.3693
L169.65 -66.3693
L168.255 -64.9374
L168.255 -64.9374
L168.255 -64.9374
L168.255 -64.9374
L166.86 -63.6134
L166.86 -63.6134
L166.86 -63.6134
L166.86 -63.6134
L165.465 -62.4
L165.465 -62.4
L165.465 -62.4
L165.465 -62.4
L165.465 -62.4
L165.465 -62.4
L165.465 -62.4
L165.465 -62.4
L165.465 -62.4
L162.675 -60.316
L161.28 -59.4508
L161.28 -59.4508
L161.28 -59.4508
L161.28 -59.4508
L159.885 -58.7068
L159.885 -58.7068
L159.885 -58.7068
L159.885 -58.7068
L159.885 -58.7068
L159.885 -58.7068
L159.885 -58.7068
L159.885 -58.7068
L159.885 -58.7068
L159.885 -58.7068
L159.885 -58.7068
L157.095 -57.5926
L157.095 -57.5926
L157.095 -57.5926
L157.095 -57.5926
L155.7 -57.2269
L155.7 -57.2269
L155.7 -57.2269
L155.7 -57.2269
L155.7 -57.2269
L154.305 -56.9917
L154.305 -56.9917
L152.91 -56.8888
L151.515 -56.9201
L151.515 -56.9201
L151.515 -56.9201
L150.12 -57.087
L150.12 -57.087
L150.12 -57.087
L150.12 -57.087
L150.12 -57.087
L150.12 -57.087
L150.12 -57.087
L150.12 -57.087
L150.12 -57.087
L150.12 -57.087
L150.12 -57.087
L150.12 -57.087
L150.12 -57.087
L150.12 -57.087
L150.12 -57.087
L150.12 -57.087
L148.725 -57.391
L148.725 -57.391
L148.725 -57.391
L147.33 -57.833
L147.33 -57.833
L147.33 -57.833
L147.33 -57.833
L145.935 -58.4138
L145.935 -58.4138
L144.54 -59.134
L144.54 -59.134
L144.54 -59.134
L144.54 -59.134
L144.54 -59.134
L144.54 -59.134
L140.355 -62.1315
L140.355 -62.1315
L140.355 -62.1315
L140.355 -62.1315
L140.355 -62.1315
L140.355 -62.1315
L140.355 -62.1315
L140.355 -62.1315
L138.96 -63.408
L138.96 -63.408
L138.96 -63.408
L137.565 -64.8215
L137.565 -64.8215
L137.565 -64.8215
L137.565 -64.8215
L136.17 -66.3703
L136.17 -66.3703
L136.17 -66.3703
L134.775 -68.0525
L134.775 -68.0525
L134.775 -68.0525
L134.775 -68.0525
L134.775 -68.0525
L134.775 -68.0525
L134.775 -68.0525
L134.775 -68.0525
L134.775 -68.0525
L134.775 -68.0525
L134.775 -68.0525
L133.38 -69.8657
L133.38 -69.8657
L133.38 -69.8657
L131.985 -71.8068
L130.59 -73.8728
L130.59 -73.8728
L130.59 -73.8728
L130.59 -73.8728
L130.59 -73.8728
L130.59 -73.8728
L129.195 -76.0598
L129.195 -76.0598
L129.195 -76.0598
L129.195 -76.0598
L127.8 -78.3637
L127.8 -78.3637
L127.8 -78.3637
L127.8 -78.3637
L127.8 -78.3637
L127.8 -78.3637
L127.8 -78.3637
L127.8 -78.3637
L127.8 -78.3637
L126.405 -80.7799
L126.405 -80.7799
L126.405 -80.7799
L126.405 -80.7799
L125.01 -83.3037
L125.01 -83.3037
L125.01 -83.3037
L125.01 -83.3037
L123.615 -85.9295
L123.615 -85.9295
L123.615 -85.9295
L123.615 -85.9295
L123.615 -85.9295
L123.615 -85.9295
L123.615 -85.9295
L123.615 -85.9295
L123.615 -85.9295
L120.825 -91.4651
L119.43 -94.3627
L119.43 -94.3627
L119.43 -94.3627
L119.43 -94.3627
L118.035 -97.3385
L118.035 -97.3385
L118.035 -97.3385
L118.035 -97.3385
L118.035 -97.3385
L118.035 -97.3385
L118.035 -97.3385
L118.035 -97.3385
L118.035 -97.3385
L118.035 -97.3385
L118.035 -97.3385
L115.245 -103.499
L115.245 -103.499
L115.245 -103.499
L115.245 -103.499
L113.85 -106.67
L113.85 -106.67
L113.85 -106.67
L113.85 -106.67
L113.85 -106.67
L112.455 -109.893
L112.455 -109.893
L111.06 -113.163
L109.665 -116.472
L109.665 -116.472
L109.665 -116.472
L108.27 -119.816
L108.27 -119.816
L108.27 -119.816
L108.27 -119.816
L108.27 -119.816
L108.27 -119.816
L108.27 -119.816
L108.27 -119.816
L108.27 -119.816
L108.27 -119.816
L108.27 -119.816
L108.27 -119.816
L108.27 -119.816
L108.27 -119.816
L108.27 -119.816
L108.27 -119.816
L106.875 -123.188
L106.875 -123.188
L106.875 -123.188
L105.48 -126.585
L105.48 -126.585
L105.48 -126.585
L105.48 -126.585
L104.085 -130.002
L104.085 -130.002
L102.69 -133.436
L102.69 -133.436
L102.69 -133.436
L102.69 -133.436
L102.69 -133.436
L102.69 -133.436
L98.505 -143.816
L98.505 -143.816
L98.505 -143.816
L98.505 -143.816
L98.505 -143.816
L98.505 -143.816
L98.505 -143.816
L98.505 -143.816
L97.11 -147.299
L97.11 -147.299
L97.11 -147.299
L95.715 -150.793
L95.715 -150.793
L95.715 -150.793
L95.715 -150.793
L94.32 -154.3
L94.32 -154.3
L94.32 -154.3
L92.925 -157.822
L92.925 -157.822
L92.925 -157.822
L92.925 -157.822
L92.925 -157.822
L92.925 -157.822
L92.925 -157.822
L92.925 -157.822
L92.925 -157.822
L92.925 -157.822
L92.925 -157.822
L91.53 -161.361
L91.53 -161.361
L91.53 -161.361
L90.135 -164.922
L88.74 -168.508
L88.74 -168.508
L88.74 -168.508
L88.74 -168.508
L88.74 -168.508
L88.74 -168.508
L87.345 -172.122
L87.345 -172.122
L87.345 -172.122
L87.345 -172.122
L85.95 -175.77
L85.95 -175.77
L85.95 -175.77
L85.95 -175.77
L85.95 -175.77
L85.95 -175.77
L85.95 -175.77
L85.95 -175.77
L85.95 -175.77
L84.555 -179.453
L84.555 -179.453
L84.555 -179.453
L84.555 -179.453
L83.16 -183.177
L83.16 -183.177
L83.16 -183.177
L83.16 -183.177
L81.765 -186.943
L81.765 -186.943
L81.765 -186.943
L81.765 -186.943
L81.765 -186.943
L81.765 -186.943
L81.765 -186.943
L81.765 -186.943
L81.765 -186.943
L78.975 -194.613
L77.58 -198.519
L77.58 -198.519
L77.58 -198.519
L77.58 -198.519
L76.185 -202.472
L76.185 -202.472
L76.185 -202.472
L76.185 -202.472
L76.185 -202.472
L76.185 -202.472
L76.185 -202.472
L76.185 -202.472
L76.185 -202.472
L76.185 -202.472
L76.185 -202.472
L73.395 -210.515
L73.395 -210.515
L73.395 -210.515
L73.395 -210.515
L72 -214.604
z
" id="C0_0_853863b133"/>
    </defs>
    <g clip-path="url(#p7ff5b81e1d)">
     <use style="fill:#0000ff;fill-opacity:0.1;stroke:#000000;stroke-opacity:0.1;" x="0.0" xlink:href="#C0_0_853863b133" y="432.0"/>
    </g>
   </g>
   <g id="line2d_1">
    <path clip-path="url(#p7ff5b81e1d)" d="
M72 217.396
L73.395 221.987
L73.395 221.987
L73.395 221.987
L73.395 221.987
L78.975 239.691
L84.555 256.341
L84.555 256.341
L90.135 272.074
L95.715 287.14
L95.715 287.14
L102.69 305.335
L102.69 305.335
L108.27 319.395
L108.27 319.395
L113.85 332.805
L113.85 332.805
L118.035 342.237
L118.035 342.237
L120.825 348.138
L125.01 356.29
L125.01 356.29
L127.8 361.195
L127.8 361.195
L130.59 365.633
L130.59 365.633
L133.38 369.572
L133.38 369.572
L136.17 372.989
L136.17 372.989
L138.96 375.864
L138.96 375.864
L140.355 377.094
L140.355 377.094
L144.54 379.951
L144.54 379.951
L145.935 380.625
L147.33 381.159
L147.33 381.159
L148.725 381.556
L148.725 381.556
L150.12 381.816
L150.12 381.816
L151.515 381.94
L151.515 381.94
L152.91 381.93
L154.305 381.788
L154.305 381.788
L155.7 381.516
L155.7 381.516
L157.095 381.116
L157.095 381.116
L159.885 379.94
L159.885 379.94
L162.675 378.281
L165.465 376.158
L165.465 376.158
L168.255 373.594
L168.255 373.594
L171.045 370.611
L171.045 370.611
L173.835 367.23
L176.625 363.474
L176.625 363.474
L179.415 359.365
L179.415 359.365
L182.205 354.923
L187.785 345.123
L191.97 337.047
L191.97 337.047
L196.155 328.416
L196.155 328.416
L198.945 322.383
L198.945 322.383
L204.525 309.717
L210.105 296.352
L210.105 296.352
L215.685 282.402
L222.66 264.31
L222.66 264.31
L231.03 241.91
L231.03 241.91
L260.325 162.669
L260.325 162.669
L265.905 148.339
L265.905 148.339
L272.88 131.19
L272.88 131.19
L278.46 118.23
L282.645 109.034
L288.225 97.5671
L292.41 89.6264
L292.41 89.6264
L296.595 82.3035
L296.595 82.3035
L299.385 77.7871
L302.175 73.5778
L302.175 73.5778
L304.965 69.6875
L304.965 69.6875
L307.755 66.1275
L307.755 66.1275
L311.94 61.4294
L311.94 61.4294
L314.73 58.7391
L314.73 58.7391
L317.52 56.4119
L317.52 56.4119
L320.31 54.4551
L323.1 52.875
L323.1 52.875
L324.495 52.2279
L324.495 52.2279
L327.285 51.2223
L327.285 51.2223
L330.075 50.6042
L332.865 50.3759
L332.865 50.3759
L335.655 50.5385
L338.445 51.0917
L338.445 51.0917
L341.235 52.0341
L344.025 53.3628
L344.025 53.3628
L346.815 55.0739
L346.815 55.0739
L349.605 57.1617
L349.605 57.1617
L353.79 60.9849
L353.79 60.9849
L356.58 63.9824
L356.58 63.9824
L359.37 67.3272
L359.37 67.3272
L362.16 71.0081
L364.95 75.0125
L364.95 75.0125
L366.345 77.1317
L370.53 83.935
L370.53 83.935
L374.715 91.3646
L374.715 91.3646
L378.9 99.3612
L378.9 99.3612
L383.085 107.861
L387.27 116.794
L387.27 116.794
L391.455 126.087
L399.825 145.447
L399.825 145.447
L419.355 191.359
L424.935 203.772
L429.12 212.652
L429.12 212.652
L433.305 221.076
L438.885 231.472
L438.885 231.472
L443.07 238.55
L443.07 238.55
L445.86 242.891
L448.65 246.908
L448.65 246.908
L450.045 248.79
L450.045 248.79
L454.23 253.906
L454.23 253.906
L455.625 255.429
L459.81 259.427
L462.6 261.602
L462.6 261.602
L465.39 263.373
L465.39 263.373
L468.18 264.731
L468.18 264.731
L470.97 265.668
L470.97 265.668
L473.76 266.18
L473.76 266.18
L475.155 266.274
L479.34 265.908
L479.34 265.908
L482.13 265.121
L482.13 265.121
L484.92 263.9
L484.92 263.9
L487.71 262.246
L490.5 260.162
L490.5 260.162
L491.895 258.96
L491.895 258.96
L494.685 256.242
L494.685 256.242
L497.475 253.107
L501.66 247.646
L504.45 243.512
L504.45 243.512
L507.24 238.997
L507.24 238.997
L510.03 234.113
L510.03 234.113
L512.82 228.875
L512.82 228.875
L515.61 223.298
L515.61 223.298
L518.4 217.396
L518.4 217.396" style="fill:none;stroke:#0000ff;stroke-linecap:square;"/>
   </g>
   <g id="line2d_2">
    <path clip-path="url(#p7ff5b81e1d)" d="
M72 217.396
L81.765 217.322
L84.555 217.079
L85.95 216.832
L87.345 216.462
L88.74 215.938
L90.135 215.227
L91.53 214.295
L92.925 213.113
L94.32 211.651
L95.715 209.886
L97.11 207.796
L98.505 205.367
L99.9 202.587
L101.295 199.453
L102.69 195.966
L104.085 192.131
L106.875 183.47
L109.665 173.621
L112.455 162.797
L116.64 145.311
L125.01 109.49
L127.8 98.3532
L130.59 88.0369
L133.38 78.7402
L136.17 70.6221
L137.565 67.0434
L138.96 63.8003
L140.355 60.9012
L141.75 58.3522
L143.145 56.1571
L144.54 54.3176
L145.935 52.8332
L147.33 51.7016
L148.725 50.9189
L150.12 50.4794
L151.515 50.3759
L152.91 50.6
L154.305 51.1422
L155.7 51.9917
L157.095 53.137
L158.49 54.5659
L159.885 56.2652
L161.28 58.2216
L162.675 60.4211
L165.465 65.4923
L168.255 71.3629
L171.045 77.9166
L173.835 85.0383
L178.02 96.5438
L183.6 112.878
L197.55 154.393
L201.735 166.106
L205.92 177.185
L210.105 187.523
L214.29 197.042
L217.08 202.907
L219.87 208.376
L222.66 213.445
L225.45 218.113
L228.24 222.382
L231.03 226.259
L233.82 229.752
L236.61 232.872
L239.4 235.631
L242.19 238.044
L244.98 240.127
L247.77 241.896
L250.56 243.369
L253.35 244.565
L256.14 245.502
L258.93 246.198
L261.72 246.673
L264.51 246.945
L267.3 247.032
L270.09 246.952
L274.275 246.557
L278.46 245.879
L282.645 244.972
L288.225 243.485
L295.2 241.32
L304.965 238.002
L318.915 233.267
L327.285 230.655
L334.26 228.676
L341.235 226.898
L348.21 225.327
L355.185 223.959
L363.555 222.57
L371.925 221.431
L380.295 220.511
L390.06 219.672
L401.22 218.962
L413.775 218.407
L429.12 217.975
L448.65 217.671
L476.55 217.486
L518.4 217.411
L518.4 217.411" style="fill:none;stroke:#008000;stroke-linecap:square;"/>
   </g>
   <g id="matplotlib.axis_1">
    <g id="xtick_1">
     <g id="line2d_3">
      <defs>
       <path d="
M0 0
L0 -4" id="m93b0483c22" style="stroke:#000000;stroke-width:0.5;"/>
      </defs>
      <g>
       <use style="stroke:#000000;stroke-width:0.5;" x="72.0" xlink:href="#m93b0483c22" y="388.8"/>
      </g>
     </g>
     <g id="line2d_4">
      <defs>
       <path d="
M0 0
L0 4" id="m741efc42ff" style="stroke:#000000;stroke-width:0.5;"/>
      </defs>
      <g>
       <use style="stroke:#000000;stroke-width:0.5;" x="72.0" xlink:href="#m741efc42ff" y="43.2"/>
      </g>
     </g>
     <g id="text_1">
      <!-- 0 -->
      <defs>
       <path d="
M31.7812 66.4062
Q24.1719 66.4062 20.3281 58.9062
Q16.5 51.4219 16.5 36.375
Q16.5 21.3906 20.3281 13.8906
Q24.1719 6.39062 31.7812 6.39062
Q39.4531 6.39062 43.2812 13.8906
Q47.125 21.3906 47.125 36.375
Q47.125 51.4219 43.2812 58.9062
Q39.4531 66.4062 31.7812 66.4062
M31.7812 74.2188
Q44.0469 74.2188 50.5156 64.5156
Q56.9844 54.8281 56.9844 36.375
Q56.9844 17.9688 50.5156 8.26562
Q44.0469 -1.42188 31.7812 -1.42188
Q19.5312 -1.42188 13.0625 8.26562
Q6.59375 17.9688 6.59375 36.375
Q6.59375 54.8281 13.0625 64.5156
Q19.5312 74.2188 31.7812 74.2188" id="DejaVuSans-30"/>
      </defs>
      <g transform="translate(68.9765625 401.918125)scale(0.12 -0.12)">
       <use xlink:href="#DejaVuSans-30"/>
      </g>
     </g>
    </g>
    <g id="xtick_2">
     <g id="line2d_5">
      <g>
       <use style="stroke:#000000;stroke-width:0.5;" x="141.75" xlink:href="#m93b0483c22" y="388.8"/>
      </g>
     </g>
     <g id="line2d_6">
      <g>
       <use style="stroke:#000000;stroke-width:0.5;" x="141.75" xlink:href="#m741efc42ff" y="43.2"/>
      </g>
     </g>
     <g id="text_2">
      <!-- 5 -->
      <defs>
       <path d="
M10.7969 72.9062
L49.5156 72.9062
L49.5156 64.5938
L19.8281 64.5938
L19.8281 46.7344
Q21.9688 47.4688 24.1094 47.8281
Q26.2656 48.1875 28.4219 48.1875
Q40.625 48.1875 47.75 41.5
Q54.8906 34.8125 54.8906 23.3906
Q54.8906 11.625 47.5625 5.09375
Q40.2344 -1.42188 26.9062 -1.42188
Q22.3125 -1.42188 17.5469 -0.640625
Q12.7969 0.140625 7.71875 1.70312
L7.71875 11.625
Q12.1094 9.23438 16.7969 8.0625
Q21.4844 6.89062 26.7031 6.89062
Q35.1562 6.89062 40.0781 11.3281
Q45.0156 15.7656 45.0156 23.3906
Q45.0156 31 40.0781 35.4375
Q35.1562 39.8906 26.7031 39.8906
Q22.75 39.8906 18.8125 39.0156
Q14.8906 38.1406 10.7969 36.2812
z
" id="DejaVuSans-35"/>
      </defs>
      <g transform="translate(138.9196875 401.918125)scale(0.12 -0.12)">
       <use xlink:href="#DejaVuSans-35"/>
      </g>
     </g>
    </g>
    <g id="xtick_3">
     <g id="line2d_7">
      <g>
       <use style="stroke:#000000;stroke-width:0.5;" x="211.5" xlink:href="#m93b0483c22" y="388.8"/>
      </g>
     </g>
     <g id="line2d_8">
      <g>
       <use style="stroke:#000000;stroke-width:0.5;" x="211.5" xlink:href="#m741efc42ff" y="43.2"/>
      </g>
     </g>
     <g id="text_3">
      <!-- 10 -->
      <defs>
       <path d="
M12.4062 8.29688
L28.5156 8.29688
L28.5156 63.9219
L10.9844 60.4062
L10.9844 69.3906
L28.4219 72.9062
L38.2812 72.9062
L38.2812 8.29688
L54.3906 8.29688
L54.3906 0
L12.4062 0
z
" id="DejaVuSans-31"/>
      </defs>
      <g transform="translate(204.9225 401.918125)scale(0.12 -0.12)">
       <use xlink:href="#DejaVuSans-31"/>
       <use x="63.623046875" xlink:href="#DejaVuSans-30"/>
      </g>
     </g>
    </g>
    <g id="xtick_4">
     <g id="line2d_9">
      <g>
       <use style="stroke:#000000;stroke-width:0.5;" x="281.25" xlink:href="#m93b0483c22" y="388.8"/>
      </g>
     </g>
     <g id="line2d_10">
      <g>
       <use style="stroke:#000000;stroke-width:0.5;" x="281.25" xlink:href="#m741efc42ff" y="43.2"/>
      </g>
     </g>
     <g id="text_4">
      <!-- 15 -->
      <g transform="translate(274.798125 401.918125)scale(0.12 -0.12)">
       <use xlink:href="#DejaVuSans-31"/>
       <use x="63.623046875" xlink:href="#DejaVuSans-35"/>
      </g>
     </g>
    </g>
    <g id="xtick_5">
     <g id="line2d_11">
      <g>
       <use style="stroke:#000000;stroke-width:0.5;" x="351.0" xlink:href="#m93b0483c22" y="388.8"/>
      </g>
     </g>
     <g id="line2d_12">
      <g>
       <use style="stroke:#000000;stroke-width:0.5;" x="351.0" xlink:href="#m741efc42ff" y="43.2"/>
      </g>
     </g>
     <g id="text_5">
      <!-- 20 -->
      <defs>
       <path d="
M19.1875 8.29688
L53.6094 8.29688
L53.6094 0
L7.32812 0
L7.32812 8.29688
Q12.9375 14.1094 22.625 23.8906
Q32.3281 33.6875 34.8125 36.5312
Q39.5469 41.8438 41.4219 45.5312
Q43.3125 49.2188 43.3125 52.7812
Q43.3125 58.5938 39.2344 62.25
Q35.1562 65.9219 28.6094 65.9219
Q23.9688 65.9219 18.8125 64.3125
Q13.6719 62.7031 7.8125 59.4219
L7.8125 69.3906
Q13.7656 71.7812 18.9375 73
Q24.125 74.2188 28.4219 74.2188
Q39.75 74.2188 46.4844 68.5469
Q53.2188 62.8906 53.2188 53.4219
Q53.2188 48.9219 51.5312 44.8906
Q49.8594 40.875 45.4062 35.4062
Q44.1875 33.9844 37.6406 27.2188
Q31.1094 20.4531 19.1875 8.29688" id="DejaVuSans-32"/>
      </defs>
      <g transform="translate(344.203125 401.918125)scale(0.12 -0.12)">
       <use xlink:href="#DejaVuSans-32"/>
       <use x="63.623046875" xlink:href="#DejaVuSans-30"/>
      </g>
     </g>
    </g>
    <g id="xtick_6">
     <g id="line2d_13">
      <g>
       <use style="stroke:#000000;stroke-width:0.5;" x="420.75" xlink:href="#m93b0483c22" y="388.8"/>
      </g>
     </g>
     <g id="line2d_14">
      <g>
       <use style="stroke:#000000;stroke-width:0.5;" x="420.75" xlink:href="#m741efc42ff" y="43.2"/>
      </g>
     </g>
     <g id="text_6">
      <!-- 25 -->
      <g transform="translate(414.07875 401.918125)scale(0.12 -0.12)">
       <use xlink:href="#DejaVuSans-32"/>
       <use x="63.623046875" xlink:href="#DejaVuSans-35"/>
      </g>
     </g>
    </g>
    <g id="xtick_7">
     <g id="line2d_15">
      <g>
       <use style="stroke:#000000;stroke-width:0.5;" x="490.5" xlink:href="#m93b0483c22" y="388.8"/>
      </g>
     </g>
     <g id="line2d_16">
      <g>
       <use style="stroke:#000000;stroke-width:0.5;" x="490.5" xlink:href="#m741efc42ff" y="43.2"/>
      </g>
     </g>
     <g id="text_7">
      <!-- 30 -->
      <defs>
       <path d="
M40.5781 39.3125
Q47.6562 37.7969 51.625 33
Q55.6094 28.2188 55.6094 21.1875
Q55.6094 10.4062 48.1875 4.48438
Q40.7656 -1.42188 27.0938 -1.42188
Q22.5156 -1.42188 17.6562 -0.515625
Q12.7969 0.390625 7.625 2.20312
L7.625 11.7188
Q11.7188 9.32812 16.5938 8.10938
Q21.4844 6.89062 26.8125 6.89062
Q36.0781 6.89062 40.9375 10.5469
Q45.7969 14.2031 45.7969 21.1875
Q45.7969 27.6406 41.2812 31.2656
Q36.7656 34.9062 28.7188 34.9062
L20.2188 34.9062
L20.2188 43.0156
L29.1094 43.0156
Q36.375 43.0156 40.2344 45.9219
Q44.0938 48.8281 44.0938 54.2969
Q44.0938 59.9062 40.1094 62.9062
Q36.1406 65.9219 28.7188 65.9219
Q24.6562 65.9219 20.0156 65.0312
Q15.375 64.1562 9.8125 62.3125
L9.8125 71.0938
Q15.4375 72.6562 20.3438 73.4375
Q25.25 74.2188 29.5938 74.2188
Q40.8281 74.2188 47.3594 69.1094
Q53.9062 64.0156 53.9062 55.3281
Q53.9062 49.2656 50.4375 45.0938
Q46.9688 40.9219 40.5781 39.3125" id="DejaVuSans-33"/>
      </defs>
      <g transform="translate(483.7209375 401.918125)scale(0.12 -0.12)">
       <use xlink:href="#DejaVuSans-33"/>
       <use x="63.623046875" xlink:href="#DejaVuSans-30"/>
      </g>
     </g>
    </g>
   </g>
   <g id="matplotlib.axis_2">
    <g id="ytick_1">
     <g id="line2d_17">
      <defs>
       <path d="
M0 0
L4 0" id="m728421d6d4" style="stroke:#000000;stroke-width:0.5;"/>
      </defs>
      <g>
       <use style="stroke:#000000;stroke-width:0.5;" x="72.0" xlink:href="#m728421d6d4" y="384.41649627"/>
      </g>
     </g>
     <g id="line2d_18">
      <defs>
       <path d="
M0 0
L-4 0" id="mcb0005524f" style="stroke:#000000;stroke-width:0.5;"/>
      </defs>
      <g>
       <use style="stroke:#000000;stroke-width:0.5;" x="518.4" xlink:href="#mcb0005524f" y="384.41649627"/>
      </g>
     </g>
     <g id="text_8">
      <!-- 1.0 -->
      <defs>
       <path d="
M10.6875 12.4062
L21 12.4062
L21 0
L10.6875 0
z
" id="DejaVuSans-2e"/>
       <path d="
M10.5938 35.5
L73.1875 35.5
L73.1875 27.2031
L10.5938 27.2031
z
" id="DejaVuSans-2212"/>
      </defs>
      <g transform="translate(40.92875 387.72774627)scale(0.12 -0.12)">
       <use xlink:href="#DejaVuSans-2212"/>
       <use x="83.7890625" xlink:href="#DejaVuSans-31"/>
       <use x="147.412109375" xlink:href="#DejaVuSans-2e"/>
       <use x="179.19921875" xlink:href="#DejaVuSans-30"/>
      </g>
     </g>
    </g>
    <g id="ytick_2">
     <g id="line2d_19">
      <g>
       <use style="stroke:#000000;stroke-width:0.5;" x="72.0" xlink:href="#m728421d6d4" y="300.906343175"/>
      </g>
     </g>
     <g id="line2d_20">
      <g>
       <use style="stroke:#000000;stroke-width:0.5;" x="518.4" xlink:href="#mcb0005524f" y="300.906343175"/>
      </g>
     </g>
     <g id="text_9">
      <!-- 0.5 -->
      <g transform="translate(41.18 304.217593175)scale(0.12 -0.12)">
       <use xlink:href="#DejaVuSans-2212"/>
       <use x="83.7890625" xlink:href="#DejaVuSans-30"/>
       <use x="147.412109375" xlink:href="#DejaVuSans-2e"/>
       <use x="179.19921875" xlink:href="#DejaVuSans-35"/>
      </g>
     </g>
    </g>
    <g id="ytick_3">
     <g id="line2d_21">
      <g>
       <use style="stroke:#000000;stroke-width:0.5;" x="72.0" xlink:href="#m728421d6d4" y="217.39619008"/>
      </g>
     </g>
     <g id="line2d_22">
      <g>
       <use style="stroke:#000000;stroke-width:0.5;" x="518.4" xlink:href="#mcb0005524f" y="217.39619008"/>
      </g>
     </g>
     <g id="text_10">
      <!-- 0.0 -->
      <g transform="translate(50.504375 220.70744008)scale(0.12 -0.12)">
       <use xlink:href="#DejaVuSans-30"/>
       <use x="63.623046875" xlink:href="#DejaVuSans-2e"/>
       <use x="95.41015625" xlink:href="#DejaVuSans-30"/>
      </g>
     </g>
    </g>
    <g id="ytick_4">
     <g id="line2d_23">
      <g>
       <use style="stroke:#000000;stroke-width:0.5;" x="72.0" xlink:href="#m728421d6d4" y="133.886036985"/>
      </g>
     </g>
     <g id="line2d_24">
      <g>
       <use style="stroke:#000000;stroke-width:0.5;" x="518.4" xlink:href="#mcb0005524f" y="133.886036985"/>
      </g>
     </g>
     <g id="text_11">
      <!-- 0.5 -->
      <g transform="translate(50.755625 137.197286985)scale(0.12 -0.12)">
       <use xlink:href="#DejaVuSans-30"/>
       <use x="63.623046875" xlink:href="#DejaVuSans-2e"/>
       <use x="95.41015625" xlink:href="#DejaVuSans-35"/>
      </g>
     </g>
    </g>
    <g id="ytick_5">
     <g id="line2d_25">
      <g>
       <use style="stroke:#000000;stroke-width:0.5;" x="72.0" xlink:href="#m728421d6d4" y="50.3758838905"/>
      </g>
     </g>
     <g id="line2d_26">
      <g>
       <use style="stroke:#000000;stroke-width:0.5;" x="518.4" xlink:href="#mcb0005524f" y="50.3758838905"/>
      </g>
     </g>
     <g id="text_12">
      <!-- 1.0 -->
      <g transform="translate(51.03125 53.6871338905)scale(0.12 -0.12)">
       <use xlink:href="#DejaVuSans-31"/>
       <use x="63.623046875" xlink:href="#DejaVuSans-2e"/>
       <use x="95.41015625" xlink:href="#DejaVuSans-30"/>
      </g>
     </g>
    </g>
   </g>
   <g id="patch_3">
    <path d="
M72 43.2
L518.4 43.2" style="fill:none;stroke:#000000;"/>
   </g>
   <g id="patch_4">
    <path d="
M518.4 388.8
L518.4 43.2" style="fill:none;stroke:#000000;"/>
   </g>
   <g id="patch_5">
    <path d="
M72 388.8
L518.4 388.8" style="fill:none;stroke:#000000;"/>
   </g>
   <g id="patch_6">
    <path d="
M72 388.8
L72 43.2" style="fill:none;stroke:#000000;"/>
   </g>
   <g id="legend_1">
    <g id="patch_7">
     <path d="
M354.157 96.9045
L511.2 96.9045
L511.2 50.4
L354.157 50.4
L354.157 96.9045
z
" style="fill:#ffffff;stroke:#000000;"/>
    </g>
    <g id="line2d_27">
     <path d="
M364.237 62.0617
L384.397 62.0617" style="fill:none;stroke:#0000ff;stroke-linecap:square;"/>
    </g>
    <g id="line2d_28"/>
    <g id="text_13">
     <!-- estimated HRF -->
     <defs>
      <path d="
M52 44.1875
Q55.375 50.25 60.0625 53.125
Q64.75 56 71.0938 56
Q79.6406 56 84.2812 50.0156
Q88.9219 44.0469 88.9219 33.0156
L88.9219 0
L79.8906 0
L79.8906 32.7188
Q79.8906 40.5781 77.0938 44.375
Q74.3125 48.1875 68.6094 48.1875
Q61.625 48.1875 57.5625 43.5469
Q53.5156 38.9219 53.5156 30.9062
L53.5156 0
L44.4844 0
L44.4844 32.7188
Q44.4844 40.625 41.7031 44.4062
Q38.9219 48.1875 33.1094 48.1875
Q26.2188 48.1875 22.1562 43.5312
Q18.1094 38.875 18.1094 30.9062
L18.1094 0
L9.07812 0
L9.07812 54.6875
L18.1094 54.6875
L18.1094 46.1875
Q21.1875 51.2188 25.4844 53.6094
Q29.7812 56 35.6875 56
Q41.6562 56 45.8281 52.9688
Q50 49.9531 52 44.1875" id="DejaVuSans-6d"/>
      <path d="
M44.3906 34.1875
Q47.5625 33.1094 50.5625 29.5938
Q53.5625 26.0781 56.5938 19.9219
L66.6094 0
L56 0
L46.6875 18.7031
Q43.0625 26.0312 39.6719 28.4219
Q36.2812 30.8125 30.4219 30.8125
L19.6719 30.8125
L19.6719 0
L9.8125 0
L9.8125 72.9062
L32.0781 72.9062
Q44.5781 72.9062 50.7344 67.6719
Q56.8906 62.4531 56.8906 51.9062
Q56.8906 45.0156 53.6875 40.4688
Q50.4844 35.9375 44.3906 34.1875
M19.6719 64.7969
L19.6719 38.9219
L32.0781 38.9219
Q39.2031 38.9219 42.8438 42.2188
Q46.4844 45.5156 46.4844 51.9062
Q46.4844 58.2969 42.8438 61.5469
Q39.2031 64.7969 32.0781 64.7969
z
" id="DejaVuSans-52"/>
      <path d="
M9.8125 72.9062
L51.7031 72.9062
L51.7031 64.5938
L19.6719 64.5938
L19.6719 43.1094
L48.5781 43.1094
L48.5781 34.8125
L19.6719 34.8125
L19.6719 0
L9.8125 0
z
" id="DejaVuSans-46"/>
      <path id="DejaVuSans-20"/>
      <path d="
M9.42188 54.6875
L18.4062 54.6875
L18.4062 0
L9.42188 0
z

M9.42188 75.9844
L18.4062 75.9844
L18.4062 64.5938
L9.42188 64.5938
z
" id="DejaVuSans-69"/>
      <path d="
M18.3125 70.2188
L18.3125 54.6875
L36.8125 54.6875
L36.8125 47.7031
L18.3125 47.7031
L18.3125 18.0156
Q18.3125 11.3281 20.1406 9.42188
Q21.9688 7.51562 27.5938 7.51562
L36.8125 7.51562
L36.8125 0
L27.5938 0
Q17.1875 0 13.2344 3.875
Q9.28125 7.76562 9.28125 18.0156
L9.28125 47.7031
L2.6875 47.7031
L2.6875 54.6875
L9.28125 54.6875
L9.28125 70.2188
z
" id="DejaVuSans-74"/>
      <path d="
M45.4062 46.3906
L45.4062 75.9844
L54.3906 75.9844
L54.3906 0
L45.4062 0
L45.4062 8.20312
Q42.5781 3.32812 38.25 0.953125
Q33.9375 -1.42188 27.875 -1.42188
Q17.9688 -1.42188 11.7344 6.48438
Q5.51562 14.4062 5.51562 27.2969
Q5.51562 40.1875 11.7344 48.0938
Q17.9688 56 27.875 56
Q33.9375 56 38.25 53.625
Q42.5781 51.2656 45.4062 46.3906
M14.7969 27.2969
Q14.7969 17.3906 18.875 11.75
Q22.9531 6.10938 30.0781 6.10938
Q37.2031 6.10938 41.2969 11.75
Q45.4062 17.3906 45.4062 27.2969
Q45.4062 37.2031 41.2969 42.8438
Q37.2031 48.4844 30.0781 48.4844
Q22.9531 48.4844 18.875 42.8438
Q14.7969 37.2031 14.7969 27.2969" id="DejaVuSans-64"/>
      <path d="
M56.2031 29.5938
L56.2031 25.2031
L14.8906 25.2031
Q15.4844 15.9219 20.4844 11.0625
Q25.4844 6.20312 34.4219 6.20312
Q39.5938 6.20312 44.4531 7.46875
Q49.3125 8.73438 54.1094 11.2812
L54.1094 2.78125
Q49.2656 0.734375 44.1875 -0.34375
Q39.1094 -1.42188 33.8906 -1.42188
Q20.7969 -1.42188 13.1562 6.1875
Q5.51562 13.8125 5.51562 26.8125
Q5.51562 40.2344 12.7656 48.1094
Q20.0156 56 32.3281 56
Q43.3594 56 49.7812 48.8906
Q56.2031 41.7969 56.2031 29.5938
M47.2188 32.2344
Q47.125 39.5938 43.0938 43.9844
Q39.0625 48.3906 32.4219 48.3906
Q24.9062 48.3906 20.3906 44.1406
Q15.875 39.8906 15.1875 32.1719
z
" id="DejaVuSans-65"/>
      <path d="
M9.8125 72.9062
L19.6719 72.9062
L19.6719 43.0156
L55.5156 43.0156
L55.5156 72.9062
L65.375 72.9062
L65.375 0
L55.5156 0
L55.5156 34.7188
L19.6719 34.7188
L19.6719 0
L9.8125 0
z
" id="DejaVuSans-48"/>
      <path d="
M44.2812 53.0781
L44.2812 44.5781
Q40.4844 46.5312 36.375 47.5
Q32.2812 48.4844 27.875 48.4844
Q21.1875 48.4844 17.8438 46.4375
Q14.5 44.3906 14.5 40.2812
Q14.5 37.1562 16.8906 35.375
Q19.2812 33.5938 26.5156 31.9844
L29.5938 31.2969
Q39.1562 29.25 43.1875 25.5156
Q47.2188 21.7812 47.2188 15.0938
Q47.2188 7.46875 41.1875 3.01562
Q35.1562 -1.42188 24.6094 -1.42188
Q20.2188 -1.42188 15.4531 -0.5625
Q10.6875 0.296875 5.42188 2
L5.42188 11.2812
Q10.4062 8.6875 15.2344 7.39062
Q20.0625 6.10938 24.8125 6.10938
Q31.1562 6.10938 34.5625 8.28125
Q37.9844 10.4531 37.9844 14.4062
Q37.9844 18.0625 35.5156 20.0156
Q33.0625 21.9688 24.7031 23.7812
L21.5781 24.5156
Q13.2344 26.2656 9.51562 29.9062
Q5.8125 33.5469 5.8125 39.8906
Q5.8125 47.6094 11.2812 51.7969
Q16.75 56 26.8125 56
Q31.7812 56 36.1719 55.2656
Q40.5781 54.5469 44.2812 53.0781" id="DejaVuSans-73"/>
      <path d="
M34.2812 27.4844
Q23.3906 27.4844 19.1875 25
Q14.9844 22.5156 14.9844 16.5
Q14.9844 11.7188 18.1406 8.90625
Q21.2969 6.10938 26.7031 6.10938
Q34.1875 6.10938 38.7031 11.4062
Q43.2188 16.7031 43.2188 25.4844
L43.2188 27.4844
z

M52.2031 31.2031
L52.2031 0
L43.2188 0
L43.2188 8.29688
Q40.1406 3.32812 35.5469 0.953125
Q30.9531 -1.42188 24.3125 -1.42188
Q15.9219 -1.42188 10.9531 3.29688
Q6 8.01562 6 15.9219
Q6 25.1406 12.1719 29.8281
Q18.3594 34.5156 30.6094 34.5156
L43.2188 34.5156
L43.2188 35.4062
Q43.2188 41.6094 39.1406 45
Q35.0625 48.3906 27.6875 48.3906
Q23 48.3906 18.5469 47.2656
Q14.1094 46.1406 10.0156 43.8906
L10.0156 52.2031
Q14.9375 54.1094 19.5781 55.0469
Q24.2188 56 28.6094 56
Q40.4844 56 46.3438 49.8438
Q52.2031 43.7031 52.2031 31.2031" id="DejaVuSans-61"/>
     </defs>
     <g transform="translate(400.236875 67.10175)scale(0.144 -0.144)">
      <use xlink:href="#DejaVuSans-65"/>
      <use x="61.5234375" xlink:href="#DejaVuSans-73"/>
      <use x="113.623046875" xlink:href="#DejaVuSans-74"/>
      <use x="152.83203125" xlink:href="#DejaVuSans-69"/>
      <use x="180.615234375" xlink:href="#DejaVuSans-6d"/>
      <use x="278.02734375" xlink:href="#DejaVuSans-61"/>
      <use x="339.306640625" xlink:href="#DejaVuSans-74"/>
      <use x="378.515625" xlink:href="#DejaVuSans-65"/>
      <use x="440.0390625" xlink:href="#DejaVuSans-64"/>
      <use x="503.515625" xlink:href="#DejaVuSans-20"/>
      <use x="535.302734375" xlink:href="#DejaVuSans-48"/>
      <use x="610.498046875" xlink:href="#DejaVuSans-52"/>
      <use x="679.98046875" xlink:href="#DejaVuSans-46"/>
     </g>
    </g>
    <g id="line2d_29">
     <path d="
M364.237 83.1983
L384.397 83.1983" style="fill:none;stroke:#008000;stroke-linecap:square;"/>
    </g>
    <g id="line2d_30"/>
    <g id="text_14">
     <!-- glover HRF -->
     <defs>
      <path d="
M30.6094 48.3906
Q23.3906 48.3906 19.1875 42.75
Q14.9844 37.1094 14.9844 27.2969
Q14.9844 17.4844 19.1562 11.8438
Q23.3438 6.20312 30.6094 6.20312
Q37.7969 6.20312 41.9844 11.8594
Q46.1875 17.5312 46.1875 27.2969
Q46.1875 37.0156 41.9844 42.7031
Q37.7969 48.3906 30.6094 48.3906
M30.6094 56
Q42.3281 56 49.0156 48.375
Q55.7188 40.7656 55.7188 27.2969
Q55.7188 13.875 49.0156 6.21875
Q42.3281 -1.42188 30.6094 -1.42188
Q18.8438 -1.42188 12.1719 6.21875
Q5.51562 13.875 5.51562 27.2969
Q5.51562 40.7656 12.1719 48.375
Q18.8438 56 30.6094 56" id="DejaVuSans-6f"/>
      <path d="
M45.4062 27.9844
Q45.4062 37.75 41.375 43.1094
Q37.3594 48.4844 30.0781 48.4844
Q22.8594 48.4844 18.8281 43.1094
Q14.7969 37.75 14.7969 27.9844
Q14.7969 18.2656 18.8281 12.8906
Q22.8594 7.51562 30.0781 7.51562
Q37.3594 7.51562 41.375 12.8906
Q45.4062 18.2656 45.4062 27.9844
M54.3906 6.78125
Q54.3906 -7.17188 48.1875 -13.9844
Q42 -20.7969 29.2031 -20.7969
Q24.4688 -20.7969 20.2656 -20.0938
Q16.0625 -19.3906 12.1094 -17.9219
L12.1094 -9.1875
Q16.0625 -11.3281 19.9219 -12.3438
Q23.7812 -13.375 27.7812 -13.375
Q36.625 -13.375 41.0156 -8.76562
Q45.4062 -4.15625 45.4062 5.17188
L45.4062 9.625
Q42.625 4.78125 38.2812 2.39062
Q33.9375 0 27.875 0
Q17.8281 0 11.6719 7.65625
Q5.51562 15.3281 5.51562 27.9844
Q5.51562 40.6719 11.6719 48.3281
Q17.8281 56 27.875 56
Q33.9375 56 38.2812 53.6094
Q42.625 51.2188 45.4062 46.3906
L45.4062 54.6875
L54.3906 54.6875
z
" id="DejaVuSans-67"/>
      <path d="
M2.98438 54.6875
L12.5 54.6875
L29.5938 8.79688
L46.6875 54.6875
L56.2031 54.6875
L35.6875 0
L23.4844 0
z
" id="DejaVuSans-76"/>
      <path d="
M9.42188 75.9844
L18.4062 75.9844
L18.4062 0
L9.42188 0
z
" id="DejaVuSans-6c"/>
      <path d="
M41.1094 46.2969
Q39.5938 47.1719 37.8125 47.5781
Q36.0312 48 33.8906 48
Q26.2656 48 22.1875 43.0469
Q18.1094 38.0938 18.1094 28.8125
L18.1094 0
L9.07812 0
L9.07812 54.6875
L18.1094 54.6875
L18.1094 46.1875
Q20.9531 51.1719 25.4844 53.5781
Q30.0312 56 36.5312 56
Q37.4531 56 38.5781 55.875
Q39.7031 55.7656 41.0625 55.5156
z
" id="DejaVuSans-72"/>
     </defs>
     <g transform="translate(400.236875 88.23825)scale(0.144 -0.144)">
      <use xlink:href="#DejaVuSans-67"/>
      <use x="63.4765625" xlink:href="#DejaVuSans-6c"/>
      <use x="91.259765625" xlink:href="#DejaVuSans-6f"/>
      <use x="152.44140625" xlink:href="#DejaVuSans-76"/>
      <use x="211.62109375" xlink:href="#DejaVuSans-65"/>
      <use x="273.14453125" xlink:href="#DejaVuSans-72"/>
      <use x="314.2578125" xlink:href="#DejaVuSans-20"/>
      <use x="346.044921875" xlink:href="#DejaVuSans-48"/>
      <use x="421.240234375" xlink:href="#DejaVuSans-52"/>
      <use x="490.72265625" xlink:href="#DejaVuSans-46"/>
     </g>
    </g>
   </g>
  </g>
 </g>
 <defs>
  <clipPath id="p7ff5b81e1d">
   <rect height="345.6" width="446.4" x="72.0" y="43.2"/>
  </clipPath>
 </defs>
</svg>
