<?xml version="1.0" encoding="utf-8" standalone="no"?>
<!DOCTYPE svg PUBLIC "-//W3C//DTD SVG 1.1//EN"
  "http://www.w3.org/Graphics/SVG/1.1/DTD/svg11.dtd">
<!-- Created with matplotlib (http://matplotlib.org/) -->
<svg height="288pt" version="1.1" viewBox="0 0 432 288" width="432pt" xmlns="http://www.w3.org/2000/svg" xmlns:xlink="http://www.w3.org/1999/xlink">
 <defs>
  <style type="text/css">
*{stroke-linecap:butt;stroke-linejoin:round;}
  </style>
 </defs>
 <g id="figure_1">
  <g id="patch_1">
   <path d="
M0 288
L432 288
L432 0
L0 0
z
" style="fill:#ffffff;"/>
  </g>
  <g id="axes_1">
   <g id="patch_2">
    <path d="
M54 252
L388.8 252
L388.8 28.8
L54 28.8
z
" style="fill:#ffffff;"/>
   </g>
   <g id="PolyCollection_1">
    <defs>
     <path d="
M54 -143.877
L54 -143.877
L55.0463 -147.583
L55.0463 -147.583
L55.0463 -147.583
L55.0463 -147.583
L57.1387 -154.87
L57.1388 -154.87
L57.1388 -154.87
L57.1388 -154.87
L57.1388 -154.87
L57.1388 -154.87
L57.1388 -154.87
L57.1388 -154.87
L57.1388 -154.87
L57.1388 -154.87
L57.1388 -154.87
L58.185 -158.437
L58.185 -158.437
L58.185 -158.437
L58.185 -158.437
L59.2313 -161.941
L61.3237 -168.709
L61.3237 -168.709
L61.3237 -168.709
L61.3237 -168.709
L61.3237 -168.709
L61.3237 -168.709
L61.3237 -168.709
L61.3237 -168.709
L61.3237 -168.709
L62.37 -171.938
L62.37 -171.938
L62.37 -171.938
L62.37 -171.938
L63.4162 -175.035
L63.4162 -175.035
L63.4162 -175.035
L63.4163 -175.035
L64.4625 -177.975
L64.4625 -177.975
L64.4625 -177.975
L64.4625 -177.975
L64.4625 -177.975
L64.4625 -177.975
L64.4625 -177.975
L64.4625 -177.975
L64.4625 -177.975
L65.5088 -180.73
L65.5088 -180.73
L65.5088 -180.73
L65.5088 -180.73
L66.555 -183.273
L66.555 -183.273
L66.555 -183.273
L66.555 -183.273
L66.555 -183.273
L66.555 -183.273
L67.6012 -185.574
L68.6475 -187.605
L68.6475 -187.605
L68.6475 -187.605
L69.6937 -189.337
L69.6937 -189.337
L69.6937 -189.337
L69.6937 -189.337
L69.6937 -189.337
L69.6937 -189.337
L69.6937 -189.337
L69.6937 -189.337
L69.6937 -189.337
L69.6937 -189.337
L69.6937 -189.337
L70.74 -190.747
L70.74 -190.747
L70.74 -190.747
L71.7862 -191.812
L71.7863 -191.812
L71.7863 -191.812
L71.7863 -191.812
L72.8325 -192.514
L72.8325 -192.514
L72.8325 -192.514
L73.8787 -192.836
L73.8787 -192.836
L73.8787 -192.836
L73.8787 -192.836
L73.8787 -192.836
L73.8787 -192.836
L73.8787 -192.836
L73.8788 -192.836
L77.0175 -191.443
L77.0175 -191.443
L77.0175 -191.443
L77.0175 -191.443
L77.0175 -191.443
L77.0175 -191.443
L78.0637 -190.183
L78.0638 -190.183
L79.11 -188.531
L79.11 -188.531
L79.11 -188.531
L79.11 -188.531
L80.1562 -186.498
L80.1562 -186.498
L80.1562 -186.498
L81.2025 -184.097
L81.2025 -184.097
L81.2025 -184.097
L81.2025 -184.097
L81.2025 -184.097
L81.2025 -184.097
L81.2025 -184.097
L81.2025 -184.097
L81.2025 -184.097
L81.2025 -184.097
L81.2025 -184.097
L81.2025 -184.097
L81.2025 -184.097
L81.2025 -184.097
L81.2025 -184.097
L81.2025 -184.097
L82.2487 -181.344
L82.2487 -181.344
L82.2488 -181.344
L83.295 -178.259
L84.3413 -174.863
L84.3413 -174.863
L85.3875 -171.181
L85.3875 -171.181
L85.3875 -171.181
L85.3875 -171.181
L85.3875 -171.181
L86.4338 -167.238
L86.4338 -167.238
L86.4338 -167.238
L86.4338 -167.238
L88.5262 -158.676
L88.5263 -158.676
L88.5263 -158.676
L88.5263 -158.676
L88.5263 -158.676
L88.5263 -158.676
L88.5263 -158.676
L88.5263 -158.676
L88.5263 -158.676
L88.5263 -158.676
L88.5263 -158.676
L89.5725 -154.114
L89.5725 -154.114
L89.5725 -154.114
L89.5725 -154.114
L90.6188 -149.402
L92.7112 -139.641
L92.7112 -139.641
L92.7112 -139.641
L92.7112 -139.641
L92.7112 -139.641
L92.7112 -139.641
L92.7112 -139.641
L92.7112 -139.641
L92.7112 -139.641
L93.7575 -134.647
L93.7575 -134.647
L93.7575 -134.647
L93.7575 -134.647
L94.8037 -129.613
L94.8037 -129.613
L94.8037 -129.613
L94.8038 -129.613
L95.85 -124.564
L95.85 -124.564
L95.85 -124.564
L95.85 -124.564
L95.85 -124.564
L95.85 -124.564
L95.85 -124.564
L95.85 -124.564
L95.85 -124.564
L96.8963 -119.524
L96.8963 -119.524
L96.8963 -119.524
L96.8963 -119.524
L97.9425 -114.516
L97.9425 -114.516
L97.9425 -114.516
L97.9425 -114.516
L97.9425 -114.516
L97.9425 -114.516
L98.9887 -109.561
L100.035 -104.68
L100.035 -104.68
L100.035 -104.68
L101.081 -99.8899
L101.081 -99.8899
L101.081 -99.8899
L101.081 -99.8899
L101.081 -99.8899
L101.081 -99.8899
L101.081 -99.8899
L101.081 -99.8899
L101.081 -99.8899
L101.081 -99.8899
L101.081 -99.8899
L102.128 -95.2083
L102.128 -95.2083
L102.128 -95.2083
L103.174 -90.6503
L103.174 -90.6503
L103.174 -90.6503
L103.174 -90.6503
L104.22 -86.2297
L104.22 -86.2297
L104.22 -86.2297
L105.266 -81.9588
L105.266 -81.9588
L105.266 -81.9588
L105.266 -81.9588
L105.266 -81.9588
L105.266 -81.9588
L105.266 -81.9588
L105.266 -81.9588
L108.405 -70.146
L108.405 -70.146
L108.405 -70.146
L108.405 -70.146
L108.405 -70.146
L108.405 -70.146
L109.451 -66.5687
L109.451 -66.5687
L110.497 -63.182
L110.498 -63.182
L110.498 -63.182
L110.498 -63.182
L111.544 -59.9905
L111.544 -59.9905
L111.544 -59.9905
L112.59 -56.9975
L112.59 -56.9975
L112.59 -56.9975
L112.59 -56.9975
L112.59 -56.9975
L112.59 -56.9975
L112.59 -56.9975
L112.59 -56.9975
L112.59 -56.9975
L112.59 -56.9975
L112.59 -56.9975
L112.59 -56.9975
L112.59 -56.9975
L112.59 -56.9975
L112.59 -56.9975
L112.59 -56.9975
L113.636 -54.2057
L113.636 -54.2057
L113.636 -54.2057
L114.682 -51.6167
L115.729 -49.2314
L115.729 -49.2314
L116.775 -47.0497
L116.775 -47.0497
L116.775 -47.0497
L116.775 -47.0497
L116.775 -47.0497
L117.821 -45.0712
L117.821 -45.0712
L117.821 -45.0712
L117.821 -45.0712
L119.914 -41.7186
L119.914 -41.7186
L119.914 -41.7186
L119.914 -41.7186
L119.914 -41.7186
L119.914 -41.7186
L119.914 -41.7186
L119.914 -41.7186
L119.914 -41.7186
L119.914 -41.7186
L119.914 -41.7186
L120.96 -40.3407
L120.96 -40.3407
L120.96 -40.3407
L120.96 -40.3407
L122.006 -39.1585
L124.099 -37.3698
L124.099 -37.3698
L124.099 -37.3698
L124.099 -37.3698
L124.099 -37.3698
L124.099 -37.3698
L124.099 -37.3698
L124.099 -37.3698
L124.099 -37.3698
L125.145 -36.7568
L125.145 -36.7568
L125.145 -36.7568
L125.145 -36.7568
L126.191 -36.3266
L126.191 -36.3266
L126.191 -36.3266
L126.191 -36.3266
L127.237 -36.0756
L127.237 -36.0756
L127.237 -36.0756
L127.237 -36.0756
L127.237 -36.0756
L127.237 -36.0756
L127.237 -36.0756
L127.237 -36.0756
L127.237 -36.0756
L128.284 -36
L128.284 -36
L128.284 -36
L128.284 -36
L129.33 -36.0959
L129.33 -36.0959
L129.33 -36.0959
L129.33 -36.0959
L129.33 -36.0959
L129.33 -36.0959
L130.376 -36.3593
L131.423 -36.7863
L131.423 -36.7863
L131.423 -36.7863
L132.469 -37.3728
L132.469 -37.3728
L132.469 -37.3728
L132.469 -37.3728
L132.469 -37.3728
L132.469 -37.3728
L132.469 -37.3728
L132.469 -37.3728
L132.469 -37.3728
L132.469 -37.3728
L132.469 -37.3728
L133.515 -38.1149
L133.515 -38.1149
L133.515 -38.1149
L134.561 -39.0087
L134.561 -39.0087
L134.561 -39.0087
L134.561 -39.0087
L135.608 -40.0501
L135.608 -40.0501
L135.608 -40.0501
L136.654 -41.2354
L136.654 -41.2354
L136.654 -41.2354
L136.654 -41.2354
L136.654 -41.2354
L136.654 -41.2354
L136.654 -41.2354
L136.654 -41.2354
L139.792 -45.6155
L139.792 -45.6155
L139.792 -45.6155
L139.792 -45.6155
L139.792 -45.6155
L139.792 -45.6155
L140.839 -47.3379
L140.839 -47.3379
L141.885 -49.1852
L141.885 -49.1852
L141.885 -49.1852
L141.885 -49.1852
L142.931 -51.1539
L142.931 -51.1539
L142.931 -51.1539
L143.977 -53.2404
L143.977 -53.2404
L143.977 -53.2404
L143.977 -53.2404
L143.977 -53.2404
L143.978 -53.2404
L143.978 -53.2404
L143.978 -53.2404
L143.978 -53.2404
L143.978 -53.2404
L143.978 -53.2404
L143.978 -53.2404
L143.978 -53.2404
L143.978 -53.2404
L143.978 -53.2404
L143.978 -53.2404
L145.024 -55.4411
L145.024 -55.4411
L145.024 -55.4411
L146.07 -57.7526
L147.116 -60.1712
L147.116 -60.1712
L148.163 -62.6936
L148.163 -62.6936
L148.163 -62.6936
L148.163 -62.6936
L148.163 -62.6936
L149.209 -65.3162
L149.209 -65.3162
L149.209 -65.3162
L149.209 -65.3162
L151.301 -70.8482
L151.301 -70.8482
L151.301 -70.8482
L151.301 -70.8482
L151.301 -70.8482
L151.301 -70.8482
L151.301 -70.8482
L151.301 -70.8482
L151.301 -70.8482
L151.301 -70.8482
L151.301 -70.8482
L152.347 -73.7505
L152.347 -73.7505
L152.347 -73.7505
L152.348 -73.7505
L153.394 -76.7389
L155.486 -82.9598
L155.486 -82.9598
L155.486 -82.9598
L155.486 -82.9598
L155.486 -82.9598
L155.486 -82.9598
L155.486 -82.9598
L155.486 -82.9598
L155.486 -82.9598
L156.533 -86.185
L156.533 -86.185
L156.533 -86.185
L156.533 -86.185
L157.579 -89.4816
L157.579 -89.4816
L157.579 -89.4816
L157.579 -89.4816
L158.625 -92.846
L158.625 -92.846
L158.625 -92.846
L158.625 -92.846
L158.625 -92.846
L158.625 -92.846
L158.625 -92.846
L158.625 -92.846
L158.625 -92.846
L159.671 -96.2741
L159.671 -96.2741
L159.671 -96.2741
L159.671 -96.2741
L160.717 -99.762
L160.717 -99.762
L160.718 -99.762
L160.718 -99.762
L160.718 -99.762
L160.718 -99.762
L161.764 -103.306
L162.81 -106.901
L162.81 -106.901
L162.81 -106.901
L163.856 -110.544
L163.856 -110.544
L163.856 -110.544
L163.856 -110.544
L163.856 -110.544
L163.856 -110.544
L163.856 -110.544
L163.856 -110.544
L163.856 -110.544
L163.856 -110.544
L163.856 -110.544
L164.903 -114.23
L164.903 -114.23
L164.903 -114.23
L165.949 -117.955
L165.949 -117.955
L165.949 -117.955
L165.949 -117.955
L166.995 -121.713
L166.995 -121.713
L166.995 -121.713
L168.041 -125.502
L168.041 -125.502
L168.041 -125.502
L168.041 -125.502
L168.041 -125.502
L168.041 -125.502
L168.041 -125.502
L168.041 -125.502
L171.18 -136.998
L171.18 -136.998
L171.18 -136.998
L171.18 -136.998
L171.18 -136.998
L171.18 -136.998
L172.226 -140.857
L172.226 -140.857
L173.272 -144.721
L173.273 -144.721
L173.273 -144.721
L173.273 -144.721
L174.319 -148.586
L174.319 -148.586
L174.319 -148.586
L175.365 -152.445
L175.365 -152.445
L175.365 -152.445
L175.365 -152.445
L175.365 -152.445
L175.365 -152.445
L175.365 -152.445
L175.365 -152.445
L175.365 -152.445
L175.365 -152.445
L175.365 -152.445
L175.365 -152.445
L175.365 -152.445
L175.365 -152.445
L175.365 -152.445
L175.365 -152.445
L176.411 -156.295
L176.411 -156.295
L176.411 -156.295
L177.457 -160.128
L178.504 -163.941
L178.504 -163.941
L179.55 -167.727
L179.55 -167.727
L179.55 -167.727
L179.55 -167.727
L179.55 -167.727
L180.596 -171.481
L180.596 -171.481
L180.596 -171.481
L180.596 -171.481
L182.689 -178.871
L182.689 -178.871
L182.689 -178.871
L182.689 -178.871
L182.689 -178.871
L182.689 -178.871
L182.689 -178.871
L182.689 -178.871
L182.689 -178.871
L182.689 -178.871
L182.689 -178.871
L183.735 -182.496
L183.735 -182.496
L183.735 -182.496
L183.735 -182.496
L184.781 -186.067
L186.874 -193.025
L186.874 -193.025
L186.874 -193.025
L186.874 -193.025
L186.874 -193.025
L186.874 -193.025
L186.874 -193.025
L186.874 -193.025
L186.874 -193.025
L187.92 -196.401
L187.92 -196.401
L187.92 -196.401
L187.92 -196.401
L188.966 -199.701
L190.013 -202.92
L190.013 -202.92
L190.013 -202.92
L190.013 -202.92
L190.013 -202.92
L190.013 -202.92
L190.013 -202.92
L190.013 -202.92
L190.013 -202.92
L191.059 -206.052
L191.059 -206.052
L191.059 -206.052
L191.059 -206.052
L192.105 -209.092
L192.105 -209.092
L192.105 -209.092
L192.105 -209.092
L192.105 -209.092
L192.105 -209.092
L193.151 -212.036
L194.198 -214.877
L194.198 -214.877
L194.198 -214.877
L195.244 -217.612
L195.244 -217.612
L195.244 -217.612
L195.244 -217.612
L195.244 -217.612
L195.244 -217.612
L195.244 -217.612
L195.244 -217.612
L195.244 -217.612
L195.244 -217.612
L195.244 -217.612
L196.29 -220.235
L196.29 -220.235
L196.29 -220.235
L197.336 -222.741
L197.336 -222.741
L197.336 -222.741
L197.336 -222.741
L198.383 -225.127
L198.383 -225.127
L198.383 -225.127
L199.429 -227.388
L199.429 -227.388
L199.429 -227.388
L199.429 -227.388
L199.429 -227.388
L199.429 -227.388
L199.429 -227.388
L199.429 -227.388
L202.567 -233.381
L202.567 -233.381
L202.567 -233.381
L202.567 -233.381
L202.567 -233.381
L202.567 -233.381
L203.614 -235.102
L203.614 -235.102
L204.66 -236.68
L204.66 -236.68
L204.66 -236.68
L204.66 -236.68
L205.706 -238.112
L205.706 -238.112
L205.706 -238.112
L206.752 -239.393
L206.752 -239.393
L206.752 -239.393
L206.752 -239.393
L206.752 -239.393
L206.753 -239.393
L206.753 -239.393
L206.753 -239.393
L206.753 -239.393
L206.753 -239.393
L206.753 -239.393
L206.753 -239.393
L206.753 -239.393
L206.753 -239.393
L206.753 -239.393
L206.753 -239.393
L207.799 -240.523
L207.799 -240.523
L207.799 -240.523
L208.845 -241.498
L209.891 -242.317
L209.891 -242.317
L210.938 -242.978
L210.938 -242.978
L210.938 -242.978
L210.938 -242.978
L210.938 -242.978
L211.984 -243.479
L211.984 -243.479
L211.984 -243.479
L211.984 -243.479
L214.076 -243.998
L214.076 -243.998
L214.076 -243.998
L214.076 -243.998
L214.076 -243.998
L214.076 -243.998
L214.076 -243.998
L214.076 -243.998
L214.076 -243.998
L214.076 -243.998
L214.076 -243.998
L215.122 -244.014
L215.123 -244.014
L215.123 -244.014
L215.123 -244.014
L216.169 -243.868
L218.261 -243.087
L218.261 -243.087
L218.261 -243.087
L218.261 -243.087
L218.261 -243.087
L218.261 -243.087
L218.261 -243.087
L218.261 -243.087
L218.261 -243.087
L219.308 -242.454
L219.308 -242.454
L219.308 -242.454
L219.308 -242.454
L220.354 -241.661
L221.4 -240.708
L221.4 -240.708
L221.4 -240.708
L221.4 -240.708
L221.4 -240.708
L221.4 -240.708
L221.4 -240.708
L221.4 -240.708
L221.4 -240.708
L222.446 -239.597
L222.446 -239.597
L222.446 -239.597
L222.446 -239.597
L223.492 -238.331
L223.492 -238.331
L223.493 -238.331
L223.493 -238.331
L223.493 -238.331
L223.493 -238.331
L224.539 -236.911
L225.585 -235.34
L225.585 -235.34
L225.585 -235.34
L226.631 -233.621
L226.631 -233.621
L226.631 -233.621
L226.631 -233.621
L226.631 -233.621
L226.631 -233.621
L226.631 -233.621
L226.631 -233.621
L226.631 -233.621
L226.631 -233.621
L226.631 -233.621
L227.678 -231.757
L227.678 -231.757
L228.724 -229.752
L228.724 -229.752
L228.724 -229.752
L228.724 -229.752
L229.77 -227.61
L229.77 -227.61
L229.77 -227.61
L230.816 -225.333
L230.816 -225.333
L230.816 -225.333
L230.816 -225.333
L230.816 -225.333
L230.816 -225.333
L230.816 -225.333
L230.816 -225.333
L233.955 -217.748
L233.955 -217.748
L233.955 -217.748
L233.955 -217.748
L233.955 -217.748
L233.955 -217.748
L235.001 -214.985
L235.001 -214.985
L236.047 -212.112
L236.048 -212.112
L236.048 -212.112
L236.048 -212.112
L237.094 -209.136
L237.094 -209.136
L237.094 -209.136
L238.14 -206.062
L238.14 -206.062
L238.14 -206.062
L238.14 -206.062
L238.14 -206.062
L238.14 -206.062
L238.14 -206.062
L238.14 -206.062
L238.14 -206.062
L238.14 -206.062
L238.14 -206.062
L238.14 -206.062
L238.14 -206.062
L238.14 -206.062
L238.14 -206.062
L238.14 -206.062
L239.186 -202.897
L239.186 -202.897
L239.186 -202.897
L240.232 -199.647
L241.279 -196.319
L241.279 -196.319
L242.325 -192.918
L242.325 -192.918
L242.325 -192.918
L242.325 -192.918
L242.325 -192.918
L243.371 -189.452
L243.371 -189.452
L243.371 -189.452
L243.371 -189.452
L245.464 -182.354
L245.464 -182.354
L245.464 -182.354
L245.464 -182.354
L245.464 -182.354
L245.464 -182.354
L245.464 -182.354
L245.464 -182.354
L245.464 -182.354
L245.464 -182.354
L245.464 -182.354
L246.51 -178.735
L246.51 -178.735
L246.51 -178.735
L246.51 -178.735
L247.556 -175.079
L249.649 -167.688
L249.649 -167.688
L249.649 -167.688
L249.649 -167.688
L249.649 -167.688
L249.649 -167.688
L249.649 -167.688
L249.649 -167.688
L249.649 -167.688
L250.695 -163.966
L250.695 -163.966
L250.695 -163.966
L250.695 -163.966
L251.741 -160.237
L252.787 -156.509
L252.787 -156.509
L252.787 -156.509
L252.787 -156.509
L252.787 -156.509
L252.787 -156.509
L252.787 -156.509
L252.787 -156.509
L252.787 -156.509
L253.834 -152.788
L253.834 -152.788
L253.834 -152.788
L253.834 -152.788
L254.88 -149.082
L254.88 -149.082
L254.88 -149.082
L254.88 -149.082
L254.88 -149.082
L254.88 -149.082
L255.926 -145.399
L256.973 -141.745
L256.973 -141.745
L256.973 -141.745
L258.019 -138.127
L258.019 -138.127
L258.019 -138.127
L258.019 -138.127
L258.019 -138.127
L258.019 -138.127
L258.019 -138.127
L258.019 -138.127
L258.019 -138.127
L258.019 -138.127
L258.019 -138.127
L259.065 -134.553
L259.065 -134.553
L260.111 -131.03
L260.111 -131.03
L260.111 -131.03
L260.111 -131.03
L261.158 -127.563
L261.158 -127.563
L261.158 -127.563
L262.204 -124.161
L262.204 -124.161
L262.204 -124.161
L262.204 -124.161
L262.204 -124.161
L262.204 -124.161
L262.204 -124.161
L262.204 -124.161
L265.342 -114.398
L265.342 -114.398
L265.342 -114.398
L265.342 -114.398
L265.342 -114.398
L265.342 -114.398
L266.389 -111.311
L266.389 -111.311
L267.435 -108.318
L267.435 -108.318
L267.435 -108.318
L268.481 -105.423
L268.481 -105.423
L268.481 -105.423
L269.527 -102.632
L269.527 -102.632
L269.527 -102.632
L269.527 -102.632
L269.527 -102.632
L269.528 -102.632
L269.528 -102.632
L269.528 -102.632
L269.528 -102.632
L269.528 -102.632
L269.528 -102.632
L269.528 -102.632
L269.528 -102.632
L269.528 -102.632
L269.528 -102.632
L269.528 -102.632
L270.574 -99.9481
L270.574 -99.9481
L270.574 -99.9481
L271.62 -97.3767
L272.666 -94.9216
L272.666 -94.9216
L273.712 -92.5864
L273.712 -92.5864
L273.712 -92.5864
L273.712 -92.5864
L273.712 -92.5864
L274.759 -90.3745
L274.759 -90.3745
L274.759 -90.3745
L274.759 -90.3745
L276.851 -86.3323
L276.851 -86.3323
L276.851 -86.3323
L276.851 -86.3323
L276.851 -86.3323
L276.851 -86.3323
L276.851 -86.3323
L276.851 -86.3323
L276.851 -86.3323
L276.851 -86.3323
L276.851 -86.3323
L277.897 -84.507
L277.897 -84.507
L277.897 -84.507
L277.897 -84.507
L278.944 -82.8151
L281.036 -79.8376
L281.036 -79.8376
L281.036 -79.8376
L281.036 -79.8376
L281.036 -79.8376
L281.036 -79.8376
L281.036 -79.8376
L281.036 -79.8376
L281.036 -79.8376
L282.082 -78.5542
L282.083 -78.5542
L282.083 -78.5542
L282.083 -78.5542
L283.129 -77.4086
L284.175 -76.4011
L284.175 -76.4011
L284.175 -76.4011
L284.175 -76.4011
L284.175 -76.4011
L284.175 -76.4011
L284.175 -76.4011
L284.175 -76.4011
L284.175 -76.4011
L285.221 -75.5316
L285.221 -75.5316
L285.221 -75.5316
L285.221 -75.5316
L286.267 -74.7996
L286.267 -74.7996
L286.268 -74.7996
L286.268 -74.7996
L286.268 -74.7996
L286.268 -74.7996
L287.314 -74.2043
L288.36 -73.7447
L288.36 -73.7447
L288.36 -73.7447
L289.406 -73.4192
L289.406 -73.4192
L289.406 -73.4192
L289.406 -73.4192
L289.406 -73.4192
L289.406 -73.4192
L289.406 -73.4192
L289.406 -73.4192
L289.406 -73.4192
L289.406 -73.4192
L289.406 -73.4192
L290.453 -73.2262
L290.453 -73.2262
L291.499 -73.1636
L291.499 -73.1636
L291.499 -73.1636
L291.499 -73.1636
L292.545 -73.229
L292.545 -73.229
L292.545 -73.229
L293.591 -73.4197
L293.591 -73.4197
L293.591 -73.4197
L293.591 -73.4197
L293.591 -73.4197
L293.591 -73.4197
L293.591 -73.4197
L293.591 -73.4197
L296.73 -74.7132
L296.73 -74.7132
L296.73 -74.7132
L296.73 -74.7132
L296.73 -74.7132
L296.73 -74.7132
L297.776 -75.3734
L297.776 -75.3734
L298.823 -76.1417
L298.823 -76.1417
L298.823 -76.1417
L299.869 -77.0139
L299.869 -77.0139
L299.869 -77.0139
L300.915 -77.9858
L300.915 -77.9858
L300.915 -77.9858
L300.915 -77.9858
L300.915 -77.9858
L300.915 -77.9858
L300.915 -77.9858
L300.915 -77.9858
L300.915 -77.9858
L300.915 -77.9858
L300.915 -77.9858
L300.915 -77.9858
L300.915 -77.9858
L300.915 -77.9858
L300.915 -77.9858
L300.915 -77.9858
L301.961 -79.0528
L301.961 -79.0528
L301.961 -79.0528
L303.007 -80.2102
L304.054 -81.4531
L304.054 -81.4531
L305.1 -82.7766
L305.1 -82.7766
L305.1 -82.7766
L305.1 -82.7766
L305.1 -82.7766
L306.146 -84.1754
L306.146 -84.1754
L306.146 -84.1754
L308.239 -87.178
L308.239 -87.178
L308.239 -87.178
L308.239 -87.178
L308.239 -87.178
L308.239 -87.178
L308.239 -87.178
L308.239 -87.178
L308.239 -87.178
L308.239 -87.178
L308.239 -87.178
L309.285 -88.7711
L309.285 -88.7711
L309.285 -88.7711
L309.285 -88.7711
L310.331 -90.418
L312.424 -93.851
L312.424 -93.851
L312.424 -93.851
L312.424 -93.851
L312.424 -93.851
L312.424 -93.851
L312.424 -93.851
L312.424 -93.851
L312.424 -93.851
L313.47 -95.626
L313.47 -95.626
L313.47 -95.626
L313.47 -95.626
L314.516 -97.4324
L315.562 -99.2648
L315.562 -99.2648
L315.562 -99.2648
L315.562 -99.2648
L315.562 -99.2648
L315.562 -99.2648
L315.562 -99.2648
L315.562 -99.2648
L315.562 -99.2648
L316.609 -101.117
L316.609 -101.117
L316.609 -101.117
L316.609 -101.117
L317.655 -102.985
L317.655 -102.985
L317.655 -102.985
L317.655 -102.985
L317.655 -102.985
L317.655 -102.985
L318.701 -104.861
L319.748 -106.742
L319.748 -106.742
L319.748 -106.742
L320.794 -108.621
L320.794 -108.621
L320.794 -108.621
L320.794 -108.621
L320.794 -108.621
L320.794 -108.621
L320.794 -108.621
L320.794 -108.621
L320.794 -108.621
L320.794 -108.621
L320.794 -108.621
L321.84 -110.493
L321.84 -110.493
L322.886 -112.353
L322.886 -112.353
L322.886 -112.353
L322.886 -112.353
L323.933 -114.197
L323.933 -114.197
L323.933 -114.197
L324.979 -116.019
L324.979 -116.019
L324.979 -116.019
L324.979 -116.019
L324.979 -116.019
L324.979 -116.019
L324.979 -116.019
L324.979 -116.019
L328.117 -121.308
L328.117 -121.308
L328.117 -121.308
L328.117 -121.308
L328.117 -121.308
L328.117 -121.308
L329.164 -122.998
L329.164 -122.998
L330.21 -124.644
L330.21 -124.644
L330.21 -124.644
L331.256 -126.243
L331.256 -126.243
L331.256 -126.243
L332.302 -127.792
L332.302 -127.792
L332.302 -127.792
L332.302 -127.792
L332.302 -127.792
L332.303 -127.792
L332.303 -127.792
L332.303 -127.792
L332.303 -127.792
L332.303 -127.792
L332.303 -127.792
L332.303 -127.792
L332.303 -127.792
L332.303 -127.792
L332.303 -127.792
L332.303 -127.792
L333.349 -129.287
L333.349 -129.287
L333.349 -129.287
L334.395 -130.726
L335.441 -132.105
L335.441 -132.105
L336.488 -133.423
L336.488 -133.423
L336.488 -133.423
L336.488 -133.423
L336.488 -133.423
L337.534 -134.677
L337.534 -134.677
L337.534 -134.677
L339.626 -136.987
L339.626 -136.987
L339.626 -136.987
L339.626 -136.987
L339.626 -136.987
L339.626 -136.987
L339.626 -136.987
L339.626 -136.987
L339.626 -136.987
L339.626 -136.987
L339.626 -136.987
L340.672 -138.041
L340.673 -138.041
L340.673 -138.041
L340.673 -138.041
L341.719 -139.026
L343.811 -140.789
L343.811 -140.789
L343.811 -140.789
L343.811 -140.789
L343.811 -140.789
L343.811 -140.789
L343.811 -140.789
L343.811 -140.789
L343.811 -140.789
L344.858 -141.566
L345.904 -142.275
L346.95 -142.915
L346.95 -142.915
L346.95 -142.915
L346.95 -142.915
L346.95 -142.915
L346.95 -142.915
L346.95 -142.915
L346.95 -142.915
L346.95 -142.915
L347.996 -143.489
L347.996 -143.489
L347.996 -143.489
L347.996 -143.489
L349.042 -143.998
L349.042 -143.998
L349.043 -143.998
L349.043 -143.998
L349.043 -143.998
L349.043 -143.998
L350.089 -144.442
L351.135 -144.825
L351.135 -144.825
L351.135 -144.825
L352.181 -145.147
L352.181 -145.147
L352.181 -145.147
L352.181 -145.147
L352.181 -145.147
L352.181 -145.147
L352.181 -145.147
L352.181 -145.147
L352.181 -145.147
L352.181 -145.147
L352.181 -145.147
L353.228 -145.412
L353.228 -145.412
L354.274 -145.621
L354.274 -145.621
L354.274 -145.621
L354.274 -145.621
L355.32 -145.779
L355.32 -145.779
L355.32 -145.779
L356.366 -145.886
L356.366 -145.886
L356.366 -145.886
L356.366 -145.886
L356.366 -145.886
L356.366 -145.886
L356.366 -145.886
L356.366 -145.886
L359.505 -145.944
L359.505 -145.944
L359.505 -145.944
L359.505 -145.944
L359.505 -145.944
L359.505 -145.944
L360.551 -145.886
L360.551 -145.886
L361.598 -145.795
L361.598 -145.795
L361.598 -145.795
L362.644 -145.675
L362.644 -145.675
L362.644 -145.675
L363.69 -145.529
L363.69 -145.529
L363.69 -145.529
L363.69 -145.529
L363.69 -145.529
L363.69 -145.529
L363.69 -145.529
L363.69 -145.529
L363.69 -145.529
L363.69 -145.529
L363.69 -145.529
L363.69 -145.529
L363.69 -145.529
L363.69 -145.529
L363.69 -145.529
L363.69 -145.529
L364.736 -145.361
L364.736 -145.361
L364.736 -145.361
L365.782 -145.176
L366.829 -144.976
L366.829 -144.976
L367.875 -144.766
L367.875 -144.766
L367.875 -144.766
L367.875 -144.766
L367.875 -144.766
L368.921 -144.549
L368.921 -144.549
L368.921 -144.549
L371.014 -144.112
L371.014 -144.112
L371.014 -144.112
L371.014 -144.112
L371.014 -144.112
L371.014 -144.112
L371.014 -144.112
L371.014 -144.112
L371.014 -144.112
L371.014 -144.112
L371.014 -144.112
L372.06 -143.899
L372.06 -143.899
L372.06 -143.899
L372.06 -143.899
L373.106 -143.694
L375.199 -143.325
L375.199 -143.325
L375.199 -143.325
L375.199 -143.325
L375.199 -143.325
L375.199 -143.325
L375.199 -143.325
L375.199 -143.325
L375.199 -143.325
L376.245 -143.167
L377.291 -143.032
L378.338 -142.923
L378.338 -142.923
L378.338 -142.923
L378.338 -142.923
L378.338 -142.923
L378.338 -142.923
L378.338 -142.923
L378.338 -142.923
L378.338 -142.923
L379.384 -142.843
L379.384 -142.843
L379.384 -142.843
L379.384 -142.843
L380.43 -142.795
L380.43 -142.795
L380.43 -142.795
L380.43 -142.795
L380.43 -142.795
L380.43 -142.795
L381.476 -142.781
L382.523 -142.806
L382.523 -142.806
L382.523 -142.806
L383.569 -142.87
L383.569 -142.87
L383.569 -142.87
L383.569 -142.87
L383.569 -142.87
L383.569 -142.87
L383.569 -142.87
L383.569 -142.87
L383.569 -142.87
L383.569 -142.87
L383.569 -142.87
L384.615 -142.978
L384.615 -142.978
L385.661 -143.13
L385.661 -143.13
L385.661 -143.13
L385.661 -143.13
L386.708 -143.329
L386.708 -143.329
L386.708 -143.329
L387.754 -143.578
L387.754 -143.578
L387.754 -143.578
L387.754 -143.578
L387.754 -143.578
L387.754 -143.578
L387.754 -143.578
L388.8 -143.877
L388.8 -143.877
L388.8 -143.877
L387.754 -144.831
L387.754 -144.831
L387.754 -144.831
L387.754 -144.831
L387.754 -144.831
L387.754 -144.831
L387.754 -144.831
L386.708 -145.776
L386.708 -145.776
L386.708 -145.776
L385.661 -146.712
L385.661 -146.712
L385.661 -146.712
L385.661 -146.712
L384.615 -147.636
L384.615 -147.636
L383.569 -148.546
L383.569 -148.546
L383.569 -148.546
L383.569 -148.546
L383.569 -148.546
L383.569 -148.546
L383.569 -148.546
L383.569 -148.546
L383.569 -148.546
L383.569 -148.546
L383.569 -148.546
L382.523 -149.442
L382.523 -149.442
L382.523 -149.442
L381.476 -150.322
L380.43 -151.182
L380.43 -151.182
L380.43 -151.182
L380.43 -151.182
L380.43 -151.182
L380.43 -151.182
L379.384 -152.022
L379.384 -152.022
L379.384 -152.022
L379.384 -152.022
L378.338 -152.84
L378.338 -152.84
L378.338 -152.84
L378.338 -152.84
L378.338 -152.84
L378.338 -152.84
L378.338 -152.84
L378.338 -152.84
L378.338 -152.84
L377.291 -153.634
L376.245 -154.401
L375.199 -155.14
L375.199 -155.14
L375.199 -155.14
L375.199 -155.14
L375.199 -155.14
L375.199 -155.14
L375.199 -155.14
L375.199 -155.14
L375.199 -155.14
L373.106 -156.525
L372.06 -157.167
L372.06 -157.167
L372.06 -157.167
L372.06 -157.167
L371.014 -157.772
L371.014 -157.772
L371.014 -157.772
L371.014 -157.772
L371.014 -157.772
L371.014 -157.772
L371.014 -157.772
L371.014 -157.772
L371.014 -157.772
L371.014 -157.772
L371.014 -157.772
L368.921 -158.866
L368.921 -158.866
L368.921 -158.866
L367.875 -159.35
L367.875 -159.35
L367.875 -159.35
L367.875 -159.35
L367.875 -159.35
L366.829 -159.79
L366.829 -159.79
L365.782 -160.184
L364.736 -160.53
L364.736 -160.53
L364.736 -160.53
L363.69 -160.826
L363.69 -160.826
L363.69 -160.826
L363.69 -160.826
L363.69 -160.826
L363.69 -160.826
L363.69 -160.826
L363.69 -160.826
L363.69 -160.826
L363.69 -160.826
L363.69 -160.826
L363.69 -160.826
L363.69 -160.826
L363.69 -160.826
L363.69 -160.826
L363.69 -160.826
L362.644 -161.07
L362.644 -161.07
L362.644 -161.07
L361.598 -161.261
L361.598 -161.261
L361.598 -161.261
L360.551 -161.397
L360.551 -161.397
L359.505 -161.477
L359.505 -161.477
L359.505 -161.477
L359.505 -161.477
L359.505 -161.477
L359.505 -161.477
L356.366 -161.366
L356.366 -161.366
L356.366 -161.366
L356.366 -161.366
L356.366 -161.366
L356.366 -161.366
L356.366 -161.366
L356.366 -161.366
L355.32 -161.208
L355.32 -161.208
L355.32 -161.208
L354.274 -160.989
L354.274 -160.989
L354.274 -160.989
L354.274 -160.989
L353.228 -160.706
L353.228 -160.706
L352.181 -160.359
L352.181 -160.359
L352.181 -160.359
L352.181 -160.359
L352.181 -160.359
L352.181 -160.359
L352.181 -160.359
L352.181 -160.359
L352.181 -160.359
L352.181 -160.359
L352.181 -160.359
L351.135 -159.949
L351.135 -159.949
L351.135 -159.949
L350.089 -159.473
L349.043 -158.933
L349.043 -158.933
L349.043 -158.933
L349.043 -158.933
L349.042 -158.933
L349.042 -158.933
L347.996 -158.328
L347.996 -158.328
L347.996 -158.328
L347.996 -158.328
L346.95 -157.658
L346.95 -157.658
L346.95 -157.658
L346.95 -157.658
L346.95 -157.658
L346.95 -157.658
L346.95 -157.658
L346.95 -157.658
L346.95 -157.658
L345.904 -156.923
L344.858 -156.124
L343.811 -155.261
L343.811 -155.261
L343.811 -155.261
L343.811 -155.261
L343.811 -155.261
L343.811 -155.261
L343.811 -155.261
L343.811 -155.261
L343.811 -155.261
L341.719 -153.344
L340.673 -152.293
L340.673 -152.293
L340.673 -152.293
L340.672 -152.293
L339.626 -151.181
L339.626 -151.181
L339.626 -151.181
L339.626 -151.181
L339.626 -151.181
L339.626 -151.181
L339.626 -151.181
L339.626 -151.181
L339.626 -151.181
L339.626 -151.181
L339.626 -151.181
L337.534 -148.779
L337.534 -148.779
L337.534 -148.779
L336.488 -147.492
L336.488 -147.492
L336.488 -147.492
L336.488 -147.492
L336.488 -147.492
L335.441 -146.151
L335.441 -146.151
L334.395 -144.756
L333.349 -143.311
L333.349 -143.311
L333.349 -143.311
L332.303 -141.816
L332.303 -141.816
L332.303 -141.816
L332.303 -141.816
L332.303 -141.816
L332.303 -141.816
L332.303 -141.816
L332.303 -141.816
L332.303 -141.816
L332.303 -141.816
L332.303 -141.816
L332.302 -141.816
L332.302 -141.816
L332.302 -141.816
L332.302 -141.816
L332.302 -141.816
L331.256 -140.276
L331.256 -140.276
L331.256 -140.276
L330.21 -138.692
L330.21 -138.692
L330.21 -138.692
L329.164 -137.066
L329.164 -137.066
L328.117 -135.404
L328.117 -135.404
L328.117 -135.404
L328.117 -135.404
L328.117 -135.404
L328.117 -135.404
L324.979 -130.222
L324.979 -130.222
L324.979 -130.222
L324.979 -130.222
L324.979 -130.222
L324.979 -130.222
L324.979 -130.222
L324.979 -130.222
L323.933 -128.443
L323.933 -128.443
L323.933 -128.443
L322.886 -126.644
L322.886 -126.644
L322.886 -126.644
L322.886 -126.644
L321.84 -124.83
L321.84 -124.83
L320.794 -123.005
L320.794 -123.005
L320.794 -123.005
L320.794 -123.005
L320.794 -123.005
L320.794 -123.005
L320.794 -123.005
L320.794 -123.005
L320.794 -123.005
L320.794 -123.005
L320.794 -123.005
L319.748 -121.174
L319.748 -121.174
L319.748 -121.174
L318.701 -119.341
L317.655 -117.511
L317.655 -117.511
L317.655 -117.511
L317.655 -117.511
L317.655 -117.511
L317.655 -117.511
L316.609 -115.69
L316.609 -115.69
L316.609 -115.69
L316.609 -115.69
L315.562 -113.883
L315.562 -113.883
L315.562 -113.883
L315.562 -113.883
L315.562 -113.883
L315.562 -113.883
L315.562 -113.883
L315.562 -113.883
L315.562 -113.883
L314.516 -112.094
L313.47 -110.329
L313.47 -110.329
L313.47 -110.329
L313.47 -110.329
L312.424 -108.594
L312.424 -108.594
L312.424 -108.594
L312.424 -108.594
L312.424 -108.594
L312.424 -108.594
L312.424 -108.594
L312.424 -108.594
L312.424 -108.594
L310.331 -105.234
L309.285 -103.62
L309.285 -103.62
L309.285 -103.62
L309.285 -103.62
L308.239 -102.058
L308.239 -102.058
L308.239 -102.058
L308.239 -102.058
L308.239 -102.058
L308.239 -102.058
L308.239 -102.058
L308.239 -102.058
L308.239 -102.058
L308.239 -102.058
L308.239 -102.058
L306.146 -99.1102
L306.146 -99.1102
L306.146 -99.1102
L305.1 -97.7355
L305.1 -97.7355
L305.1 -97.7355
L305.1 -97.7355
L305.1 -97.7355
L304.054 -96.434
L304.054 -96.434
L303.007 -95.211
L301.961 -94.0717
L301.961 -94.0717
L301.961 -94.0717
L300.915 -93.0209
L300.915 -93.0209
L300.915 -93.0209
L300.915 -93.0209
L300.915 -93.0209
L300.915 -93.0209
L300.915 -93.0209
L300.915 -93.0209
L300.915 -93.0209
L300.915 -93.0209
L300.915 -93.0209
L300.915 -93.0209
L300.915 -93.0209
L300.915 -93.0209
L300.915 -93.0209
L300.915 -93.0209
L299.869 -92.0636
L299.869 -92.0636
L299.869 -92.0636
L298.823 -91.2044
L298.823 -91.2044
L298.823 -91.2044
L297.776 -90.4478
L297.776 -90.4478
L296.73 -89.7981
L296.73 -89.7981
L296.73 -89.7981
L296.73 -89.7981
L296.73 -89.7981
L296.73 -89.7981
L293.591 -88.5297
L293.591 -88.5297
L293.591 -88.5297
L293.591 -88.5297
L293.591 -88.5297
L293.591 -88.5297
L293.591 -88.5297
L293.591 -88.5297
L292.545 -88.3457
L292.545 -88.3457
L292.545 -88.3457
L291.499 -88.2864
L291.499 -88.2864
L291.499 -88.2864
L291.499 -88.2864
L290.453 -88.3545
L290.453 -88.3545
L289.406 -88.5525
L289.406 -88.5525
L289.406 -88.5525
L289.406 -88.5525
L289.406 -88.5525
L289.406 -88.5525
L289.406 -88.5525
L289.406 -88.5525
L289.406 -88.5525
L289.406 -88.5525
L289.406 -88.5525
L288.36 -88.8825
L288.36 -88.8825
L288.36 -88.8825
L287.314 -89.3463
L286.268 -89.9454
L286.268 -89.9454
L286.268 -89.9454
L286.268 -89.9454
L286.267 -89.9454
L286.267 -89.9454
L285.221 -90.6811
L285.221 -90.6811
L285.221 -90.6811
L285.221 -90.6811
L284.175 -91.554
L284.175 -91.554
L284.175 -91.554
L284.175 -91.554
L284.175 -91.554
L284.175 -91.554
L284.175 -91.554
L284.175 -91.554
L284.175 -91.554
L283.129 -92.5646
L282.083 -93.7132
L282.083 -93.7132
L282.083 -93.7132
L282.082 -93.7132
L281.036 -94.9993
L281.036 -94.9993
L281.036 -94.9993
L281.036 -94.9993
L281.036 -94.9993
L281.036 -94.9993
L281.036 -94.9993
L281.036 -94.9993
L281.036 -94.9993
L278.944 -97.9819
L277.897 -99.676
L277.897 -99.676
L277.897 -99.676
L277.897 -99.676
L276.851 -101.503
L276.851 -101.503
L276.851 -101.503
L276.851 -101.503
L276.851 -101.503
L276.851 -101.503
L276.851 -101.503
L276.851 -101.503
L276.851 -101.503
L276.851 -101.503
L276.851 -101.503
L274.759 -105.549
L274.759 -105.549
L274.759 -105.549
L274.759 -105.549
L273.712 -107.762
L273.712 -107.762
L273.712 -107.762
L273.712 -107.762
L273.712 -107.762
L272.666 -110.099
L272.666 -110.099
L271.62 -112.555
L270.574 -115.127
L270.574 -115.127
L270.574 -115.127
L269.528 -117.811
L269.528 -117.811
L269.528 -117.811
L269.528 -117.811
L269.528 -117.811
L269.528 -117.811
L269.528 -117.811
L269.528 -117.811
L269.528 -117.811
L269.528 -117.811
L269.528 -117.811
L269.527 -117.811
L269.527 -117.811
L269.527 -117.811
L269.527 -117.811
L269.527 -117.811
L268.481 -120.603
L268.481 -120.603
L268.481 -120.603
L267.435 -123.498
L267.435 -123.498
L267.435 -123.498
L266.389 -126.491
L266.389 -126.491
L265.342 -129.578
L265.342 -129.578
L265.342 -129.578
L265.342 -129.578
L265.342 -129.578
L265.342 -129.578
L262.204 -139.34
L262.204 -139.34
L262.204 -139.34
L262.204 -139.34
L262.204 -139.34
L262.204 -139.34
L262.204 -139.34
L262.204 -139.34
L261.158 -142.742
L261.158 -142.742
L261.158 -142.742
L260.111 -146.208
L260.111 -146.208
L260.111 -146.208
L260.111 -146.208
L259.065 -149.731
L259.065 -149.731
L258.019 -153.305
L258.019 -153.305
L258.019 -153.305
L258.019 -153.305
L258.019 -153.305
L258.019 -153.305
L258.019 -153.305
L258.019 -153.305
L258.019 -153.305
L258.019 -153.305
L258.019 -153.305
L256.973 -156.922
L256.973 -156.922
L256.973 -156.922
L255.926 -160.576
L254.88 -164.259
L254.88 -164.259
L254.88 -164.259
L254.88 -164.259
L254.88 -164.259
L254.88 -164.259
L253.834 -167.965
L253.834 -167.965
L253.834 -167.965
L253.834 -167.965
L252.787 -171.687
L252.787 -171.687
L252.787 -171.687
L252.787 -171.687
L252.787 -171.687
L252.787 -171.687
L252.787 -171.687
L252.787 -171.687
L252.787 -171.687
L251.741 -175.415
L250.695 -179.145
L250.695 -179.145
L250.695 -179.145
L250.695 -179.145
L249.649 -182.867
L249.649 -182.867
L249.649 -182.867
L249.649 -182.867
L249.649 -182.867
L249.649 -182.867
L249.649 -182.867
L249.649 -182.867
L249.649 -182.867
L247.556 -190.262
L246.51 -193.919
L246.51 -193.919
L246.51 -193.919
L246.51 -193.919
L245.464 -197.539
L245.464 -197.539
L245.464 -197.539
L245.464 -197.539
L245.464 -197.539
L245.464 -197.539
L245.464 -197.539
L245.464 -197.539
L245.464 -197.539
L245.464 -197.539
L245.464 -197.539
L243.371 -204.642
L243.371 -204.642
L243.371 -204.642
L243.371 -204.642
L242.325 -208.11
L242.325 -208.11
L242.325 -208.11
L242.325 -208.11
L242.325 -208.11
L241.279 -211.512
L241.279 -211.512
L240.232 -214.843
L239.186 -218.096
L239.186 -218.096
L239.186 -218.096
L238.14 -221.263
L238.14 -221.263
L238.14 -221.263
L238.14 -221.263
L238.14 -221.263
L238.14 -221.263
L238.14 -221.263
L238.14 -221.263
L238.14 -221.263
L238.14 -221.263
L238.14 -221.263
L238.14 -221.263
L238.14 -221.263
L238.14 -221.263
L238.14 -221.263
L238.14 -221.263
L237.094 -224.339
L237.094 -224.339
L237.094 -224.339
L236.048 -227.317
L236.048 -227.317
L236.048 -227.317
L236.047 -227.317
L235.001 -230.192
L235.001 -230.192
L233.955 -232.958
L233.955 -232.958
L233.955 -232.958
L233.955 -232.958
L233.955 -232.958
L233.955 -232.958
L230.816 -240.547
L230.816 -240.547
L230.816 -240.547
L230.816 -240.547
L230.816 -240.547
L230.816 -240.547
L230.816 -240.547
L230.816 -240.547
L229.77 -242.824
L229.77 -242.824
L229.77 -242.824
L228.724 -244.968
L228.724 -244.968
L228.724 -244.968
L228.724 -244.968
L227.678 -246.973
L227.678 -246.973
L226.631 -248.837
L226.631 -248.837
L226.631 -248.837
L226.631 -248.837
L226.631 -248.837
L226.631 -248.837
L226.631 -248.837
L226.631 -248.837
L226.631 -248.837
L226.631 -248.837
L226.631 -248.837
L225.585 -250.555
L225.585 -250.555
L225.585 -250.555
L224.539 -252.125
L223.493 -253.543
L223.493 -253.543
L223.493 -253.543
L223.493 -253.543
L223.492 -253.543
L223.492 -253.543
L222.446 -254.808
L222.446 -254.808
L222.446 -254.808
L222.446 -254.808
L221.4 -255.916
L221.4 -255.916
L221.4 -255.916
L221.4 -255.916
L221.4 -255.916
L221.4 -255.916
L221.4 -255.916
L221.4 -255.916
L221.4 -255.916
L220.354 -256.866
L219.308 -257.656
L219.308 -257.656
L219.308 -257.656
L219.308 -257.656
L218.261 -258.286
L218.261 -258.286
L218.261 -258.286
L218.261 -258.286
L218.261 -258.286
L218.261 -258.286
L218.261 -258.286
L218.261 -258.286
L218.261 -258.286
L216.169 -259.058
L215.123 -259.2
L215.123 -259.2
L215.123 -259.2
L215.122 -259.2
L214.076 -259.179
L214.076 -259.179
L214.076 -259.179
L214.076 -259.179
L214.076 -259.179
L214.076 -259.179
L214.076 -259.179
L214.076 -259.179
L214.076 -259.179
L214.076 -259.179
L214.076 -259.179
L211.984 -258.65
L211.984 -258.65
L211.984 -258.65
L211.984 -258.65
L210.938 -258.144
L210.938 -258.144
L210.938 -258.144
L210.938 -258.144
L210.938 -258.144
L209.891 -257.478
L209.891 -257.478
L208.845 -256.654
L207.799 -255.673
L207.799 -255.673
L207.799 -255.673
L206.753 -254.538
L206.753 -254.538
L206.753 -254.538
L206.753 -254.538
L206.753 -254.538
L206.753 -254.538
L206.753 -254.538
L206.753 -254.538
L206.753 -254.538
L206.753 -254.538
L206.753 -254.538
L206.752 -254.538
L206.752 -254.538
L206.752 -254.538
L206.752 -254.538
L206.752 -254.538
L205.706 -253.252
L205.706 -253.252
L205.706 -253.252
L204.66 -251.816
L204.66 -251.816
L204.66 -251.816
L204.66 -251.816
L203.614 -250.233
L203.614 -250.233
L202.567 -248.507
L202.567 -248.507
L202.567 -248.507
L202.567 -248.507
L202.567 -248.507
L202.567 -248.507
L199.429 -242.504
L199.429 -242.504
L199.429 -242.504
L199.429 -242.504
L199.429 -242.504
L199.429 -242.504
L199.429 -242.504
L199.429 -242.504
L198.383 -240.24
L198.383 -240.24
L198.383 -240.24
L197.336 -237.851
L197.336 -237.851
L197.336 -237.851
L197.336 -237.851
L196.29 -235.342
L196.29 -235.342
L196.29 -235.342
L195.244 -232.717
L195.244 -232.717
L195.244 -232.717
L195.244 -232.717
L195.244 -232.717
L195.244 -232.717
L195.244 -232.717
L195.244 -232.717
L195.244 -232.717
L195.244 -232.717
L195.244 -232.717
L194.198 -229.981
L194.198 -229.981
L194.198 -229.981
L193.151 -227.138
L192.105 -224.194
L192.105 -224.194
L192.105 -224.194
L192.105 -224.194
L192.105 -224.194
L192.105 -224.194
L191.059 -221.153
L191.059 -221.153
L191.059 -221.153
L191.059 -221.153
L190.013 -218.02
L190.013 -218.02
L190.013 -218.02
L190.013 -218.02
L190.013 -218.02
L190.013 -218.02
L190.013 -218.02
L190.013 -218.02
L190.013 -218.02
L188.966 -214.801
L187.92 -211.5
L187.92 -211.5
L187.92 -211.5
L187.92 -211.5
L186.874 -208.124
L186.874 -208.124
L186.874 -208.124
L186.874 -208.124
L186.874 -208.124
L186.874 -208.124
L186.874 -208.124
L186.874 -208.124
L186.874 -208.124
L184.781 -201.164
L183.735 -197.593
L183.735 -197.593
L183.735 -197.593
L183.735 -197.593
L182.689 -193.966
L182.689 -193.966
L182.689 -193.966
L182.689 -193.966
L182.689 -193.966
L182.689 -193.966
L182.689 -193.966
L182.689 -193.966
L182.689 -193.966
L182.689 -193.966
L182.689 -193.966
L180.596 -186.573
L180.596 -186.573
L180.596 -186.573
L180.596 -186.573
L179.55 -182.817
L179.55 -182.817
L179.55 -182.817
L179.55 -182.817
L179.55 -182.817
L178.504 -179.028
L178.504 -179.028
L177.457 -175.213
L176.411 -171.376
L176.411 -171.376
L176.411 -171.376
L175.365 -167.522
L175.365 -167.522
L175.365 -167.522
L175.365 -167.522
L175.365 -167.522
L175.365 -167.522
L175.365 -167.522
L175.365 -167.522
L175.365 -167.522
L175.365 -167.522
L175.365 -167.522
L175.365 -167.522
L175.365 -167.522
L175.365 -167.522
L175.365 -167.522
L175.365 -167.522
L174.319 -163.658
L174.319 -163.658
L174.319 -163.658
L173.273 -159.788
L173.273 -159.788
L173.273 -159.788
L173.272 -159.788
L172.226 -155.918
L172.226 -155.918
L171.18 -152.053
L171.18 -152.053
L171.18 -152.053
L171.18 -152.053
L171.18 -152.053
L171.18 -152.053
L168.041 -140.535
L168.041 -140.535
L168.041 -140.535
L168.041 -140.535
L168.041 -140.535
L168.041 -140.535
L168.041 -140.535
L168.041 -140.535
L166.995 -136.738
L166.995 -136.738
L166.995 -136.738
L165.949 -132.971
L165.949 -132.971
L165.949 -132.971
L165.949 -132.971
L164.903 -129.237
L164.903 -129.237
L164.903 -129.237
L163.856 -125.542
L163.856 -125.542
L163.856 -125.542
L163.856 -125.542
L163.856 -125.542
L163.856 -125.542
L163.856 -125.542
L163.856 -125.542
L163.856 -125.542
L163.856 -125.542
L163.856 -125.542
L162.81 -121.89
L162.81 -121.89
L162.81 -121.89
L161.764 -118.285
L160.718 -114.732
L160.718 -114.732
L160.718 -114.732
L160.718 -114.732
L160.717 -114.732
L160.717 -114.732
L159.671 -111.234
L159.671 -111.234
L159.671 -111.234
L159.671 -111.234
L158.625 -107.797
L158.625 -107.797
L158.625 -107.797
L158.625 -107.797
L158.625 -107.797
L158.625 -107.797
L158.625 -107.797
L158.625 -107.797
L158.625 -107.797
L157.579 -104.423
L157.579 -104.423
L157.579 -104.423
L157.579 -104.423
L156.533 -101.118
L156.533 -101.118
L156.533 -101.118
L156.533 -101.118
L155.486 -97.8835
L155.486 -97.8835
L155.486 -97.8835
L155.486 -97.8835
L155.486 -97.8835
L155.486 -97.8835
L155.486 -97.8835
L155.486 -97.8835
L155.486 -97.8835
L153.394 -91.6453
L152.348 -88.6486
L152.347 -88.6486
L152.347 -88.6486
L152.347 -88.6486
L151.301 -85.7382
L151.301 -85.7382
L151.301 -85.7382
L151.301 -85.7382
L151.301 -85.7382
L151.301 -85.7382
L151.301 -85.7382
L151.301 -85.7382
L151.301 -85.7382
L151.301 -85.7382
L151.301 -85.7382
L149.209 -80.1904
L149.209 -80.1904
L149.209 -80.1904
L149.209 -80.1904
L148.163 -77.5599
L148.163 -77.5599
L148.163 -77.5599
L148.163 -77.5599
L148.163 -77.5599
L147.116 -75.0296
L147.116 -75.0296
L146.07 -72.6027
L145.024 -70.2828
L145.024 -70.2828
L145.024 -70.2828
L143.978 -68.073
L143.978 -68.073
L143.978 -68.073
L143.978 -68.073
L143.978 -68.073
L143.978 -68.073
L143.978 -68.073
L143.978 -68.073
L143.978 -68.073
L143.978 -68.073
L143.978 -68.073
L143.977 -68.073
L143.977 -68.073
L143.977 -68.073
L143.977 -68.073
L143.977 -68.073
L142.931 -65.9769
L142.931 -65.9769
L142.931 -65.9769
L141.885 -63.9977
L141.885 -63.9977
L141.885 -63.9977
L141.885 -63.9977
L140.839 -62.1389
L140.839 -62.1389
L139.792 -60.4039
L139.792 -60.4039
L139.792 -60.4039
L139.792 -60.4039
L139.792 -60.4039
L139.792 -60.4039
L136.654 -55.9768
L136.654 -55.9768
L136.654 -55.9768
L136.654 -55.9768
L136.654 -55.9768
L136.654 -55.9768
L136.654 -55.9768
L136.654 -55.9768
L135.608 -54.7724
L135.608 -54.7724
L135.608 -54.7724
L134.561 -53.7097
L134.561 -53.7097
L134.561 -53.7097
L134.561 -53.7097
L133.515 -52.7925
L133.515 -52.7925
L133.515 -52.7925
L132.469 -52.0246
L132.469 -52.0246
L132.469 -52.0246
L132.469 -52.0246
L132.469 -52.0246
L132.469 -52.0246
L132.469 -52.0246
L132.469 -52.0246
L132.469 -52.0246
L132.469 -52.0246
L132.469 -52.0246
L131.423 -51.4099
L131.423 -51.4099
L131.423 -51.4099
L130.376 -50.9524
L129.33 -50.6561
L129.33 -50.6561
L129.33 -50.6561
L129.33 -50.6561
L129.33 -50.6561
L129.33 -50.6561
L128.284 -50.5249
L128.284 -50.5249
L128.284 -50.5249
L128.284 -50.5249
L127.237 -50.5629
L127.237 -50.5629
L127.237 -50.5629
L127.237 -50.5629
L127.237 -50.5629
L127.237 -50.5629
L127.237 -50.5629
L127.237 -50.5629
L127.237 -50.5629
L126.191 -50.774
L126.191 -50.774
L126.191 -50.774
L126.191 -50.774
L125.145 -51.1624
L125.145 -51.1624
L125.145 -51.1624
L125.145 -51.1624
L124.099 -51.732
L124.099 -51.732
L124.099 -51.732
L124.099 -51.732
L124.099 -51.732
L124.099 -51.732
L124.099 -51.732
L124.099 -51.732
L124.099 -51.732
L122.006 -53.4298
L120.96 -54.5653
L120.96 -54.5653
L120.96 -54.5653
L120.96 -54.5653
L119.914 -55.8964
L119.914 -55.8964
L119.914 -55.8964
L119.914 -55.8964
L119.914 -55.8964
L119.914 -55.8964
L119.914 -55.8964
L119.914 -55.8964
L119.914 -55.8964
L119.914 -55.8964
L119.914 -55.8964
L117.821 -59.157
L117.821 -59.157
L117.821 -59.157
L117.821 -59.157
L116.775 -61.0916
L116.775 -61.0916
L116.775 -61.0916
L116.775 -61.0916
L116.775 -61.0916
L115.729 -63.2316
L115.729 -63.2316
L114.682 -65.5782
L113.636 -68.1321
L113.636 -68.1321
L113.636 -68.1321
L112.59 -70.8932
L112.59 -70.8932
L112.59 -70.8932
L112.59 -70.8932
L112.59 -70.8932
L112.59 -70.8932
L112.59 -70.8932
L112.59 -70.8932
L112.59 -70.8932
L112.59 -70.8932
L112.59 -70.8932
L112.59 -70.8932
L112.59 -70.8932
L112.59 -70.8932
L112.59 -70.8932
L112.59 -70.8932
L111.544 -73.8605
L111.544 -73.8605
L111.544 -73.8605
L110.498 -77.0322
L110.498 -77.0322
L110.498 -77.0322
L110.497 -77.0322
L109.451 -80.4055
L109.451 -80.4055
L108.405 -83.9764
L108.405 -83.9764
L108.405 -83.9764
L108.405 -83.9764
L108.405 -83.9764
L108.405 -83.9764
L105.266 -95.817
L105.266 -95.817
L105.266 -95.817
L105.266 -95.817
L105.266 -95.817
L105.266 -95.817
L105.266 -95.817
L105.266 -95.817
L104.22 -100.114
L104.22 -100.114
L104.22 -100.114
L103.174 -104.569
L103.174 -104.569
L103.174 -104.569
L103.174 -104.569
L102.128 -109.17
L102.128 -109.17
L102.128 -109.17
L101.081 -113.903
L101.081 -113.903
L101.081 -113.903
L101.081 -113.903
L101.081 -113.903
L101.081 -113.903
L101.081 -113.903
L101.081 -113.903
L101.081 -113.903
L101.081 -113.903
L101.081 -113.903
L100.035 -118.752
L100.035 -118.752
L100.035 -118.752
L98.9887 -123.7
L97.9425 -128.727
L97.9425 -128.727
L97.9425 -128.727
L97.9425 -128.727
L97.9425 -128.727
L97.9425 -128.727
L96.8963 -133.813
L96.8963 -133.813
L96.8963 -133.813
L96.8963 -133.813
L95.85 -138.936
L95.85 -138.936
L95.85 -138.936
L95.85 -138.936
L95.85 -138.936
L95.85 -138.936
L95.85 -138.936
L95.85 -138.936
L95.85 -138.936
L94.8038 -144.071
L94.8037 -144.071
L94.8037 -144.071
L94.8037 -144.071
L93.7575 -149.192
L93.7575 -149.192
L93.7575 -149.192
L93.7575 -149.192
L92.7112 -154.274
L92.7112 -154.274
L92.7112 -154.274
L92.7112 -154.274
L92.7112 -154.274
L92.7112 -154.274
L92.7112 -154.274
L92.7112 -154.274
L92.7112 -154.274
L90.6188 -164.205
L89.5725 -168.995
L89.5725 -168.995
L89.5725 -168.995
L89.5725 -168.995
L88.5263 -173.628
L88.5263 -173.628
L88.5263 -173.628
L88.5263 -173.628
L88.5263 -173.628
L88.5263 -173.628
L88.5263 -173.628
L88.5263 -173.628
L88.5263 -173.628
L88.5263 -173.628
L88.5262 -173.628
L86.4338 -182.302
L86.4338 -182.302
L86.4338 -182.302
L86.4338 -182.302
L85.3875 -186.282
L85.3875 -186.282
L85.3875 -186.282
L85.3875 -186.282
L85.3875 -186.282
L84.3413 -189.986
L84.3413 -189.986
L83.295 -193.385
L82.2488 -196.454
L82.2487 -196.454
L82.2487 -196.454
L81.2025 -199.168
L81.2025 -199.168
L81.2025 -199.168
L81.2025 -199.168
L81.2025 -199.168
L81.2025 -199.168
L81.2025 -199.168
L81.2025 -199.168
L81.2025 -199.168
L81.2025 -199.168
L81.2025 -199.168
L81.2025 -199.168
L81.2025 -199.168
L81.2025 -199.168
L81.2025 -199.168
L81.2025 -199.168
L80.1562 -201.506
L80.1562 -201.506
L80.1562 -201.506
L79.11 -203.449
L79.11 -203.449
L79.11 -203.449
L79.11 -203.449
L78.0638 -204.982
L78.0637 -204.982
L77.0175 -206.092
L77.0175 -206.092
L77.0175 -206.092
L77.0175 -206.092
L77.0175 -206.092
L77.0175 -206.092
L73.8788 -206.831
L73.8787 -206.831
L73.8787 -206.831
L73.8787 -206.831
L73.8787 -206.831
L73.8787 -206.831
L73.8787 -206.831
L73.8787 -206.831
L72.8325 -206.215
L72.8325 -206.215
L72.8325 -206.215
L71.7863 -205.179
L71.7863 -205.179
L71.7863 -205.179
L71.7862 -205.179
L70.74 -203.736
L70.74 -203.736
L70.74 -203.736
L69.6937 -201.904
L69.6937 -201.904
L69.6937 -201.904
L69.6937 -201.904
L69.6937 -201.904
L69.6937 -201.904
L69.6937 -201.904
L69.6937 -201.904
L69.6937 -201.904
L69.6937 -201.904
L69.6937 -201.904
L68.6475 -199.704
L68.6475 -199.704
L68.6475 -199.704
L67.6012 -197.158
L66.555 -194.292
L66.555 -194.292
L66.555 -194.292
L66.555 -194.292
L66.555 -194.292
L66.555 -194.292
L65.5088 -191.134
L65.5088 -191.134
L65.5088 -191.134
L65.5088 -191.134
L64.4625 -187.711
L64.4625 -187.711
L64.4625 -187.711
L64.4625 -187.711
L64.4625 -187.711
L64.4625 -187.711
L64.4625 -187.711
L64.4625 -187.711
L64.4625 -187.711
L63.4163 -184.051
L63.4162 -184.051
L63.4162 -184.051
L63.4162 -184.051
L62.37 -180.18
L62.37 -180.18
L62.37 -180.18
L62.37 -180.18
L61.3237 -176.122
L61.3237 -176.122
L61.3237 -176.122
L61.3237 -176.122
L61.3237 -176.122
L61.3237 -176.122
L61.3237 -176.122
L61.3237 -176.122
L61.3237 -176.122
L59.2313 -167.527
L58.185 -163.023
L58.185 -163.023
L58.185 -163.023
L58.185 -163.023
L57.1388 -158.397
L57.1388 -158.397
L57.1388 -158.397
L57.1388 -158.397
L57.1388 -158.397
L57.1388 -158.397
L57.1388 -158.397
L57.1388 -158.397
L57.1388 -158.397
L57.1388 -158.397
L57.1387 -158.397
L55.0463 -148.818
L55.0463 -148.818
L55.0463 -148.818
L55.0463 -148.818
L54 -143.877
z
" id="C0_0_3b1985719e"/>
    </defs>
    <g clip-path="url(#p124b8dd147)">
     <use style="fill:#0000ff;fill-opacity:0.1;stroke:#000000;stroke-opacity:0.1;" x="0.0" xlink:href="#C0_0_3b1985719e" y="288.0"/>
    </g>
   </g>
   <g id="line2d_1">
    <path clip-path="url(#p124b8dd147)" d="
M54 144.123
L55.0463 139.8
L55.0463 139.8
L55.0463 139.8
L55.0463 139.8
L59.2313 123.266
L62.37 111.941
L62.37 111.941
L64.4625 105.157
L64.4625 105.157
L66.555 99.2173
L66.555 99.2173
L68.6475 94.3458
L68.6475 94.3458
L69.6937 92.3791
L69.6937 92.3791
L70.74 90.7582
L70.74 90.7582
L71.7862 89.5044
L71.7863 89.5044
L72.8325 88.6357
L72.8325 88.6357
L73.8787 88.1662
L73.8788 88.1662
L77.0175 89.2326
L77.0175 89.2326
L78.0637 90.4178
L78.0638 90.4178
L79.11 92.0097
L79.11 92.0097
L80.1562 93.9977
L80.1562 93.9977
L81.2025 96.3673
L81.2025 96.3673
L82.2488 99.1009
L84.3413 105.576
L84.3413 105.576
L86.4338 113.23
L89.5725 126.446
L92.7112 141.043
L92.7112 141.043
L101.081 181.104
L101.081 181.104
L104.22 194.828
L104.22 194.828
L105.266 199.112
L105.266 199.112
L109.451 214.513
L109.451 214.513
L111.544 221.075
L111.544 221.075
L113.636 226.831
L115.729 231.769
L115.729 231.769
L117.821 235.886
L117.821 235.886
L119.914 239.193
L119.914 239.193
L120.96 240.547
L120.96 240.547
L122.006 241.706
L124.099 243.449
L124.099 243.449
L125.145 244.04
L125.145 244.04
L126.191 244.45
L127.237 244.681
L127.237 244.681
L128.284 244.738
L128.284 244.738
L129.33 244.624
L129.33 244.624
L130.376 244.344
L131.423 243.902
L131.423 243.902
L132.469 243.301
L132.469 243.301
L133.515 242.546
L133.515 242.546
L135.608 240.589
L135.608 240.589
L136.654 239.394
L139.792 234.99
L139.792 234.99
L141.885 231.409
L141.885 231.409
L143.978 227.343
L143.978 227.343
L146.07 222.822
L148.163 217.873
L148.163 217.873
L151.301 209.707
L151.301 209.707
L153.394 203.808
L157.579 191.048
L161.764 177.205
L165.949 162.537
L165.949 162.537
L172.226 139.612
L172.226 139.612
L180.596 108.973
L184.781 94.3841
L188.966 80.749
L192.105 71.3569
L192.105 71.3569
L195.244 62.8356
L195.244 62.8356
L197.336 57.7039
L197.336 57.7039
L199.429 53.0542
L199.429 53.0542
L202.567 47.0562
L202.567 47.0562
L204.66 43.7521
L204.66 43.7521
L206.752 41.0341
L206.753 41.0341
L208.845 38.9239
L209.891 38.1023
L209.891 38.1023
L210.938 37.4389
L210.938 37.4389
L211.984 36.9352
L214.076 36.4115
L214.076 36.4115
L215.123 36.393
L216.169 36.5372
L218.261 37.3136
L218.261 37.3136
L219.308 37.9447
L219.308 37.9447
L220.354 38.7367
L221.4 39.6882
L221.4 39.6882
L223.492 42.063
L223.493 42.063
L225.585 45.0524
L225.585 45.0524
L227.678 48.6347
L227.678 48.6347
L229.77 52.783
L229.77 52.783
L230.816 55.0597
L235.001 65.4116
L235.001 65.4116
L238.14 74.3376
L238.14 74.3376
L241.279 84.0846
L241.279 84.0846
L245.464 98.0535
L245.464 98.0535
L250.695 116.445
L250.695 116.445
L258.019 142.284
L258.019 142.284
L262.204 156.249
L262.204 156.249
L266.389 169.099
L266.389 169.099
L269.528 177.779
L269.528 177.779
L271.62 183.034
L273.712 187.826
L273.712 187.826
L274.759 190.038
L277.897 195.908
L277.897 195.908
L278.944 197.602
L281.036 200.582
L281.036 200.582
L283.129 203.013
L285.221 204.894
L285.221 204.894
L286.268 205.627
L286.268 205.627
L287.314 206.225
L288.36 206.686
L288.36 206.686
L289.406 207.014
L289.406 207.014
L290.453 207.21
L290.453 207.21
L291.499 207.275
L291.499 207.275
L292.545 207.213
L292.545 207.213
L293.591 207.025
L293.591 207.025
L296.73 205.744
L296.73 205.744
L298.823 204.327
L298.823 204.327
L300.915 202.497
L300.915 202.497
L303.007 200.289
L305.1 197.744
L305.1 197.744
L306.146 196.357
L306.146 196.357
L309.285 191.804
L309.285 191.804
L312.424 186.778
L312.424 186.778
L316.609 179.596
L316.609 179.596
L324.979 164.88
L324.979 164.88
L330.21 156.332
L330.21 156.332
L333.349 151.701
L333.349 151.701
L336.488 147.542
L336.488 147.542
L337.534 146.272
L337.534 146.272
L340.673 142.833
L340.673 142.833
L341.719 141.815
L344.858 139.155
L346.95 137.713
L346.95 137.713
L349.043 136.534
L349.043 136.534
L351.135 135.613
L351.135 135.613
L353.228 134.941
L353.228 134.941
L355.32 134.506
L355.32 134.506
L356.366 134.374
L356.366 134.374
L360.551 134.358
L362.644 134.628
L362.644 134.628
L365.782 135.32
L368.921 136.292
L368.921 136.292
L373.106 137.891
L385.661 143.079
L385.661 143.079
L388.8 144.123
L388.8 144.123" style="fill:none;stroke:#0000ff;stroke-linecap:square;"/>
   </g>
   <g id="line2d_2">
    <path clip-path="url(#p124b8dd147)" d="
M54 144.123
L62.37 144.018
L64.4625 143.759
L66.555 143.183
L67.6012 142.724
L68.6475 142.123
L69.6937 141.36
L70.74 140.418
L71.7862 139.279
L72.8325 137.931
L73.8787 136.364
L74.925 134.571
L77.0175 130.3
L79.11 125.137
L81.2025 119.152
L83.295 112.466
L86.4338 101.464
L95.85 67.339
L97.9425 60.6848
L100.035 54.6883
L102.127 49.452
L104.22 45.0519
L106.312 41.5378
L107.359 40.122
L108.405 38.9354
L109.451 37.978
L110.498 37.2481
L111.544 36.7432
L112.59 36.4597
L113.636 36.393
L114.683 36.5375
L115.729 36.8872
L116.775 37.4352
L117.821 38.174
L118.868 39.0956
L119.914 40.1917
L122.006 42.8723
L124.099 46.1432
L126.191 49.9299
L128.284 54.1571
L131.423 61.1623
L134.561 68.7531
L139.793 82.1141
L147.116 100.891
L151.301 111.04
L154.44 118.187
L157.579 124.855
L160.718 130.995
L163.856 136.574
L166.995 141.575
L170.134 145.994
L172.226 148.621
L174.319 150.997
L176.411 153.129
L178.504 155.024
L180.596 156.691
L182.689 158.139
L184.781 159.38
L186.874 160.424
L188.966 161.284
L191.059 161.97
L194.198 162.701
L197.336 163.111
L200.475 163.239
L203.614 163.125
L206.753 162.805
L210.938 162.12
L215.123 161.207
L220.354 159.846
L229.77 157.103
L241.279 153.782
L248.603 151.894
L255.926 150.252
L263.25 148.871
L270.574 147.741
L277.898 146.838
L286.268 146.046
L295.684 145.401
L306.146 144.917
L318.701 144.559
L335.441 144.311
L361.598 144.169
L388.8 144.133
L388.8 144.133" style="fill:none;stroke:#008000;stroke-linecap:square;"/>
   </g>
   <g id="matplotlib.axis_1">
    <g id="xtick_1">
     <g id="line2d_3">
      <defs>
       <path d="
M0 0
L0 -4" id="m93b0483c22" style="stroke:#000000;stroke-width:0.5;"/>
      </defs>
      <g>
       <use style="stroke:#000000;stroke-width:0.5;" x="54.0" xlink:href="#m93b0483c22" y="252.0"/>
      </g>
     </g>
     <g id="line2d_4">
      <defs>
       <path d="
M0 0
L0 4" id="m741efc42ff" style="stroke:#000000;stroke-width:0.5;"/>
      </defs>
      <g>
       <use style="stroke:#000000;stroke-width:0.5;" x="54.0" xlink:href="#m741efc42ff" y="28.8"/>
      </g>
     </g>
     <g id="text_1">
      <!-- 0 -->
      <defs>
       <path d="
M31.7812 66.4062
Q24.1719 66.4062 20.3281 58.9062
Q16.5 51.4219 16.5 36.375
Q16.5 21.3906 20.3281 13.8906
Q24.1719 6.39062 31.7812 6.39062
Q39.4531 6.39062 43.2812 13.8906
Q47.125 21.3906 47.125 36.375
Q47.125 51.4219 43.2812 58.9062
Q39.4531 66.4062 31.7812 66.4062
M31.7812 74.2188
Q44.0469 74.2188 50.5156 64.5156
Q56.9844 54.8281 56.9844 36.375
Q56.9844 17.9688 50.5156 8.26562
Q44.0469 -1.42188 31.7812 -1.42188
Q19.5312 -1.42188 13.0625 8.26562
Q6.59375 17.9688 6.59375 36.375
Q6.59375 54.8281 13.0625 64.5156
Q19.5312 74.2188 31.7812 74.2188" id="DejaVuSans-30"/>
      </defs>
      <g transform="translate(51.48046875 263.5984375)scale(0.1 -0.1)">
       <use xlink:href="#DejaVuSans-30"/>
      </g>
     </g>
    </g>
    <g id="xtick_2">
     <g id="line2d_5">
      <g>
       <use style="stroke:#000000;stroke-width:0.5;" x="106.3125" xlink:href="#m93b0483c22" y="252.0"/>
      </g>
     </g>
     <g id="line2d_6">
      <g>
       <use style="stroke:#000000;stroke-width:0.5;" x="106.3125" xlink:href="#m741efc42ff" y="28.8"/>
      </g>
     </g>
     <g id="text_2">
      <!-- 5 -->
      <defs>
       <path d="
M10.7969 72.9062
L49.5156 72.9062
L49.5156 64.5938
L19.8281 64.5938
L19.8281 46.7344
Q21.9688 47.4688 24.1094 47.8281
Q26.2656 48.1875 28.4219 48.1875
Q40.625 48.1875 47.75 41.5
Q54.8906 34.8125 54.8906 23.3906
Q54.8906 11.625 47.5625 5.09375
Q40.2344 -1.42188 26.9062 -1.42188
Q22.3125 -1.42188 17.5469 -0.640625
Q12.7969 0.140625 7.71875 1.70312
L7.71875 11.625
Q12.1094 9.23438 16.7969 8.0625
Q21.4844 6.89062 26.7031 6.89062
Q35.1562 6.89062 40.0781 11.3281
Q45.0156 15.7656 45.0156 23.3906
Q45.0156 31 40.0781 35.4375
Q35.1562 39.8906 26.7031 39.8906
Q22.75 39.8906 18.8125 39.0156
Q14.8906 38.1406 10.7969 36.2812
z
" id="DejaVuSans-35"/>
      </defs>
      <g transform="translate(103.95390625 263.5984375)scale(0.1 -0.1)">
       <use xlink:href="#DejaVuSans-35"/>
      </g>
     </g>
    </g>
    <g id="xtick_3">
     <g id="line2d_7">
      <g>
       <use style="stroke:#000000;stroke-width:0.5;" x="158.625" xlink:href="#m93b0483c22" y="252.0"/>
      </g>
     </g>
     <g id="line2d_8">
      <g>
       <use style="stroke:#000000;stroke-width:0.5;" x="158.625" xlink:href="#m741efc42ff" y="28.8"/>
      </g>
     </g>
     <g id="text_3">
      <!-- 10 -->
      <defs>
       <path d="
M12.4062 8.29688
L28.5156 8.29688
L28.5156 63.9219
L10.9844 60.4062
L10.9844 69.3906
L28.4219 72.9062
L38.2812 72.9062
L38.2812 8.29688
L54.3906 8.29688
L54.3906 0
L12.4062 0
z
" id="DejaVuSans-31"/>
      </defs>
      <g transform="translate(153.14375 263.5984375)scale(0.1 -0.1)">
       <use xlink:href="#DejaVuSans-31"/>
       <use x="63.623046875" xlink:href="#DejaVuSans-30"/>
      </g>
     </g>
    </g>
    <g id="xtick_4">
     <g id="line2d_9">
      <g>
       <use style="stroke:#000000;stroke-width:0.5;" x="210.9375" xlink:href="#m93b0483c22" y="252.0"/>
      </g>
     </g>
     <g id="line2d_10">
      <g>
       <use style="stroke:#000000;stroke-width:0.5;" x="210.9375" xlink:href="#m741efc42ff" y="28.8"/>
      </g>
     </g>
     <g id="text_4">
      <!-- 15 -->
      <g transform="translate(205.5609375 263.5984375)scale(0.1 -0.1)">
       <use xlink:href="#DejaVuSans-31"/>
       <use x="63.623046875" xlink:href="#DejaVuSans-35"/>
      </g>
     </g>
    </g>
    <g id="xtick_5">
     <g id="line2d_11">
      <g>
       <use style="stroke:#000000;stroke-width:0.5;" x="263.25" xlink:href="#m93b0483c22" y="252.0"/>
      </g>
     </g>
     <g id="line2d_12">
      <g>
       <use style="stroke:#000000;stroke-width:0.5;" x="263.25" xlink:href="#m741efc42ff" y="28.8"/>
      </g>
     </g>
     <g id="text_5">
      <!-- 20 -->
      <defs>
       <path d="
M19.1875 8.29688
L53.6094 8.29688
L53.6094 0
L7.32812 0
L7.32812 8.29688
Q12.9375 14.1094 22.625 23.8906
Q32.3281 33.6875 34.8125 36.5312
Q39.5469 41.8438 41.4219 45.5312
Q43.3125 49.2188 43.3125 52.7812
Q43.3125 58.5938 39.2344 62.25
Q35.1562 65.9219 28.6094 65.9219
Q23.9688 65.9219 18.8125 64.3125
Q13.6719 62.7031 7.8125 59.4219
L7.8125 69.3906
Q13.7656 71.7812 18.9375 73
Q24.125 74.2188 28.4219 74.2188
Q39.75 74.2188 46.4844 68.5469
Q53.2188 62.8906 53.2188 53.4219
Q53.2188 48.9219 51.5312 44.8906
Q49.8594 40.875 45.4062 35.4062
Q44.1875 33.9844 37.6406 27.2188
Q31.1094 20.4531 19.1875 8.29688" id="DejaVuSans-32"/>
      </defs>
      <g transform="translate(257.5859375 263.5984375)scale(0.1 -0.1)">
       <use xlink:href="#DejaVuSans-32"/>
       <use x="63.623046875" xlink:href="#DejaVuSans-30"/>
      </g>
     </g>
    </g>
    <g id="xtick_6">
     <g id="line2d_13">
      <g>
       <use style="stroke:#000000;stroke-width:0.5;" x="315.5625" xlink:href="#m93b0483c22" y="252.0"/>
      </g>
     </g>
     <g id="line2d_14">
      <g>
       <use style="stroke:#000000;stroke-width:0.5;" x="315.5625" xlink:href="#m741efc42ff" y="28.8"/>
      </g>
     </g>
     <g id="text_6">
      <!-- 25 -->
      <g transform="translate(310.003125 263.5984375)scale(0.1 -0.1)">
       <use xlink:href="#DejaVuSans-32"/>
       <use x="63.623046875" xlink:href="#DejaVuSans-35"/>
      </g>
     </g>
    </g>
    <g id="xtick_7">
     <g id="line2d_15">
      <g>
       <use style="stroke:#000000;stroke-width:0.5;" x="367.875" xlink:href="#m93b0483c22" y="252.0"/>
      </g>
     </g>
     <g id="line2d_16">
      <g>
       <use style="stroke:#000000;stroke-width:0.5;" x="367.875" xlink:href="#m741efc42ff" y="28.8"/>
      </g>
     </g>
     <g id="text_7">
      <!-- 30 -->
      <defs>
       <path d="
M40.5781 39.3125
Q47.6562 37.7969 51.625 33
Q55.6094 28.2188 55.6094 21.1875
Q55.6094 10.4062 48.1875 4.48438
Q40.7656 -1.42188 27.0938 -1.42188
Q22.5156 -1.42188 17.6562 -0.515625
Q12.7969 0.390625 7.625 2.20312
L7.625 11.7188
Q11.7188 9.32812 16.5938 8.10938
Q21.4844 6.89062 26.8125 6.89062
Q36.0781 6.89062 40.9375 10.5469
Q45.7969 14.2031 45.7969 21.1875
Q45.7969 27.6406 41.2812 31.2656
Q36.7656 34.9062 28.7188 34.9062
L20.2188 34.9062
L20.2188 43.0156
L29.1094 43.0156
Q36.375 43.0156 40.2344 45.9219
Q44.0938 48.8281 44.0938 54.2969
Q44.0938 59.9062 40.1094 62.9062
Q36.1406 65.9219 28.7188 65.9219
Q24.6562 65.9219 20.0156 65.0312
Q15.375 64.1562 9.8125 62.3125
L9.8125 71.0938
Q15.4375 72.6562 20.3438 73.4375
Q25.25 74.2188 29.5938 74.2188
Q40.8281 74.2188 47.3594 69.1094
Q53.9062 64.0156 53.9062 55.3281
Q53.9062 49.2656 50.4375 45.0938
Q46.9688 40.9219 40.5781 39.3125" id="DejaVuSans-33"/>
      </defs>
      <g transform="translate(362.22578125 263.5984375)scale(0.1 -0.1)">
       <use xlink:href="#DejaVuSans-33"/>
       <use x="63.623046875" xlink:href="#DejaVuSans-30"/>
      </g>
     </g>
    </g>
   </g>
   <g id="matplotlib.axis_2">
    <g id="ytick_1">
     <g id="line2d_17">
      <defs>
       <path d="
M0 0
L4 0" id="m728421d6d4" style="stroke:#000000;stroke-width:0.5;"/>
      </defs>
      <g>
       <use style="stroke:#000000;stroke-width:0.5;" x="54.0" xlink:href="#m728421d6d4" y="251.853595565"/>
      </g>
     </g>
     <g id="line2d_18">
      <defs>
       <path d="
M0 0
L-4 0" id="mcb0005524f" style="stroke:#000000;stroke-width:0.5;"/>
      </defs>
      <g>
       <use style="stroke:#000000;stroke-width:0.5;" x="388.8" xlink:href="#mcb0005524f" y="251.853595565"/>
      </g>
     </g>
     <g id="text_8">
      <!-- 1.0 -->
      <defs>
       <path d="
M10.6875 12.4062
L21 12.4062
L21 0
L10.6875 0
z
" id="DejaVuSans-2e"/>
       <path d="
M10.5938 35.5
L73.1875 35.5
L73.1875 27.2031
L10.5938 27.2031
z
" id="DejaVuSans-2212"/>
      </defs>
      <g transform="translate(27.440625 254.612970565)scale(0.1 -0.1)">
       <use xlink:href="#DejaVuSans-2212"/>
       <use x="83.7890625" xlink:href="#DejaVuSans-31"/>
       <use x="147.412109375" xlink:href="#DejaVuSans-2e"/>
       <use x="179.19921875" xlink:href="#DejaVuSans-30"/>
      </g>
     </g>
    </g>
    <g id="ytick_2">
     <g id="line2d_19">
      <g>
       <use style="stroke:#000000;stroke-width:0.5;" x="54.0" xlink:href="#m728421d6d4" y="197.988438979"/>
      </g>
     </g>
     <g id="line2d_20">
      <g>
       <use style="stroke:#000000;stroke-width:0.5;" x="388.8" xlink:href="#mcb0005524f" y="197.988438979"/>
      </g>
     </g>
     <g id="text_9">
      <!-- 0.5 -->
      <g transform="translate(27.65 200.747813979)scale(0.1 -0.1)">
       <use xlink:href="#DejaVuSans-2212"/>
       <use x="83.7890625" xlink:href="#DejaVuSans-30"/>
       <use x="147.412109375" xlink:href="#DejaVuSans-2e"/>
       <use x="179.19921875" xlink:href="#DejaVuSans-35"/>
      </g>
     </g>
    </g>
    <g id="ytick_3">
     <g id="line2d_21">
      <g>
       <use style="stroke:#000000;stroke-width:0.5;" x="54.0" xlink:href="#m728421d6d4" y="144.123282392"/>
      </g>
     </g>
     <g id="line2d_22">
      <g>
       <use style="stroke:#000000;stroke-width:0.5;" x="388.8" xlink:href="#mcb0005524f" y="144.123282392"/>
      </g>
     </g>
     <g id="text_10">
      <!-- 0.0 -->
      <g transform="translate(35.4203125 146.882657392)scale(0.1 -0.1)">
       <use xlink:href="#DejaVuSans-30"/>
       <use x="63.623046875" xlink:href="#DejaVuSans-2e"/>
       <use x="95.41015625" xlink:href="#DejaVuSans-30"/>
      </g>
     </g>
    </g>
    <g id="ytick_4">
     <g id="line2d_23">
      <g>
       <use style="stroke:#000000;stroke-width:0.5;" x="54.0" xlink:href="#m728421d6d4" y="90.2581258065"/>
      </g>
     </g>
     <g id="line2d_24">
      <g>
       <use style="stroke:#000000;stroke-width:0.5;" x="388.8" xlink:href="#mcb0005524f" y="90.2581258065"/>
      </g>
     </g>
     <g id="text_11">
      <!-- 0.5 -->
      <g transform="translate(35.6296875 93.0175008065)scale(0.1 -0.1)">
       <use xlink:href="#DejaVuSans-30"/>
       <use x="63.623046875" xlink:href="#DejaVuSans-2e"/>
       <use x="95.41015625" xlink:href="#DejaVuSans-35"/>
      </g>
     </g>
    </g>
    <g id="ytick_5">
     <g id="line2d_25">
      <g>
       <use style="stroke:#000000;stroke-width:0.5;" x="54.0" xlink:href="#m728421d6d4" y="36.3929692204"/>
      </g>
     </g>
     <g id="line2d_26">
      <g>
       <use style="stroke:#000000;stroke-width:0.5;" x="388.8" xlink:href="#mcb0005524f" y="36.3929692204"/>
      </g>
     </g>
     <g id="text_12">
      <!-- 1.0 -->
      <g transform="translate(35.859375 39.1523442204)scale(0.1 -0.1)">
       <use xlink:href="#DejaVuSans-31"/>
       <use x="63.623046875" xlink:href="#DejaVuSans-2e"/>
       <use x="95.41015625" xlink:href="#DejaVuSans-30"/>
      </g>
     </g>
    </g>
   </g>
   <g id="patch_3">
    <path d="
M54 28.8
L388.8 28.8" style="fill:none;stroke:#000000;"/>
   </g>
   <g id="patch_4">
    <path d="
M388.8 252
L388.8 28.8" style="fill:none;stroke:#000000;"/>
   </g>
   <g id="patch_5">
    <path d="
M54 252
L388.8 252" style="fill:none;stroke:#000000;"/>
   </g>
   <g id="patch_6">
    <path d="
M54 252
L54 28.8" style="fill:none;stroke:#000000;"/>
   </g>
   <g id="legend_1">
    <g id="patch_7">
     <path d="
M251.772 73.65
L382.8 73.65
L382.8 34.8
L251.772 34.8
L251.772 73.65
z
" style="fill:#ffffff;stroke:#000000;"/>
    </g>
    <g id="line2d_27">
     <path d="
M260.172 44.525
L276.972 44.525" style="fill:none;stroke:#0000ff;stroke-linecap:square;"/>
    </g>
    <g id="line2d_28"/>
    <g id="text_13">
     <!-- estimated HRF -->
     <defs>
      <path d="
M52 44.1875
Q55.375 50.25 60.0625 53.125
Q64.75 56 71.0938 56
Q79.6406 56 84.2812 50.0156
Q88.9219 44.0469 88.9219 33.0156
L88.9219 0
L79.8906 0
L79.8906 32.7188
Q79.8906 40.5781 77.0938 44.375
Q74.3125 48.1875 68.6094 48.1875
Q61.625 48.1875 57.5625 43.5469
Q53.5156 38.9219 53.5156 30.9062
L53.5156 0
L44.4844 0
L44.4844 32.7188
Q44.4844 40.625 41.7031 44.4062
Q38.9219 48.1875 33.1094 48.1875
Q26.2188 48.1875 22.1562 43.5312
Q18.1094 38.875 18.1094 30.9062
L18.1094 0
L9.07812 0
L9.07812 54.6875
L18.1094 54.6875
L18.1094 46.1875
Q21.1875 51.2188 25.4844 53.6094
Q29.7812 56 35.6875 56
Q41.6562 56 45.8281 52.9688
Q50 49.9531 52 44.1875" id="DejaVuSans-6d"/>
      <path d="
M44.3906 34.1875
Q47.5625 33.1094 50.5625 29.5938
Q53.5625 26.0781 56.5938 19.9219
L66.6094 0
L56 0
L46.6875 18.7031
Q43.0625 26.0312 39.6719 28.4219
Q36.2812 30.8125 30.4219 30.8125
L19.6719 30.8125
L19.6719 0
L9.8125 0
L9.8125 72.9062
L32.0781 72.9062
Q44.5781 72.9062 50.7344 67.6719
Q56.8906 62.4531 56.8906 51.9062
Q56.8906 45.0156 53.6875 40.4688
Q50.4844 35.9375 44.3906 34.1875
M19.6719 64.7969
L19.6719 38.9219
L32.0781 38.9219
Q39.2031 38.9219 42.8438 42.2188
Q46.4844 45.5156 46.4844 51.9062
Q46.4844 58.2969 42.8438 61.5469
Q39.2031 64.7969 32.0781 64.7969
z
" id="DejaVuSans-52"/>
      <path d="
M9.8125 72.9062
L51.7031 72.9062
L51.7031 64.5938
L19.6719 64.5938
L19.6719 43.1094
L48.5781 43.1094
L48.5781 34.8125
L19.6719 34.8125
L19.6719 0
L9.8125 0
z
" id="DejaVuSans-46"/>
      <path id="DejaVuSans-20"/>
      <path d="
M9.42188 54.6875
L18.4062 54.6875
L18.4062 0
L9.42188 0
z

M9.42188 75.9844
L18.4062 75.9844
L18.4062 64.5938
L9.42188 64.5938
z
" id="DejaVuSans-69"/>
      <path d="
M18.3125 70.2188
L18.3125 54.6875
L36.8125 54.6875
L36.8125 47.7031
L18.3125 47.7031
L18.3125 18.0156
Q18.3125 11.3281 20.1406 9.42188
Q21.9688 7.51562 27.5938 7.51562
L36.8125 7.51562
L36.8125 0
L27.5938 0
Q17.1875 0 13.2344 3.875
Q9.28125 7.76562 9.28125 18.0156
L9.28125 47.7031
L2.6875 47.7031
L2.6875 54.6875
L9.28125 54.6875
L9.28125 70.2188
z
" id="DejaVuSans-74"/>
      <path d="
M45.4062 46.3906
L45.4062 75.9844
L54.3906 75.9844
L54.3906 0
L45.4062 0
L45.4062 8.20312
Q42.5781 3.32812 38.25 0.953125
Q33.9375 -1.42188 27.875 -1.42188
Q17.9688 -1.42188 11.7344 6.48438
Q5.51562 14.4062 5.51562 27.2969
Q5.51562 40.1875 11.7344 48.0938
Q17.9688 56 27.875 56
Q33.9375 56 38.25 53.625
Q42.5781 51.2656 45.4062 46.3906
M14.7969 27.2969
Q14.7969 17.3906 18.875 11.75
Q22.9531 6.10938 30.0781 6.10938
Q37.2031 6.10938 41.2969 11.75
Q45.4062 17.3906 45.4062 27.2969
Q45.4062 37.2031 41.2969 42.8438
Q37.2031 48.4844 30.0781 48.4844
Q22.9531 48.4844 18.875 42.8438
Q14.7969 37.2031 14.7969 27.2969" id="DejaVuSans-64"/>
      <path d="
M56.2031 29.5938
L56.2031 25.2031
L14.8906 25.2031
Q15.4844 15.9219 20.4844 11.0625
Q25.4844 6.20312 34.4219 6.20312
Q39.5938 6.20312 44.4531 7.46875
Q49.3125 8.73438 54.1094 11.2812
L54.1094 2.78125
Q49.2656 0.734375 44.1875 -0.34375
Q39.1094 -1.42188 33.8906 -1.42188
Q20.7969 -1.42188 13.1562 6.1875
Q5.51562 13.8125 5.51562 26.8125
Q5.51562 40.2344 12.7656 48.1094
Q20.0156 56 32.3281 56
Q43.3594 56 49.7812 48.8906
Q56.2031 41.7969 56.2031 29.5938
M47.2188 32.2344
Q47.125 39.5938 43.0938 43.9844
Q39.0625 48.3906 32.4219 48.3906
Q24.9062 48.3906 20.3906 44.1406
Q15.875 39.8906 15.1875 32.1719
z
" id="DejaVuSans-65"/>
      <path d="
M9.8125 72.9062
L19.6719 72.9062
L19.6719 43.0156
L55.5156 43.0156
L55.5156 72.9062
L65.375 72.9062
L65.375 0
L55.5156 0
L55.5156 34.7188
L19.6719 34.7188
L19.6719 0
L9.8125 0
z
" id="DejaVuSans-48"/>
      <path d="
M44.2812 53.0781
L44.2812 44.5781
Q40.4844 46.5312 36.375 47.5
Q32.2812 48.4844 27.875 48.4844
Q21.1875 48.4844 17.8438 46.4375
Q14.5 44.3906 14.5 40.2812
Q14.5 37.1562 16.8906 35.375
Q19.2812 33.5938 26.5156 31.9844
L29.5938 31.2969
Q39.1562 29.25 43.1875 25.5156
Q47.2188 21.7812 47.2188 15.0938
Q47.2188 7.46875 41.1875 3.01562
Q35.1562 -1.42188 24.6094 -1.42188
Q20.2188 -1.42188 15.4531 -0.5625
Q10.6875 0.296875 5.42188 2
L5.42188 11.2812
Q10.4062 8.6875 15.2344 7.39062
Q20.0625 6.10938 24.8125 6.10938
Q31.1562 6.10938 34.5625 8.28125
Q37.9844 10.4531 37.9844 14.4062
Q37.9844 18.0625 35.5156 20.0156
Q33.0625 21.9688 24.7031 23.7812
L21.5781 24.5156
Q13.2344 26.2656 9.51562 29.9062
Q5.8125 33.5469 5.8125 39.8906
Q5.8125 47.6094 11.2812 51.7969
Q16.75 56 26.8125 56
Q31.7812 56 36.1719 55.2656
Q40.5781 54.5469 44.2812 53.0781" id="DejaVuSans-73"/>
      <path d="
M34.2812 27.4844
Q23.3906 27.4844 19.1875 25
Q14.9844 22.5156 14.9844 16.5
Q14.9844 11.7188 18.1406 8.90625
Q21.2969 6.10938 26.7031 6.10938
Q34.1875 6.10938 38.7031 11.4062
Q43.2188 16.7031 43.2188 25.4844
L43.2188 27.4844
z

M52.2031 31.2031
L52.2031 0
L43.2188 0
L43.2188 8.29688
Q40.1406 3.32812 35.5469 0.953125
Q30.9531 -1.42188 24.3125 -1.42188
Q15.9219 -1.42188 10.9531 3.29688
Q6 8.01562 6 15.9219
Q6 25.1406 12.1719 29.8281
Q18.3594 34.5156 30.6094 34.5156
L43.2188 34.5156
L43.2188 35.4062
Q43.2188 41.6094 39.1406 45
Q35.0625 48.3906 27.6875 48.3906
Q23 48.3906 18.5469 47.2656
Q14.1094 46.1406 10.0156 43.8906
L10.0156 52.2031
Q14.9375 54.1094 19.5781 55.0469
Q24.2188 56 28.6094 56
Q40.4844 56 46.3438 49.8438
Q52.2031 43.7031 52.2031 31.2031" id="DejaVuSans-61"/>
     </defs>
     <g transform="translate(290.171875 48.725)scale(0.12 -0.12)">
      <use xlink:href="#DejaVuSans-65"/>
      <use x="61.5234375" xlink:href="#DejaVuSans-73"/>
      <use x="113.623046875" xlink:href="#DejaVuSans-74"/>
      <use x="152.83203125" xlink:href="#DejaVuSans-69"/>
      <use x="180.615234375" xlink:href="#DejaVuSans-6d"/>
      <use x="278.02734375" xlink:href="#DejaVuSans-61"/>
      <use x="339.306640625" xlink:href="#DejaVuSans-74"/>
      <use x="378.515625" xlink:href="#DejaVuSans-65"/>
      <use x="440.0390625" xlink:href="#DejaVuSans-64"/>
      <use x="503.515625" xlink:href="#DejaVuSans-20"/>
      <use x="535.302734375" xlink:href="#DejaVuSans-48"/>
      <use x="610.498046875" xlink:href="#DejaVuSans-52"/>
      <use x="679.98046875" xlink:href="#DejaVuSans-46"/>
     </g>
    </g>
    <g id="line2d_29">
     <path d="
M260.172 62.15
L276.972 62.15" style="fill:none;stroke:#008000;stroke-linecap:square;"/>
    </g>
    <g id="line2d_30"/>
    <g id="text_14">
     <!-- glover HRF -->
     <defs>
      <path d="
M30.6094 48.3906
Q23.3906 48.3906 19.1875 42.75
Q14.9844 37.1094 14.9844 27.2969
Q14.9844 17.4844 19.1562 11.8438
Q23.3438 6.20312 30.6094 6.20312
Q37.7969 6.20312 41.9844 11.8594
Q46.1875 17.5312 46.1875 27.2969
Q46.1875 37.0156 41.9844 42.7031
Q37.7969 48.3906 30.6094 48.3906
M30.6094 56
Q42.3281 56 49.0156 48.375
Q55.7188 40.7656 55.7188 27.2969
Q55.7188 13.875 49.0156 6.21875
Q42.3281 -1.42188 30.6094 -1.42188
Q18.8438 -1.42188 12.1719 6.21875
Q5.51562 13.875 5.51562 27.2969
Q5.51562 40.7656 12.1719 48.375
Q18.8438 56 30.6094 56" id="DejaVuSans-6f"/>
      <path d="
M45.4062 27.9844
Q45.4062 37.75 41.375 43.1094
Q37.3594 48.4844 30.0781 48.4844
Q22.8594 48.4844 18.8281 43.1094
Q14.7969 37.75 14.7969 27.9844
Q14.7969 18.2656 18.8281 12.8906
Q22.8594 7.51562 30.0781 7.51562
Q37.3594 7.51562 41.375 12.8906
Q45.4062 18.2656 45.4062 27.9844
M54.3906 6.78125
Q54.3906 -7.17188 48.1875 -13.9844
Q42 -20.7969 29.2031 -20.7969
Q24.4688 -20.7969 20.2656 -20.0938
Q16.0625 -19.3906 12.1094 -17.9219
L12.1094 -9.1875
Q16.0625 -11.3281 19.9219 -12.3438
Q23.7812 -13.375 27.7812 -13.375
Q36.625 -13.375 41.0156 -8.76562
Q45.4062 -4.15625 45.4062 5.17188
L45.4062 9.625
Q42.625 4.78125 38.2812 2.39062
Q33.9375 0 27.875 0
Q17.8281 0 11.6719 7.65625
Q5.51562 15.3281 5.51562 27.9844
Q5.51562 40.6719 11.6719 48.3281
Q17.8281 56 27.875 56
Q33.9375 56 38.2812 53.6094
Q42.625 51.2188 45.4062 46.3906
L45.4062 54.6875
L54.3906 54.6875
z
" id="DejaVuSans-67"/>
      <path d="
M2.98438 54.6875
L12.5 54.6875
L29.5938 8.79688
L46.6875 54.6875
L56.2031 54.6875
L35.6875 0
L23.4844 0
z
" id="DejaVuSans-76"/>
      <path d="
M9.42188 75.9844
L18.4062 75.9844
L18.4062 0
L9.42188 0
z
" id="DejaVuSans-6c"/>
      <path d="
M41.1094 46.2969
Q39.5938 47.1719 37.8125 47.5781
Q36.0312 48 33.8906 48
Q26.2656 48 22.1875 43.0469
Q18.1094 38.0938 18.1094 28.8125
L18.1094 0
L9.07812 0
L9.07812 54.6875
L18.1094 54.6875
L18.1094 46.1875
Q20.9531 51.1719 25.4844 53.5781
Q30.0312 56 36.5312 56
Q37.4531 56 38.5781 55.875
Q39.7031 55.7656 41.0625 55.5156
z
" id="DejaVuSans-72"/>
     </defs>
     <g transform="translate(290.171875 66.35)scale(0.12 -0.12)">
      <use xlink:href="#DejaVuSans-67"/>
      <use x="63.4765625" xlink:href="#DejaVuSans-6c"/>
      <use x="91.259765625" xlink:href="#DejaVuSans-6f"/>
      <use x="152.44140625" xlink:href="#DejaVuSans-76"/>
      <use x="211.62109375" xlink:href="#DejaVuSans-65"/>
      <use x="273.14453125" xlink:href="#DejaVuSans-72"/>
      <use x="314.2578125" xlink:href="#DejaVuSans-20"/>
      <use x="346.044921875" xlink:href="#DejaVuSans-48"/>
      <use x="421.240234375" xlink:href="#DejaVuSans-52"/>
      <use x="490.72265625" xlink:href="#DejaVuSans-46"/>
     </g>
    </g>
   </g>
  </g>
 </g>
 <defs>
  <clipPath id="p124b8dd147">
   <rect height="223.2" width="334.8" x="54.0" y="28.8"/>
  </clipPath>
 </defs>
</svg>
