<?xml version="1.0" encoding="utf-8" standalone="no"?>
<!DOCTYPE svg PUBLIC "-//W3C//DTD SVG 1.1//EN"
  "http://www.w3.org/Graphics/SVG/1.1/DTD/svg11.dtd">
<!-- Created with matplotlib (http://matplotlib.org/) -->
<svg height="432pt" version="1.1" viewBox="0 0 576 432" width="576pt" xmlns="http://www.w3.org/2000/svg" xmlns:xlink="http://www.w3.org/1999/xlink">
 <defs>
  <style type="text/css">
*{stroke-linecap:butt;stroke-linejoin:round;}
  </style>
 </defs>
 <g id="figure_1">
  <g id="patch_1">
   <path d="
M0 432
L576 432
L576 0
L0 0
z
" style="fill:#ffffff;"/>
  </g>
  <g id="axes_1">
   <g id="patch_2">
    <path d="
M72 388.8
L518.4 388.8
L518.4 43.2
L72 43.2
z
" style="fill:#ffffff;"/>
   </g>
   <g id="PolyCollection_1">
    <defs>
     <path d="
M72 -201.203
L72 -201.203
L73.395 -187.799
L73.395 -187.799
L73.395 -187.799
L73.395 -187.799
L76.185 -162.902
L76.185 -162.902
L76.185 -162.902
L76.185 -162.902
L76.185 -162.902
L76.185 -162.902
L76.185 -162.902
L76.185 -162.902
L76.185 -162.902
L76.185 -162.902
L76.185 -162.902
L77.58 -151.402
L77.58 -151.402
L77.58 -151.402
L77.58 -151.402
L78.975 -140.529
L81.765 -120.684
L81.765 -120.684
L81.765 -120.684
L81.765 -120.684
L81.765 -120.684
L81.765 -120.684
L81.765 -120.684
L81.765 -120.684
L81.765 -120.684
L83.16 -111.732
L83.16 -111.732
L83.16 -111.732
L83.16 -111.732
L84.555 -103.452
L84.555 -103.452
L84.555 -103.452
L84.555 -103.452
L85.95 -95.8671
L85.95 -95.8671
L85.95 -95.8671
L85.95 -95.8671
L85.95 -95.8671
L85.95 -95.8671
L85.95 -95.8671
L85.95 -95.8671
L85.95 -95.8671
L87.345 -89.004
L87.345 -89.004
L87.345 -89.004
L87.345 -89.004
L88.74 -82.8921
L88.74 -82.8921
L88.74 -82.8921
L88.74 -82.8921
L88.74 -82.8921
L88.74 -82.8921
L90.135 -77.5614
L91.53 -73.0411
L91.53 -73.0411
L91.53 -73.0411
L92.925 -69.3577
L92.925 -69.3577
L92.925 -69.3577
L92.925 -69.3577
L92.925 -69.3577
L92.925 -69.3577
L92.925 -69.3577
L92.925 -69.3577
L92.925 -69.3577
L92.925 -69.3577
L92.925 -69.3577
L94.32 -66.5346
L94.32 -66.5346
L94.32 -66.5346
L95.715 -64.5903
L95.715 -64.5903
L95.715 -64.5903
L95.715 -64.5903
L97.11 -63.5375
L97.11 -63.5375
L97.11 -63.5375
L98.505 -63.383
L98.505 -63.383
L98.505 -63.383
L98.505 -63.383
L98.505 -63.383
L98.505 -63.383
L98.505 -63.383
L98.505 -63.383
L102.69 -68.2733
L102.69 -68.2733
L102.69 -68.2733
L102.69 -68.2733
L102.69 -68.2733
L102.69 -68.2733
L104.085 -71.6414
L104.085 -71.6414
L105.48 -75.838
L105.48 -75.838
L105.48 -75.838
L105.48 -75.838
L106.875 -80.8296
L106.875 -80.8296
L106.875 -80.8296
L108.27 -86.5767
L108.27 -86.5767
L108.27 -86.5767
L108.27 -86.5767
L108.27 -86.5767
L108.27 -86.5767
L108.27 -86.5767
L108.27 -86.5767
L108.27 -86.5767
L108.27 -86.5767
L108.27 -86.5767
L108.27 -86.5767
L108.27 -86.5767
L108.27 -86.5767
L108.27 -86.5767
L108.27 -86.5767
L109.665 -93.0348
L109.665 -93.0348
L109.665 -93.0348
L111.06 -100.155
L112.455 -107.885
L112.455 -107.885
L113.85 -116.169
L113.85 -116.169
L113.85 -116.169
L113.85 -116.169
L113.85 -116.169
L115.245 -124.948
L115.245 -124.948
L115.245 -124.948
L115.245 -124.948
L118.035 -143.757
L118.035 -143.757
L118.035 -143.757
L118.035 -143.757
L118.035 -143.757
L118.035 -143.757
L118.035 -143.757
L118.035 -143.757
L118.035 -143.757
L118.035 -143.757
L118.035 -143.757
L119.43 -153.664
L119.43 -153.664
L119.43 -153.664
L119.43 -153.664
L120.825 -163.826
L123.615 -184.676
L123.615 -184.676
L123.615 -184.676
L123.615 -184.676
L123.615 -184.676
L123.615 -184.676
L123.615 -184.676
L123.615 -184.676
L123.615 -184.676
L125.01 -195.249
L125.01 -195.249
L125.01 -195.249
L125.01 -195.249
L126.405 -205.848
L126.405 -205.848
L126.405 -205.848
L126.405 -205.848
L127.8 -216.421
L127.8 -216.421
L127.8 -216.421
L127.8 -216.421
L127.8 -216.421
L127.8 -216.421
L127.8 -216.421
L127.8 -216.421
L127.8 -216.421
L129.195 -226.917
L129.195 -226.917
L129.195 -226.917
L129.195 -226.917
L130.59 -237.292
L130.59 -237.292
L130.59 -237.292
L130.59 -237.292
L130.59 -237.292
L130.59 -237.292
L131.985 -247.501
L133.38 -257.505
L133.38 -257.505
L133.38 -257.505
L134.775 -267.266
L134.775 -267.266
L134.775 -267.266
L134.775 -267.266
L134.775 -267.266
L134.775 -267.266
L134.775 -267.266
L134.775 -267.266
L134.775 -267.266
L134.775 -267.266
L134.775 -267.266
L136.17 -276.752
L136.17 -276.752
L136.17 -276.752
L137.565 -285.931
L137.565 -285.931
L137.565 -285.931
L137.565 -285.931
L138.96 -294.778
L138.96 -294.778
L138.96 -294.778
L140.355 -303.268
L140.355 -303.268
L140.355 -303.268
L140.355 -303.268
L140.355 -303.268
L140.355 -303.268
L140.355 -303.268
L140.355 -303.268
L144.54 -326.406
L144.54 -326.406
L144.54 -326.406
L144.54 -326.406
L144.54 -326.406
L144.54 -326.406
L145.935 -333.292
L145.935 -333.292
L147.33 -339.747
L147.33 -339.747
L147.33 -339.747
L147.33 -339.747
L148.725 -345.764
L148.725 -345.764
L148.725 -345.764
L150.12 -351.338
L150.12 -351.338
L150.12 -351.338
L150.12 -351.338
L150.12 -351.338
L150.12 -351.338
L150.12 -351.338
L150.12 -351.338
L150.12 -351.338
L150.12 -351.338
L150.12 -351.338
L150.12 -351.338
L150.12 -351.338
L150.12 -351.338
L150.12 -351.338
L150.12 -351.338
L151.515 -356.466
L151.515 -356.466
L151.515 -356.466
L152.91 -361.147
L154.305 -365.382
L154.305 -365.382
L155.7 -369.175
L155.7 -369.175
L155.7 -369.175
L155.7 -369.175
L155.7 -369.175
L157.095 -372.528
L157.095 -372.528
L157.095 -372.528
L157.095 -372.528
L159.885 -377.94
L159.885 -377.94
L159.885 -377.94
L159.885 -377.94
L159.885 -377.94
L159.885 -377.94
L159.885 -377.94
L159.885 -377.94
L159.885 -377.94
L159.885 -377.94
L159.885 -377.94
L161.28 -380.013
L161.28 -380.013
L161.28 -380.013
L161.28 -380.013
L162.675 -381.673
L165.465 -383.797
L165.465 -383.797
L165.465 -383.797
L165.465 -383.797
L165.465 -383.797
L165.465 -383.797
L165.465 -383.797
L165.465 -383.797
L165.465 -383.797
L166.86 -384.28
L166.86 -384.28
L166.86 -384.28
L166.86 -384.28
L168.255 -384.391
L168.255 -384.391
L168.255 -384.391
L168.255 -384.391
L169.65 -384.142
L169.65 -384.142
L169.65 -384.142
L169.65 -384.142
L169.65 -384.142
L169.65 -384.142
L169.65 -384.142
L169.65 -384.142
L169.65 -384.142
L171.045 -383.543
L171.045 -383.543
L171.045 -383.543
L171.045 -383.543
L172.44 -382.606
L172.44 -382.606
L172.44 -382.606
L172.44 -382.606
L172.44 -382.606
L172.44 -382.606
L173.835 -381.343
L175.23 -379.765
L175.23 -379.765
L175.23 -379.765
L176.625 -377.885
L176.625 -377.885
L176.625 -377.885
L176.625 -377.885
L176.625 -377.885
L176.625 -377.885
L176.625 -377.885
L176.625 -377.885
L176.625 -377.885
L176.625 -377.885
L176.625 -377.885
L178.02 -375.714
L178.02 -375.714
L178.02 -375.714
L179.415 -373.264
L179.415 -373.264
L179.415 -373.264
L179.415 -373.264
L180.81 -370.547
L180.81 -370.547
L180.81 -370.547
L182.205 -367.574
L182.205 -367.574
L182.205 -367.574
L182.205 -367.574
L182.205 -367.574
L182.205 -367.574
L182.205 -367.574
L182.205 -367.574
L186.39 -357.234
L186.39 -357.234
L186.39 -357.234
L186.39 -357.234
L186.39 -357.234
L186.39 -357.234
L187.785 -353.351
L187.785 -353.351
L189.18 -349.268
L189.18 -349.268
L189.18 -349.268
L189.18 -349.268
L190.575 -344.995
L190.575 -344.995
L190.575 -344.995
L191.97 -340.542
L191.97 -340.542
L191.97 -340.542
L191.97 -340.542
L191.97 -340.542
L191.97 -340.542
L191.97 -340.542
L191.97 -340.542
L191.97 -340.542
L191.97 -340.542
L191.97 -340.542
L191.97 -340.542
L191.97 -340.542
L191.97 -340.542
L191.97 -340.542
L191.97 -340.542
L193.365 -335.921
L193.365 -335.921
L193.365 -335.921
L194.76 -331.141
L196.155 -326.212
L196.155 -326.212
L197.55 -321.144
L197.55 -321.144
L197.55 -321.144
L197.55 -321.144
L197.55 -321.144
L198.945 -315.945
L198.945 -315.945
L198.945 -315.945
L198.945 -315.945
L201.735 -305.195
L201.735 -305.195
L201.735 -305.195
L201.735 -305.195
L201.735 -305.195
L201.735 -305.195
L201.735 -305.195
L201.735 -305.195
L201.735 -305.195
L201.735 -305.195
L201.735 -305.195
L203.13 -299.661
L203.13 -299.661
L203.13 -299.661
L203.13 -299.661
L204.525 -294.033
L207.315 -282.53
L207.315 -282.53
L207.315 -282.53
L207.315 -282.53
L207.315 -282.53
L207.315 -282.53
L207.315 -282.53
L207.315 -282.53
L207.315 -282.53
L208.71 -276.671
L208.71 -276.671
L208.71 -276.671
L208.71 -276.671
L210.105 -270.752
L210.105 -270.752
L210.105 -270.752
L210.105 -270.752
L211.5 -264.781
L211.5 -264.781
L211.5 -264.781
L211.5 -264.781
L211.5 -264.781
L211.5 -264.781
L211.5 -264.781
L211.5 -264.781
L211.5 -264.781
L212.895 -258.765
L212.895 -258.765
L212.895 -258.765
L212.895 -258.765
L214.29 -252.713
L214.29 -252.713
L214.29 -252.713
L214.29 -252.713
L214.29 -252.713
L214.29 -252.713
L215.685 -246.632
L217.08 -240.529
L217.08 -240.529
L217.08 -240.529
L218.475 -234.413
L218.475 -234.413
L218.475 -234.413
L218.475 -234.413
L218.475 -234.413
L218.475 -234.413
L218.475 -234.413
L218.475 -234.413
L218.475 -234.413
L218.475 -234.413
L218.475 -234.413
L219.87 -228.29
L219.87 -228.29
L219.87 -228.29
L221.265 -222.167
L221.265 -222.167
L221.265 -222.167
L221.265 -222.167
L222.66 -216.053
L222.66 -216.053
L222.66 -216.053
L224.055 -209.953
L224.055 -209.953
L224.055 -209.953
L224.055 -209.953
L224.055 -209.953
L224.055 -209.953
L224.055 -209.953
L224.055 -209.953
L228.24 -191.813
L228.24 -191.813
L228.24 -191.813
L228.24 -191.813
L228.24 -191.813
L228.24 -191.813
L229.635 -185.841
L229.635 -185.841
L231.03 -179.918
L231.03 -179.918
L231.03 -179.918
L231.03 -179.918
L232.425 -174.051
L232.425 -174.051
L232.425 -174.051
L233.82 -168.245
L233.82 -168.245
L233.82 -168.245
L233.82 -168.245
L233.82 -168.245
L233.82 -168.245
L233.82 -168.245
L233.82 -168.245
L233.82 -168.245
L233.82 -168.245
L233.82 -168.245
L233.82 -168.245
L233.82 -168.245
L233.82 -168.245
L233.82 -168.245
L233.82 -168.245
L235.215 -162.507
L235.215 -162.507
L235.215 -162.507
L236.61 -156.843
L238.005 -151.258
L238.005 -151.258
L239.4 -145.76
L239.4 -145.76
L239.4 -145.76
L239.4 -145.76
L239.4 -145.76
L240.795 -140.354
L240.795 -140.354
L240.795 -140.354
L240.795 -140.354
L243.585 -129.839
L243.585 -129.839
L243.585 -129.839
L243.585 -129.839
L243.585 -129.839
L243.585 -129.839
L243.585 -129.839
L243.585 -129.839
L243.585 -129.839
L243.585 -129.839
L243.585 -129.839
L244.98 -124.742
L244.98 -124.742
L244.98 -124.742
L244.98 -124.742
L246.375 -119.759
L249.165 -110.156
L249.165 -110.156
L249.165 -110.156
L249.165 -110.156
L249.165 -110.156
L249.165 -110.156
L249.165 -110.156
L249.165 -110.156
L249.165 -110.156
L250.56 -105.545
L250.56 -105.545
L250.56 -105.545
L250.56 -105.545
L251.955 -101.069
L253.35 -96.7312
L253.35 -96.7312
L253.35 -96.7312
L253.35 -96.7312
L253.35 -96.7312
L253.35 -96.7312
L253.35 -96.7312
L253.35 -96.7312
L253.35 -96.7312
L254.745 -92.5367
L254.745 -92.5367
L254.745 -92.5367
L254.745 -92.5367
L256.14 -88.4897
L256.14 -88.4897
L256.14 -88.4897
L256.14 -88.4897
L256.14 -88.4897
L256.14 -88.4897
L257.535 -84.5943
L258.93 -80.8547
L258.93 -80.8547
L258.93 -80.8547
L260.325 -77.2745
L260.325 -77.2745
L260.325 -77.2745
L260.325 -77.2745
L260.325 -77.2745
L260.325 -77.2745
L260.325 -77.2745
L260.325 -77.2745
L260.325 -77.2745
L260.325 -77.2745
L260.325 -77.2745
L261.72 -73.8574
L261.72 -73.8574
L261.72 -73.8574
L263.115 -70.6069
L263.115 -70.6069
L263.115 -70.6069
L263.115 -70.6069
L264.51 -67.5263
L264.51 -67.5263
L264.51 -67.5263
L265.905 -64.6186
L265.905 -64.6186
L265.905 -64.6186
L265.905 -64.6186
L265.905 -64.6186
L265.905 -64.6186
L265.905 -64.6186
L265.905 -64.6186
L270.09 -56.9609
L270.09 -56.9609
L270.09 -56.9609
L270.09 -56.9609
L270.09 -56.9609
L270.09 -56.9609
L271.485 -54.7716
L271.485 -54.7716
L272.88 -52.7675
L272.88 -52.7675
L272.88 -52.7675
L272.88 -52.7675
L274.275 -50.9505
L274.275 -50.9505
L274.275 -50.9505
L275.67 -49.322
L275.67 -49.322
L275.67 -49.322
L275.67 -49.322
L275.67 -49.322
L275.67 -49.322
L275.67 -49.322
L275.67 -49.322
L275.67 -49.322
L275.67 -49.322
L275.67 -49.322
L275.67 -49.322
L275.67 -49.322
L275.67 -49.322
L275.67 -49.322
L275.67 -49.322
L277.065 -47.8836
L277.065 -47.8836
L277.065 -47.8836
L278.46 -46.6363
L279.855 -45.5811
L279.855 -45.5811
L281.25 -44.7185
L281.25 -44.7185
L281.25 -44.7185
L281.25 -44.7185
L281.25 -44.7185
L282.645 -44.049
L282.645 -44.049
L282.645 -44.049
L282.645 -44.049
L285.435 -43.2899
L285.435 -43.2899
L285.435 -43.2899
L285.435 -43.2899
L285.435 -43.2899
L285.435 -43.2899
L285.435 -43.2899
L285.435 -43.2899
L285.435 -43.2899
L285.435 -43.2899
L285.435 -43.2899
L286.83 -43.2
L286.83 -43.2
L286.83 -43.2
L286.83 -43.2
L288.225 -43.3025
L291.015 -44.0813
L291.015 -44.0813
L291.015 -44.0813
L291.015 -44.0813
L291.015 -44.0813
L291.015 -44.0813
L291.015 -44.0813
L291.015 -44.0813
L291.015 -44.0813
L292.41 -44.7554
L292.41 -44.7554
L292.41 -44.7554
L292.41 -44.7554
L293.805 -45.6172
L295.2 -46.6652
L295.2 -46.6652
L295.2 -46.6652
L295.2 -46.6652
L295.2 -46.6652
L295.2 -46.6652
L295.2 -46.6652
L295.2 -46.6652
L295.2 -46.6652
L296.595 -47.8972
L296.595 -47.8972
L296.595 -47.8972
L296.595 -47.8972
L297.99 -49.311
L297.99 -49.311
L297.99 -49.311
L297.99 -49.311
L297.99 -49.311
L297.99 -49.311
L299.385 -50.9041
L300.78 -52.6738
L300.78 -52.6738
L300.78 -52.6738
L302.175 -54.6172
L302.175 -54.6172
L302.175 -54.6172
L302.175 -54.6172
L302.175 -54.6172
L302.175 -54.6172
L302.175 -54.6172
L302.175 -54.6172
L302.175 -54.6172
L302.175 -54.6172
L302.175 -54.6172
L303.57 -56.7311
L303.57 -56.7311
L304.965 -59.012
L304.965 -59.012
L304.965 -59.012
L304.965 -59.012
L306.36 -61.4563
L306.36 -61.4563
L306.36 -61.4563
L307.755 -64.0602
L307.755 -64.0602
L307.755 -64.0602
L307.755 -64.0602
L307.755 -64.0602
L307.755 -64.0602
L307.755 -64.0602
L307.755 -64.0602
L311.94 -72.7876
L311.94 -72.7876
L311.94 -72.7876
L311.94 -72.7876
L311.94 -72.7876
L311.94 -72.7876
L313.335 -75.9869
L313.335 -75.9869
L314.73 -79.3235
L314.73 -79.3235
L314.73 -79.3235
L314.73 -79.3235
L316.125 -82.7921
L316.125 -82.7921
L316.125 -82.7921
L317.52 -86.3875
L317.52 -86.3875
L317.52 -86.3875
L317.52 -86.3875
L317.52 -86.3875
L317.52 -86.3875
L317.52 -86.3875
L317.52 -86.3875
L317.52 -86.3875
L317.52 -86.3875
L317.52 -86.3875
L317.52 -86.3875
L317.52 -86.3875
L317.52 -86.3875
L317.52 -86.3875
L317.52 -86.3875
L318.915 -90.1044
L318.915 -90.1044
L318.915 -90.1044
L320.31 -93.9371
L321.705 -97.88
L321.705 -97.88
L323.1 -101.927
L323.1 -101.927
L323.1 -101.927
L323.1 -101.927
L323.1 -101.927
L324.495 -106.072
L324.495 -106.072
L324.495 -106.072
L324.495 -106.072
L327.285 -114.632
L327.285 -114.632
L327.285 -114.632
L327.285 -114.632
L327.285 -114.632
L327.285 -114.632
L327.285 -114.632
L327.285 -114.632
L327.285 -114.632
L327.285 -114.632
L327.285 -114.632
L328.68 -119.035
L328.68 -119.035
L328.68 -119.035
L328.68 -119.035
L330.075 -123.51
L332.865 -132.652
L332.865 -132.652
L332.865 -132.652
L332.865 -132.652
L332.865 -132.652
L332.865 -132.652
L332.865 -132.652
L332.865 -132.652
L332.865 -132.652
L334.26 -137.305
L334.26 -137.305
L334.26 -137.305
L334.26 -137.305
L335.655 -142.004
L337.05 -146.743
L337.05 -146.743
L337.05 -146.743
L337.05 -146.743
L337.05 -146.743
L337.05 -146.743
L337.05 -146.743
L337.05 -146.743
L337.05 -146.743
L338.445 -151.513
L338.445 -151.513
L338.445 -151.513
L338.445 -151.513
L339.84 -156.309
L339.84 -156.309
L339.84 -156.309
L339.84 -156.309
L339.84 -156.309
L339.84 -156.309
L341.235 -161.123
L342.63 -165.948
L342.63 -165.948
L342.63 -165.948
L344.025 -170.777
L344.025 -170.777
L344.025 -170.777
L344.025 -170.777
L344.025 -170.777
L344.025 -170.777
L344.025 -170.777
L344.025 -170.777
L344.025 -170.777
L344.025 -170.777
L344.025 -170.777
L345.42 -175.603
L345.42 -175.603
L346.815 -180.419
L346.815 -180.419
L346.815 -180.419
L346.815 -180.419
L348.21 -185.219
L348.21 -185.219
L348.21 -185.219
L349.605 -189.995
L349.605 -189.995
L349.605 -189.995
L349.605 -189.995
L349.605 -189.995
L349.605 -189.995
L349.605 -189.995
L349.605 -189.995
L353.79 -204.113
L353.79 -204.113
L353.79 -204.113
L353.79 -204.113
L353.79 -204.113
L353.79 -204.113
L355.185 -208.726
L355.185 -208.726
L356.58 -213.283
L356.58 -213.283
L356.58 -213.283
L357.975 -217.776
L357.975 -217.776
L357.975 -217.776
L359.37 -222.199
L359.37 -222.199
L359.37 -222.199
L359.37 -222.199
L359.37 -222.199
L359.37 -222.199
L359.37 -222.199
L359.37 -222.199
L359.37 -222.199
L359.37 -222.199
L359.37 -222.199
L359.37 -222.199
L359.37 -222.199
L359.37 -222.199
L359.37 -222.199
L359.37 -222.199
L360.765 -226.547
L360.765 -226.547
L360.765 -226.547
L362.16 -230.812
L363.555 -234.99
L363.555 -234.99
L364.95 -239.074
L364.95 -239.074
L364.95 -239.074
L364.95 -239.074
L364.95 -239.074
L366.345 -243.059
L366.345 -243.059
L366.345 -243.059
L366.345 -243.059
L369.135 -250.71
L369.135 -250.71
L369.135 -250.71
L369.135 -250.71
L369.135 -250.71
L369.135 -250.71
L369.135 -250.71
L369.135 -250.71
L369.135 -250.71
L369.135 -250.71
L369.135 -250.71
L370.53 -254.366
L370.53 -254.366
L370.53 -254.366
L370.53 -254.366
L371.925 -257.902
L374.715 -264.599
L374.715 -264.599
L374.715 -264.599
L374.715 -264.599
L374.715 -264.599
L374.715 -264.599
L374.715 -264.599
L374.715 -264.599
L374.715 -264.599
L376.11 -267.751
L376.11 -267.751
L376.11 -267.751
L376.11 -267.751
L377.505 -270.766
L378.9 -273.641
L378.9 -273.641
L378.9 -273.641
L378.9 -273.641
L378.9 -273.641
L378.9 -273.641
L378.9 -273.641
L378.9 -273.641
L378.9 -273.641
L380.295 -276.372
L380.295 -276.372
L380.295 -276.372
L380.295 -276.372
L381.69 -278.956
L381.69 -278.956
L381.69 -278.956
L381.69 -278.956
L381.69 -278.956
L381.69 -278.956
L383.085 -281.391
L384.48 -283.673
L384.48 -283.673
L384.48 -283.673
L385.875 -285.8
L385.875 -285.8
L385.875 -285.8
L385.875 -285.8
L385.875 -285.8
L385.875 -285.8
L385.875 -285.8
L385.875 -285.8
L385.875 -285.8
L385.875 -285.8
L385.875 -285.8
L387.27 -287.77
L387.27 -287.77
L388.665 -289.581
L388.665 -289.581
L388.665 -289.581
L388.665 -289.581
L390.06 -291.232
L390.06 -291.232
L390.06 -291.232
L391.455 -292.72
L391.455 -292.72
L391.455 -292.72
L391.455 -292.72
L391.455 -292.72
L391.455 -292.72
L391.455 -292.72
L391.455 -292.72
L395.64 -296.204
L395.64 -296.204
L395.64 -296.204
L395.64 -296.204
L395.64 -296.204
L395.64 -296.204
L397.035 -297.037
L397.035 -297.037
L398.43 -297.704
L398.43 -297.704
L398.43 -297.704
L399.825 -298.207
L399.825 -298.207
L399.825 -298.207
L401.22 -298.547
L401.22 -298.547
L401.22 -298.547
L401.22 -298.547
L401.22 -298.547
L401.22 -298.547
L401.22 -298.547
L401.22 -298.547
L401.22 -298.547
L401.22 -298.547
L401.22 -298.547
L401.22 -298.547
L401.22 -298.547
L401.22 -298.547
L401.22 -298.547
L401.22 -298.547
L402.615 -298.723
L402.615 -298.723
L402.615 -298.723
L404.01 -298.738
L405.405 -298.591
L405.405 -298.591
L406.8 -298.286
L406.8 -298.286
L406.8 -298.286
L406.8 -298.286
L406.8 -298.286
L408.195 -297.824
L408.195 -297.824
L408.195 -297.824
L410.985 -296.438
L410.985 -296.438
L410.985 -296.438
L410.985 -296.438
L410.985 -296.438
L410.985 -296.438
L410.985 -296.438
L410.985 -296.438
L410.985 -296.438
L410.985 -296.438
L410.985 -296.438
L412.38 -295.519
L412.38 -295.519
L412.38 -295.519
L412.38 -295.519
L413.775 -294.453
L416.565 -291.893
L416.565 -291.893
L416.565 -291.893
L416.565 -291.893
L416.565 -291.893
L416.565 -291.893
L416.565 -291.893
L416.565 -291.893
L416.565 -291.893
L417.96 -290.407
L417.96 -290.407
L417.96 -290.407
L417.96 -290.407
L419.355 -288.787
L420.75 -287.039
L420.75 -287.039
L420.75 -287.039
L420.75 -287.039
L420.75 -287.039
L420.75 -287.039
L420.75 -287.039
L420.75 -287.039
L420.75 -287.039
L422.145 -285.166
L422.145 -285.166
L422.145 -285.166
L422.145 -285.166
L423.54 -283.174
L423.54 -283.174
L423.54 -283.174
L423.54 -283.174
L423.54 -283.174
L423.54 -283.174
L424.935 -281.066
L426.33 -278.847
L426.33 -278.847
L426.33 -278.847
L427.725 -276.523
L427.725 -276.523
L427.725 -276.523
L427.725 -276.523
L427.725 -276.523
L427.725 -276.523
L427.725 -276.523
L427.725 -276.523
L427.725 -276.523
L427.725 -276.523
L427.725 -276.523
L429.12 -274.099
L429.12 -274.099
L430.515 -271.581
L430.515 -271.581
L430.515 -271.581
L430.515 -271.581
L431.91 -268.973
L431.91 -268.973
L431.91 -268.973
L433.305 -266.281
L433.305 -266.281
L433.305 -266.281
L433.305 -266.281
L433.305 -266.281
L433.305 -266.281
L433.305 -266.281
L433.305 -266.281
L437.49 -257.767
L437.49 -257.767
L437.49 -257.767
L437.49 -257.767
L437.49 -257.767
L437.49 -257.767
L438.885 -254.802
L438.885 -254.802
L440.28 -251.785
L440.28 -251.785
L440.28 -251.785
L441.675 -248.721
L441.675 -248.721
L441.675 -248.721
L443.07 -245.618
L443.07 -245.618
L443.07 -245.618
L443.07 -245.618
L443.07 -245.618
L443.07 -245.618
L443.07 -245.618
L443.07 -245.618
L443.07 -245.618
L443.07 -245.618
L443.07 -245.618
L443.07 -245.618
L443.07 -245.618
L443.07 -245.618
L443.07 -245.618
L443.07 -245.618
L444.465 -242.483
L444.465 -242.483
L444.465 -242.483
L445.86 -239.321
L447.255 -236.141
L447.255 -236.141
L448.65 -232.948
L448.65 -232.948
L448.65 -232.948
L448.65 -232.948
L448.65 -232.948
L450.045 -229.751
L450.045 -229.751
L450.045 -229.751
L452.835 -223.37
L452.835 -223.37
L452.835 -223.37
L452.835 -223.37
L452.835 -223.37
L452.835 -223.37
L452.835 -223.37
L452.835 -223.37
L452.835 -223.37
L452.835 -223.37
L452.835 -223.37
L454.23 -220.2
L454.23 -220.2
L454.23 -220.2
L454.23 -220.2
L455.625 -217.054
L458.415 -210.863
L458.415 -210.863
L458.415 -210.863
L458.415 -210.863
L458.415 -210.863
L458.415 -210.863
L458.415 -210.863
L458.415 -210.863
L458.415 -210.863
L459.81 -207.832
L461.205 -204.854
L462.6 -201.935
L462.6 -201.935
L462.6 -201.935
L462.6 -201.935
L462.6 -201.935
L462.6 -201.935
L462.6 -201.935
L462.6 -201.935
L462.6 -201.935
L463.995 -199.083
L463.995 -199.083
L463.995 -199.083
L463.995 -199.083
L465.39 -196.305
L465.39 -196.305
L465.39 -196.305
L465.39 -196.305
L465.39 -196.305
L465.39 -196.305
L466.785 -193.608
L468.18 -190.999
L468.18 -190.999
L468.18 -190.999
L469.575 -188.484
L469.575 -188.484
L469.575 -188.484
L469.575 -188.484
L469.575 -188.484
L469.575 -188.484
L469.575 -188.484
L469.575 -188.484
L469.575 -188.484
L469.575 -188.484
L469.575 -188.484
L470.97 -186.071
L470.97 -186.071
L472.365 -183.765
L472.365 -183.765
L472.365 -183.765
L472.365 -183.765
L473.76 -181.574
L473.76 -181.574
L473.76 -181.574
L475.155 -179.504
L475.155 -179.504
L475.155 -179.504
L475.155 -179.504
L475.155 -179.504
L475.155 -179.504
L475.155 -179.504
L475.155 -179.504
L479.34 -174.078
L479.34 -174.078
L479.34 -174.078
L479.34 -174.078
L479.34 -174.078
L479.34 -174.078
L480.735 -172.551
L480.735 -172.551
L482.13 -171.174
L482.13 -171.174
L482.13 -171.174
L483.525 -169.953
L483.525 -169.953
L483.525 -169.953
L484.92 -168.892
L484.92 -168.892
L484.92 -168.892
L484.92 -168.892
L484.92 -168.892
L484.92 -168.892
L484.92 -168.892
L484.92 -168.892
L484.92 -168.892
L484.92 -168.892
L484.92 -168.892
L484.92 -168.892
L484.92 -168.892
L484.92 -168.892
L484.92 -168.892
L484.92 -168.892
L486.315 -167.997
L486.315 -167.997
L486.315 -167.997
L487.71 -167.272
L489.105 -166.722
L489.105 -166.722
L490.5 -166.351
L490.5 -166.351
L490.5 -166.351
L490.5 -166.351
L490.5 -166.351
L491.895 -166.164
L491.895 -166.164
L491.895 -166.164
L494.685 -166.355
L494.685 -166.355
L494.685 -166.355
L494.685 -166.355
L494.685 -166.355
L494.685 -166.355
L494.685 -166.355
L494.685 -166.355
L494.685 -166.355
L494.685 -166.355
L494.685 -166.355
L496.08 -166.741
L496.08 -166.741
L496.08 -166.741
L496.08 -166.741
L497.475 -167.324
L500.265 -169.096
L500.265 -169.096
L500.265 -169.096
L500.265 -169.096
L500.265 -169.096
L500.265 -169.096
L500.265 -169.096
L500.265 -169.096
L500.265 -169.096
L501.66 -170.289
L503.055 -171.69
L504.45 -173.301
L504.45 -173.301
L504.45 -173.301
L504.45 -173.301
L504.45 -173.301
L504.45 -173.301
L504.45 -173.301
L504.45 -173.301
L504.45 -173.301
L505.845 -175.123
L505.845 -175.123
L505.845 -175.123
L505.845 -175.123
L507.24 -177.159
L507.24 -177.159
L507.24 -177.159
L507.24 -177.159
L507.24 -177.159
L507.24 -177.159
L508.635 -179.409
L510.03 -181.874
L510.03 -181.874
L510.03 -181.874
L511.425 -184.555
L511.425 -184.555
L511.425 -184.555
L511.425 -184.555
L511.425 -184.555
L511.425 -184.555
L511.425 -184.555
L511.425 -184.555
L511.425 -184.555
L511.425 -184.555
L511.425 -184.555
L512.82 -187.452
L512.82 -187.452
L514.215 -190.566
L514.215 -190.566
L514.215 -190.566
L514.215 -190.566
L515.61 -193.896
L515.61 -193.896
L515.61 -193.896
L517.005 -197.442
L517.005 -197.442
L517.005 -197.442
L517.005 -197.442
L517.005 -197.442
L517.005 -197.442
L517.005 -197.442
L518.4 -201.203
L518.4 -201.204
L518.4 -201.204
L517.005 -197.949
L517.005 -197.949
L517.005 -197.949
L517.005 -197.949
L517.005 -197.949
L517.005 -197.949
L517.005 -197.949
L515.61 -194.88
L515.61 -194.88
L515.61 -194.88
L514.215 -191.996
L514.215 -191.996
L514.215 -191.996
L514.215 -191.996
L512.82 -189.301
L512.82 -189.301
L511.425 -186.793
L511.425 -186.793
L511.425 -186.793
L511.425 -186.793
L511.425 -186.793
L511.425 -186.793
L511.425 -186.793
L511.425 -186.793
L511.425 -186.793
L511.425 -186.793
L511.425 -186.793
L510.03 -184.475
L510.03 -184.475
L510.03 -184.475
L508.635 -182.346
L507.24 -180.407
L507.24 -180.407
L507.24 -180.407
L507.24 -180.407
L507.24 -180.407
L507.24 -180.407
L505.845 -178.658
L505.845 -178.658
L505.845 -178.658
L505.845 -178.658
L504.45 -177.098
L504.45 -177.098
L504.45 -177.098
L504.45 -177.098
L504.45 -177.098
L504.45 -177.098
L504.45 -177.098
L504.45 -177.098
L504.45 -177.098
L503.055 -175.727
L501.66 -174.545
L500.265 -173.549
L500.265 -173.549
L500.265 -173.549
L500.265 -173.549
L500.265 -173.549
L500.265 -173.549
L500.265 -173.549
L500.265 -173.549
L500.265 -173.549
L497.475 -172.113
L496.08 -171.669
L496.08 -171.669
L496.08 -171.669
L496.08 -171.669
L494.685 -171.405
L494.685 -171.405
L494.685 -171.405
L494.685 -171.405
L494.685 -171.405
L494.685 -171.405
L494.685 -171.405
L494.685 -171.405
L494.685 -171.405
L494.685 -171.405
L494.685 -171.405
L491.895 -171.409
L491.895 -171.409
L491.895 -171.409
L490.5 -171.671
L490.5 -171.671
L490.5 -171.671
L490.5 -171.671
L490.5 -171.671
L489.105 -172.102
L489.105 -172.102
L487.71 -172.699
L486.315 -173.458
L486.315 -173.458
L486.315 -173.458
L484.92 -174.376
L484.92 -174.376
L484.92 -174.376
L484.92 -174.376
L484.92 -174.376
L484.92 -174.376
L484.92 -174.376
L484.92 -174.376
L484.92 -174.376
L484.92 -174.376
L484.92 -174.376
L484.92 -174.376
L484.92 -174.376
L484.92 -174.376
L484.92 -174.376
L484.92 -174.376
L483.525 -175.449
L483.525 -175.449
L483.525 -175.449
L482.13 -176.673
L482.13 -176.673
L482.13 -176.673
L480.735 -178.043
L480.735 -178.043
L479.34 -179.555
L479.34 -179.555
L479.34 -179.555
L479.34 -179.555
L479.34 -179.555
L479.34 -179.555
L475.155 -184.891
L475.155 -184.891
L475.155 -184.891
L475.155 -184.891
L475.155 -184.891
L475.155 -184.891
L475.155 -184.891
L475.155 -184.891
L473.76 -186.92
L473.76 -186.92
L473.76 -186.92
L472.365 -189.065
L472.365 -189.065
L472.365 -189.065
L472.365 -189.065
L470.97 -191.321
L470.97 -191.321
L469.575 -193.681
L469.575 -193.681
L469.575 -193.681
L469.575 -193.681
L469.575 -193.681
L469.575 -193.681
L469.575 -193.681
L469.575 -193.681
L469.575 -193.681
L469.575 -193.681
L469.575 -193.681
L468.18 -196.141
L468.18 -196.141
L468.18 -196.141
L466.785 -198.693
L465.39 -201.331
L465.39 -201.331
L465.39 -201.331
L465.39 -201.331
L465.39 -201.331
L465.39 -201.331
L463.995 -204.05
L463.995 -204.05
L463.995 -204.05
L463.995 -204.05
L462.6 -206.843
L462.6 -206.843
L462.6 -206.843
L462.6 -206.843
L462.6 -206.843
L462.6 -206.843
L462.6 -206.843
L462.6 -206.843
L462.6 -206.843
L461.205 -209.704
L459.81 -212.626
L458.415 -215.601
L458.415 -215.601
L458.415 -215.601
L458.415 -215.601
L458.415 -215.601
L458.415 -215.601
L458.415 -215.601
L458.415 -215.601
L458.415 -215.601
L455.625 -221.689
L454.23 -224.788
L454.23 -224.788
L454.23 -224.788
L454.23 -224.788
L452.835 -227.913
L452.835 -227.913
L452.835 -227.913
L452.835 -227.913
L452.835 -227.913
L452.835 -227.913
L452.835 -227.913
L452.835 -227.913
L452.835 -227.913
L452.835 -227.913
L452.835 -227.913
L450.045 -234.217
L450.045 -234.217
L450.045 -234.217
L448.65 -237.382
L448.65 -237.382
L448.65 -237.382
L448.65 -237.382
L448.65 -237.382
L447.255 -240.546
L447.255 -240.546
L445.86 -243.702
L444.465 -246.844
L444.465 -246.844
L444.465 -246.844
L443.07 -249.964
L443.07 -249.964
L443.07 -249.964
L443.07 -249.964
L443.07 -249.964
L443.07 -249.964
L443.07 -249.964
L443.07 -249.964
L443.07 -249.964
L443.07 -249.964
L443.07 -249.964
L443.07 -249.964
L443.07 -249.964
L443.07 -249.964
L443.07 -249.964
L443.07 -249.964
L441.675 -253.055
L441.675 -253.055
L441.675 -253.055
L440.28 -256.111
L440.28 -256.111
L440.28 -256.111
L438.885 -259.124
L438.885 -259.124
L437.49 -262.089
L437.49 -262.089
L437.49 -262.089
L437.49 -262.089
L437.49 -262.089
L437.49 -262.089
L433.305 -270.622
L433.305 -270.622
L433.305 -270.622
L433.305 -270.622
L433.305 -270.622
L433.305 -270.622
L433.305 -270.622
L433.305 -270.622
L431.91 -273.325
L431.91 -273.325
L431.91 -273.325
L430.515 -275.947
L430.515 -275.947
L430.515 -275.947
L430.515 -275.947
L429.12 -278.482
L429.12 -278.482
L427.725 -280.924
L427.725 -280.924
L427.725 -280.924
L427.725 -280.924
L427.725 -280.924
L427.725 -280.924
L427.725 -280.924
L427.725 -280.924
L427.725 -280.924
L427.725 -280.924
L427.725 -280.924
L426.33 -283.267
L426.33 -283.267
L426.33 -283.267
L424.935 -285.506
L423.54 -287.636
L423.54 -287.636
L423.54 -287.636
L423.54 -287.636
L423.54 -287.636
L423.54 -287.636
L422.145 -289.65
L422.145 -289.65
L422.145 -289.65
L422.145 -289.65
L420.75 -291.545
L420.75 -291.545
L420.75 -291.545
L420.75 -291.545
L420.75 -291.545
L420.75 -291.545
L420.75 -291.545
L420.75 -291.545
L420.75 -291.545
L419.355 -293.316
L417.96 -294.958
L417.96 -294.958
L417.96 -294.958
L417.96 -294.958
L416.565 -296.467
L416.565 -296.467
L416.565 -296.467
L416.565 -296.467
L416.565 -296.467
L416.565 -296.467
L416.565 -296.467
L416.565 -296.467
L416.565 -296.467
L413.775 -299.071
L412.38 -300.157
L412.38 -300.157
L412.38 -300.157
L412.38 -300.157
L410.985 -301.097
L410.985 -301.097
L410.985 -301.097
L410.985 -301.097
L410.985 -301.097
L410.985 -301.097
L410.985 -301.097
L410.985 -301.097
L410.985 -301.097
L410.985 -301.097
L410.985 -301.097
L408.195 -302.52
L408.195 -302.52
L408.195 -302.52
L406.8 -303
L406.8 -303
L406.8 -303
L406.8 -303
L406.8 -303
L405.405 -303.321
L405.405 -303.321
L404.01 -303.482
L402.615 -303.482
L402.615 -303.482
L402.615 -303.482
L401.22 -303.318
L401.22 -303.318
L401.22 -303.318
L401.22 -303.318
L401.22 -303.318
L401.22 -303.318
L401.22 -303.318
L401.22 -303.318
L401.22 -303.318
L401.22 -303.318
L401.22 -303.318
L401.22 -303.318
L401.22 -303.318
L401.22 -303.318
L401.22 -303.318
L401.22 -303.318
L399.825 -302.99
L399.825 -302.99
L399.825 -302.99
L398.43 -302.498
L398.43 -302.498
L398.43 -302.498
L397.035 -301.839
L397.035 -301.839
L395.64 -301.015
L395.64 -301.015
L395.64 -301.015
L395.64 -301.015
L395.64 -301.015
L395.64 -301.015
L391.455 -297.55
L391.455 -297.55
L391.455 -297.55
L391.455 -297.55
L391.455 -297.55
L391.455 -297.55
L391.455 -297.55
L391.455 -297.55
L390.06 -296.066
L390.06 -296.066
L390.06 -296.066
L388.665 -294.418
L388.665 -294.418
L388.665 -294.418
L388.665 -294.418
L387.27 -292.61
L387.27 -292.61
L385.875 -290.641
L385.875 -290.641
L385.875 -290.641
L385.875 -290.641
L385.875 -290.641
L385.875 -290.641
L385.875 -290.641
L385.875 -290.641
L385.875 -290.641
L385.875 -290.641
L385.875 -290.641
L384.48 -288.515
L384.48 -288.515
L384.48 -288.515
L383.085 -286.233
L381.69 -283.798
L381.69 -283.798
L381.69 -283.798
L381.69 -283.798
L381.69 -283.798
L381.69 -283.798
L380.295 -281.213
L380.295 -281.213
L380.295 -281.213
L380.295 -281.213
L378.9 -278.48
L378.9 -278.48
L378.9 -278.48
L378.9 -278.48
L378.9 -278.48
L378.9 -278.48
L378.9 -278.48
L378.9 -278.48
L378.9 -278.48
L377.505 -275.603
L376.11 -272.586
L376.11 -272.586
L376.11 -272.586
L376.11 -272.586
L374.715 -269.432
L374.715 -269.432
L374.715 -269.432
L374.715 -269.432
L374.715 -269.432
L374.715 -269.432
L374.715 -269.432
L374.715 -269.432
L374.715 -269.432
L371.925 -262.729
L370.53 -259.189
L370.53 -259.189
L370.53 -259.189
L370.53 -259.189
L369.135 -255.529
L369.135 -255.529
L369.135 -255.529
L369.135 -255.529
L369.135 -255.529
L369.135 -255.529
L369.135 -255.529
L369.135 -255.529
L369.135 -255.529
L369.135 -255.529
L369.135 -255.529
L366.345 -247.871
L366.345 -247.871
L366.345 -247.871
L366.345 -247.871
L364.95 -243.882
L364.95 -243.882
L364.95 -243.882
L364.95 -243.882
L364.95 -243.882
L363.555 -239.794
L363.555 -239.794
L362.16 -235.613
L360.765 -231.343
L360.765 -231.343
L360.765 -231.343
L359.37 -226.992
L359.37 -226.992
L359.37 -226.992
L359.37 -226.992
L359.37 -226.992
L359.37 -226.992
L359.37 -226.992
L359.37 -226.992
L359.37 -226.992
L359.37 -226.992
L359.37 -226.992
L359.37 -226.992
L359.37 -226.992
L359.37 -226.992
L359.37 -226.992
L359.37 -226.992
L357.975 -222.564
L357.975 -222.564
L357.975 -222.564
L356.58 -218.067
L356.58 -218.067
L356.58 -218.067
L355.185 -213.507
L355.185 -213.507
L353.79 -208.889
L353.79 -208.889
L353.79 -208.889
L353.79 -208.889
L353.79 -208.889
L353.79 -208.889
L349.605 -194.76
L349.605 -194.76
L349.605 -194.76
L349.605 -194.76
L349.605 -194.76
L349.605 -194.76
L349.605 -194.76
L349.605 -194.76
L348.21 -189.98
L348.21 -189.98
L348.21 -189.98
L346.815 -185.176
L346.815 -185.176
L346.815 -185.176
L346.815 -185.176
L345.42 -180.356
L345.42 -180.356
L344.025 -175.526
L344.025 -175.526
L344.025 -175.526
L344.025 -175.526
L344.025 -175.526
L344.025 -175.526
L344.025 -175.526
L344.025 -175.526
L344.025 -175.526
L344.025 -175.526
L344.025 -175.526
L342.63 -170.693
L342.63 -170.693
L342.63 -170.693
L341.235 -165.865
L339.84 -161.047
L339.84 -161.047
L339.84 -161.047
L339.84 -161.047
L339.84 -161.047
L339.84 -161.047
L338.445 -156.247
L338.445 -156.247
L338.445 -156.247
L338.445 -156.247
L337.05 -151.473
L337.05 -151.473
L337.05 -151.473
L337.05 -151.473
L337.05 -151.473
L337.05 -151.473
L337.05 -151.473
L337.05 -151.473
L337.05 -151.473
L335.655 -146.731
L334.26 -142.027
L334.26 -142.027
L334.26 -142.027
L334.26 -142.027
L332.865 -137.37
L332.865 -137.37
L332.865 -137.37
L332.865 -137.37
L332.865 -137.37
L332.865 -137.37
L332.865 -137.37
L332.865 -137.37
L332.865 -137.37
L330.075 -128.22
L328.68 -123.741
L328.68 -123.741
L328.68 -123.741
L328.68 -123.741
L327.285 -119.335
L327.285 -119.335
L327.285 -119.335
L327.285 -119.335
L327.285 -119.335
L327.285 -119.335
L327.285 -119.335
L327.285 -119.335
L327.285 -119.335
L327.285 -119.335
L327.285 -119.335
L324.495 -110.767
L324.495 -110.767
L324.495 -110.767
L324.495 -110.767
L323.1 -106.618
L323.1 -106.618
L323.1 -106.618
L323.1 -106.618
L323.1 -106.618
L321.705 -102.567
L321.705 -102.567
L320.31 -98.6205
L318.915 -94.7841
L318.915 -94.7841
L318.915 -94.7841
L317.52 -91.0636
L317.52 -91.0636
L317.52 -91.0636
L317.52 -91.0636
L317.52 -91.0636
L317.52 -91.0636
L317.52 -91.0636
L317.52 -91.0636
L317.52 -91.0636
L317.52 -91.0636
L317.52 -91.0636
L317.52 -91.0636
L317.52 -91.0636
L317.52 -91.0636
L317.52 -91.0636
L317.52 -91.0636
L316.125 -87.4647
L316.125 -87.4647
L316.125 -87.4647
L314.73 -83.9927
L314.73 -83.9927
L314.73 -83.9927
L314.73 -83.9927
L313.335 -80.6529
L313.335 -80.6529
L311.94 -77.4505
L311.94 -77.4505
L311.94 -77.4505
L311.94 -77.4505
L311.94 -77.4505
L311.94 -77.4505
L307.755 -68.715
L307.755 -68.715
L307.755 -68.715
L307.755 -68.715
L307.755 -68.715
L307.755 -68.715
L307.755 -68.715
L307.755 -68.715
L306.36 -66.1087
L306.36 -66.1087
L306.36 -66.1087
L304.965 -63.6623
L304.965 -63.6623
L304.965 -63.6623
L304.965 -63.6623
L303.57 -61.3794
L303.57 -61.3794
L302.175 -59.2639
L302.175 -59.2639
L302.175 -59.2639
L302.175 -59.2639
L302.175 -59.2639
L302.175 -59.2639
L302.175 -59.2639
L302.175 -59.2639
L302.175 -59.2639
L302.175 -59.2639
L302.175 -59.2639
L300.78 -57.3191
L300.78 -57.3191
L300.78 -57.3191
L299.385 -55.5482
L297.99 -53.9541
L297.99 -53.9541
L297.99 -53.9541
L297.99 -53.9541
L297.99 -53.9541
L297.99 -53.9541
L296.595 -52.5396
L296.595 -52.5396
L296.595 -52.5396
L296.595 -52.5396
L295.2 -51.3072
L295.2 -51.3072
L295.2 -51.3072
L295.2 -51.3072
L295.2 -51.3072
L295.2 -51.3072
L295.2 -51.3072
L295.2 -51.3072
L295.2 -51.3072
L293.805 -50.2591
L292.41 -49.3972
L292.41 -49.3972
L292.41 -49.3972
L292.41 -49.3972
L291.015 -48.7234
L291.015 -48.7234
L291.015 -48.7234
L291.015 -48.7234
L291.015 -48.7234
L291.015 -48.7234
L291.015 -48.7234
L291.015 -48.7234
L291.015 -48.7234
L288.225 -47.9457
L286.83 -47.844
L286.83 -47.844
L286.83 -47.844
L286.83 -47.844
L285.435 -47.935
L285.435 -47.935
L285.435 -47.935
L285.435 -47.935
L285.435 -47.935
L285.435 -47.935
L285.435 -47.935
L285.435 -47.935
L285.435 -47.935
L285.435 -47.935
L285.435 -47.935
L282.645 -48.6965
L282.645 -48.6965
L282.645 -48.6965
L282.645 -48.6965
L281.25 -49.3673
L281.25 -49.3673
L281.25 -49.3673
L281.25 -49.3673
L281.25 -49.3673
L279.855 -50.2314
L279.855 -50.2314
L278.46 -51.2882
L277.065 -52.5371
L277.065 -52.5371
L277.065 -52.5371
L275.67 -53.9771
L275.67 -53.9771
L275.67 -53.9771
L275.67 -53.9771
L275.67 -53.9771
L275.67 -53.9771
L275.67 -53.9771
L275.67 -53.9771
L275.67 -53.9771
L275.67 -53.9771
L275.67 -53.9771
L275.67 -53.9771
L275.67 -53.9771
L275.67 -53.9771
L275.67 -53.9771
L275.67 -53.9771
L274.275 -55.6071
L274.275 -55.6071
L274.275 -55.6071
L272.88 -57.4257
L272.88 -57.4257
L272.88 -57.4257
L272.88 -57.4257
L271.485 -59.4312
L271.485 -59.4312
L270.09 -61.622
L270.09 -61.622
L270.09 -61.622
L270.09 -61.622
L270.09 -61.622
L270.09 -61.622
L265.905 -69.2834
L265.905 -69.2834
L265.905 -69.2834
L265.905 -69.2834
L265.905 -69.2834
L265.905 -69.2834
L265.905 -69.2834
L265.905 -69.2834
L264.51 -72.1921
L264.51 -72.1921
L264.51 -72.1921
L263.115 -75.2735
L263.115 -75.2735
L263.115 -75.2735
L263.115 -75.2735
L261.72 -78.5246
L261.72 -78.5246
L261.72 -78.5246
L260.325 -81.9422
L260.325 -81.9422
L260.325 -81.9422
L260.325 -81.9422
L260.325 -81.9422
L260.325 -81.9422
L260.325 -81.9422
L260.325 -81.9422
L260.325 -81.9422
L260.325 -81.9422
L260.325 -81.9422
L258.93 -85.5227
L258.93 -85.5227
L258.93 -85.5227
L257.535 -89.2624
L256.14 -93.1577
L256.14 -93.1577
L256.14 -93.1577
L256.14 -93.1577
L256.14 -93.1577
L256.14 -93.1577
L254.745 -97.2045
L254.745 -97.2045
L254.745 -97.2045
L254.745 -97.2045
L253.35 -101.399
L253.35 -101.399
L253.35 -101.399
L253.35 -101.399
L253.35 -101.399
L253.35 -101.399
L253.35 -101.399
L253.35 -101.399
L253.35 -101.399
L251.955 -105.736
L250.56 -110.211
L250.56 -110.211
L250.56 -110.211
L250.56 -110.211
L249.165 -114.821
L249.165 -114.821
L249.165 -114.821
L249.165 -114.821
L249.165 -114.821
L249.165 -114.821
L249.165 -114.821
L249.165 -114.821
L249.165 -114.821
L246.375 -124.422
L244.98 -129.404
L244.98 -129.404
L244.98 -129.404
L244.98 -129.404
L243.585 -134.499
L243.585 -134.499
L243.585 -134.499
L243.585 -134.499
L243.585 -134.499
L243.585 -134.499
L243.585 -134.499
L243.585 -134.499
L243.585 -134.499
L243.585 -134.499
L243.585 -134.499
L240.795 -145.011
L240.795 -145.011
L240.795 -145.011
L240.795 -145.011
L239.4 -150.416
L239.4 -150.416
L239.4 -150.416
L239.4 -150.416
L239.4 -150.416
L238.005 -155.913
L238.005 -155.913
L236.61 -161.496
L235.215 -167.158
L235.215 -167.158
L235.215 -167.158
L233.82 -172.895
L233.82 -172.895
L233.82 -172.895
L233.82 -172.895
L233.82 -172.895
L233.82 -172.895
L233.82 -172.895
L233.82 -172.895
L233.82 -172.895
L233.82 -172.895
L233.82 -172.895
L233.82 -172.895
L233.82 -172.895
L233.82 -172.895
L233.82 -172.895
L233.82 -172.895
L232.425 -178.7
L232.425 -178.7
L232.425 -178.7
L231.03 -184.567
L231.03 -184.567
L231.03 -184.567
L231.03 -184.567
L229.635 -190.488
L229.635 -190.488
L228.24 -196.459
L228.24 -196.459
L228.24 -196.459
L228.24 -196.459
L228.24 -196.459
L228.24 -196.459
L224.055 -214.598
L224.055 -214.598
L224.055 -214.598
L224.055 -214.598
L224.055 -214.598
L224.055 -214.598
L224.055 -214.598
L224.055 -214.598
L222.66 -220.698
L222.66 -220.698
L222.66 -220.698
L221.265 -226.812
L221.265 -226.812
L221.265 -226.812
L221.265 -226.812
L219.87 -232.935
L219.87 -232.935
L219.87 -232.935
L218.475 -239.058
L218.475 -239.058
L218.475 -239.058
L218.475 -239.058
L218.475 -239.058
L218.475 -239.058
L218.475 -239.058
L218.475 -239.058
L218.475 -239.058
L218.475 -239.058
L218.475 -239.058
L217.08 -245.175
L217.08 -245.175
L217.08 -245.175
L215.685 -251.278
L214.29 -257.36
L214.29 -257.36
L214.29 -257.36
L214.29 -257.36
L214.29 -257.36
L214.29 -257.36
L212.895 -263.413
L212.895 -263.413
L212.895 -263.413
L212.895 -263.413
L211.5 -269.429
L211.5 -269.429
L211.5 -269.429
L211.5 -269.429
L211.5 -269.429
L211.5 -269.429
L211.5 -269.429
L211.5 -269.429
L211.5 -269.429
L210.105 -275.401
L210.105 -275.401
L210.105 -275.401
L210.105 -275.401
L208.71 -281.321
L208.71 -281.321
L208.71 -281.321
L208.71 -281.321
L207.315 -287.18
L207.315 -287.18
L207.315 -287.18
L207.315 -287.18
L207.315 -287.18
L207.315 -287.18
L207.315 -287.18
L207.315 -287.18
L207.315 -287.18
L204.525 -298.683
L203.13 -304.31
L203.13 -304.31
L203.13 -304.31
L203.13 -304.31
L201.735 -309.843
L201.735 -309.843
L201.735 -309.843
L201.735 -309.843
L201.735 -309.843
L201.735 -309.843
L201.735 -309.843
L201.735 -309.843
L201.735 -309.843
L201.735 -309.843
L201.735 -309.843
L198.945 -320.591
L198.945 -320.591
L198.945 -320.591
L198.945 -320.591
L197.55 -325.787
L197.55 -325.787
L197.55 -325.787
L197.55 -325.787
L197.55 -325.787
L196.155 -330.853
L196.155 -330.853
L194.76 -335.779
L193.365 -340.554
L193.365 -340.554
L193.365 -340.554
L191.97 -345.17
L191.97 -345.17
L191.97 -345.17
L191.97 -345.17
L191.97 -345.17
L191.97 -345.17
L191.97 -345.17
L191.97 -345.17
L191.97 -345.17
L191.97 -345.17
L191.97 -345.17
L191.97 -345.17
L191.97 -345.17
L191.97 -345.17
L191.97 -345.17
L191.97 -345.17
L190.575 -349.617
L190.575 -349.617
L190.575 -349.617
L189.18 -353.883
L189.18 -353.883
L189.18 -353.883
L189.18 -353.883
L187.785 -357.959
L187.785 -357.959
L186.39 -361.833
L186.39 -361.833
L186.39 -361.833
L186.39 -361.833
L186.39 -361.833
L186.39 -361.833
L182.205 -372.142
L182.205 -372.142
L182.205 -372.142
L182.205 -372.142
L182.205 -372.142
L182.205 -372.142
L182.205 -372.142
L182.205 -372.142
L180.81 -375.102
L180.81 -375.102
L180.81 -375.102
L179.415 -377.806
L179.415 -377.806
L179.415 -377.806
L179.415 -377.806
L178.02 -380.242
L178.02 -380.242
L178.02 -380.242
L176.625 -382.398
L176.625 -382.398
L176.625 -382.398
L176.625 -382.398
L176.625 -382.398
L176.625 -382.398
L176.625 -382.398
L176.625 -382.398
L176.625 -382.398
L176.625 -382.398
L176.625 -382.398
L175.23 -384.262
L175.23 -384.262
L175.23 -384.262
L173.835 -385.823
L172.44 -387.069
L172.44 -387.069
L172.44 -387.069
L172.44 -387.069
L172.44 -387.069
L172.44 -387.069
L171.045 -387.988
L171.045 -387.988
L171.045 -387.988
L171.045 -387.988
L169.65 -388.569
L169.65 -388.569
L169.65 -388.569
L169.65 -388.569
L169.65 -388.569
L169.65 -388.569
L169.65 -388.569
L169.65 -388.569
L169.65 -388.569
L168.255 -388.8
L168.255 -388.8
L168.255 -388.8
L168.255 -388.8
L166.86 -388.67
L166.86 -388.67
L166.86 -388.67
L166.86 -388.67
L165.465 -388.169
L165.465 -388.169
L165.465 -388.169
L165.465 -388.169
L165.465 -388.169
L165.465 -388.169
L165.465 -388.169
L165.465 -388.169
L165.465 -388.169
L162.675 -386.01
L161.28 -384.333
L161.28 -384.333
L161.28 -384.333
L161.28 -384.333
L159.885 -382.244
L159.885 -382.244
L159.885 -382.244
L159.885 -382.244
L159.885 -382.244
L159.885 -382.244
L159.885 -382.244
L159.885 -382.244
L159.885 -382.244
L159.885 -382.244
L159.885 -382.244
L157.095 -376.805
L157.095 -376.805
L157.095 -376.805
L157.095 -376.805
L155.7 -373.44
L155.7 -373.44
L155.7 -373.44
L155.7 -373.44
L155.7 -373.44
L154.305 -369.638
L154.305 -369.638
L152.91 -365.396
L151.515 -360.71
L151.515 -360.71
L151.515 -360.71
L150.12 -355.58
L150.12 -355.58
L150.12 -355.58
L150.12 -355.58
L150.12 -355.58
L150.12 -355.58
L150.12 -355.58
L150.12 -355.58
L150.12 -355.58
L150.12 -355.58
L150.12 -355.58
L150.12 -355.58
L150.12 -355.58
L150.12 -355.58
L150.12 -355.58
L150.12 -355.58
L148.725 -350.008
L148.725 -350.008
L148.725 -350.008
L147.33 -343.995
L147.33 -343.995
L147.33 -343.995
L147.33 -343.995
L145.935 -337.548
L145.935 -337.548
L144.54 -330.673
L144.54 -330.673
L144.54 -330.673
L144.54 -330.673
L144.54 -330.673
L144.54 -330.673
L140.355 -307.589
L140.355 -307.589
L140.355 -307.589
L140.355 -307.589
L140.355 -307.589
L140.355 -307.589
L140.355 -307.589
L140.355 -307.589
L138.96 -299.124
L138.96 -299.124
L138.96 -299.124
L137.565 -290.306
L137.565 -290.306
L137.565 -290.306
L137.565 -290.306
L136.17 -281.159
L136.17 -281.159
L136.17 -281.159
L134.775 -271.709
L134.775 -271.709
L134.775 -271.709
L134.775 -271.709
L134.775 -271.709
L134.775 -271.709
L134.775 -271.709
L134.775 -271.709
L134.775 -271.709
L134.775 -271.709
L134.775 -271.709
L133.38 -261.986
L133.38 -261.986
L133.38 -261.986
L131.985 -252.023
L130.59 -241.857
L130.59 -241.857
L130.59 -241.857
L130.59 -241.857
L130.59 -241.857
L130.59 -241.857
L129.195 -231.528
L129.195 -231.528
L129.195 -231.528
L129.195 -231.528
L127.8 -221.078
L127.8 -221.078
L127.8 -221.078
L127.8 -221.078
L127.8 -221.078
L127.8 -221.078
L127.8 -221.078
L127.8 -221.078
L127.8 -221.078
L126.405 -210.554
L126.405 -210.554
L126.405 -210.554
L126.405 -210.554
L125.01 -200.003
L125.01 -200.003
L125.01 -200.003
L125.01 -200.003
L123.615 -189.479
L123.615 -189.479
L123.615 -189.479
L123.615 -189.479
L123.615 -189.479
L123.615 -189.479
L123.615 -189.479
L123.615 -189.479
L123.615 -189.479
L120.825 -168.724
L119.43 -158.607
L119.43 -158.607
L119.43 -158.607
L119.43 -158.607
L118.035 -148.743
L118.035 -148.743
L118.035 -148.743
L118.035 -148.743
L118.035 -148.743
L118.035 -148.743
L118.035 -148.743
L118.035 -148.743
L118.035 -148.743
L118.035 -148.743
L118.035 -148.743
L115.245 -130.011
L115.245 -130.011
L115.245 -130.011
L115.245 -130.011
L113.85 -121.263
L113.85 -121.263
L113.85 -121.263
L113.85 -121.263
L113.85 -121.263
L112.455 -113.006
L112.455 -113.006
L111.06 -105.297
L109.665 -98.1903
L109.665 -98.1903
L109.665 -98.1903
L108.27 -91.7386
L108.27 -91.7386
L108.27 -91.7386
L108.27 -91.7386
L108.27 -91.7386
L108.27 -91.7386
L108.27 -91.7386
L108.27 -91.7386
L108.27 -91.7386
L108.27 -91.7386
L108.27 -91.7386
L108.27 -91.7386
L108.27 -91.7386
L108.27 -91.7386
L108.27 -91.7386
L108.27 -91.7386
L106.875 -85.9898
L106.875 -85.9898
L106.875 -85.9898
L105.48 -80.9875
L105.48 -80.9875
L105.48 -80.9875
L105.48 -80.9875
L104.085 -76.7702
L104.085 -76.7702
L102.69 -73.371
L102.69 -73.371
L102.69 -73.371
L102.69 -73.371
L102.69 -73.371
L102.69 -73.371
L98.505 -68.3149
L98.505 -68.3149
L98.505 -68.3149
L98.505 -68.3149
L98.505 -68.3149
L98.505 -68.3149
L98.505 -68.3149
L98.505 -68.3149
L97.11 -68.3875
L97.11 -68.3875
L97.11 -68.3875
L95.715 -69.3434
L95.715 -69.3434
L95.715 -69.3434
L95.715 -69.3434
L94.32 -71.1754
L94.32 -71.1754
L94.32 -71.1754
L92.925 -73.8695
L92.925 -73.8695
L92.925 -73.8695
L92.925 -73.8695
L92.925 -73.8695
L92.925 -73.8695
L92.925 -73.8695
L92.925 -73.8695
L92.925 -73.8695
L92.925 -73.8695
L92.925 -73.8695
L91.53 -77.4064
L91.53 -77.4064
L91.53 -77.4064
L90.135 -81.7622
L88.74 -86.9091
L88.74 -86.9091
L88.74 -86.9091
L88.74 -86.9091
L88.74 -86.9091
L88.74 -86.9091
L87.345 -92.8173
L87.345 -92.8173
L87.345 -92.8173
L87.345 -92.8173
L85.95 -99.4559
L85.95 -99.4559
L85.95 -99.4559
L85.95 -99.4559
L85.95 -99.4559
L85.95 -99.4559
L85.95 -99.4559
L85.95 -99.4559
L85.95 -99.4559
L84.555 -106.795
L84.555 -106.795
L84.555 -106.795
L84.555 -106.795
L83.16 -114.806
L83.16 -114.806
L83.16 -114.806
L83.16 -114.806
L81.765 -123.464
L81.765 -123.464
L81.765 -123.464
L81.765 -123.464
L81.765 -123.464
L81.765 -123.464
L81.765 -123.464
L81.765 -123.464
L81.765 -123.464
L78.975 -142.65
L77.58 -153.155
L77.58 -153.155
L77.58 -153.155
L77.58 -153.155
L76.185 -164.26
L76.185 -164.26
L76.185 -164.26
L76.185 -164.26
L76.185 -164.26
L76.185 -164.26
L76.185 -164.26
L76.185 -164.26
L76.185 -164.26
L76.185 -164.26
L76.185 -164.26
L73.395 -188.28
L73.395 -188.28
L73.395 -188.28
L73.395 -188.28
L72 -201.203
z
" id="C0_0_ab3fa48f5f"/>
    </defs>
    <g clip-path="url(#p7ff5b81e1d)">
     <use style="fill:#0000ff;fill-opacity:0.1;stroke:#000000;stroke-opacity:0.1;" x="0.0" xlink:href="#C0_0_ab3fa48f5f" y="432.0"/>
    </g>
   </g>
   <g id="line2d_1">
    <path clip-path="url(#p7ff5b81e1d)" d="
M72 230.797
L73.395 243.96
L73.395 243.96
L73.395 243.96
L73.395 243.96
L77.58 279.722
L78.975 290.41
L81.765 309.926
L81.765 309.926
L84.555 326.876
L85.95 334.338
L85.95 334.338
L87.345 341.089
L87.345 341.089
L88.74 347.099
L88.74 347.099
L90.135 352.338
L91.53 356.776
L91.53 356.776
L92.925 360.386
L92.925 360.386
L94.32 363.145
L94.32 363.145
L95.715 365.033
L95.715 365.033
L97.11 366.038
L97.11 366.038
L98.505 366.151
L98.505 366.151
L102.69 361.178
L102.69 361.178
L104.085 357.794
L104.085 357.794
L105.48 353.587
L105.48 353.587
L106.875 348.59
L106.875 348.59
L108.27 342.842
L108.27 342.842
L109.665 336.387
L109.665 336.387
L111.06 329.274
L113.85 313.284
L113.85 313.284
L115.245 304.52
L115.245 304.52
L119.43 275.864
L119.43 275.864
L123.615 244.923
L123.615 244.923
L131.985 182.238
L136.17 153.045
L136.17 153.045
L138.96 135.049
L138.96 135.049
L140.355 126.572
L140.355 126.572
L144.54 103.461
L144.54 103.461
L147.33 90.1286
L147.33 90.1286
L150.12 78.5409
L150.12 78.5409
L151.515 73.4122
L152.91 68.7287
L154.305 64.4896
L154.305 64.4896
L155.7 60.6924
L155.7 60.6924
L157.095 57.3334
L157.095 57.3334
L159.885 51.9077
L159.885 51.9077
L161.28 49.8274
L162.675 48.1583
L165.465 46.0168
L165.465 46.0168
L166.86 45.5247
L166.86 45.5247
L168.255 45.4043
L169.65 45.6448
L169.65 45.6448
L171.045 46.2348
L171.045 46.2348
L172.44 47.1628
L172.44 47.1628
L173.835 48.4173
L175.23 49.9865
L175.23 49.9865
L176.625 51.8586
L176.625 51.8586
L178.02 54.0219
L178.02 54.0219
L179.415 56.4646
L179.415 56.4646
L180.81 59.1752
L180.81 59.1752
L182.205 62.142
L182.205 62.142
L186.39 72.4663
L186.39 72.4663
L189.18 80.4248
L189.18 80.4248
L191.97 89.1435
L191.97 89.1435
L194.76 98.54
L197.55 108.535
L197.55 108.535
L201.735 124.481
L201.735 124.481
L204.525 135.642
L210.105 158.923
L217.08 189.148
L217.08 189.148
L229.635 243.835
L229.635 243.835
L235.215 267.167
L235.215 267.167
L239.4 283.912
L239.4 283.912
L243.585 299.831
L243.585 299.831
L246.375 309.909
L250.56 324.122
L250.56 324.122
L253.35 332.935
L253.35 332.935
L256.14 341.176
L256.14 341.176
L258.93 348.811
L258.93 348.811
L261.72 355.809
L261.72 355.809
L264.51 362.141
L264.51 362.141
L265.905 365.049
L265.905 365.049
L270.09 372.709
L270.09 372.709
L272.88 376.903
L272.88 376.903
L274.275 378.721
L274.275 378.721
L275.67 380.35
L275.67 380.35
L277.065 381.79
L278.46 383.038
L279.855 384.094
L279.855 384.094
L281.25 384.957
L281.25 384.957
L282.645 385.627
L282.645 385.627
L285.435 386.388
L285.435 386.388
L286.83 386.478
L288.225 386.376
L291.015 385.598
L291.015 385.598
L292.41 384.924
L292.41 384.924
L293.805 384.062
L295.2 383.014
L295.2 383.014
L296.595 381.782
L296.595 381.782
L297.99 380.367
L297.99 380.367
L299.385 378.774
L302.175 375.059
L302.175 375.059
L304.965 370.663
L304.965 370.663
L307.755 365.612
L311.94 356.881
L311.94 356.881
L314.73 350.342
L314.73 350.342
L317.52 343.274
L317.52 343.274
L320.31 335.721
L324.495 323.58
L330.075 306.135
L337.05 282.892
L337.05 282.892
L356.58 216.325
L356.58 216.325
L360.765 203.055
L360.765 203.055
L364.95 190.522
L364.95 190.522
L369.135 178.88
L369.135 178.88
L371.925 171.684
L376.11 161.832
L376.11 161.832
L378.9 155.94
L378.9 155.94
L381.69 150.623
L381.69 150.623
L384.48 145.906
L384.48 145.906
L387.27 141.81
L387.27 141.81
L390.06 138.351
L390.06 138.351
L391.455 136.865
L391.455 136.865
L395.64 133.39
L395.64 133.39
L397.035 132.562
L397.035 132.562
L398.43 131.899
L398.43 131.899
L399.825 131.401
L399.825 131.401
L401.22 131.068
L401.22 131.068
L402.615 130.898
L402.615 130.898
L404.01 130.89
L405.405 131.044
L405.405 131.044
L406.8 131.357
L406.8 131.357
L408.195 131.828
L408.195 131.828
L410.985 133.233
L410.985 133.233
L412.38 134.162
L412.38 134.162
L413.775 135.238
L416.565 137.82
L416.565 137.82
L419.355 140.948
L422.145 144.592
L422.145 144.592
L424.935 148.714
L427.725 153.276
L427.725 153.276
L430.515 158.236
L430.515 158.236
L433.305 163.548
L433.305 163.548
L438.885 175.037
L438.885 175.037
L444.465 187.337
L444.465 187.337
L459.81 221.771
L463.995 230.433
L463.995 230.433
L466.785 235.85
L469.575 240.917
L469.575 240.917
L472.365 245.585
L472.365 245.585
L475.155 249.802
L475.155 249.802
L479.34 255.183
L479.34 255.183
L482.13 258.076
L482.13 258.076
L483.525 259.299
L483.525 259.299
L484.92 260.366
L484.92 260.366
L486.315 261.273
L487.71 262.015
L489.105 262.588
L489.105 262.588
L490.5 262.989
L490.5 262.989
L491.895 263.214
L491.895 263.214
L494.685 263.12
L494.685 263.12
L496.08 262.795
L496.08 262.795
L497.475 262.281
L500.265 260.678
L500.265 260.678
L501.66 259.583
L503.055 258.292
L504.45 256.801
L504.45 256.801
L505.845 255.109
L505.845 255.109
L507.24 253.217
L507.24 253.217
L508.635 251.123
L511.425 246.326
L511.425 246.326
L514.215 240.719
L514.215 240.719
L517.005 234.304
L517.005 234.304
L518.4 230.797
L518.4 230.797" style="fill:none;stroke:#0000ff;stroke-linecap:square;"/>
   </g>
   <g id="line2d_2">
    <path clip-path="url(#p7ff5b81e1d)" d="
M72 230.797
L81.765 230.714
L84.555 230.444
L85.95 230.17
L87.345 229.76
L88.74 229.178
L90.135 228.388
L91.53 227.354
L92.925 226.042
L94.32 224.42
L95.715 222.46
L97.11 220.14
L98.505 217.444
L99.9 214.359
L101.295 210.88
L102.69 207.009
L104.085 202.752
L106.875 193.139
L109.665 182.207
L112.455 170.192
L116.64 150.782
L125.01 111.021
L127.8 98.6591
L130.59 87.208
L133.38 76.8887
L136.17 67.8776
L137.565 63.9052
L138.96 60.3054
L140.355 57.0874
L141.75 54.2581
L143.145 51.8215
L144.54 49.7796
L145.935 48.1319
L147.33 46.8759
L148.725 46.0071
L150.12 45.5192
L151.515 45.4043
L152.91 45.6531
L154.305 46.2549
L155.7 47.1979
L157.095 48.4692
L158.49 50.0552
L159.885 51.9415
L161.28 54.1131
L162.675 56.5545
L165.465 62.1835
L168.255 68.6999
L171.045 75.9744
L173.835 83.8796
L178.02 96.6507
L183.6 114.782
L197.55 160.863
L201.735 173.864
L205.92 186.162
L210.105 197.638
L212.895 204.787
L215.685 211.513
L218.475 217.804
L221.265 223.653
L224.055 229.057
L226.845 234.017
L229.635 238.537
L232.425 242.626
L235.215 246.294
L238.005 249.555
L240.795 252.424
L243.585 254.917
L246.375 257.052
L249.165 258.849
L251.955 260.328
L254.745 261.509
L257.535 262.412
L260.325 263.06
L263.115 263.472
L265.905 263.669
L268.695 263.67
L271.485 263.496
L275.67 262.946
L279.855 262.103
L284.04 261.022
L289.62 259.299
L296.595 256.841
L309.15 252.063
L320.31 247.913
L328.68 245.058
L335.655 242.904
L342.63 240.977
L349.605 239.279
L356.58 237.804
L363.555 236.54
L371.925 235.276
L380.295 234.254
L388.665 233.44
L398.43 232.708
L409.59 232.098
L423.54 231.586
L440.28 231.218
L462.6 230.972
L497.475 230.838
L518.4 230.813
L518.4 230.813" style="fill:none;stroke:#008000;stroke-linecap:square;"/>
   </g>
   <g id="matplotlib.axis_1">
    <g id="xtick_1">
     <g id="line2d_3">
      <defs>
       <path d="
M0 0
L0 -4" id="m93b0483c22" style="stroke:#000000;stroke-width:0.5;"/>
      </defs>
      <g>
       <use style="stroke:#000000;stroke-width:0.5;" x="72.0" xlink:href="#m93b0483c22" y="388.8"/>
      </g>
     </g>
     <g id="line2d_4">
      <defs>
       <path d="
M0 0
L0 4" id="m741efc42ff" style="stroke:#000000;stroke-width:0.5;"/>
      </defs>
      <g>
       <use style="stroke:#000000;stroke-width:0.5;" x="72.0" xlink:href="#m741efc42ff" y="43.2"/>
      </g>
     </g>
     <g id="text_1">
      <!-- 0 -->
      <defs>
       <path d="
M31.7812 66.4062
Q24.1719 66.4062 20.3281 58.9062
Q16.5 51.4219 16.5 36.375
Q16.5 21.3906 20.3281 13.8906
Q24.1719 6.39062 31.7812 6.39062
Q39.4531 6.39062 43.2812 13.8906
Q47.125 21.3906 47.125 36.375
Q47.125 51.4219 43.2812 58.9062
Q39.4531 66.4062 31.7812 66.4062
M31.7812 74.2188
Q44.0469 74.2188 50.5156 64.5156
Q56.9844 54.8281 56.9844 36.375
Q56.9844 17.9688 50.5156 8.26562
Q44.0469 -1.42188 31.7812 -1.42188
Q19.5312 -1.42188 13.0625 8.26562
Q6.59375 17.9688 6.59375 36.375
Q6.59375 54.8281 13.0625 64.5156
Q19.5312 74.2188 31.7812 74.2188" id="DejaVuSans-30"/>
      </defs>
      <g transform="translate(68.9765625 401.918125)scale(0.12 -0.12)">
       <use xlink:href="#DejaVuSans-30"/>
      </g>
     </g>
    </g>
    <g id="xtick_2">
     <g id="line2d_5">
      <g>
       <use style="stroke:#000000;stroke-width:0.5;" x="141.75" xlink:href="#m93b0483c22" y="388.8"/>
      </g>
     </g>
     <g id="line2d_6">
      <g>
       <use style="stroke:#000000;stroke-width:0.5;" x="141.75" xlink:href="#m741efc42ff" y="43.2"/>
      </g>
     </g>
     <g id="text_2">
      <!-- 5 -->
      <defs>
       <path d="
M10.7969 72.9062
L49.5156 72.9062
L49.5156 64.5938
L19.8281 64.5938
L19.8281 46.7344
Q21.9688 47.4688 24.1094 47.8281
Q26.2656 48.1875 28.4219 48.1875
Q40.625 48.1875 47.75 41.5
Q54.8906 34.8125 54.8906 23.3906
Q54.8906 11.625 47.5625 5.09375
Q40.2344 -1.42188 26.9062 -1.42188
Q22.3125 -1.42188 17.5469 -0.640625
Q12.7969 0.140625 7.71875 1.70312
L7.71875 11.625
Q12.1094 9.23438 16.7969 8.0625
Q21.4844 6.89062 26.7031 6.89062
Q35.1562 6.89062 40.0781 11.3281
Q45.0156 15.7656 45.0156 23.3906
Q45.0156 31 40.0781 35.4375
Q35.1562 39.8906 26.7031 39.8906
Q22.75 39.8906 18.8125 39.0156
Q14.8906 38.1406 10.7969 36.2812
z
" id="DejaVuSans-35"/>
      </defs>
      <g transform="translate(138.9196875 401.918125)scale(0.12 -0.12)">
       <use xlink:href="#DejaVuSans-35"/>
      </g>
     </g>
    </g>
    <g id="xtick_3">
     <g id="line2d_7">
      <g>
       <use style="stroke:#000000;stroke-width:0.5;" x="211.5" xlink:href="#m93b0483c22" y="388.8"/>
      </g>
     </g>
     <g id="line2d_8">
      <g>
       <use style="stroke:#000000;stroke-width:0.5;" x="211.5" xlink:href="#m741efc42ff" y="43.2"/>
      </g>
     </g>
     <g id="text_3">
      <!-- 10 -->
      <defs>
       <path d="
M12.4062 8.29688
L28.5156 8.29688
L28.5156 63.9219
L10.9844 60.4062
L10.9844 69.3906
L28.4219 72.9062
L38.2812 72.9062
L38.2812 8.29688
L54.3906 8.29688
L54.3906 0
L12.4062 0
z
" id="DejaVuSans-31"/>
      </defs>
      <g transform="translate(204.9225 401.918125)scale(0.12 -0.12)">
       <use xlink:href="#DejaVuSans-31"/>
       <use x="63.623046875" xlink:href="#DejaVuSans-30"/>
      </g>
     </g>
    </g>
    <g id="xtick_4">
     <g id="line2d_9">
      <g>
       <use style="stroke:#000000;stroke-width:0.5;" x="281.25" xlink:href="#m93b0483c22" y="388.8"/>
      </g>
     </g>
     <g id="line2d_10">
      <g>
       <use style="stroke:#000000;stroke-width:0.5;" x="281.25" xlink:href="#m741efc42ff" y="43.2"/>
      </g>
     </g>
     <g id="text_4">
      <!-- 15 -->
      <g transform="translate(274.798125 401.918125)scale(0.12 -0.12)">
       <use xlink:href="#DejaVuSans-31"/>
       <use x="63.623046875" xlink:href="#DejaVuSans-35"/>
      </g>
     </g>
    </g>
    <g id="xtick_5">
     <g id="line2d_11">
      <g>
       <use style="stroke:#000000;stroke-width:0.5;" x="351.0" xlink:href="#m93b0483c22" y="388.8"/>
      </g>
     </g>
     <g id="line2d_12">
      <g>
       <use style="stroke:#000000;stroke-width:0.5;" x="351.0" xlink:href="#m741efc42ff" y="43.2"/>
      </g>
     </g>
     <g id="text_5">
      <!-- 20 -->
      <defs>
       <path d="
M19.1875 8.29688
L53.6094 8.29688
L53.6094 0
L7.32812 0
L7.32812 8.29688
Q12.9375 14.1094 22.625 23.8906
Q32.3281 33.6875 34.8125 36.5312
Q39.5469 41.8438 41.4219 45.5312
Q43.3125 49.2188 43.3125 52.7812
Q43.3125 58.5938 39.2344 62.25
Q35.1562 65.9219 28.6094 65.9219
Q23.9688 65.9219 18.8125 64.3125
Q13.6719 62.7031 7.8125 59.4219
L7.8125 69.3906
Q13.7656 71.7812 18.9375 73
Q24.125 74.2188 28.4219 74.2188
Q39.75 74.2188 46.4844 68.5469
Q53.2188 62.8906 53.2188 53.4219
Q53.2188 48.9219 51.5312 44.8906
Q49.8594 40.875 45.4062 35.4062
Q44.1875 33.9844 37.6406 27.2188
Q31.1094 20.4531 19.1875 8.29688" id="DejaVuSans-32"/>
      </defs>
      <g transform="translate(344.203125 401.918125)scale(0.12 -0.12)">
       <use xlink:href="#DejaVuSans-32"/>
       <use x="63.623046875" xlink:href="#DejaVuSans-30"/>
      </g>
     </g>
    </g>
    <g id="xtick_6">
     <g id="line2d_13">
      <g>
       <use style="stroke:#000000;stroke-width:0.5;" x="420.75" xlink:href="#m93b0483c22" y="388.8"/>
      </g>
     </g>
     <g id="line2d_14">
      <g>
       <use style="stroke:#000000;stroke-width:0.5;" x="420.75" xlink:href="#m741efc42ff" y="43.2"/>
      </g>
     </g>
     <g id="text_6">
      <!-- 25 -->
      <g transform="translate(414.07875 401.918125)scale(0.12 -0.12)">
       <use xlink:href="#DejaVuSans-32"/>
       <use x="63.623046875" xlink:href="#DejaVuSans-35"/>
      </g>
     </g>
    </g>
    <g id="xtick_7">
     <g id="line2d_15">
      <g>
       <use style="stroke:#000000;stroke-width:0.5;" x="490.5" xlink:href="#m93b0483c22" y="388.8"/>
      </g>
     </g>
     <g id="line2d_16">
      <g>
       <use style="stroke:#000000;stroke-width:0.5;" x="490.5" xlink:href="#m741efc42ff" y="43.2"/>
      </g>
     </g>
     <g id="text_7">
      <!-- 30 -->
      <defs>
       <path d="
M40.5781 39.3125
Q47.6562 37.7969 51.625 33
Q55.6094 28.2188 55.6094 21.1875
Q55.6094 10.4062 48.1875 4.48438
Q40.7656 -1.42188 27.0938 -1.42188
Q22.5156 -1.42188 17.6562 -0.515625
Q12.7969 0.390625 7.625 2.20312
L7.625 11.7188
Q11.7188 9.32812 16.5938 8.10938
Q21.4844 6.89062 26.8125 6.89062
Q36.0781 6.89062 40.9375 10.5469
Q45.7969 14.2031 45.7969 21.1875
Q45.7969 27.6406 41.2812 31.2656
Q36.7656 34.9062 28.7188 34.9062
L20.2188 34.9062
L20.2188 43.0156
L29.1094 43.0156
Q36.375 43.0156 40.2344 45.9219
Q44.0938 48.8281 44.0938 54.2969
Q44.0938 59.9062 40.1094 62.9062
Q36.1406 65.9219 28.7188 65.9219
Q24.6562 65.9219 20.0156 65.0312
Q15.375 64.1562 9.8125 62.3125
L9.8125 71.0938
Q15.4375 72.6562 20.3438 73.4375
Q25.25 74.2188 29.5938 74.2188
Q40.8281 74.2188 47.3594 69.1094
Q53.9062 64.0156 53.9062 55.3281
Q53.9062 49.2656 50.4375 45.0938
Q46.9688 40.9219 40.5781 39.3125" id="DejaVuSans-33"/>
      </defs>
      <g transform="translate(483.7209375 401.918125)scale(0.12 -0.12)">
       <use xlink:href="#DejaVuSans-33"/>
       <use x="63.623046875" xlink:href="#DejaVuSans-30"/>
      </g>
     </g>
    </g>
   </g>
   <g id="matplotlib.axis_2">
    <g id="ytick_1">
     <g id="line2d_17">
      <defs>
       <path d="
M0 0
L4 0" id="m728421d6d4" style="stroke:#000000;stroke-width:0.5;"/>
      </defs>
      <g>
       <use style="stroke:#000000;stroke-width:0.5;" x="72.0" xlink:href="#m728421d6d4" y="323.492845823"/>
      </g>
     </g>
     <g id="line2d_18">
      <defs>
       <path d="
M0 0
L-4 0" id="mcb0005524f" style="stroke:#000000;stroke-width:0.5;"/>
      </defs>
      <g>
       <use style="stroke:#000000;stroke-width:0.5;" x="518.4" xlink:href="#mcb0005524f" y="323.492845823"/>
      </g>
     </g>
     <g id="text_8">
      <!-- 0.5 -->
      <defs>
       <path d="
M10.6875 12.4062
L21 12.4062
L21 0
L10.6875 0
z
" id="DejaVuSans-2e"/>
       <path d="
M10.5938 35.5
L73.1875 35.5
L73.1875 27.2031
L10.5938 27.2031
z
" id="DejaVuSans-2212"/>
      </defs>
      <g transform="translate(41.18 326.804095823)scale(0.12 -0.12)">
       <use xlink:href="#DejaVuSans-2212"/>
       <use x="83.7890625" xlink:href="#DejaVuSans-30"/>
       <use x="147.412109375" xlink:href="#DejaVuSans-2e"/>
       <use x="179.19921875" xlink:href="#DejaVuSans-35"/>
      </g>
     </g>
    </g>
    <g id="ytick_2">
     <g id="line2d_19">
      <g>
       <use style="stroke:#000000;stroke-width:0.5;" x="72.0" xlink:href="#m728421d6d4" y="230.796672029"/>
      </g>
     </g>
     <g id="line2d_20">
      <g>
       <use style="stroke:#000000;stroke-width:0.5;" x="518.4" xlink:href="#mcb0005524f" y="230.796672029"/>
      </g>
     </g>
     <g id="text_9">
      <!-- 0.0 -->
      <g transform="translate(50.504375 234.107922029)scale(0.12 -0.12)">
       <use xlink:href="#DejaVuSans-30"/>
       <use x="63.623046875" xlink:href="#DejaVuSans-2e"/>
       <use x="95.41015625" xlink:href="#DejaVuSans-30"/>
      </g>
     </g>
    </g>
    <g id="ytick_3">
     <g id="line2d_21">
      <g>
       <use style="stroke:#000000;stroke-width:0.5;" x="72.0" xlink:href="#m728421d6d4" y="138.100498236"/>
      </g>
     </g>
     <g id="line2d_22">
      <g>
       <use style="stroke:#000000;stroke-width:0.5;" x="518.4" xlink:href="#mcb0005524f" y="138.100498236"/>
      </g>
     </g>
     <g id="text_10">
      <!-- 0.5 -->
      <g transform="translate(50.755625 141.411748236)scale(0.12 -0.12)">
       <use xlink:href="#DejaVuSans-30"/>
       <use x="63.623046875" xlink:href="#DejaVuSans-2e"/>
       <use x="95.41015625" xlink:href="#DejaVuSans-35"/>
      </g>
     </g>
    </g>
    <g id="ytick_4">
     <g id="line2d_23">
      <g>
       <use style="stroke:#000000;stroke-width:0.5;" x="72.0" xlink:href="#m728421d6d4" y="45.4043244427"/>
      </g>
     </g>
     <g id="line2d_24">
      <g>
       <use style="stroke:#000000;stroke-width:0.5;" x="518.4" xlink:href="#mcb0005524f" y="45.4043244427"/>
      </g>
     </g>
     <g id="text_11">
      <!-- 1.0 -->
      <g transform="translate(51.03125 48.7155744427)scale(0.12 -0.12)">
       <use xlink:href="#DejaVuSans-31"/>
       <use x="63.623046875" xlink:href="#DejaVuSans-2e"/>
       <use x="95.41015625" xlink:href="#DejaVuSans-30"/>
      </g>
     </g>
    </g>
   </g>
   <g id="patch_3">
    <path d="
M72 43.2
L518.4 43.2" style="fill:none;stroke:#000000;"/>
   </g>
   <g id="patch_4">
    <path d="
M518.4 388.8
L518.4 43.2" style="fill:none;stroke:#000000;"/>
   </g>
   <g id="patch_5">
    <path d="
M72 388.8
L518.4 388.8" style="fill:none;stroke:#000000;"/>
   </g>
   <g id="patch_6">
    <path d="
M72 388.8
L72 43.2" style="fill:none;stroke:#000000;"/>
   </g>
   <g id="legend_1">
    <g id="patch_7">
     <path d="
M354.157 96.9045
L511.2 96.9045
L511.2 50.4
L354.157 50.4
L354.157 96.9045
z
" style="fill:#ffffff;stroke:#000000;"/>
    </g>
    <g id="line2d_25">
     <path d="
M364.237 62.0617
L384.397 62.0617" style="fill:none;stroke:#0000ff;stroke-linecap:square;"/>
    </g>
    <g id="line2d_26"/>
    <g id="text_12">
     <!-- estimated HRF -->
     <defs>
      <path d="
M52 44.1875
Q55.375 50.25 60.0625 53.125
Q64.75 56 71.0938 56
Q79.6406 56 84.2812 50.0156
Q88.9219 44.0469 88.9219 33.0156
L88.9219 0
L79.8906 0
L79.8906 32.7188
Q79.8906 40.5781 77.0938 44.375
Q74.3125 48.1875 68.6094 48.1875
Q61.625 48.1875 57.5625 43.5469
Q53.5156 38.9219 53.5156 30.9062
L53.5156 0
L44.4844 0
L44.4844 32.7188
Q44.4844 40.625 41.7031 44.4062
Q38.9219 48.1875 33.1094 48.1875
Q26.2188 48.1875 22.1562 43.5312
Q18.1094 38.875 18.1094 30.9062
L18.1094 0
L9.07812 0
L9.07812 54.6875
L18.1094 54.6875
L18.1094 46.1875
Q21.1875 51.2188 25.4844 53.6094
Q29.7812 56 35.6875 56
Q41.6562 56 45.8281 52.9688
Q50 49.9531 52 44.1875" id="DejaVuSans-6d"/>
      <path d="
M44.3906 34.1875
Q47.5625 33.1094 50.5625 29.5938
Q53.5625 26.0781 56.5938 19.9219
L66.6094 0
L56 0
L46.6875 18.7031
Q43.0625 26.0312 39.6719 28.4219
Q36.2812 30.8125 30.4219 30.8125
L19.6719 30.8125
L19.6719 0
L9.8125 0
L9.8125 72.9062
L32.0781 72.9062
Q44.5781 72.9062 50.7344 67.6719
Q56.8906 62.4531 56.8906 51.9062
Q56.8906 45.0156 53.6875 40.4688
Q50.4844 35.9375 44.3906 34.1875
M19.6719 64.7969
L19.6719 38.9219
L32.0781 38.9219
Q39.2031 38.9219 42.8438 42.2188
Q46.4844 45.5156 46.4844 51.9062
Q46.4844 58.2969 42.8438 61.5469
Q39.2031 64.7969 32.0781 64.7969
z
" id="DejaVuSans-52"/>
      <path d="
M9.8125 72.9062
L51.7031 72.9062
L51.7031 64.5938
L19.6719 64.5938
L19.6719 43.1094
L48.5781 43.1094
L48.5781 34.8125
L19.6719 34.8125
L19.6719 0
L9.8125 0
z
" id="DejaVuSans-46"/>
      <path id="DejaVuSans-20"/>
      <path d="
M9.42188 54.6875
L18.4062 54.6875
L18.4062 0
L9.42188 0
z

M9.42188 75.9844
L18.4062 75.9844
L18.4062 64.5938
L9.42188 64.5938
z
" id="DejaVuSans-69"/>
      <path d="
M18.3125 70.2188
L18.3125 54.6875
L36.8125 54.6875
L36.8125 47.7031
L18.3125 47.7031
L18.3125 18.0156
Q18.3125 11.3281 20.1406 9.42188
Q21.9688 7.51562 27.5938 7.51562
L36.8125 7.51562
L36.8125 0
L27.5938 0
Q17.1875 0 13.2344 3.875
Q9.28125 7.76562 9.28125 18.0156
L9.28125 47.7031
L2.6875 47.7031
L2.6875 54.6875
L9.28125 54.6875
L9.28125 70.2188
z
" id="DejaVuSans-74"/>
      <path d="
M45.4062 46.3906
L45.4062 75.9844
L54.3906 75.9844
L54.3906 0
L45.4062 0
L45.4062 8.20312
Q42.5781 3.32812 38.25 0.953125
Q33.9375 -1.42188 27.875 -1.42188
Q17.9688 -1.42188 11.7344 6.48438
Q5.51562 14.4062 5.51562 27.2969
Q5.51562 40.1875 11.7344 48.0938
Q17.9688 56 27.875 56
Q33.9375 56 38.25 53.625
Q42.5781 51.2656 45.4062 46.3906
M14.7969 27.2969
Q14.7969 17.3906 18.875 11.75
Q22.9531 6.10938 30.0781 6.10938
Q37.2031 6.10938 41.2969 11.75
Q45.4062 17.3906 45.4062 27.2969
Q45.4062 37.2031 41.2969 42.8438
Q37.2031 48.4844 30.0781 48.4844
Q22.9531 48.4844 18.875 42.8438
Q14.7969 37.2031 14.7969 27.2969" id="DejaVuSans-64"/>
      <path d="
M56.2031 29.5938
L56.2031 25.2031
L14.8906 25.2031
Q15.4844 15.9219 20.4844 11.0625
Q25.4844 6.20312 34.4219 6.20312
Q39.5938 6.20312 44.4531 7.46875
Q49.3125 8.73438 54.1094 11.2812
L54.1094 2.78125
Q49.2656 0.734375 44.1875 -0.34375
Q39.1094 -1.42188 33.8906 -1.42188
Q20.7969 -1.42188 13.1562 6.1875
Q5.51562 13.8125 5.51562 26.8125
Q5.51562 40.2344 12.7656 48.1094
Q20.0156 56 32.3281 56
Q43.3594 56 49.7812 48.8906
Q56.2031 41.7969 56.2031 29.5938
M47.2188 32.2344
Q47.125 39.5938 43.0938 43.9844
Q39.0625 48.3906 32.4219 48.3906
Q24.9062 48.3906 20.3906 44.1406
Q15.875 39.8906 15.1875 32.1719
z
" id="DejaVuSans-65"/>
      <path d="
M9.8125 72.9062
L19.6719 72.9062
L19.6719 43.0156
L55.5156 43.0156
L55.5156 72.9062
L65.375 72.9062
L65.375 0
L55.5156 0
L55.5156 34.7188
L19.6719 34.7188
L19.6719 0
L9.8125 0
z
" id="DejaVuSans-48"/>
      <path d="
M44.2812 53.0781
L44.2812 44.5781
Q40.4844 46.5312 36.375 47.5
Q32.2812 48.4844 27.875 48.4844
Q21.1875 48.4844 17.8438 46.4375
Q14.5 44.3906 14.5 40.2812
Q14.5 37.1562 16.8906 35.375
Q19.2812 33.5938 26.5156 31.9844
L29.5938 31.2969
Q39.1562 29.25 43.1875 25.5156
Q47.2188 21.7812 47.2188 15.0938
Q47.2188 7.46875 41.1875 3.01562
Q35.1562 -1.42188 24.6094 -1.42188
Q20.2188 -1.42188 15.4531 -0.5625
Q10.6875 0.296875 5.42188 2
L5.42188 11.2812
Q10.4062 8.6875 15.2344 7.39062
Q20.0625 6.10938 24.8125 6.10938
Q31.1562 6.10938 34.5625 8.28125
Q37.9844 10.4531 37.9844 14.4062
Q37.9844 18.0625 35.5156 20.0156
Q33.0625 21.9688 24.7031 23.7812
L21.5781 24.5156
Q13.2344 26.2656 9.51562 29.9062
Q5.8125 33.5469 5.8125 39.8906
Q5.8125 47.6094 11.2812 51.7969
Q16.75 56 26.8125 56
Q31.7812 56 36.1719 55.2656
Q40.5781 54.5469 44.2812 53.0781" id="DejaVuSans-73"/>
      <path d="
M34.2812 27.4844
Q23.3906 27.4844 19.1875 25
Q14.9844 22.5156 14.9844 16.5
Q14.9844 11.7188 18.1406 8.90625
Q21.2969 6.10938 26.7031 6.10938
Q34.1875 6.10938 38.7031 11.4062
Q43.2188 16.7031 43.2188 25.4844
L43.2188 27.4844
z

M52.2031 31.2031
L52.2031 0
L43.2188 0
L43.2188 8.29688
Q40.1406 3.32812 35.5469 0.953125
Q30.9531 -1.42188 24.3125 -1.42188
Q15.9219 -1.42188 10.9531 3.29688
Q6 8.01562 6 15.9219
Q6 25.1406 12.1719 29.8281
Q18.3594 34.5156 30.6094 34.5156
L43.2188 34.5156
L43.2188 35.4062
Q43.2188 41.6094 39.1406 45
Q35.0625 48.3906 27.6875 48.3906
Q23 48.3906 18.5469 47.2656
Q14.1094 46.1406 10.0156 43.8906
L10.0156 52.2031
Q14.9375 54.1094 19.5781 55.0469
Q24.2188 56 28.6094 56
Q40.4844 56 46.3438 49.8438
Q52.2031 43.7031 52.2031 31.2031" id="DejaVuSans-61"/>
     </defs>
     <g transform="translate(400.236875 67.10175)scale(0.144 -0.144)">
      <use xlink:href="#DejaVuSans-65"/>
      <use x="61.5234375" xlink:href="#DejaVuSans-73"/>
      <use x="113.623046875" xlink:href="#DejaVuSans-74"/>
      <use x="152.83203125" xlink:href="#DejaVuSans-69"/>
      <use x="180.615234375" xlink:href="#DejaVuSans-6d"/>
      <use x="278.02734375" xlink:href="#DejaVuSans-61"/>
      <use x="339.306640625" xlink:href="#DejaVuSans-74"/>
      <use x="378.515625" xlink:href="#DejaVuSans-65"/>
      <use x="440.0390625" xlink:href="#DejaVuSans-64"/>
      <use x="503.515625" xlink:href="#DejaVuSans-20"/>
      <use x="535.302734375" xlink:href="#DejaVuSans-48"/>
      <use x="610.498046875" xlink:href="#DejaVuSans-52"/>
      <use x="679.98046875" xlink:href="#DejaVuSans-46"/>
     </g>
    </g>
    <g id="line2d_27">
     <path d="
M364.237 83.1983
L384.397 83.1983" style="fill:none;stroke:#008000;stroke-linecap:square;"/>
    </g>
    <g id="line2d_28"/>
    <g id="text_13">
     <!-- glover HRF -->
     <defs>
      <path d="
M30.6094 48.3906
Q23.3906 48.3906 19.1875 42.75
Q14.9844 37.1094 14.9844 27.2969
Q14.9844 17.4844 19.1562 11.8438
Q23.3438 6.20312 30.6094 6.20312
Q37.7969 6.20312 41.9844 11.8594
Q46.1875 17.5312 46.1875 27.2969
Q46.1875 37.0156 41.9844 42.7031
Q37.7969 48.3906 30.6094 48.3906
M30.6094 56
Q42.3281 56 49.0156 48.375
Q55.7188 40.7656 55.7188 27.2969
Q55.7188 13.875 49.0156 6.21875
Q42.3281 -1.42188 30.6094 -1.42188
Q18.8438 -1.42188 12.1719 6.21875
Q5.51562 13.875 5.51562 27.2969
Q5.51562 40.7656 12.1719 48.375
Q18.8438 56 30.6094 56" id="DejaVuSans-6f"/>
      <path d="
M45.4062 27.9844
Q45.4062 37.75 41.375 43.1094
Q37.3594 48.4844 30.0781 48.4844
Q22.8594 48.4844 18.8281 43.1094
Q14.7969 37.75 14.7969 27.9844
Q14.7969 18.2656 18.8281 12.8906
Q22.8594 7.51562 30.0781 7.51562
Q37.3594 7.51562 41.375 12.8906
Q45.4062 18.2656 45.4062 27.9844
M54.3906 6.78125
Q54.3906 -7.17188 48.1875 -13.9844
Q42 -20.7969 29.2031 -20.7969
Q24.4688 -20.7969 20.2656 -20.0938
Q16.0625 -19.3906 12.1094 -17.9219
L12.1094 -9.1875
Q16.0625 -11.3281 19.9219 -12.3438
Q23.7812 -13.375 27.7812 -13.375
Q36.625 -13.375 41.0156 -8.76562
Q45.4062 -4.15625 45.4062 5.17188
L45.4062 9.625
Q42.625 4.78125 38.2812 2.39062
Q33.9375 0 27.875 0
Q17.8281 0 11.6719 7.65625
Q5.51562 15.3281 5.51562 27.9844
Q5.51562 40.6719 11.6719 48.3281
Q17.8281 56 27.875 56
Q33.9375 56 38.2812 53.6094
Q42.625 51.2188 45.4062 46.3906
L45.4062 54.6875
L54.3906 54.6875
z
" id="DejaVuSans-67"/>
      <path d="
M2.98438 54.6875
L12.5 54.6875
L29.5938 8.79688
L46.6875 54.6875
L56.2031 54.6875
L35.6875 0
L23.4844 0
z
" id="DejaVuSans-76"/>
      <path d="
M9.42188 75.9844
L18.4062 75.9844
L18.4062 0
L9.42188 0
z
" id="DejaVuSans-6c"/>
      <path d="
M41.1094 46.2969
Q39.5938 47.1719 37.8125 47.5781
Q36.0312 48 33.8906 48
Q26.2656 48 22.1875 43.0469
Q18.1094 38.0938 18.1094 28.8125
L18.1094 0
L9.07812 0
L9.07812 54.6875
L18.1094 54.6875
L18.1094 46.1875
Q20.9531 51.1719 25.4844 53.5781
Q30.0312 56 36.5312 56
Q37.4531 56 38.5781 55.875
Q39.7031 55.7656 41.0625 55.5156
z
" id="DejaVuSans-72"/>
     </defs>
     <g transform="translate(400.236875 88.23825)scale(0.144 -0.144)">
      <use xlink:href="#DejaVuSans-67"/>
      <use x="63.4765625" xlink:href="#DejaVuSans-6c"/>
      <use x="91.259765625" xlink:href="#DejaVuSans-6f"/>
      <use x="152.44140625" xlink:href="#DejaVuSans-76"/>
      <use x="211.62109375" xlink:href="#DejaVuSans-65"/>
      <use x="273.14453125" xlink:href="#DejaVuSans-72"/>
      <use x="314.2578125" xlink:href="#DejaVuSans-20"/>
      <use x="346.044921875" xlink:href="#DejaVuSans-48"/>
      <use x="421.240234375" xlink:href="#DejaVuSans-52"/>
      <use x="490.72265625" xlink:href="#DejaVuSans-46"/>
     </g>
    </g>
   </g>
  </g>
 </g>
 <defs>
  <clipPath id="p7ff5b81e1d">
   <rect height="345.6" width="446.4" x="72.0" y="43.2"/>
  </clipPath>
 </defs>
</svg>
