<?xml version="1.0" encoding="utf-8" standalone="no"?>
<!DOCTYPE svg PUBLIC "-//W3C//DTD SVG 1.1//EN"
  "http://www.w3.org/Graphics/SVG/1.1/DTD/svg11.dtd">
<!-- Created with matplotlib (http://matplotlib.org/) -->
<svg height="432pt" version="1.1" viewBox="0 0 576 432" width="576pt" xmlns="http://www.w3.org/2000/svg" xmlns:xlink="http://www.w3.org/1999/xlink">
 <defs>
  <style type="text/css">
*{stroke-linecap:butt;stroke-linejoin:round;}
  </style>
 </defs>
 <g id="figure_1">
  <g id="patch_1">
   <path d="
M0 432
L576 432
L576 0
L0 0
z
" style="fill:#ffffff;"/>
  </g>
  <g id="axes_1">
   <g id="patch_2">
    <path d="
M72 388.8
L518.4 388.8
L518.4 43.2
L72 43.2
z
" style="fill:#ffffff;"/>
   </g>
   <g id="PolyCollection_1">
    <defs>
     <path d="
M72 -176.466
L72 -176.466
L73.395 -170.255
L73.395 -170.255
L73.395 -170.255
L73.395 -170.255
L76.185 -158.449
L76.185 -158.449
L76.185 -158.449
L76.185 -158.449
L76.185 -158.449
L76.185 -158.449
L76.185 -158.449
L76.185 -158.449
L76.185 -158.449
L76.185 -158.449
L76.185 -158.449
L77.58 -152.856
L77.58 -152.856
L77.58 -152.856
L77.58 -152.856
L78.975 -147.475
L81.765 -137.409
L81.765 -137.409
L81.765 -137.409
L81.765 -137.409
L81.765 -137.409
L81.765 -137.409
L81.765 -137.409
L81.765 -137.409
L81.765 -137.409
L83.16 -132.773
L83.16 -132.773
L83.16 -132.773
L83.16 -132.773
L84.555 -128.448
L84.555 -128.448
L84.555 -128.448
L84.555 -128.448
L85.95 -124.48
L85.95 -124.48
L85.95 -124.48
L85.95 -124.48
L85.95 -124.48
L85.95 -124.48
L85.95 -124.48
L85.95 -124.48
L85.95 -124.48
L87.345 -120.917
L87.345 -120.917
L87.345 -120.917
L87.345 -120.917
L88.74 -117.812
L88.74 -117.812
L88.74 -117.812
L88.74 -117.812
L88.74 -117.812
L88.74 -117.812
L90.135 -115.221
L91.53 -113.197
L91.53 -113.197
L91.53 -113.197
L92.925 -111.791
L92.925 -111.791
L92.925 -111.791
L92.925 -111.791
L92.925 -111.791
L92.925 -111.791
L92.925 -111.791
L92.925 -111.791
L92.925 -111.791
L92.925 -111.791
L92.925 -111.791
L94.32 -111.048
L94.32 -111.048
L94.32 -111.048
L95.715 -111.01
L95.715 -111.01
L95.715 -111.01
L95.715 -111.01
L97.11 -111.708
L97.11 -111.708
L97.11 -111.708
L98.505 -113.165
L98.505 -113.165
L98.505 -113.165
L98.505 -113.165
L98.505 -113.165
L98.505 -113.165
L98.505 -113.165
L98.505 -113.165
L102.69 -122.194
L102.69 -122.194
L102.69 -122.194
L102.69 -122.194
L102.69 -122.194
L102.69 -122.194
L104.085 -126.74
L104.085 -126.74
L105.48 -132.022
L105.48 -132.022
L105.48 -132.022
L105.48 -132.022
L106.875 -138.01
L106.875 -138.01
L106.875 -138.01
L108.27 -144.662
L108.27 -144.662
L108.27 -144.662
L108.27 -144.662
L108.27 -144.662
L108.27 -144.662
L108.27 -144.662
L108.27 -144.662
L108.27 -144.662
L108.27 -144.662
L108.27 -144.662
L108.27 -144.662
L108.27 -144.662
L108.27 -144.662
L108.27 -144.662
L108.27 -144.662
L109.665 -151.933
L109.665 -151.933
L109.665 -151.933
L111.06 -159.769
L112.455 -168.111
L112.455 -168.111
L113.85 -176.899
L113.85 -176.899
L113.85 -176.899
L113.85 -176.899
L113.85 -176.899
L115.245 -186.066
L115.245 -186.066
L115.245 -186.066
L115.245 -186.066
L118.035 -205.265
L118.035 -205.265
L118.035 -205.265
L118.035 -205.265
L118.035 -205.265
L118.035 -205.265
L118.035 -205.265
L118.035 -205.265
L118.035 -205.265
L118.035 -205.265
L118.035 -205.265
L119.43 -215.159
L119.43 -215.159
L119.43 -215.159
L119.43 -215.159
L120.825 -225.157
L123.615 -245.197
L123.615 -245.197
L123.615 -245.197
L123.615 -245.197
L123.615 -245.197
L123.615 -245.197
L123.615 -245.197
L123.615 -245.197
L123.615 -245.197
L125.01 -255.109
L125.01 -255.109
L125.01 -255.109
L125.01 -255.109
L126.405 -264.868
L126.405 -264.868
L126.405 -264.868
L126.405 -264.868
L127.8 -274.416
L127.8 -274.416
L127.8 -274.416
L127.8 -274.416
L127.8 -274.416
L127.8 -274.416
L127.8 -274.416
L127.8 -274.416
L127.8 -274.416
L129.195 -283.699
L129.195 -283.699
L129.195 -283.699
L129.195 -283.699
L130.59 -292.669
L130.59 -292.669
L130.59 -292.669
L130.59 -292.669
L130.59 -292.669
L130.59 -292.669
L131.985 -301.28
L133.38 -309.491
L133.38 -309.491
L133.38 -309.491
L134.775 -317.265
L134.775 -317.265
L134.775 -317.265
L134.775 -317.265
L134.775 -317.265
L134.775 -317.265
L134.775 -317.265
L134.775 -317.265
L134.775 -317.265
L134.775 -317.265
L134.775 -317.265
L136.17 -324.572
L136.17 -324.572
L136.17 -324.572
L137.565 -331.383
L137.565 -331.383
L137.565 -331.383
L137.565 -331.383
L138.96 -337.676
L138.96 -337.676
L138.96 -337.676
L140.355 -343.43
L140.355 -343.43
L140.355 -343.43
L140.355 -343.43
L140.355 -343.43
L140.355 -343.43
L140.355 -343.43
L140.355 -343.43
L144.54 -357.342
L144.54 -357.342
L144.54 -357.342
L144.54 -357.342
L144.54 -357.342
L144.54 -357.342
L145.935 -360.837
L145.935 -360.837
L147.33 -363.759
L147.33 -363.759
L147.33 -363.759
L147.33 -363.759
L148.725 -366.111
L148.725 -366.111
L148.725 -366.111
L150.12 -367.897
L150.12 -367.897
L150.12 -367.897
L150.12 -367.897
L150.12 -367.897
L150.12 -367.897
L150.12 -367.897
L150.12 -367.897
L150.12 -367.897
L150.12 -367.897
L150.12 -367.897
L150.12 -367.897
L150.12 -367.897
L150.12 -367.897
L150.12 -367.897
L150.12 -367.897
L151.515 -369.127
L151.515 -369.127
L151.515 -369.127
L152.91 -369.811
L154.305 -369.961
L154.305 -369.961
L155.7 -369.594
L155.7 -369.594
L155.7 -369.594
L155.7 -369.594
L155.7 -369.594
L157.095 -368.724
L157.095 -368.724
L157.095 -368.724
L157.095 -368.724
L159.885 -365.552
L159.885 -365.552
L159.885 -365.552
L159.885 -365.552
L159.885 -365.552
L159.885 -365.552
L159.885 -365.552
L159.885 -365.552
L159.885 -365.552
L159.885 -365.552
L159.885 -365.552
L161.28 -363.288
L161.28 -363.288
L161.28 -363.288
L161.28 -363.288
L162.675 -360.601
L165.465 -354.039
L165.465 -354.039
L165.465 -354.039
L165.465 -354.039
L165.465 -354.039
L165.465 -354.039
L165.465 -354.039
L165.465 -354.039
L165.465 -354.039
L166.86 -350.21
L166.86 -350.21
L166.86 -350.21
L166.86 -350.21
L168.255 -346.045
L168.255 -346.045
L168.255 -346.045
L168.255 -346.045
L169.65 -341.567
L169.65 -341.567
L169.65 -341.567
L169.65 -341.567
L169.65 -341.567
L169.65 -341.567
L169.65 -341.567
L169.65 -341.567
L169.65 -341.567
L171.045 -336.798
L171.045 -336.798
L171.045 -336.798
L171.045 -336.798
L172.44 -331.762
L172.44 -331.762
L172.44 -331.762
L172.44 -331.762
L172.44 -331.762
L172.44 -331.762
L173.835 -326.479
L175.23 -320.972
L175.23 -320.972
L175.23 -320.972
L176.625 -315.263
L176.625 -315.263
L176.625 -315.263
L176.625 -315.263
L176.625 -315.263
L176.625 -315.263
L176.625 -315.263
L176.625 -315.263
L176.625 -315.263
L176.625 -315.263
L176.625 -315.263
L178.02 -309.371
L178.02 -309.371
L178.02 -309.371
L179.415 -303.318
L179.415 -303.318
L179.415 -303.318
L179.415 -303.318
L180.81 -297.123
L180.81 -297.123
L180.81 -297.123
L182.205 -290.806
L182.205 -290.806
L182.205 -290.806
L182.205 -290.806
L182.205 -290.806
L182.205 -290.806
L182.205 -290.806
L182.205 -290.806
L186.39 -271.3
L186.39 -271.3
L186.39 -271.3
L186.39 -271.3
L186.39 -271.3
L186.39 -271.3
L187.785 -264.67
L187.785 -264.67
L189.18 -258.004
L189.18 -258.004
L189.18 -258.004
L189.18 -258.004
L190.575 -251.315
L190.575 -251.315
L190.575 -251.315
L191.97 -244.618
L191.97 -244.618
L191.97 -244.618
L191.97 -244.618
L191.97 -244.618
L191.97 -244.618
L191.97 -244.618
L191.97 -244.618
L191.97 -244.618
L191.97 -244.618
L191.97 -244.618
L191.97 -244.618
L191.97 -244.618
L191.97 -244.618
L191.97 -244.618
L191.97 -244.618
L193.365 -237.926
L193.365 -237.926
L193.365 -237.926
L194.76 -231.253
L196.155 -224.609
L196.155 -224.609
L197.55 -218.008
L197.55 -218.008
L197.55 -218.008
L197.55 -218.008
L197.55 -218.008
L198.945 -211.458
L198.945 -211.458
L198.945 -211.458
L198.945 -211.458
L201.735 -198.554
L201.735 -198.554
L201.735 -198.554
L201.735 -198.554
L201.735 -198.554
L201.735 -198.554
L201.735 -198.554
L201.735 -198.554
L201.735 -198.554
L201.735 -198.554
L201.735 -198.554
L203.13 -192.218
L203.13 -192.218
L203.13 -192.218
L203.13 -192.218
L204.525 -185.97
L207.315 -173.767
L207.315 -173.767
L207.315 -173.767
L207.315 -173.767
L207.315 -173.767
L207.315 -173.767
L207.315 -173.767
L207.315 -173.767
L207.315 -173.767
L208.71 -167.825
L208.71 -167.825
L208.71 -167.825
L208.71 -167.825
L210.105 -161.997
L210.105 -161.997
L210.105 -161.997
L210.105 -161.997
L211.5 -156.289
L211.5 -156.289
L211.5 -156.289
L211.5 -156.289
L211.5 -156.289
L211.5 -156.289
L211.5 -156.289
L211.5 -156.289
L211.5 -156.289
L212.895 -150.705
L212.895 -150.705
L212.895 -150.705
L212.895 -150.705
L214.29 -145.249
L214.29 -145.249
L214.29 -145.249
L214.29 -145.249
L214.29 -145.249
L214.29 -145.249
L215.685 -139.926
L217.08 -134.738
L217.08 -134.738
L217.08 -134.738
L218.475 -129.689
L218.475 -129.689
L218.475 -129.689
L218.475 -129.689
L218.475 -129.689
L218.475 -129.689
L218.475 -129.689
L218.475 -129.689
L218.475 -129.689
L218.475 -129.689
L218.475 -129.689
L219.87 -124.781
L219.87 -124.781
L219.87 -124.781
L221.265 -120.017
L221.265 -120.017
L221.265 -120.017
L221.265 -120.017
L222.66 -115.398
L222.66 -115.398
L222.66 -115.398
L224.055 -110.925
L224.055 -110.925
L224.055 -110.925
L224.055 -110.925
L224.055 -110.925
L224.055 -110.925
L224.055 -110.925
L224.055 -110.925
L228.24 -98.3982
L228.24 -98.3982
L228.24 -98.3982
L228.24 -98.3982
L228.24 -98.3982
L228.24 -98.3982
L229.635 -94.5218
L229.635 -94.5218
L231.03 -90.7955
L231.03 -90.7955
L231.03 -90.7955
L231.03 -90.7955
L232.425 -87.2191
L232.425 -87.2191
L232.425 -87.2191
L233.82 -83.7925
L233.82 -83.7925
L233.82 -83.7925
L233.82 -83.7925
L233.82 -83.7925
L233.82 -83.7925
L233.82 -83.7925
L233.82 -83.7925
L233.82 -83.7925
L233.82 -83.7925
L233.82 -83.7925
L233.82 -83.7925
L233.82 -83.7925
L233.82 -83.7925
L233.82 -83.7925
L233.82 -83.7925
L235.215 -80.5151
L235.215 -80.5151
L235.215 -80.5151
L236.61 -77.3862
L238.005 -74.4052
L238.005 -74.4052
L239.4 -71.5709
L239.4 -71.5709
L239.4 -71.5709
L239.4 -71.5709
L239.4 -71.5709
L240.795 -68.8824
L240.795 -68.8824
L240.795 -68.8824
L240.795 -68.8824
L243.585 -63.9373
L243.585 -63.9373
L243.585 -63.9373
L243.585 -63.9373
L243.585 -63.9373
L243.585 -63.9373
L243.585 -63.9373
L243.585 -63.9373
L243.585 -63.9373
L243.585 -63.9373
L243.585 -63.9373
L244.98 -61.6781
L244.98 -61.6781
L244.98 -61.6781
L244.98 -61.6781
L246.375 -59.5589
L249.165 -55.7345
L249.165 -55.7345
L249.165 -55.7345
L249.165 -55.7345
L249.165 -55.7345
L249.165 -55.7345
L249.165 -55.7345
L249.165 -55.7345
L249.165 -55.7345
L250.56 -54.0258
L250.56 -54.0258
L250.56 -54.0258
L250.56 -54.0258
L251.955 -52.4502
L253.35 -51.0061
L253.35 -51.0061
L253.35 -51.0061
L253.35 -51.0061
L253.35 -51.0061
L253.35 -51.0061
L253.35 -51.0061
L253.35 -51.0061
L253.35 -51.0061
L254.745 -49.6914
L254.745 -49.6914
L254.745 -49.6914
L254.745 -49.6914
L256.14 -48.5041
L256.14 -48.5041
L256.14 -48.5041
L256.14 -48.5041
L256.14 -48.5041
L256.14 -48.5041
L257.535 -47.4424
L258.93 -46.5042
L258.93 -46.5042
L258.93 -46.5042
L260.325 -45.6875
L260.325 -45.6875
L260.325 -45.6875
L260.325 -45.6875
L260.325 -45.6875
L260.325 -45.6875
L260.325 -45.6875
L260.325 -45.6875
L260.325 -45.6875
L260.325 -45.6875
L260.325 -45.6875
L261.72 -44.9903
L261.72 -44.9903
L261.72 -44.9903
L263.115 -44.4104
L263.115 -44.4104
L263.115 -44.4104
L263.115 -44.4104
L264.51 -43.9459
L264.51 -43.9459
L264.51 -43.9459
L265.905 -43.5946
L265.905 -43.5946
L265.905 -43.5946
L265.905 -43.5946
L265.905 -43.5946
L265.905 -43.5946
L265.905 -43.5946
L265.905 -43.5946
L270.09 -43.2
L270.09 -43.2
L270.09 -43.2
L270.09 -43.2
L270.09 -43.2
L270.09 -43.2
L271.485 -43.2813
L271.485 -43.2813
L272.88 -43.4656
L272.88 -43.4656
L272.88 -43.4656
L272.88 -43.4656
L274.275 -43.7509
L274.275 -43.7509
L274.275 -43.7509
L275.67 -44.1352
L275.67 -44.1352
L275.67 -44.1352
L275.67 -44.1352
L275.67 -44.1352
L275.67 -44.1352
L275.67 -44.1352
L275.67 -44.1352
L275.67 -44.1352
L275.67 -44.1352
L275.67 -44.1352
L275.67 -44.1352
L275.67 -44.1352
L275.67 -44.1352
L275.67 -44.1352
L275.67 -44.1352
L277.065 -44.6164
L277.065 -44.6164
L277.065 -44.6164
L278.46 -45.1926
L279.855 -45.8617
L279.855 -45.8617
L281.25 -46.6217
L281.25 -46.6217
L281.25 -46.6217
L281.25 -46.6217
L281.25 -46.6217
L282.645 -47.4708
L282.645 -47.4708
L282.645 -47.4708
L282.645 -47.4708
L285.435 -49.4281
L285.435 -49.4281
L285.435 -49.4281
L285.435 -49.4281
L285.435 -49.4281
L285.435 -49.4281
L285.435 -49.4281
L285.435 -49.4281
L285.435 -49.4281
L285.435 -49.4281
L285.435 -49.4281
L286.83 -50.5323
L286.83 -50.5323
L286.83 -50.5323
L286.83 -50.5323
L288.225 -51.7178
L291.015 -54.3245
L291.015 -54.3245
L291.015 -54.3245
L291.015 -54.3245
L291.015 -54.3245
L291.015 -54.3245
L291.015 -54.3245
L291.015 -54.3245
L291.015 -54.3245
L292.41 -55.7419
L292.41 -55.7419
L292.41 -55.7419
L292.41 -55.7419
L293.805 -57.2328
L295.2 -58.7951
L295.2 -58.7951
L295.2 -58.7951
L295.2 -58.7951
L295.2 -58.7951
L295.2 -58.7951
L295.2 -58.7951
L295.2 -58.7951
L295.2 -58.7951
L296.595 -60.4271
L296.595 -60.4271
L296.595 -60.4271
L296.595 -60.4271
L297.99 -62.1268
L297.99 -62.1268
L297.99 -62.1268
L297.99 -62.1268
L297.99 -62.1268
L297.99 -62.1268
L299.385 -63.8921
L300.78 -65.7213
L300.78 -65.7213
L300.78 -65.7213
L302.175 -67.6124
L302.175 -67.6124
L302.175 -67.6124
L302.175 -67.6124
L302.175 -67.6124
L302.175 -67.6124
L302.175 -67.6124
L302.175 -67.6124
L302.175 -67.6124
L302.175 -67.6124
L302.175 -67.6124
L303.57 -69.5633
L303.57 -69.5633
L304.965 -71.5722
L304.965 -71.5722
L304.965 -71.5722
L304.965 -71.5722
L306.36 -73.637
L306.36 -73.637
L306.36 -73.637
L307.755 -75.7558
L307.755 -75.7558
L307.755 -75.7558
L307.755 -75.7558
L307.755 -75.7558
L307.755 -75.7558
L307.755 -75.7558
L307.755 -75.7558
L311.94 -82.4161
L311.94 -82.4161
L311.94 -82.4161
L311.94 -82.4161
L311.94 -82.4161
L311.94 -82.4161
L313.335 -84.7307
L313.335 -84.7307
L314.73 -87.0891
L314.73 -87.0891
L314.73 -87.0891
L314.73 -87.0891
L316.125 -89.4894
L316.125 -89.4894
L316.125 -89.4894
L317.52 -91.9293
L317.52 -91.9293
L317.52 -91.9293
L317.52 -91.9293
L317.52 -91.9293
L317.52 -91.9293
L317.52 -91.9293
L317.52 -91.9293
L317.52 -91.9293
L317.52 -91.9293
L317.52 -91.9293
L317.52 -91.9293
L317.52 -91.9293
L317.52 -91.9293
L317.52 -91.9293
L317.52 -91.9293
L318.915 -94.4068
L318.915 -94.4068
L318.915 -94.4068
L320.31 -96.9198
L321.705 -99.466
L321.705 -99.466
L323.1 -102.043
L323.1 -102.043
L323.1 -102.043
L323.1 -102.043
L323.1 -102.043
L324.495 -104.65
L324.495 -104.65
L324.495 -104.65
L324.495 -104.65
L327.285 -109.941
L327.285 -109.941
L327.285 -109.941
L327.285 -109.941
L327.285 -109.941
L327.285 -109.941
L327.285 -109.941
L327.285 -109.941
L327.285 -109.941
L327.285 -109.941
L327.285 -109.941
L328.68 -112.621
L328.68 -112.621
L328.68 -112.621
L328.68 -112.621
L330.075 -115.321
L332.865 -120.773
L332.865 -120.773
L332.865 -120.773
L332.865 -120.773
L332.865 -120.773
L332.865 -120.773
L332.865 -120.773
L332.865 -120.773
L332.865 -120.773
L334.26 -123.519
L334.26 -123.519
L334.26 -123.519
L334.26 -123.519
L335.655 -126.277
L337.05 -129.044
L337.05 -129.044
L337.05 -129.044
L337.05 -129.044
L337.05 -129.044
L337.05 -129.044
L337.05 -129.044
L337.05 -129.044
L337.05 -129.044
L338.445 -131.816
L338.445 -131.816
L338.445 -131.816
L338.445 -131.816
L339.84 -134.593
L339.84 -134.593
L339.84 -134.593
L339.84 -134.593
L339.84 -134.593
L339.84 -134.593
L341.235 -137.371
L342.63 -140.149
L342.63 -140.149
L342.63 -140.149
L344.025 -142.924
L344.025 -142.924
L344.025 -142.924
L344.025 -142.924
L344.025 -142.924
L344.025 -142.924
L344.025 -142.924
L344.025 -142.924
L344.025 -142.924
L344.025 -142.924
L344.025 -142.924
L345.42 -145.693
L345.42 -145.693
L346.815 -148.454
L346.815 -148.454
L346.815 -148.454
L346.815 -148.454
L348.21 -151.206
L348.21 -151.206
L348.21 -151.206
L349.605 -153.945
L349.605 -153.945
L349.605 -153.945
L349.605 -153.945
L349.605 -153.945
L349.605 -153.945
L349.605 -153.945
L349.605 -153.945
L353.79 -162.063
L353.79 -162.063
L353.79 -162.063
L353.79 -162.063
L353.79 -162.063
L353.79 -162.063
L355.185 -164.729
L355.185 -164.729
L356.58 -167.37
L356.58 -167.37
L356.58 -167.37
L357.975 -169.985
L357.975 -169.985
L357.975 -169.985
L359.37 -172.571
L359.37 -172.571
L359.37 -172.571
L359.37 -172.571
L359.37 -172.571
L359.37 -172.571
L359.37 -172.571
L359.37 -172.571
L359.37 -172.571
L359.37 -172.571
L359.37 -172.571
L359.37 -172.571
L359.37 -172.571
L359.37 -172.571
L359.37 -172.571
L359.37 -172.571
L360.765 -175.127
L360.765 -175.127
L360.765 -175.127
L362.16 -177.649
L363.555 -180.136
L363.555 -180.136
L364.95 -182.585
L364.95 -182.585
L364.95 -182.585
L364.95 -182.585
L364.95 -182.585
L366.345 -184.995
L366.345 -184.995
L366.345 -184.995
L366.345 -184.995
L369.135 -189.686
L369.135 -189.686
L369.135 -189.686
L369.135 -189.686
L369.135 -189.686
L369.135 -189.686
L369.135 -189.686
L369.135 -189.686
L369.135 -189.686
L369.135 -189.686
L369.135 -189.686
L370.53 -191.964
L370.53 -191.964
L370.53 -191.964
L370.53 -191.964
L371.925 -194.194
L374.715 -198.501
L374.715 -198.501
L374.715 -198.501
L374.715 -198.501
L374.715 -198.501
L374.715 -198.501
L374.715 -198.501
L374.715 -198.501
L374.715 -198.501
L376.11 -200.576
L376.11 -200.576
L376.11 -200.576
L376.11 -200.576
L377.505 -202.594
L378.9 -204.555
L378.9 -204.555
L378.9 -204.555
L378.9 -204.555
L378.9 -204.555
L378.9 -204.555
L378.9 -204.555
L378.9 -204.555
L378.9 -204.555
L380.295 -206.457
L380.295 -206.457
L380.295 -206.457
L380.295 -206.457
L381.69 -208.298
L381.69 -208.298
L381.69 -208.298
L381.69 -208.298
L381.69 -208.298
L381.69 -208.298
L383.085 -210.077
L384.48 -211.791
L384.48 -211.791
L384.48 -211.791
L385.875 -213.44
L385.875 -213.44
L385.875 -213.44
L385.875 -213.44
L385.875 -213.44
L385.875 -213.44
L385.875 -213.44
L385.875 -213.44
L385.875 -213.44
L385.875 -213.44
L385.875 -213.44
L387.27 -215.023
L387.27 -215.023
L388.665 -216.537
L388.665 -216.537
L388.665 -216.537
L388.665 -216.537
L390.06 -217.981
L390.06 -217.981
L390.06 -217.981
L391.455 -219.355
L391.455 -219.355
L391.455 -219.355
L391.455 -219.355
L391.455 -219.355
L391.455 -219.355
L391.455 -219.355
L391.455 -219.355
L395.64 -223.039
L395.64 -223.039
L395.64 -223.039
L395.64 -223.039
L395.64 -223.039
L395.64 -223.039
L397.035 -224.119
L397.035 -224.119
L398.43 -225.122
L398.43 -225.122
L398.43 -225.122
L399.825 -226.049
L399.825 -226.049
L399.825 -226.049
L401.22 -226.899
L401.22 -226.899
L401.22 -226.899
L401.22 -226.899
L401.22 -226.899
L401.22 -226.899
L401.22 -226.899
L401.22 -226.899
L401.22 -226.899
L401.22 -226.899
L401.22 -226.899
L401.22 -226.899
L401.22 -226.899
L401.22 -226.899
L401.22 -226.899
L401.22 -226.899
L402.615 -227.672
L402.615 -227.672
L402.615 -227.672
L404.01 -228.366
L405.405 -228.981
L405.405 -228.981
L406.8 -229.517
L406.8 -229.517
L406.8 -229.517
L406.8 -229.517
L406.8 -229.517
L408.195 -229.975
L408.195 -229.975
L408.195 -229.975
L410.985 -230.652
L410.985 -230.652
L410.985 -230.652
L410.985 -230.652
L410.985 -230.652
L410.985 -230.652
L410.985 -230.652
L410.985 -230.652
L410.985 -230.652
L410.985 -230.652
L410.985 -230.652
L412.38 -230.872
L412.38 -230.872
L412.38 -230.872
L412.38 -230.872
L413.775 -231.013
L416.565 -231.061
L416.565 -231.061
L416.565 -231.061
L416.565 -231.061
L416.565 -231.061
L416.565 -231.061
L416.565 -231.061
L416.565 -231.061
L416.565 -231.061
L417.96 -230.968
L417.96 -230.968
L417.96 -230.968
L417.96 -230.968
L419.355 -230.799
L420.75 -230.555
L420.75 -230.555
L420.75 -230.555
L420.75 -230.555
L420.75 -230.555
L420.75 -230.555
L420.75 -230.555
L420.75 -230.555
L420.75 -230.555
L422.145 -230.235
L422.145 -230.235
L422.145 -230.235
L422.145 -230.235
L423.54 -229.842
L423.54 -229.842
L423.54 -229.842
L423.54 -229.842
L423.54 -229.842
L423.54 -229.842
L424.935 -229.376
L426.33 -228.84
L426.33 -228.84
L426.33 -228.84
L427.725 -228.233
L427.725 -228.233
L427.725 -228.233
L427.725 -228.233
L427.725 -228.233
L427.725 -228.233
L427.725 -228.233
L427.725 -228.233
L427.725 -228.233
L427.725 -228.233
L427.725 -228.233
L429.12 -227.559
L429.12 -227.559
L430.515 -226.818
L430.515 -226.818
L430.515 -226.818
L430.515 -226.818
L431.91 -226.013
L431.91 -226.013
L431.91 -226.013
L433.305 -225.145
L433.305 -225.145
L433.305 -225.145
L433.305 -225.145
L433.305 -225.145
L433.305 -225.145
L433.305 -225.145
L433.305 -225.145
L437.49 -222.189
L437.49 -222.189
L437.49 -222.189
L437.49 -222.189
L437.49 -222.189
L437.49 -222.189
L438.885 -221.093
L438.885 -221.093
L440.28 -219.946
L440.28 -219.946
L440.28 -219.946
L441.675 -218.751
L441.675 -218.751
L441.675 -218.751
L443.07 -217.51
L443.07 -217.51
L443.07 -217.51
L443.07 -217.51
L443.07 -217.51
L443.07 -217.51
L443.07 -217.51
L443.07 -217.51
L443.07 -217.51
L443.07 -217.51
L443.07 -217.51
L443.07 -217.51
L443.07 -217.51
L443.07 -217.51
L443.07 -217.51
L443.07 -217.51
L444.465 -216.227
L444.465 -216.227
L444.465 -216.227
L445.86 -214.903
L447.255 -213.543
L447.255 -213.543
L448.65 -212.149
L448.65 -212.149
L448.65 -212.149
L448.65 -212.149
L448.65 -212.149
L450.045 -210.724
L450.045 -210.724
L450.045 -210.724
L452.835 -207.796
L452.835 -207.796
L452.835 -207.796
L452.835 -207.796
L452.835 -207.796
L452.835 -207.796
L452.835 -207.796
L452.835 -207.796
L452.835 -207.796
L452.835 -207.796
L452.835 -207.796
L454.23 -206.299
L454.23 -206.299
L454.23 -206.299
L454.23 -206.299
L455.625 -204.784
L458.415 -201.717
L458.415 -201.717
L458.415 -201.717
L458.415 -201.717
L458.415 -201.717
L458.415 -201.717
L458.415 -201.717
L458.415 -201.717
L458.415 -201.717
L459.81 -200.172
L461.205 -198.623
L462.6 -197.074
L462.6 -197.074
L462.6 -197.074
L462.6 -197.074
L462.6 -197.074
L462.6 -197.074
L462.6 -197.074
L462.6 -197.074
L462.6 -197.074
L463.995 -195.53
L463.995 -195.53
L463.995 -195.53
L463.995 -195.53
L465.39 -193.993
L465.39 -193.993
L465.39 -193.993
L465.39 -193.993
L465.39 -193.993
L465.39 -193.993
L466.785 -192.467
L468.18 -190.957
L468.18 -190.957
L468.18 -190.957
L469.575 -189.465
L469.575 -189.465
L469.575 -189.465
L469.575 -189.465
L469.575 -189.465
L469.575 -189.465
L469.575 -189.465
L469.575 -189.465
L469.575 -189.465
L469.575 -189.465
L469.575 -189.465
L470.97 -187.996
L470.97 -187.996
L472.365 -186.553
L472.365 -186.553
L472.365 -186.553
L472.365 -186.553
L473.76 -185.141
L473.76 -185.141
L473.76 -185.141
L475.155 -183.762
L475.155 -183.762
L475.155 -183.762
L475.155 -183.762
L475.155 -183.762
L475.155 -183.762
L475.155 -183.762
L475.155 -183.762
L479.34 -179.864
L479.34 -179.864
L479.34 -179.864
L479.34 -179.864
L479.34 -179.864
L479.34 -179.864
L480.735 -178.657
L480.735 -178.657
L482.13 -177.502
L482.13 -177.502
L482.13 -177.502
L483.525 -176.403
L483.525 -176.403
L483.525 -176.403
L484.92 -175.362
L484.92 -175.362
L484.92 -175.362
L484.92 -175.362
L484.92 -175.362
L484.92 -175.362
L484.92 -175.362
L484.92 -175.362
L484.92 -175.362
L484.92 -175.362
L484.92 -175.362
L484.92 -175.362
L484.92 -175.362
L484.92 -175.362
L484.92 -175.362
L484.92 -175.362
L486.315 -174.385
L486.315 -174.385
L486.315 -174.385
L487.71 -173.474
L489.105 -172.633
L489.105 -172.633
L490.5 -171.865
L490.5 -171.865
L490.5 -171.865
L490.5 -171.865
L490.5 -171.865
L491.895 -171.173
L491.895 -171.173
L491.895 -171.173
L494.685 -170.032
L494.685 -170.032
L494.685 -170.032
L494.685 -170.032
L494.685 -170.032
L494.685 -170.032
L494.685 -170.032
L494.685 -170.032
L494.685 -170.032
L494.685 -170.032
L494.685 -170.032
L496.08 -169.589
L496.08 -169.589
L496.08 -169.589
L496.08 -169.589
L497.475 -169.235
L500.265 -168.806
L500.265 -168.806
L500.265 -168.806
L500.265 -168.806
L500.265 -168.806
L500.265 -168.806
L500.265 -168.806
L500.265 -168.806
L500.265 -168.806
L501.66 -168.737
L503.055 -168.769
L504.45 -168.904
L504.45 -168.904
L504.45 -168.904
L504.45 -168.904
L504.45 -168.904
L504.45 -168.904
L504.45 -168.904
L504.45 -168.904
L504.45 -168.904
L505.845 -169.145
L505.845 -169.145
L505.845 -169.145
L505.845 -169.145
L507.24 -169.495
L507.24 -169.495
L507.24 -169.495
L507.24 -169.495
L507.24 -169.495
L507.24 -169.495
L508.635 -169.955
L510.03 -170.529
L510.03 -170.529
L510.03 -170.529
L511.425 -171.218
L511.425 -171.218
L511.425 -171.218
L511.425 -171.218
L511.425 -171.218
L511.425 -171.218
L511.425 -171.218
L511.425 -171.218
L511.425 -171.218
L511.425 -171.218
L511.425 -171.218
L512.82 -172.025
L512.82 -172.025
L514.215 -172.951
L514.215 -172.951
L514.215 -172.951
L514.215 -172.951
L515.61 -173.999
L515.61 -173.999
L515.61 -173.999
L517.005 -175.17
L517.005 -175.17
L517.005 -175.17
L517.005 -175.17
L517.005 -175.17
L517.005 -175.17
L517.005 -175.17
L518.4 -176.466
L518.4 -176.466
L518.4 -176.466
L517.005 -176.541
L517.005 -176.541
L517.005 -176.541
L517.005 -176.541
L517.005 -176.541
L517.005 -176.541
L517.005 -176.541
L515.61 -176.685
L515.61 -176.685
L515.61 -176.685
L514.215 -176.899
L514.215 -176.899
L514.215 -176.899
L514.215 -176.899
L512.82 -177.18
L512.82 -177.18
L511.425 -177.529
L511.425 -177.529
L511.425 -177.529
L511.425 -177.529
L511.425 -177.529
L511.425 -177.529
L511.425 -177.529
L511.425 -177.529
L511.425 -177.529
L511.425 -177.529
L511.425 -177.529
L510.03 -177.943
L510.03 -177.943
L510.03 -177.943
L508.635 -178.422
L507.24 -178.964
L507.24 -178.964
L507.24 -178.964
L507.24 -178.964
L507.24 -178.964
L507.24 -178.964
L505.845 -179.567
L505.845 -179.567
L505.845 -179.567
L505.845 -179.567
L504.45 -180.23
L504.45 -180.23
L504.45 -180.23
L504.45 -180.23
L504.45 -180.23
L504.45 -180.23
L504.45 -180.23
L504.45 -180.23
L504.45 -180.23
L503.055 -180.952
L501.66 -181.731
L500.265 -182.565
L500.265 -182.565
L500.265 -182.565
L500.265 -182.565
L500.265 -182.565
L500.265 -182.565
L500.265 -182.565
L500.265 -182.565
L500.265 -182.565
L497.475 -184.391
L496.08 -185.379
L496.08 -185.379
L496.08 -185.379
L496.08 -185.379
L494.685 -186.415
L494.685 -186.415
L494.685 -186.415
L494.685 -186.415
L494.685 -186.415
L494.685 -186.415
L494.685 -186.415
L494.685 -186.415
L494.685 -186.415
L494.685 -186.415
L494.685 -186.415
L491.895 -188.621
L491.895 -188.621
L491.895 -188.621
L490.5 -189.788
L490.5 -189.788
L490.5 -189.788
L490.5 -189.788
L490.5 -189.788
L489.105 -190.993
L489.105 -190.993
L487.71 -192.236
L486.315 -193.513
L486.315 -193.513
L486.315 -193.513
L484.92 -194.823
L484.92 -194.823
L484.92 -194.823
L484.92 -194.823
L484.92 -194.823
L484.92 -194.823
L484.92 -194.823
L484.92 -194.823
L484.92 -194.823
L484.92 -194.823
L484.92 -194.823
L484.92 -194.823
L484.92 -194.823
L484.92 -194.823
L484.92 -194.823
L484.92 -194.823
L483.525 -196.163
L483.525 -196.163
L483.525 -196.163
L482.13 -197.53
L482.13 -197.53
L482.13 -197.53
L480.735 -198.923
L480.735 -198.923
L479.34 -200.339
L479.34 -200.339
L479.34 -200.339
L479.34 -200.339
L479.34 -200.339
L479.34 -200.339
L475.155 -204.7
L475.155 -204.7
L475.155 -204.7
L475.155 -204.7
L475.155 -204.7
L475.155 -204.7
L475.155 -204.7
L475.155 -204.7
L473.76 -206.183
L473.76 -206.183
L473.76 -206.183
L472.365 -207.677
L472.365 -207.677
L472.365 -207.677
L472.365 -207.677
L470.97 -209.179
L470.97 -209.179
L469.575 -210.686
L469.575 -210.686
L469.575 -210.686
L469.575 -210.686
L469.575 -210.686
L469.575 -210.686
L469.575 -210.686
L469.575 -210.686
L469.575 -210.686
L469.575 -210.686
L469.575 -210.686
L468.18 -212.196
L468.18 -212.196
L468.18 -212.196
L466.785 -213.707
L465.39 -215.215
L465.39 -215.215
L465.39 -215.215
L465.39 -215.215
L465.39 -215.215
L465.39 -215.215
L463.995 -216.72
L463.995 -216.72
L463.995 -216.72
L463.995 -216.72
L462.6 -218.217
L462.6 -218.217
L462.6 -218.217
L462.6 -218.217
L462.6 -218.217
L462.6 -218.217
L462.6 -218.217
L462.6 -218.217
L462.6 -218.217
L461.205 -219.704
L459.81 -221.18
L458.415 -222.641
L458.415 -222.641
L458.415 -222.641
L458.415 -222.641
L458.415 -222.641
L458.415 -222.641
L458.415 -222.641
L458.415 -222.641
L458.415 -222.641
L455.625 -225.511
L454.23 -226.915
L454.23 -226.915
L454.23 -226.915
L454.23 -226.915
L452.835 -228.295
L452.835 -228.295
L452.835 -228.295
L452.835 -228.295
L452.835 -228.295
L452.835 -228.295
L452.835 -228.295
L452.835 -228.295
L452.835 -228.295
L452.835 -228.295
L452.835 -228.295
L450.045 -230.974
L450.045 -230.974
L450.045 -230.974
L448.65 -232.269
L448.65 -232.269
L448.65 -232.269
L448.65 -232.269
L448.65 -232.269
L447.255 -233.53
L447.255 -233.53
L445.86 -234.757
L444.465 -235.946
L444.465 -235.946
L444.465 -235.946
L443.07 -237.096
L443.07 -237.096
L443.07 -237.096
L443.07 -237.096
L443.07 -237.096
L443.07 -237.096
L443.07 -237.096
L443.07 -237.096
L443.07 -237.096
L443.07 -237.096
L443.07 -237.096
L443.07 -237.096
L443.07 -237.096
L443.07 -237.096
L443.07 -237.096
L443.07 -237.096
L441.675 -238.205
L441.675 -238.205
L441.675 -238.205
L440.28 -239.271
L440.28 -239.271
L440.28 -239.271
L438.885 -240.291
L438.885 -240.291
L437.49 -241.265
L437.49 -241.265
L437.49 -241.265
L437.49 -241.265
L437.49 -241.265
L437.49 -241.265
L433.305 -243.884
L433.305 -243.884
L433.305 -243.884
L433.305 -243.884
L433.305 -243.884
L433.305 -243.884
L433.305 -243.884
L433.305 -243.884
L431.91 -244.651
L431.91 -244.651
L431.91 -244.651
L430.515 -245.362
L430.515 -245.362
L430.515 -245.362
L430.515 -245.362
L429.12 -246.015
L429.12 -246.015
L427.725 -246.61
L427.725 -246.61
L427.725 -246.61
L427.725 -246.61
L427.725 -246.61
L427.725 -246.61
L427.725 -246.61
L427.725 -246.61
L427.725 -246.61
L427.725 -246.61
L427.725 -246.61
L426.33 -247.144
L426.33 -247.144
L426.33 -247.144
L424.935 -247.616
L423.54 -248.025
L423.54 -248.025
L423.54 -248.025
L423.54 -248.025
L423.54 -248.025
L423.54 -248.025
L422.145 -248.37
L422.145 -248.37
L422.145 -248.37
L422.145 -248.37
L420.75 -248.648
L420.75 -248.648
L420.75 -248.648
L420.75 -248.648
L420.75 -248.648
L420.75 -248.648
L420.75 -248.648
L420.75 -248.648
L420.75 -248.648
L419.355 -248.86
L417.96 -249.003
L417.96 -249.003
L417.96 -249.003
L417.96 -249.003
L416.565 -249.078
L416.565 -249.078
L416.565 -249.078
L416.565 -249.078
L416.565 -249.078
L416.565 -249.078
L416.565 -249.078
L416.565 -249.078
L416.565 -249.078
L413.775 -249.016
L412.38 -248.877
L412.38 -248.877
L412.38 -248.877
L412.38 -248.877
L410.985 -248.667
L410.985 -248.667
L410.985 -248.667
L410.985 -248.667
L410.985 -248.667
L410.985 -248.667
L410.985 -248.667
L410.985 -248.667
L410.985 -248.667
L410.985 -248.667
L410.985 -248.667
L408.195 -248.026
L408.195 -248.026
L408.195 -248.026
L406.8 -247.594
L406.8 -247.594
L406.8 -247.594
L406.8 -247.594
L406.8 -247.594
L405.405 -247.088
L405.405 -247.088
L404.01 -246.508
L402.615 -245.853
L402.615 -245.853
L402.615 -245.853
L401.22 -245.123
L401.22 -245.123
L401.22 -245.123
L401.22 -245.123
L401.22 -245.123
L401.22 -245.123
L401.22 -245.123
L401.22 -245.123
L401.22 -245.123
L401.22 -245.123
L401.22 -245.123
L401.22 -245.123
L401.22 -245.123
L401.22 -245.123
L401.22 -245.123
L401.22 -245.123
L399.825 -244.318
L399.825 -244.318
L399.825 -244.318
L398.43 -243.438
L398.43 -243.438
L398.43 -243.438
L397.035 -242.484
L397.035 -242.484
L395.64 -241.456
L395.64 -241.456
L395.64 -241.456
L395.64 -241.456
L395.64 -241.456
L395.64 -241.456
L391.455 -237.931
L391.455 -237.931
L391.455 -237.931
L391.455 -237.931
L391.455 -237.931
L391.455 -237.931
L391.455 -237.931
L391.455 -237.931
L390.06 -236.612
L390.06 -236.612
L390.06 -236.612
L388.665 -235.222
L388.665 -235.222
L388.665 -235.222
L388.665 -235.222
L387.27 -233.761
L387.27 -233.761
L385.875 -232.232
L385.875 -232.232
L385.875 -232.232
L385.875 -232.232
L385.875 -232.232
L385.875 -232.232
L385.875 -232.232
L385.875 -232.232
L385.875 -232.232
L385.875 -232.232
L385.875 -232.232
L384.48 -230.635
L384.48 -230.635
L384.48 -230.635
L383.085 -228.971
L381.69 -227.241
L381.69 -227.241
L381.69 -227.241
L381.69 -227.241
L381.69 -227.241
L381.69 -227.241
L380.295 -225.448
L380.295 -225.448
L380.295 -225.448
L380.295 -225.448
L378.9 -223.592
L378.9 -223.592
L378.9 -223.592
L378.9 -223.592
L378.9 -223.592
L378.9 -223.592
L378.9 -223.592
L378.9 -223.592
L378.9 -223.592
L377.505 -221.674
L376.11 -219.698
L376.11 -219.698
L376.11 -219.698
L376.11 -219.698
L374.715 -217.663
L374.715 -217.663
L374.715 -217.663
L374.715 -217.663
L374.715 -217.663
L374.715 -217.663
L374.715 -217.663
L374.715 -217.663
L374.715 -217.663
L371.925 -213.428
L370.53 -211.231
L370.53 -211.231
L370.53 -211.231
L370.53 -211.231
L369.135 -208.984
L369.135 -208.984
L369.135 -208.984
L369.135 -208.984
L369.135 -208.984
L369.135 -208.984
L369.135 -208.984
L369.135 -208.984
L369.135 -208.984
L369.135 -208.984
L369.135 -208.984
L366.345 -204.346
L366.345 -204.346
L366.345 -204.346
L366.345 -204.346
L364.95 -201.96
L364.95 -201.96
L364.95 -201.96
L364.95 -201.96
L364.95 -201.96
L363.555 -199.532
L363.555 -199.532
L362.16 -197.064
L360.765 -194.558
L360.765 -194.558
L360.765 -194.558
L359.37 -192.016
L359.37 -192.016
L359.37 -192.016
L359.37 -192.016
L359.37 -192.016
L359.37 -192.016
L359.37 -192.016
L359.37 -192.016
L359.37 -192.016
L359.37 -192.016
L359.37 -192.016
L359.37 -192.016
L359.37 -192.016
L359.37 -192.016
L359.37 -192.016
L359.37 -192.016
L357.975 -189.442
L357.975 -189.442
L357.975 -189.442
L356.58 -186.837
L356.58 -186.837
L356.58 -186.837
L355.185 -184.204
L355.185 -184.204
L353.79 -181.545
L353.79 -181.545
L353.79 -181.545
L353.79 -181.545
L353.79 -181.545
L353.79 -181.545
L349.605 -173.435
L349.605 -173.435
L349.605 -173.435
L349.605 -173.435
L349.605 -173.435
L349.605 -173.435
L349.605 -173.435
L349.605 -173.435
L348.21 -170.696
L348.21 -170.696
L348.21 -170.696
L346.815 -167.944
L346.815 -167.944
L346.815 -167.944
L346.815 -167.944
L345.42 -165.18
L345.42 -165.18
L344.025 -162.407
L344.025 -162.407
L344.025 -162.407
L344.025 -162.407
L344.025 -162.407
L344.025 -162.407
L344.025 -162.407
L344.025 -162.407
L344.025 -162.407
L344.025 -162.407
L344.025 -162.407
L342.63 -159.628
L342.63 -159.628
L342.63 -159.628
L341.235 -156.844
L339.84 -154.06
L339.84 -154.06
L339.84 -154.06
L339.84 -154.06
L339.84 -154.06
L339.84 -154.06
L338.445 -151.276
L338.445 -151.276
L338.445 -151.276
L338.445 -151.276
L337.05 -148.496
L337.05 -148.496
L337.05 -148.496
L337.05 -148.496
L337.05 -148.496
L337.05 -148.496
L337.05 -148.496
L337.05 -148.496
L337.05 -148.496
L335.655 -145.721
L334.26 -142.955
L334.26 -142.955
L334.26 -142.955
L334.26 -142.955
L332.865 -140.199
L332.865 -140.199
L332.865 -140.199
L332.865 -140.199
L332.865 -140.199
L332.865 -140.199
L332.865 -140.199
L332.865 -140.199
L332.865 -140.199
L330.075 -134.729
L328.68 -132.02
L328.68 -132.02
L328.68 -132.02
L328.68 -132.02
L327.285 -129.33
L327.285 -129.33
L327.285 -129.33
L327.285 -129.33
L327.285 -129.33
L327.285 -129.33
L327.285 -129.33
L327.285 -129.33
L327.285 -129.33
L327.285 -129.33
L327.285 -129.33
L324.495 -124.021
L324.495 -124.021
L324.495 -124.021
L324.495 -124.021
L323.1 -121.405
L323.1 -121.405
L323.1 -121.405
L323.1 -121.405
L323.1 -121.405
L321.705 -118.819
L321.705 -118.819
L320.31 -116.264
L318.915 -113.743
L318.915 -113.743
L318.915 -113.743
L317.52 -111.257
L317.52 -111.257
L317.52 -111.257
L317.52 -111.257
L317.52 -111.257
L317.52 -111.257
L317.52 -111.257
L317.52 -111.257
L317.52 -111.257
L317.52 -111.257
L317.52 -111.257
L317.52 -111.257
L317.52 -111.257
L317.52 -111.257
L317.52 -111.257
L317.52 -111.257
L316.125 -108.809
L316.125 -108.809
L316.125 -108.809
L314.73 -106.402
L314.73 -106.402
L314.73 -106.402
L314.73 -106.402
L313.335 -104.036
L313.335 -104.036
L311.94 -101.714
L311.94 -101.714
L311.94 -101.714
L311.94 -101.714
L311.94 -101.714
L311.94 -101.714
L307.755 -95.0362
L307.755 -95.0362
L307.755 -95.0362
L307.755 -95.0362
L307.755 -95.0362
L307.755 -95.0362
L307.755 -95.0362
L307.755 -95.0362
L306.36 -92.9121
L306.36 -92.9121
L306.36 -92.9121
L304.965 -90.8425
L304.965 -90.8425
L304.965 -90.8425
L304.965 -90.8425
L303.57 -88.8292
L303.57 -88.8292
L302.175 -86.8742
L302.175 -86.8742
L302.175 -86.8742
L302.175 -86.8742
L302.175 -86.8742
L302.175 -86.8742
L302.175 -86.8742
L302.175 -86.8742
L302.175 -86.8742
L302.175 -86.8742
L302.175 -86.8742
L300.78 -84.9796
L300.78 -84.9796
L300.78 -84.9796
L299.385 -83.1471
L297.99 -81.3789
L297.99 -81.3789
L297.99 -81.3789
L297.99 -81.3789
L297.99 -81.3789
L297.99 -81.3789
L296.595 -79.6768
L296.595 -79.6768
L296.595 -79.6768
L296.595 -79.6768
L295.2 -78.0428
L295.2 -78.0428
L295.2 -78.0428
L295.2 -78.0428
L295.2 -78.0428
L295.2 -78.0428
L295.2 -78.0428
L295.2 -78.0428
L295.2 -78.0428
L293.805 -76.4787
L292.41 -74.9866
L292.41 -74.9866
L292.41 -74.9866
L292.41 -74.9866
L291.015 -73.5682
L291.015 -73.5682
L291.015 -73.5682
L291.015 -73.5682
L291.015 -73.5682
L291.015 -73.5682
L291.015 -73.5682
L291.015 -73.5682
L291.015 -73.5682
L288.225 -70.9608
L286.83 -69.7754
L286.83 -69.7754
L286.83 -69.7754
L286.83 -69.7754
L285.435 -68.6717
L285.435 -68.6717
L285.435 -68.6717
L285.435 -68.6717
L285.435 -68.6717
L285.435 -68.6717
L285.435 -68.6717
L285.435 -68.6717
L285.435 -68.6717
L285.435 -68.6717
L285.435 -68.6717
L282.645 -66.7164
L282.645 -66.7164
L282.645 -66.7164
L282.645 -66.7164
L281.25 -65.8688
L281.25 -65.8688
L281.25 -65.8688
L281.25 -65.8688
L281.25 -65.8688
L279.855 -65.1106
L279.855 -65.1106
L278.46 -64.4436
L277.065 -63.8698
L277.065 -63.8698
L277.065 -63.8698
L275.67 -63.3913
L275.67 -63.3913
L275.67 -63.3913
L275.67 -63.3913
L275.67 -63.3913
L275.67 -63.3913
L275.67 -63.3913
L275.67 -63.3913
L275.67 -63.3913
L275.67 -63.3913
L275.67 -63.3913
L275.67 -63.3913
L275.67 -63.3913
L275.67 -63.3913
L275.67 -63.3913
L275.67 -63.3913
L274.275 -63.0099
L274.275 -63.0099
L274.275 -63.0099
L272.88 -62.7278
L272.88 -62.7278
L272.88 -62.7278
L272.88 -62.7278
L271.485 -62.5469
L271.485 -62.5469
L270.09 -62.4692
L270.09 -62.4692
L270.09 -62.4692
L270.09 -62.4692
L270.09 -62.4692
L270.09 -62.4692
L265.905 -62.8756
L265.905 -62.8756
L265.905 -62.8756
L265.905 -62.8756
L265.905 -62.8756
L265.905 -62.8756
L265.905 -62.8756
L265.905 -62.8756
L264.51 -63.2309
L264.51 -63.2309
L264.51 -63.2309
L263.115 -63.6996
L263.115 -63.6996
L263.115 -63.6996
L263.115 -63.6996
L261.72 -64.2836
L261.72 -64.2836
L261.72 -64.2836
L260.325 -64.9849
L260.325 -64.9849
L260.325 -64.9849
L260.325 -64.9849
L260.325 -64.9849
L260.325 -64.9849
L260.325 -64.9849
L260.325 -64.9849
L260.325 -64.9849
L260.325 -64.9849
L260.325 -64.9849
L258.93 -65.8056
L258.93 -65.8056
L258.93 -65.8056
L257.535 -66.7476
L256.14 -67.8129
L256.14 -67.8129
L256.14 -67.8129
L256.14 -67.8129
L256.14 -67.8129
L256.14 -67.8129
L254.745 -69.0034
L254.745 -69.0034
L254.745 -69.0034
L254.745 -69.0034
L253.35 -70.321
L253.35 -70.321
L253.35 -70.321
L253.35 -70.321
L253.35 -70.321
L253.35 -70.321
L253.35 -70.321
L253.35 -70.321
L253.35 -70.321
L251.955 -71.7676
L250.56 -73.3451
L250.56 -73.3451
L250.56 -73.3451
L250.56 -73.3451
L249.165 -75.0552
L249.165 -75.0552
L249.165 -75.0552
L249.165 -75.0552
L249.165 -75.0552
L249.165 -75.0552
L249.165 -75.0552
L249.165 -75.0552
L249.165 -75.0552
L246.375 -78.8803
L244.98 -80.9985
L244.98 -80.9985
L244.98 -80.9985
L244.98 -80.9985
L243.585 -83.2559
L243.585 -83.2559
L243.585 -83.2559
L243.585 -83.2559
L243.585 -83.2559
L243.585 -83.2559
L243.585 -83.2559
L243.585 -83.2559
L243.585 -83.2559
L243.585 -83.2559
L243.585 -83.2559
L240.795 -88.194
L240.795 -88.194
L240.795 -88.194
L240.795 -88.194
L239.4 -90.8773
L239.4 -90.8773
L239.4 -90.8773
L239.4 -90.8773
L239.4 -90.8773
L238.005 -93.705
L238.005 -93.705
L236.61 -96.6782
L235.215 -99.7976
L235.215 -99.7976
L235.215 -99.7976
L233.82 -103.064
L233.82 -103.064
L233.82 -103.064
L233.82 -103.064
L233.82 -103.064
L233.82 -103.064
L233.82 -103.064
L233.82 -103.064
L233.82 -103.064
L233.82 -103.064
L233.82 -103.064
L233.82 -103.064
L233.82 -103.064
L233.82 -103.064
L233.82 -103.064
L233.82 -103.064
L232.425 -106.478
L232.425 -106.478
L232.425 -106.478
L231.03 -110.04
L231.03 -110.04
L231.03 -110.04
L231.03 -110.04
L229.635 -113.75
L229.635 -113.75
L228.24 -117.609
L228.24 -117.609
L228.24 -117.609
L228.24 -117.609
L228.24 -117.609
L228.24 -117.609
L224.055 -130.07
L224.055 -130.07
L224.055 -130.07
L224.055 -130.07
L224.055 -130.07
L224.055 -130.07
L224.055 -130.07
L224.055 -130.07
L222.66 -134.516
L222.66 -134.516
L222.66 -134.516
L221.265 -139.108
L221.265 -139.108
L221.265 -139.108
L221.265 -139.108
L219.87 -143.843
L219.87 -143.843
L219.87 -143.843
L218.475 -148.718
L218.475 -148.718
L218.475 -148.718
L218.475 -148.718
L218.475 -148.718
L218.475 -148.718
L218.475 -148.718
L218.475 -148.718
L218.475 -148.718
L218.475 -148.718
L218.475 -148.718
L217.08 -153.734
L217.08 -153.734
L217.08 -153.734
L215.685 -158.885
L214.29 -164.171
L214.29 -164.171
L214.29 -164.171
L214.29 -164.171
L214.29 -164.171
L214.29 -164.171
L212.895 -169.587
L212.895 -169.587
L212.895 -169.587
L212.895 -169.587
L211.5 -175.129
L211.5 -175.129
L211.5 -175.129
L211.5 -175.129
L211.5 -175.129
L211.5 -175.129
L211.5 -175.129
L211.5 -175.129
L211.5 -175.129
L210.105 -180.795
L210.105 -180.795
L210.105 -180.795
L210.105 -180.795
L208.71 -186.578
L208.71 -186.578
L208.71 -186.578
L208.71 -186.578
L207.315 -192.474
L207.315 -192.474
L207.315 -192.474
L207.315 -192.474
L207.315 -192.474
L207.315 -192.474
L207.315 -192.474
L207.315 -192.474
L207.315 -192.474
L204.525 -204.582
L203.13 -210.782
L203.13 -210.782
L203.13 -210.782
L203.13 -210.782
L201.735 -217.069
L201.735 -217.069
L201.735 -217.069
L201.735 -217.069
L201.735 -217.069
L201.735 -217.069
L201.735 -217.069
L201.735 -217.069
L201.735 -217.069
L201.735 -217.069
L201.735 -217.069
L198.945 -229.874
L198.945 -229.874
L198.945 -229.874
L198.945 -229.874
L197.55 -236.374
L197.55 -236.374
L197.55 -236.374
L197.55 -236.374
L197.55 -236.374
L196.155 -242.927
L196.155 -242.927
L194.76 -249.523
L193.365 -256.15
L193.365 -256.15
L193.365 -256.15
L191.97 -262.797
L191.97 -262.797
L191.97 -262.797
L191.97 -262.797
L191.97 -262.797
L191.97 -262.797
L191.97 -262.797
L191.97 -262.797
L191.97 -262.797
L191.97 -262.797
L191.97 -262.797
L191.97 -262.797
L191.97 -262.797
L191.97 -262.797
L191.97 -262.797
L191.97 -262.797
L190.575 -269.451
L190.575 -269.451
L190.575 -269.451
L189.18 -276.1
L189.18 -276.1
L189.18 -276.1
L189.18 -276.1
L187.785 -282.73
L187.785 -282.73
L186.39 -289.325
L186.39 -289.325
L186.39 -289.325
L186.39 -289.325
L186.39 -289.325
L186.39 -289.325
L182.205 -308.752
L182.205 -308.752
L182.205 -308.752
L182.205 -308.752
L182.205 -308.752
L182.205 -308.752
L182.205 -308.752
L182.205 -308.752
L180.81 -315.052
L180.81 -315.052
L180.81 -315.052
L179.415 -321.235
L179.415 -321.235
L179.415 -321.235
L179.415 -321.235
L178.02 -327.282
L178.02 -327.282
L178.02 -327.282
L176.625 -333.173
L176.625 -333.173
L176.625 -333.173
L176.625 -333.173
L176.625 -333.173
L176.625 -333.173
L176.625 -333.173
L176.625 -333.173
L176.625 -333.173
L176.625 -333.173
L176.625 -333.173
L175.23 -338.888
L175.23 -338.888
L175.23 -338.888
L173.835 -344.407
L172.44 -349.709
L172.44 -349.709
L172.44 -349.709
L172.44 -349.709
L172.44 -349.709
L172.44 -349.709
L171.045 -354.772
L171.045 -354.772
L171.045 -354.772
L171.045 -354.772
L169.65 -359.573
L169.65 -359.573
L169.65 -359.573
L169.65 -359.573
L169.65 -359.573
L169.65 -359.573
L169.65 -359.573
L169.65 -359.573
L169.65 -359.573
L168.255 -364.092
L168.255 -364.092
L168.255 -364.092
L168.255 -364.092
L166.86 -368.305
L166.86 -368.305
L166.86 -368.305
L166.86 -368.305
L165.465 -372.189
L165.465 -372.189
L165.465 -372.189
L165.465 -372.189
L165.465 -372.189
L165.465 -372.189
L165.465 -372.189
L165.465 -372.189
L165.465 -372.189
L162.675 -378.883
L161.28 -381.647
L161.28 -381.647
L161.28 -381.647
L161.28 -381.647
L159.885 -383.995
L159.885 -383.995
L159.885 -383.995
L159.885 -383.995
L159.885 -383.995
L159.885 -383.995
L159.885 -383.995
L159.885 -383.995
L159.885 -383.995
L159.885 -383.995
L159.885 -383.995
L157.095 -387.353
L157.095 -387.353
L157.095 -387.353
L157.095 -387.353
L155.7 -388.325
L155.7 -388.325
L155.7 -388.325
L155.7 -388.325
L155.7 -388.325
L154.305 -388.8
L154.305 -388.8
L152.91 -388.762
L151.515 -388.194
L151.515 -388.194
L151.515 -388.194
L150.12 -387.085
L150.12 -387.085
L150.12 -387.085
L150.12 -387.085
L150.12 -387.085
L150.12 -387.085
L150.12 -387.085
L150.12 -387.085
L150.12 -387.085
L150.12 -387.085
L150.12 -387.085
L150.12 -387.085
L150.12 -387.085
L150.12 -387.085
L150.12 -387.085
L150.12 -387.085
L148.725 -385.421
L148.725 -385.421
L148.725 -385.421
L147.33 -383.195
L147.33 -383.195
L147.33 -383.195
L147.33 -383.195
L145.935 -380.4
L145.935 -380.4
L144.54 -377.031
L144.54 -377.031
L144.54 -377.031
L144.54 -377.031
L144.54 -377.031
L144.54 -377.031
L140.355 -363.494
L140.355 -363.494
L140.355 -363.494
L140.355 -363.494
L140.355 -363.494
L140.355 -363.494
L140.355 -363.494
L140.355 -363.494
L138.96 -357.86
L138.96 -357.86
L138.96 -357.86
L137.565 -351.683
L137.565 -351.683
L137.565 -351.683
L137.565 -351.683
L136.17 -344.982
L136.17 -344.982
L136.17 -344.982
L134.775 -337.779
L134.775 -337.779
L134.775 -337.779
L134.775 -337.779
L134.775 -337.779
L134.775 -337.779
L134.775 -337.779
L134.775 -337.779
L134.775 -337.779
L134.775 -337.779
L134.775 -337.779
L133.38 -330.101
L133.38 -330.101
L133.38 -330.101
L131.985 -321.978
L130.59 -313.446
L130.59 -313.446
L130.59 -313.446
L130.59 -313.446
L130.59 -313.446
L130.59 -313.446
L129.195 -304.543
L129.195 -304.543
L129.195 -304.543
L129.195 -304.543
L127.8 -295.315
L127.8 -295.315
L127.8 -295.315
L127.8 -295.315
L127.8 -295.315
L127.8 -295.315
L127.8 -295.315
L127.8 -295.315
L127.8 -295.315
L126.405 -285.81
L126.405 -285.81
L126.405 -285.81
L126.405 -285.81
L125.01 -276.08
L125.01 -276.08
L125.01 -276.08
L125.01 -276.08
L123.615 -266.18
L123.615 -266.18
L123.615 -266.18
L123.615 -266.18
L123.615 -266.18
L123.615 -266.18
L123.615 -266.18
L123.615 -266.18
L123.615 -266.18
L120.825 -246.114
L119.43 -236.075
L119.43 -236.075
L119.43 -236.075
L119.43 -236.075
L118.035 -226.12
L118.035 -226.12
L118.035 -226.12
L118.035 -226.12
L118.035 -226.12
L118.035 -226.12
L118.035 -226.12
L118.035 -226.12
L118.035 -226.12
L118.035 -226.12
L118.035 -226.12
L115.245 -206.732
L115.245 -206.732
L115.245 -206.732
L115.245 -206.732
L113.85 -197.437
L113.85 -197.437
L113.85 -197.437
L113.85 -197.437
L113.85 -197.437
L112.455 -188.495
L112.455 -188.495
L111.06 -179.972
L109.665 -171.928
L109.665 -171.928
L109.665 -171.928
L108.27 -164.421
L108.27 -164.421
L108.27 -164.421
L108.27 -164.421
L108.27 -164.421
L108.27 -164.421
L108.27 -164.421
L108.27 -164.421
L108.27 -164.421
L108.27 -164.421
L108.27 -164.421
L108.27 -164.421
L108.27 -164.421
L108.27 -164.421
L108.27 -164.421
L108.27 -164.421
L106.875 -157.503
L106.875 -157.503
L106.875 -157.503
L105.48 -151.218
L105.48 -151.218
L105.48 -151.218
L105.48 -151.218
L104.085 -145.607
L104.085 -145.607
L102.69 -140.699
L102.69 -140.699
L102.69 -140.699
L102.69 -140.699
L102.69 -140.699
L102.69 -140.699
L98.505 -130.373
L98.505 -130.373
L98.505 -130.373
L98.505 -130.373
L98.505 -130.373
L98.505 -130.373
L98.505 -130.373
L98.505 -130.373
L97.11 -128.41
L97.11 -128.41
L97.11 -128.41
L95.715 -127.167
L95.715 -127.167
L95.715 -127.167
L95.715 -127.167
L94.32 -126.621
L94.32 -126.621
L94.32 -126.621
L92.925 -126.738
L92.925 -126.738
L92.925 -126.738
L92.925 -126.738
L92.925 -126.738
L92.925 -126.738
L92.925 -126.738
L92.925 -126.738
L92.925 -126.738
L92.925 -126.738
L92.925 -126.738
L91.53 -127.477
L91.53 -127.477
L91.53 -127.477
L90.135 -128.791
L88.74 -130.628
L88.74 -130.628
L88.74 -130.628
L88.74 -130.628
L88.74 -130.628
L88.74 -130.628
L87.345 -132.933
L87.345 -132.933
L87.345 -132.933
L87.345 -132.933
L85.95 -135.651
L85.95 -135.651
L85.95 -135.651
L85.95 -135.651
L85.95 -135.651
L85.95 -135.651
L85.95 -135.651
L85.95 -135.651
L85.95 -135.651
L84.555 -138.728
L84.555 -138.728
L84.555 -138.728
L84.555 -138.728
L83.16 -142.113
L83.16 -142.113
L83.16 -142.113
L83.16 -142.113
L81.765 -145.761
L81.765 -145.761
L81.765 -145.761
L81.765 -145.761
L81.765 -145.761
L81.765 -145.761
L81.765 -145.761
L81.765 -145.761
L81.765 -145.761
L78.975 -153.701
L77.58 -157.942
L77.58 -157.942
L77.58 -157.942
L77.58 -157.942
L76.185 -162.344
L76.185 -162.344
L76.185 -162.344
L76.185 -162.344
L76.185 -162.344
L76.185 -162.344
L76.185 -162.344
L76.185 -162.344
L76.185 -162.344
L76.185 -162.344
L76.185 -162.344
L73.395 -171.607
L73.395 -171.607
L73.395 -171.607
L73.395 -171.607
L72 -176.466
z
" id="C0_0_12c9ffe98f"/>
    </defs>
    <g clip-path="url(#p7ff5b81e1d)">
     <use style="fill:#0000ff;fill-opacity:0.1;stroke:#000000;stroke-opacity:0.1;" x="0.0" xlink:href="#C0_0_12c9ffe98f" y="432.0"/>
    </g>
   </g>
   <g id="line2d_1">
    <path clip-path="url(#p7ff5b81e1d)" d="
M72 255.534
L73.395 261.069
L73.395 261.069
L73.395 261.069
L73.395 261.069
L77.58 276.601
L77.58 276.601
L78.975 281.412
L83.16 294.557
L83.16 294.557
L84.555 298.412
L84.555 298.412
L85.95 301.935
L85.95 301.935
L87.345 305.075
L87.345 305.075
L88.74 307.78
L88.74 307.78
L90.135 309.994
L91.53 311.663
L91.53 311.663
L92.925 312.736
L92.925 312.736
L94.32 313.165
L94.32 313.165
L95.715 312.911
L95.715 312.911
L97.11 311.941
L97.11 311.941
L98.505 310.231
L98.505 310.231
L102.69 300.554
L102.69 300.554
L104.085 295.827
L105.48 290.38
L105.48 290.38
L106.875 284.244
L106.875 284.244
L108.27 277.458
L108.27 277.458
L111.06 262.13
L113.85 244.832
L113.85 244.832
L115.245 235.601
L120.825 196.364
L126.405 156.661
L126.405 156.661
L129.195 137.879
L129.195 137.879
L131.985 120.371
L134.775 104.478
L134.775 104.478
L137.565 90.467
L137.565 90.467
L138.96 84.2325
L138.96 84.2325
L140.355 78.5376
L144.54 64.8138
L144.54 64.8138
L145.935 61.3815
L147.33 58.5227
L147.33 58.5227
L148.725 56.2339
L148.725 56.2339
L150.12 54.5091
L150.12 54.5091
L151.515 53.3395
L152.91 52.7139
L154.305 52.6193
L154.305 52.6193
L155.7 53.0406
L155.7 53.0406
L157.095 53.9612
L159.885 57.2267
L159.885 57.2267
L161.28 59.5322
L162.675 62.2584
L165.465 68.886
L165.465 68.886
L166.86 72.7428
L166.86 72.7428
L169.65 81.4299
L169.65 81.4299
L172.44 91.2647
L172.44 91.2647
L175.23 102.07
L175.23 102.07
L178.02 113.673
L178.02 113.673
L182.205 132.221
L182.205 132.221
L190.575 171.617
L190.575 171.617
L198.945 211.334
L198.945 211.334
L204.525 236.724
L210.105 260.604
L210.105 260.604
L214.29 277.29
L214.29 277.29
L218.475 292.796
L218.475 292.796
L221.265 302.438
L221.265 302.438
L224.055 311.503
L224.055 311.503
L229.635 327.864
L229.635 327.864
L232.425 335.151
L232.425 335.151
L235.215 341.844
L238.005 347.945
L238.005 347.945
L240.795 353.462
L244.98 360.662
L244.98 360.662
L246.375 362.78
L249.165 366.605
L249.165 366.605
L251.955 369.891
L254.745 372.653
L254.745 372.653
L257.535 374.905
L260.325 376.664
L260.325 376.664
L263.115 377.945
L263.115 377.945
L265.905 378.765
L265.905 378.765
L270.09 379.165
L270.09 379.165
L272.88 378.903
L272.88 378.903
L275.67 378.237
L275.67 378.237
L278.46 377.182
L281.25 375.755
L281.25 375.755
L282.645 374.906
L282.645 374.906
L286.83 371.846
L288.225 370.661
L292.41 366.636
L292.41 366.636
L295.2 363.581
L295.2 363.581
L297.99 360.247
L297.99 360.247
L300.78 356.65
L300.78 356.65
L304.965 350.793
L304.965 350.793
L307.755 346.604
L313.335 337.617
L317.52 330.407
L317.52 330.407
L323.1 320.276
L323.1 320.276
L328.68 309.68
L328.68 309.68
L337.05 293.23
L337.05 293.23
L349.605 268.31
L349.605 268.31
L357.975 252.286
L357.975 252.286
L363.555 242.166
L363.555 242.166
L366.345 237.329
L366.345 237.329
L371.925 228.189
L376.11 221.863
L376.11 221.863
L380.295 216.048
L380.295 216.048
L383.085 212.476
L385.875 209.164
L385.875 209.164
L388.665 206.121
L388.665 206.121
L391.455 203.357
L395.64 199.753
L395.64 199.753
L398.43 197.72
L398.43 197.72
L401.22 195.989
L401.22 195.989
L404.01 194.563
L406.8 193.444
L406.8 193.444
L408.195 193
L408.195 193
L410.985 192.341
L410.985 192.341
L413.775 191.986
L417.96 192.014
L417.96 192.014
L420.75 192.399
L420.75 192.399
L423.54 193.066
L423.54 193.066
L426.33 194.008
L426.33 194.008
L429.12 195.213
L429.12 195.213
L431.91 196.668
L431.91 196.668
L433.305 197.485
L438.885 201.308
L443.07 204.697
L443.07 204.697
L447.255 208.463
L447.255 208.463
L450.045 211.151
L450.045 211.151
L455.625 216.852
L465.39 227.396
L465.39 227.396
L473.76 236.338
L473.76 236.338
L475.155 237.769
L475.155 237.769
L480.735 243.21
L480.735 243.21
L484.92 246.907
L484.92 246.907
L487.71 249.145
L490.5 251.174
L490.5 251.174
L491.895 252.103
L491.895 252.103
L496.08 254.516
L496.08 254.516
L497.475 255.187
L501.66 256.766
L504.45 257.433
L504.45 257.433
L507.24 257.771
L507.24 257.771
L510.03 257.764
L510.03 257.764
L512.82 257.397
L512.82 257.397
L515.61 256.658
L515.61 256.658
L518.4 255.534
L518.4 255.534" style="fill:none;stroke:#0000ff;stroke-linecap:square;"/>
   </g>
   <g id="line2d_2">
    <path clip-path="url(#p7ff5b81e1d)" d="
M72 255.534
L81.765 255.444
L84.555 255.148
L85.95 254.848
L87.345 254.399
L88.74 253.762
L90.135 252.898
L91.53 251.766
L92.925 250.33
L94.32 248.554
L95.715 246.409
L97.11 243.87
L98.505 240.919
L99.9 237.542
L101.295 233.735
L102.69 229.498
L104.085 224.839
L106.875 214.317
L109.665 202.351
L112.455 189.201
L116.64 167.957
L125.01 124.437
L127.8 110.907
L130.59 98.374
L133.38 87.0794
L136.17 77.2166
L137.565 72.8688
L138.96 68.9287
L140.355 65.4066
L141.75 62.3099
L143.145 59.643
L144.54 57.4082
L145.935 55.6047
L147.33 54.23
L148.725 53.2791
L150.12 52.7451
L151.515 52.6193
L152.91 52.8916
L154.305 53.5503
L155.7 54.5824
L157.095 55.9739
L158.49 57.7098
L159.885 59.7743
L161.28 62.1512
L162.675 64.8233
L164.07 67.7736
L166.86 74.4379
L169.65 82.0028
L172.44 90.3272
L175.23 99.2735
L179.415 113.571
L184.995 133.635
L196.155 174.105
L200.34 188.555
L204.525 202.289
L208.71 215.161
L212.895 227.065
L215.685 234.427
L218.475 241.313
L221.265 247.715
L224.055 253.63
L226.845 259.058
L229.635 264.006
L232.425 268.481
L235.215 272.496
L238.005 276.065
L240.795 279.205
L243.585 281.933
L246.375 284.27
L249.165 286.237
L251.955 287.856
L254.745 289.148
L257.535 290.138
L260.325 290.846
L263.115 291.297
L265.905 291.512
L268.695 291.514
L271.485 291.323
L274.275 290.961
L278.46 290.138
L282.645 289.036
L286.83 287.711
L292.41 285.689
L299.385 282.899
L321.705 273.727
L328.68 271.142
L335.655 268.786
L342.63 266.676
L349.605 264.818
L356.58 263.204
L363.555 261.82
L370.53 260.647
L378.9 259.488
L387.27 258.562
L397.035 257.727
L408.195 257.029
L420.75 256.49
L436.095 256.075
L455.625 255.788
L484.92 255.611
L518.4 255.552
L518.4 255.552" style="fill:none;stroke:#008000;stroke-linecap:square;"/>
   </g>
   <g id="matplotlib.axis_1">
    <g id="xtick_1">
     <g id="line2d_3">
      <defs>
       <path d="
M0 0
L0 -4" id="m93b0483c22" style="stroke:#000000;stroke-width:0.5;"/>
      </defs>
      <g>
       <use style="stroke:#000000;stroke-width:0.5;" x="72.0" xlink:href="#m93b0483c22" y="388.8"/>
      </g>
     </g>
     <g id="line2d_4">
      <defs>
       <path d="
M0 0
L0 4" id="m741efc42ff" style="stroke:#000000;stroke-width:0.5;"/>
      </defs>
      <g>
       <use style="stroke:#000000;stroke-width:0.5;" x="72.0" xlink:href="#m741efc42ff" y="43.2"/>
      </g>
     </g>
     <g id="text_1">
      <!-- 0 -->
      <defs>
       <path d="
M31.7812 66.4062
Q24.1719 66.4062 20.3281 58.9062
Q16.5 51.4219 16.5 36.375
Q16.5 21.3906 20.3281 13.8906
Q24.1719 6.39062 31.7812 6.39062
Q39.4531 6.39062 43.2812 13.8906
Q47.125 21.3906 47.125 36.375
Q47.125 51.4219 43.2812 58.9062
Q39.4531 66.4062 31.7812 66.4062
M31.7812 74.2188
Q44.0469 74.2188 50.5156 64.5156
Q56.9844 54.8281 56.9844 36.375
Q56.9844 17.9688 50.5156 8.26562
Q44.0469 -1.42188 31.7812 -1.42188
Q19.5312 -1.42188 13.0625 8.26562
Q6.59375 17.9688 6.59375 36.375
Q6.59375 54.8281 13.0625 64.5156
Q19.5312 74.2188 31.7812 74.2188" id="DejaVuSans-30"/>
      </defs>
      <g transform="translate(68.9765625 401.918125)scale(0.12 -0.12)">
       <use xlink:href="#DejaVuSans-30"/>
      </g>
     </g>
    </g>
    <g id="xtick_2">
     <g id="line2d_5">
      <g>
       <use style="stroke:#000000;stroke-width:0.5;" x="141.75" xlink:href="#m93b0483c22" y="388.8"/>
      </g>
     </g>
     <g id="line2d_6">
      <g>
       <use style="stroke:#000000;stroke-width:0.5;" x="141.75" xlink:href="#m741efc42ff" y="43.2"/>
      </g>
     </g>
     <g id="text_2">
      <!-- 5 -->
      <defs>
       <path d="
M10.7969 72.9062
L49.5156 72.9062
L49.5156 64.5938
L19.8281 64.5938
L19.8281 46.7344
Q21.9688 47.4688 24.1094 47.8281
Q26.2656 48.1875 28.4219 48.1875
Q40.625 48.1875 47.75 41.5
Q54.8906 34.8125 54.8906 23.3906
Q54.8906 11.625 47.5625 5.09375
Q40.2344 -1.42188 26.9062 -1.42188
Q22.3125 -1.42188 17.5469 -0.640625
Q12.7969 0.140625 7.71875 1.70312
L7.71875 11.625
Q12.1094 9.23438 16.7969 8.0625
Q21.4844 6.89062 26.7031 6.89062
Q35.1562 6.89062 40.0781 11.3281
Q45.0156 15.7656 45.0156 23.3906
Q45.0156 31 40.0781 35.4375
Q35.1562 39.8906 26.7031 39.8906
Q22.75 39.8906 18.8125 39.0156
Q14.8906 38.1406 10.7969 36.2812
z
" id="DejaVuSans-35"/>
      </defs>
      <g transform="translate(138.9196875 401.918125)scale(0.12 -0.12)">
       <use xlink:href="#DejaVuSans-35"/>
      </g>
     </g>
    </g>
    <g id="xtick_3">
     <g id="line2d_7">
      <g>
       <use style="stroke:#000000;stroke-width:0.5;" x="211.5" xlink:href="#m93b0483c22" y="388.8"/>
      </g>
     </g>
     <g id="line2d_8">
      <g>
       <use style="stroke:#000000;stroke-width:0.5;" x="211.5" xlink:href="#m741efc42ff" y="43.2"/>
      </g>
     </g>
     <g id="text_3">
      <!-- 10 -->
      <defs>
       <path d="
M12.4062 8.29688
L28.5156 8.29688
L28.5156 63.9219
L10.9844 60.4062
L10.9844 69.3906
L28.4219 72.9062
L38.2812 72.9062
L38.2812 8.29688
L54.3906 8.29688
L54.3906 0
L12.4062 0
z
" id="DejaVuSans-31"/>
      </defs>
      <g transform="translate(204.9225 401.918125)scale(0.12 -0.12)">
       <use xlink:href="#DejaVuSans-31"/>
       <use x="63.623046875" xlink:href="#DejaVuSans-30"/>
      </g>
     </g>
    </g>
    <g id="xtick_4">
     <g id="line2d_9">
      <g>
       <use style="stroke:#000000;stroke-width:0.5;" x="281.25" xlink:href="#m93b0483c22" y="388.8"/>
      </g>
     </g>
     <g id="line2d_10">
      <g>
       <use style="stroke:#000000;stroke-width:0.5;" x="281.25" xlink:href="#m741efc42ff" y="43.2"/>
      </g>
     </g>
     <g id="text_4">
      <!-- 15 -->
      <g transform="translate(274.798125 401.918125)scale(0.12 -0.12)">
       <use xlink:href="#DejaVuSans-31"/>
       <use x="63.623046875" xlink:href="#DejaVuSans-35"/>
      </g>
     </g>
    </g>
    <g id="xtick_5">
     <g id="line2d_11">
      <g>
       <use style="stroke:#000000;stroke-width:0.5;" x="351.0" xlink:href="#m93b0483c22" y="388.8"/>
      </g>
     </g>
     <g id="line2d_12">
      <g>
       <use style="stroke:#000000;stroke-width:0.5;" x="351.0" xlink:href="#m741efc42ff" y="43.2"/>
      </g>
     </g>
     <g id="text_5">
      <!-- 20 -->
      <defs>
       <path d="
M19.1875 8.29688
L53.6094 8.29688
L53.6094 0
L7.32812 0
L7.32812 8.29688
Q12.9375 14.1094 22.625 23.8906
Q32.3281 33.6875 34.8125 36.5312
Q39.5469 41.8438 41.4219 45.5312
Q43.3125 49.2188 43.3125 52.7812
Q43.3125 58.5938 39.2344 62.25
Q35.1562 65.9219 28.6094 65.9219
Q23.9688 65.9219 18.8125 64.3125
Q13.6719 62.7031 7.8125 59.4219
L7.8125 69.3906
Q13.7656 71.7812 18.9375 73
Q24.125 74.2188 28.4219 74.2188
Q39.75 74.2188 46.4844 68.5469
Q53.2188 62.8906 53.2188 53.4219
Q53.2188 48.9219 51.5312 44.8906
Q49.8594 40.875 45.4062 35.4062
Q44.1875 33.9844 37.6406 27.2188
Q31.1094 20.4531 19.1875 8.29688" id="DejaVuSans-32"/>
      </defs>
      <g transform="translate(344.203125 401.918125)scale(0.12 -0.12)">
       <use xlink:href="#DejaVuSans-32"/>
       <use x="63.623046875" xlink:href="#DejaVuSans-30"/>
      </g>
     </g>
    </g>
    <g id="xtick_6">
     <g id="line2d_13">
      <g>
       <use style="stroke:#000000;stroke-width:0.5;" x="420.75" xlink:href="#m93b0483c22" y="388.8"/>
      </g>
     </g>
     <g id="line2d_14">
      <g>
       <use style="stroke:#000000;stroke-width:0.5;" x="420.75" xlink:href="#m741efc42ff" y="43.2"/>
      </g>
     </g>
     <g id="text_6">
      <!-- 25 -->
      <g transform="translate(414.07875 401.918125)scale(0.12 -0.12)">
       <use xlink:href="#DejaVuSans-32"/>
       <use x="63.623046875" xlink:href="#DejaVuSans-35"/>
      </g>
     </g>
    </g>
    <g id="xtick_7">
     <g id="line2d_15">
      <g>
       <use style="stroke:#000000;stroke-width:0.5;" x="490.5" xlink:href="#m93b0483c22" y="388.8"/>
      </g>
     </g>
     <g id="line2d_16">
      <g>
       <use style="stroke:#000000;stroke-width:0.5;" x="490.5" xlink:href="#m741efc42ff" y="43.2"/>
      </g>
     </g>
     <g id="text_7">
      <!-- 30 -->
      <defs>
       <path d="
M40.5781 39.3125
Q47.6562 37.7969 51.625 33
Q55.6094 28.2188 55.6094 21.1875
Q55.6094 10.4062 48.1875 4.48438
Q40.7656 -1.42188 27.0938 -1.42188
Q22.5156 -1.42188 17.6562 -0.515625
Q12.7969 0.390625 7.625 2.20312
L7.625 11.7188
Q11.7188 9.32812 16.5938 8.10938
Q21.4844 6.89062 26.8125 6.89062
Q36.0781 6.89062 40.9375 10.5469
Q45.7969 14.2031 45.7969 21.1875
Q45.7969 27.6406 41.2812 31.2656
Q36.7656 34.9062 28.7188 34.9062
L20.2188 34.9062
L20.2188 43.0156
L29.1094 43.0156
Q36.375 43.0156 40.2344 45.9219
Q44.0938 48.8281 44.0938 54.2969
Q44.0938 59.9062 40.1094 62.9062
Q36.1406 65.9219 28.7188 65.9219
Q24.6562 65.9219 20.0156 65.0312
Q15.375 64.1562 9.8125 62.3125
L9.8125 71.0938
Q15.4375 72.6562 20.3438 73.4375
Q25.25 74.2188 29.5938 74.2188
Q40.8281 74.2188 47.3594 69.1094
Q53.9062 64.0156 53.9062 55.3281
Q53.9062 49.2656 50.4375 45.0938
Q46.9688 40.9219 40.5781 39.3125" id="DejaVuSans-33"/>
      </defs>
      <g transform="translate(483.7209375 401.918125)scale(0.12 -0.12)">
       <use xlink:href="#DejaVuSans-33"/>
       <use x="63.623046875" xlink:href="#DejaVuSans-30"/>
      </g>
     </g>
    </g>
   </g>
   <g id="matplotlib.axis_2">
    <g id="ytick_1">
     <g id="line2d_17">
      <defs>
       <path d="
M0 0
L4 0" id="m728421d6d4" style="stroke:#000000;stroke-width:0.5;"/>
      </defs>
      <g>
       <use style="stroke:#000000;stroke-width:0.5;" x="72.0" xlink:href="#m728421d6d4" y="356.990936194"/>
      </g>
     </g>
     <g id="line2d_18">
      <defs>
       <path d="
M0 0
L-4 0" id="mcb0005524f" style="stroke:#000000;stroke-width:0.5;"/>
      </defs>
      <g>
       <use style="stroke:#000000;stroke-width:0.5;" x="518.4" xlink:href="#mcb0005524f" y="356.990936194"/>
      </g>
     </g>
     <g id="text_8">
      <!-- 0.5 -->
      <defs>
       <path d="
M10.6875 12.4062
L21 12.4062
L21 0
L10.6875 0
z
" id="DejaVuSans-2e"/>
       <path d="
M10.5938 35.5
L73.1875 35.5
L73.1875 27.2031
L10.5938 27.2031
z
" id="DejaVuSans-2212"/>
      </defs>
      <g transform="translate(41.18 360.302186194)scale(0.12 -0.12)">
       <use xlink:href="#DejaVuSans-2212"/>
       <use x="83.7890625" xlink:href="#DejaVuSans-30"/>
       <use x="147.412109375" xlink:href="#DejaVuSans-2e"/>
       <use x="179.19921875" xlink:href="#DejaVuSans-35"/>
      </g>
     </g>
    </g>
    <g id="ytick_2">
     <g id="line2d_19">
      <g>
       <use style="stroke:#000000;stroke-width:0.5;" x="72.0" xlink:href="#m728421d6d4" y="255.533735102"/>
      </g>
     </g>
     <g id="line2d_20">
      <g>
       <use style="stroke:#000000;stroke-width:0.5;" x="518.4" xlink:href="#mcb0005524f" y="255.533735102"/>
      </g>
     </g>
     <g id="text_9">
      <!-- 0.0 -->
      <g transform="translate(50.504375 258.844985102)scale(0.12 -0.12)">
       <use xlink:href="#DejaVuSans-30"/>
       <use x="63.623046875" xlink:href="#DejaVuSans-2e"/>
       <use x="95.41015625" xlink:href="#DejaVuSans-30"/>
      </g>
     </g>
    </g>
    <g id="ytick_3">
     <g id="line2d_21">
      <g>
       <use style="stroke:#000000;stroke-width:0.5;" x="72.0" xlink:href="#m728421d6d4" y="154.07653401"/>
      </g>
     </g>
     <g id="line2d_22">
      <g>
       <use style="stroke:#000000;stroke-width:0.5;" x="518.4" xlink:href="#mcb0005524f" y="154.07653401"/>
      </g>
     </g>
     <g id="text_10">
      <!-- 0.5 -->
      <g transform="translate(50.755625 157.38778401)scale(0.12 -0.12)">
       <use xlink:href="#DejaVuSans-30"/>
       <use x="63.623046875" xlink:href="#DejaVuSans-2e"/>
       <use x="95.41015625" xlink:href="#DejaVuSans-35"/>
      </g>
     </g>
    </g>
    <g id="ytick_4">
     <g id="line2d_23">
      <g>
       <use style="stroke:#000000;stroke-width:0.5;" x="72.0" xlink:href="#m728421d6d4" y="52.6193329175"/>
      </g>
     </g>
     <g id="line2d_24">
      <g>
       <use style="stroke:#000000;stroke-width:0.5;" x="518.4" xlink:href="#mcb0005524f" y="52.6193329175"/>
      </g>
     </g>
     <g id="text_11">
      <!-- 1.0 -->
      <g transform="translate(51.03125 55.9305829175)scale(0.12 -0.12)">
       <use xlink:href="#DejaVuSans-31"/>
       <use x="63.623046875" xlink:href="#DejaVuSans-2e"/>
       <use x="95.41015625" xlink:href="#DejaVuSans-30"/>
      </g>
     </g>
    </g>
   </g>
   <g id="patch_3">
    <path d="
M72 43.2
L518.4 43.2" style="fill:none;stroke:#000000;"/>
   </g>
   <g id="patch_4">
    <path d="
M518.4 388.8
L518.4 43.2" style="fill:none;stroke:#000000;"/>
   </g>
   <g id="patch_5">
    <path d="
M72 388.8
L518.4 388.8" style="fill:none;stroke:#000000;"/>
   </g>
   <g id="patch_6">
    <path d="
M72 388.8
L72 43.2" style="fill:none;stroke:#000000;"/>
   </g>
   <g id="legend_1">
    <g id="patch_7">
     <path d="
M354.157 96.9045
L511.2 96.9045
L511.2 50.4
L354.157 50.4
L354.157 96.9045
z
" style="fill:#ffffff;stroke:#000000;"/>
    </g>
    <g id="line2d_25">
     <path d="
M364.237 62.0617
L384.397 62.0617" style="fill:none;stroke:#0000ff;stroke-linecap:square;"/>
    </g>
    <g id="line2d_26"/>
    <g id="text_12">
     <!-- estimated HRF -->
     <defs>
      <path d="
M52 44.1875
Q55.375 50.25 60.0625 53.125
Q64.75 56 71.0938 56
Q79.6406 56 84.2812 50.0156
Q88.9219 44.0469 88.9219 33.0156
L88.9219 0
L79.8906 0
L79.8906 32.7188
Q79.8906 40.5781 77.0938 44.375
Q74.3125 48.1875 68.6094 48.1875
Q61.625 48.1875 57.5625 43.5469
Q53.5156 38.9219 53.5156 30.9062
L53.5156 0
L44.4844 0
L44.4844 32.7188
Q44.4844 40.625 41.7031 44.4062
Q38.9219 48.1875 33.1094 48.1875
Q26.2188 48.1875 22.1562 43.5312
Q18.1094 38.875 18.1094 30.9062
L18.1094 0
L9.07812 0
L9.07812 54.6875
L18.1094 54.6875
L18.1094 46.1875
Q21.1875 51.2188 25.4844 53.6094
Q29.7812 56 35.6875 56
Q41.6562 56 45.8281 52.9688
Q50 49.9531 52 44.1875" id="DejaVuSans-6d"/>
      <path d="
M44.3906 34.1875
Q47.5625 33.1094 50.5625 29.5938
Q53.5625 26.0781 56.5938 19.9219
L66.6094 0
L56 0
L46.6875 18.7031
Q43.0625 26.0312 39.6719 28.4219
Q36.2812 30.8125 30.4219 30.8125
L19.6719 30.8125
L19.6719 0
L9.8125 0
L9.8125 72.9062
L32.0781 72.9062
Q44.5781 72.9062 50.7344 67.6719
Q56.8906 62.4531 56.8906 51.9062
Q56.8906 45.0156 53.6875 40.4688
Q50.4844 35.9375 44.3906 34.1875
M19.6719 64.7969
L19.6719 38.9219
L32.0781 38.9219
Q39.2031 38.9219 42.8438 42.2188
Q46.4844 45.5156 46.4844 51.9062
Q46.4844 58.2969 42.8438 61.5469
Q39.2031 64.7969 32.0781 64.7969
z
" id="DejaVuSans-52"/>
      <path d="
M9.8125 72.9062
L51.7031 72.9062
L51.7031 64.5938
L19.6719 64.5938
L19.6719 43.1094
L48.5781 43.1094
L48.5781 34.8125
L19.6719 34.8125
L19.6719 0
L9.8125 0
z
" id="DejaVuSans-46"/>
      <path id="DejaVuSans-20"/>
      <path d="
M9.42188 54.6875
L18.4062 54.6875
L18.4062 0
L9.42188 0
z

M9.42188 75.9844
L18.4062 75.9844
L18.4062 64.5938
L9.42188 64.5938
z
" id="DejaVuSans-69"/>
      <path d="
M18.3125 70.2188
L18.3125 54.6875
L36.8125 54.6875
L36.8125 47.7031
L18.3125 47.7031
L18.3125 18.0156
Q18.3125 11.3281 20.1406 9.42188
Q21.9688 7.51562 27.5938 7.51562
L36.8125 7.51562
L36.8125 0
L27.5938 0
Q17.1875 0 13.2344 3.875
Q9.28125 7.76562 9.28125 18.0156
L9.28125 47.7031
L2.6875 47.7031
L2.6875 54.6875
L9.28125 54.6875
L9.28125 70.2188
z
" id="DejaVuSans-74"/>
      <path d="
M45.4062 46.3906
L45.4062 75.9844
L54.3906 75.9844
L54.3906 0
L45.4062 0
L45.4062 8.20312
Q42.5781 3.32812 38.25 0.953125
Q33.9375 -1.42188 27.875 -1.42188
Q17.9688 -1.42188 11.7344 6.48438
Q5.51562 14.4062 5.51562 27.2969
Q5.51562 40.1875 11.7344 48.0938
Q17.9688 56 27.875 56
Q33.9375 56 38.25 53.625
Q42.5781 51.2656 45.4062 46.3906
M14.7969 27.2969
Q14.7969 17.3906 18.875 11.75
Q22.9531 6.10938 30.0781 6.10938
Q37.2031 6.10938 41.2969 11.75
Q45.4062 17.3906 45.4062 27.2969
Q45.4062 37.2031 41.2969 42.8438
Q37.2031 48.4844 30.0781 48.4844
Q22.9531 48.4844 18.875 42.8438
Q14.7969 37.2031 14.7969 27.2969" id="DejaVuSans-64"/>
      <path d="
M56.2031 29.5938
L56.2031 25.2031
L14.8906 25.2031
Q15.4844 15.9219 20.4844 11.0625
Q25.4844 6.20312 34.4219 6.20312
Q39.5938 6.20312 44.4531 7.46875
Q49.3125 8.73438 54.1094 11.2812
L54.1094 2.78125
Q49.2656 0.734375 44.1875 -0.34375
Q39.1094 -1.42188 33.8906 -1.42188
Q20.7969 -1.42188 13.1562 6.1875
Q5.51562 13.8125 5.51562 26.8125
Q5.51562 40.2344 12.7656 48.1094
Q20.0156 56 32.3281 56
Q43.3594 56 49.7812 48.8906
Q56.2031 41.7969 56.2031 29.5938
M47.2188 32.2344
Q47.125 39.5938 43.0938 43.9844
Q39.0625 48.3906 32.4219 48.3906
Q24.9062 48.3906 20.3906 44.1406
Q15.875 39.8906 15.1875 32.1719
z
" id="DejaVuSans-65"/>
      <path d="
M9.8125 72.9062
L19.6719 72.9062
L19.6719 43.0156
L55.5156 43.0156
L55.5156 72.9062
L65.375 72.9062
L65.375 0
L55.5156 0
L55.5156 34.7188
L19.6719 34.7188
L19.6719 0
L9.8125 0
z
" id="DejaVuSans-48"/>
      <path d="
M44.2812 53.0781
L44.2812 44.5781
Q40.4844 46.5312 36.375 47.5
Q32.2812 48.4844 27.875 48.4844
Q21.1875 48.4844 17.8438 46.4375
Q14.5 44.3906 14.5 40.2812
Q14.5 37.1562 16.8906 35.375
Q19.2812 33.5938 26.5156 31.9844
L29.5938 31.2969
Q39.1562 29.25 43.1875 25.5156
Q47.2188 21.7812 47.2188 15.0938
Q47.2188 7.46875 41.1875 3.01562
Q35.1562 -1.42188 24.6094 -1.42188
Q20.2188 -1.42188 15.4531 -0.5625
Q10.6875 0.296875 5.42188 2
L5.42188 11.2812
Q10.4062 8.6875 15.2344 7.39062
Q20.0625 6.10938 24.8125 6.10938
Q31.1562 6.10938 34.5625 8.28125
Q37.9844 10.4531 37.9844 14.4062
Q37.9844 18.0625 35.5156 20.0156
Q33.0625 21.9688 24.7031 23.7812
L21.5781 24.5156
Q13.2344 26.2656 9.51562 29.9062
Q5.8125 33.5469 5.8125 39.8906
Q5.8125 47.6094 11.2812 51.7969
Q16.75 56 26.8125 56
Q31.7812 56 36.1719 55.2656
Q40.5781 54.5469 44.2812 53.0781" id="DejaVuSans-73"/>
      <path d="
M34.2812 27.4844
Q23.3906 27.4844 19.1875 25
Q14.9844 22.5156 14.9844 16.5
Q14.9844 11.7188 18.1406 8.90625
Q21.2969 6.10938 26.7031 6.10938
Q34.1875 6.10938 38.7031 11.4062
Q43.2188 16.7031 43.2188 25.4844
L43.2188 27.4844
z

M52.2031 31.2031
L52.2031 0
L43.2188 0
L43.2188 8.29688
Q40.1406 3.32812 35.5469 0.953125
Q30.9531 -1.42188 24.3125 -1.42188
Q15.9219 -1.42188 10.9531 3.29688
Q6 8.01562 6 15.9219
Q6 25.1406 12.1719 29.8281
Q18.3594 34.5156 30.6094 34.5156
L43.2188 34.5156
L43.2188 35.4062
Q43.2188 41.6094 39.1406 45
Q35.0625 48.3906 27.6875 48.3906
Q23 48.3906 18.5469 47.2656
Q14.1094 46.1406 10.0156 43.8906
L10.0156 52.2031
Q14.9375 54.1094 19.5781 55.0469
Q24.2188 56 28.6094 56
Q40.4844 56 46.3438 49.8438
Q52.2031 43.7031 52.2031 31.2031" id="DejaVuSans-61"/>
     </defs>
     <g transform="translate(400.236875 67.10175)scale(0.144 -0.144)">
      <use xlink:href="#DejaVuSans-65"/>
      <use x="61.5234375" xlink:href="#DejaVuSans-73"/>
      <use x="113.623046875" xlink:href="#DejaVuSans-74"/>
      <use x="152.83203125" xlink:href="#DejaVuSans-69"/>
      <use x="180.615234375" xlink:href="#DejaVuSans-6d"/>
      <use x="278.02734375" xlink:href="#DejaVuSans-61"/>
      <use x="339.306640625" xlink:href="#DejaVuSans-74"/>
      <use x="378.515625" xlink:href="#DejaVuSans-65"/>
      <use x="440.0390625" xlink:href="#DejaVuSans-64"/>
      <use x="503.515625" xlink:href="#DejaVuSans-20"/>
      <use x="535.302734375" xlink:href="#DejaVuSans-48"/>
      <use x="610.498046875" xlink:href="#DejaVuSans-52"/>
      <use x="679.98046875" xlink:href="#DejaVuSans-46"/>
     </g>
    </g>
    <g id="line2d_27">
     <path d="
M364.237 83.1983
L384.397 83.1983" style="fill:none;stroke:#008000;stroke-linecap:square;"/>
    </g>
    <g id="line2d_28"/>
    <g id="text_13">
     <!-- glover HRF -->
     <defs>
      <path d="
M30.6094 48.3906
Q23.3906 48.3906 19.1875 42.75
Q14.9844 37.1094 14.9844 27.2969
Q14.9844 17.4844 19.1562 11.8438
Q23.3438 6.20312 30.6094 6.20312
Q37.7969 6.20312 41.9844 11.8594
Q46.1875 17.5312 46.1875 27.2969
Q46.1875 37.0156 41.9844 42.7031
Q37.7969 48.3906 30.6094 48.3906
M30.6094 56
Q42.3281 56 49.0156 48.375
Q55.7188 40.7656 55.7188 27.2969
Q55.7188 13.875 49.0156 6.21875
Q42.3281 -1.42188 30.6094 -1.42188
Q18.8438 -1.42188 12.1719 6.21875
Q5.51562 13.875 5.51562 27.2969
Q5.51562 40.7656 12.1719 48.375
Q18.8438 56 30.6094 56" id="DejaVuSans-6f"/>
      <path d="
M45.4062 27.9844
Q45.4062 37.75 41.375 43.1094
Q37.3594 48.4844 30.0781 48.4844
Q22.8594 48.4844 18.8281 43.1094
Q14.7969 37.75 14.7969 27.9844
Q14.7969 18.2656 18.8281 12.8906
Q22.8594 7.51562 30.0781 7.51562
Q37.3594 7.51562 41.375 12.8906
Q45.4062 18.2656 45.4062 27.9844
M54.3906 6.78125
Q54.3906 -7.17188 48.1875 -13.9844
Q42 -20.7969 29.2031 -20.7969
Q24.4688 -20.7969 20.2656 -20.0938
Q16.0625 -19.3906 12.1094 -17.9219
L12.1094 -9.1875
Q16.0625 -11.3281 19.9219 -12.3438
Q23.7812 -13.375 27.7812 -13.375
Q36.625 -13.375 41.0156 -8.76562
Q45.4062 -4.15625 45.4062 5.17188
L45.4062 9.625
Q42.625 4.78125 38.2812 2.39062
Q33.9375 0 27.875 0
Q17.8281 0 11.6719 7.65625
Q5.51562 15.3281 5.51562 27.9844
Q5.51562 40.6719 11.6719 48.3281
Q17.8281 56 27.875 56
Q33.9375 56 38.2812 53.6094
Q42.625 51.2188 45.4062 46.3906
L45.4062 54.6875
L54.3906 54.6875
z
" id="DejaVuSans-67"/>
      <path d="
M2.98438 54.6875
L12.5 54.6875
L29.5938 8.79688
L46.6875 54.6875
L56.2031 54.6875
L35.6875 0
L23.4844 0
z
" id="DejaVuSans-76"/>
      <path d="
M9.42188 75.9844
L18.4062 75.9844
L18.4062 0
L9.42188 0
z
" id="DejaVuSans-6c"/>
      <path d="
M41.1094 46.2969
Q39.5938 47.1719 37.8125 47.5781
Q36.0312 48 33.8906 48
Q26.2656 48 22.1875 43.0469
Q18.1094 38.0938 18.1094 28.8125
L18.1094 0
L9.07812 0
L9.07812 54.6875
L18.1094 54.6875
L18.1094 46.1875
Q20.9531 51.1719 25.4844 53.5781
Q30.0312 56 36.5312 56
Q37.4531 56 38.5781 55.875
Q39.7031 55.7656 41.0625 55.5156
z
" id="DejaVuSans-72"/>
     </defs>
     <g transform="translate(400.236875 88.23825)scale(0.144 -0.144)">
      <use xlink:href="#DejaVuSans-67"/>
      <use x="63.4765625" xlink:href="#DejaVuSans-6c"/>
      <use x="91.259765625" xlink:href="#DejaVuSans-6f"/>
      <use x="152.44140625" xlink:href="#DejaVuSans-76"/>
      <use x="211.62109375" xlink:href="#DejaVuSans-65"/>
      <use x="273.14453125" xlink:href="#DejaVuSans-72"/>
      <use x="314.2578125" xlink:href="#DejaVuSans-20"/>
      <use x="346.044921875" xlink:href="#DejaVuSans-48"/>
      <use x="421.240234375" xlink:href="#DejaVuSans-52"/>
      <use x="490.72265625" xlink:href="#DejaVuSans-46"/>
     </g>
    </g>
   </g>
  </g>
 </g>
 <defs>
  <clipPath id="p7ff5b81e1d">
   <rect height="345.6" width="446.4" x="72.0" y="43.2"/>
  </clipPath>
 </defs>
</svg>
