<?xml version="1.0" encoding="utf-8" standalone="no"?>
<!DOCTYPE svg PUBLIC "-//W3C//DTD SVG 1.1//EN"
  "http://www.w3.org/Graphics/SVG/1.1/DTD/svg11.dtd">
<!-- Created with matplotlib (http://matplotlib.org/) -->
<svg height="432pt" version="1.1" viewBox="0 0 576 432" width="576pt" xmlns="http://www.w3.org/2000/svg" xmlns:xlink="http://www.w3.org/1999/xlink">
 <defs>
  <style type="text/css">
*{stroke-linecap:butt;stroke-linejoin:round;}
  </style>
 </defs>
 <g id="figure_1">
  <g id="patch_1">
   <path d="
M0 432
L576 432
L576 0
L0 0
z
" style="fill:#ffffff;"/>
  </g>
  <g id="axes_1">
   <g id="patch_2">
    <path d="
M72 388.8
L518.4 388.8
L518.4 43.2
L72 43.2
z
" style="fill:#ffffff;"/>
   </g>
   <g id="PolyCollection_1">
    <defs>
     <path d="
M72 -194.202
L72 -194.202
L73.395 -172.769
L73.395 -172.769
L73.395 -172.769
L73.395 -172.769
L76.185 -143.928
L76.185 -143.928
L76.185 -143.928
L76.185 -143.928
L76.185 -143.928
L76.185 -143.928
L76.185 -143.928
L76.185 -143.928
L76.185 -143.928
L76.185 -143.928
L76.185 -143.928
L77.58 -135.735
L77.58 -135.735
L77.58 -135.735
L77.58 -135.735
L78.975 -130.9
L81.765 -128.395
L81.765 -128.395
L81.765 -128.395
L81.765 -128.395
L81.765 -128.395
L81.765 -128.395
L81.765 -128.395
L81.765 -128.395
L81.765 -128.395
L83.16 -129.308
L83.16 -129.308
L83.16 -129.308
L83.16 -129.308
L84.555 -130.896
L84.555 -130.896
L84.555 -130.896
L84.555 -130.896
L85.95 -132.804
L85.95 -132.804
L85.95 -132.804
L85.95 -132.804
L85.95 -132.804
L85.95 -132.804
L85.95 -132.804
L85.95 -132.804
L85.95 -132.804
L87.345 -134.862
L87.345 -134.862
L87.345 -134.862
L87.345 -134.862
L88.74 -137.039
L88.74 -137.039
L88.74 -137.039
L88.74 -137.039
L88.74 -137.039
L88.74 -137.039
L90.135 -139.37
L91.53 -141.887
L91.53 -141.887
L91.53 -141.887
L92.925 -144.574
L92.925 -144.574
L92.925 -144.574
L92.925 -144.574
L92.925 -144.574
L92.925 -144.574
L92.925 -144.574
L92.925 -144.574
L92.925 -144.574
L92.925 -144.574
L92.925 -144.574
L94.32 -147.366
L94.32 -147.366
L94.32 -147.366
L95.715 -150.171
L95.715 -150.171
L95.715 -150.171
L95.715 -150.171
L97.11 -152.917
L97.11 -152.917
L97.11 -152.917
L98.505 -155.58
L98.505 -155.58
L98.505 -155.58
L98.505 -155.58
L98.505 -155.58
L98.505 -155.58
L98.505 -155.58
L98.505 -155.58
L102.69 -163.388
L102.69 -163.388
L102.69 -163.388
L102.69 -163.388
L102.69 -163.388
L102.69 -163.388
L104.085 -165.956
L104.085 -165.956
L105.48 -168.385
L105.48 -168.385
L105.48 -168.385
L105.48 -168.385
L106.875 -170.524
L106.875 -170.524
L106.875 -170.524
L108.27 -172.205
L108.27 -172.205
L108.27 -172.205
L108.27 -172.205
L108.27 -172.205
L108.27 -172.205
L108.27 -172.205
L108.27 -172.205
L108.27 -172.205
L108.27 -172.205
L108.27 -172.205
L108.27 -172.205
L108.27 -172.205
L108.27 -172.205
L108.27 -172.205
L108.27 -172.205
L109.665 -173.288
L109.665 -173.288
L109.665 -173.288
L111.06 -173.705
L112.455 -173.498
L112.455 -173.498
L113.85 -172.844
L113.85 -172.844
L113.85 -172.844
L113.85 -172.844
L113.85 -172.844
L115.245 -172.049
L115.245 -172.049
L115.245 -172.049
L115.245 -172.049
L118.035 -171.738
L118.035 -171.738
L118.035 -171.738
L118.035 -171.738
L118.035 -171.738
L118.035 -171.738
L118.035 -171.738
L118.035 -171.738
L118.035 -171.738
L118.035 -171.738
L118.035 -171.738
L119.43 -173.16
L119.43 -173.16
L119.43 -173.16
L119.43 -173.16
L120.825 -176.202
L123.615 -188.269
L123.615 -188.269
L123.615 -188.269
L123.615 -188.269
L123.615 -188.269
L123.615 -188.269
L123.615 -188.269
L123.615 -188.269
L123.615 -188.269
L125.01 -197.498
L125.01 -197.498
L125.01 -197.498
L125.01 -197.498
L126.405 -208.72
L126.405 -208.72
L126.405 -208.72
L126.405 -208.72
L127.8 -221.616
L127.8 -221.616
L127.8 -221.616
L127.8 -221.616
L127.8 -221.616
L127.8 -221.616
L127.8 -221.616
L127.8 -221.616
L127.8 -221.616
L129.195 -235.698
L129.195 -235.698
L129.195 -235.698
L129.195 -235.698
L130.59 -250.324
L130.59 -250.324
L130.59 -250.324
L130.59 -250.324
L130.59 -250.324
L130.59 -250.324
L131.985 -264.724
L133.38 -278.055
L133.38 -278.055
L133.38 -278.055
L134.775 -289.466
L134.775 -289.466
L134.775 -289.466
L134.775 -289.466
L134.775 -289.466
L134.775 -289.466
L134.775 -289.466
L134.775 -289.466
L134.775 -289.466
L134.775 -289.466
L134.775 -289.466
L136.17 -298.201
L136.17 -298.201
L136.17 -298.201
L137.565 -303.695
L137.565 -303.695
L137.565 -303.695
L137.565 -303.695
L138.96 -305.656
L138.96 -305.656
L138.96 -305.656
L140.355 -304.095
L140.355 -304.095
L140.355 -304.095
L140.355 -304.095
L140.355 -304.095
L140.355 -304.095
L140.355 -304.095
L140.355 -304.095
L144.54 -282.24
L144.54 -282.24
L144.54 -282.24
L144.54 -282.24
L144.54 -282.24
L144.54 -282.24
L145.935 -271.39
L145.935 -271.39
L147.33 -260.03
L147.33 -260.03
L147.33 -260.03
L147.33 -260.03
L148.725 -248.917
L148.725 -248.917
L148.725 -248.917
L150.12 -238.731
L150.12 -238.731
L150.12 -238.731
L150.12 -238.731
L150.12 -238.731
L150.12 -238.731
L150.12 -238.731
L150.12 -238.731
L150.12 -238.731
L150.12 -238.731
L150.12 -238.731
L150.12 -238.731
L150.12 -238.731
L150.12 -238.731
L150.12 -238.731
L150.12 -238.731
L151.515 -230.034
L151.515 -230.034
L151.515 -230.034
L152.91 -223.248
L154.305 -218.636
L154.305 -218.636
L155.7 -216.306
L155.7 -216.306
L155.7 -216.306
L155.7 -216.306
L155.7 -216.306
L157.095 -216.22
L157.095 -216.22
L157.095 -216.22
L157.095 -216.22
L159.885 -222.035
L159.885 -222.035
L159.885 -222.035
L159.885 -222.035
L159.885 -222.035
L159.885 -222.035
L159.885 -222.035
L159.885 -222.035
L159.885 -222.035
L159.885 -222.035
L159.885 -222.035
L161.28 -227.331
L161.28 -227.331
L161.28 -227.331
L161.28 -227.331
L162.675 -233.703
L165.465 -247.904
L165.465 -247.904
L165.465 -247.904
L165.465 -247.904
L165.465 -247.904
L165.465 -247.904
L165.465 -247.904
L165.465 -247.904
L165.465 -247.904
L166.86 -254.821
L166.86 -254.821
L166.86 -254.821
L166.86 -254.821
L168.255 -261.03
L168.255 -261.03
L168.255 -261.03
L168.255 -261.03
L169.65 -266.133
L169.65 -266.133
L169.65 -266.133
L169.65 -266.133
L169.65 -266.133
L169.65 -266.133
L169.65 -266.133
L169.65 -266.133
L169.65 -266.133
L171.045 -269.776
L171.045 -269.776
L171.045 -269.776
L171.045 -269.776
L172.44 -271.655
L172.44 -271.655
L172.44 -271.655
L172.44 -271.655
L172.44 -271.655
L172.44 -271.655
L173.835 -271.53
L175.23 -269.237
L175.23 -269.237
L175.23 -269.237
L176.625 -264.718
L176.625 -264.718
L176.625 -264.718
L176.625 -264.718
L176.625 -264.718
L176.625 -264.718
L176.625 -264.718
L176.625 -264.718
L176.625 -264.718
L176.625 -264.718
L176.625 -264.718
L178.02 -258.048
L178.02 -258.048
L178.02 -258.048
L179.415 -249.453
L179.415 -249.453
L179.415 -249.453
L179.415 -249.453
L180.81 -239.303
L180.81 -239.303
L180.81 -239.303
L182.205 -228.08
L182.205 -228.08
L182.205 -228.08
L182.205 -228.08
L182.205 -228.08
L182.205 -228.08
L182.205 -228.08
L182.205 -228.08
L186.39 -193.477
L186.39 -193.477
L186.39 -193.477
L186.39 -193.477
L186.39 -193.477
L186.39 -193.477
L187.785 -183.388
L187.785 -183.388
L189.18 -174.758
L189.18 -174.758
L189.18 -174.758
L189.18 -174.758
L190.575 -167.906
L190.575 -167.906
L190.575 -167.906
L191.97 -163.058
L191.97 -163.058
L191.97 -163.058
L191.97 -163.058
L191.97 -163.058
L191.97 -163.058
L191.97 -163.058
L191.97 -163.058
L191.97 -163.058
L191.97 -163.058
L191.97 -163.058
L191.97 -163.058
L191.97 -163.058
L191.97 -163.058
L191.97 -163.058
L191.97 -163.058
L193.365 -160.342
L193.365 -160.342
L193.365 -160.342
L194.76 -159.786
L196.155 -161.323
L196.155 -161.323
L197.55 -164.795
L197.55 -164.795
L197.55 -164.795
L197.55 -164.795
L197.55 -164.795
L198.945 -169.959
L198.945 -169.959
L198.945 -169.959
L198.945 -169.959
L201.735 -184.077
L201.735 -184.077
L201.735 -184.077
L201.735 -184.077
L201.735 -184.077
L201.735 -184.077
L201.735 -184.077
L201.735 -184.077
L201.735 -184.077
L201.735 -184.077
L201.735 -184.077
L203.13 -192.303
L203.13 -192.303
L203.13 -192.303
L203.13 -192.303
L204.525 -200.808
L207.315 -217.256
L207.315 -217.256
L207.315 -217.256
L207.315 -217.256
L207.315 -217.256
L207.315 -217.256
L207.315 -217.256
L207.315 -217.256
L207.315 -217.256
L208.71 -224.539
L208.71 -224.539
L208.71 -224.539
L208.71 -224.539
L210.105 -230.774
L210.105 -230.774
L210.105 -230.774
L210.105 -230.774
L211.5 -235.649
L211.5 -235.649
L211.5 -235.649
L211.5 -235.649
L211.5 -235.649
L211.5 -235.649
L211.5 -235.649
L211.5 -235.649
L211.5 -235.649
L212.895 -238.861
L212.895 -238.861
L212.895 -238.861
L212.895 -238.861
L214.29 -240.12
L214.29 -240.12
L214.29 -240.12
L214.29 -240.12
L214.29 -240.12
L214.29 -240.12
L215.685 -239.164
L217.08 -235.789
L217.08 -235.789
L217.08 -235.789
L218.475 -229.885
L218.475 -229.885
L218.475 -229.885
L218.475 -229.885
L218.475 -229.885
L218.475 -229.885
L218.475 -229.885
L218.475 -229.885
L218.475 -229.885
L218.475 -229.885
L218.475 -229.885
L219.87 -221.489
L219.87 -221.489
L219.87 -221.489
L221.265 -210.827
L221.265 -210.827
L221.265 -210.827
L221.265 -210.827
L222.66 -198.336
L222.66 -198.336
L222.66 -198.336
L224.055 -184.639
L224.055 -184.639
L224.055 -184.639
L224.055 -184.639
L224.055 -184.639
L224.055 -184.639
L224.055 -184.639
L224.055 -184.639
L228.24 -143.864
L228.24 -143.864
L228.24 -143.864
L228.24 -143.864
L228.24 -143.864
L228.24 -143.864
L229.635 -132.797
L229.635 -132.797
L231.03 -123.942
L231.03 -123.942
L231.03 -123.942
L231.03 -123.942
L232.425 -117.638
L232.425 -117.638
L232.425 -117.638
L233.82 -114.047
L233.82 -114.047
L233.82 -114.047
L233.82 -114.047
L233.82 -114.047
L233.82 -114.047
L233.82 -114.047
L233.82 -114.047
L233.82 -114.047
L233.82 -114.047
L233.82 -114.047
L233.82 -114.047
L233.82 -114.047
L233.82 -114.047
L233.82 -114.047
L233.82 -114.047
L235.215 -113.16
L235.215 -113.16
L235.215 -113.16
L236.61 -114.805
L238.005 -118.668
L238.005 -118.668
L239.4 -124.314
L239.4 -124.314
L239.4 -124.314
L239.4 -124.314
L239.4 -124.314
L240.795 -131.218
L240.795 -131.218
L240.795 -131.218
L240.795 -131.218
L243.585 -146.444
L243.585 -146.444
L243.585 -146.444
L243.585 -146.444
L243.585 -146.444
L243.585 -146.444
L243.585 -146.444
L243.585 -146.444
L243.585 -146.444
L243.585 -146.444
L243.585 -146.444
L244.98 -153.575
L244.98 -153.575
L244.98 -153.575
L244.98 -153.575
L246.375 -159.665
L249.165 -167.113
L249.165 -167.113
L249.165 -167.113
L249.165 -167.113
L249.165 -167.113
L249.165 -167.113
L249.165 -167.113
L249.165 -167.113
L249.165 -167.113
L250.56 -167.961
L250.56 -167.961
L250.56 -167.961
L250.56 -167.961
L251.955 -166.749
L253.35 -163.499
L253.35 -163.499
L253.35 -163.499
L253.35 -163.499
L253.35 -163.499
L253.35 -163.499
L253.35 -163.499
L253.35 -163.499
L253.35 -163.499
L254.745 -158.316
L254.745 -158.316
L254.745 -158.316
L254.745 -158.316
L256.14 -151.37
L256.14 -151.37
L256.14 -151.37
L256.14 -151.37
L256.14 -151.37
L256.14 -151.37
L257.535 -142.885
L258.93 -133.135
L258.93 -133.135
L258.93 -133.135
L260.325 -122.449
L260.325 -122.449
L260.325 -122.449
L260.325 -122.449
L260.325 -122.449
L260.325 -122.449
L260.325 -122.449
L260.325 -122.449
L260.325 -122.449
L260.325 -122.449
L260.325 -122.449
L261.72 -111.231
L261.72 -111.231
L261.72 -111.231
L263.115 -99.9769
L263.115 -99.9769
L263.115 -99.9769
L263.115 -99.9769
L264.51 -89.2659
L264.51 -89.2659
L264.51 -89.2659
L265.905 -79.7329
L265.905 -79.7329
L265.905 -79.7329
L265.905 -79.7329
L265.905 -79.7329
L265.905 -79.7329
L265.905 -79.7329
L265.905 -79.7329
L270.09 -64.0759
L270.09 -64.0759
L270.09 -64.0759
L270.09 -64.0759
L270.09 -64.0759
L270.09 -64.0759
L271.485 -64.5354
L271.485 -64.5354
L272.88 -68.0719
L272.88 -68.0719
L272.88 -68.0719
L272.88 -68.0719
L274.275 -74.5272
L274.275 -74.5272
L274.275 -74.5272
L275.67 -83.5517
L275.67 -83.5517
L275.67 -83.5517
L275.67 -83.5517
L275.67 -83.5517
L275.67 -83.5517
L275.67 -83.5517
L275.67 -83.5517
L275.67 -83.5517
L275.67 -83.5517
L275.67 -83.5517
L275.67 -83.5517
L275.67 -83.5517
L275.67 -83.5517
L275.67 -83.5517
L275.67 -83.5517
L277.065 -94.6291
L277.065 -94.6291
L277.065 -94.6291
L278.46 -107.11
L279.855 -120.25
L279.855 -120.25
L281.25 -133.254
L281.25 -133.254
L281.25 -133.254
L281.25 -133.254
L281.25 -133.254
L282.645 -145.324
L282.645 -145.324
L282.645 -145.324
L282.645 -145.324
L285.435 -163.744
L285.435 -163.744
L285.435 -163.744
L285.435 -163.744
L285.435 -163.744
L285.435 -163.744
L285.435 -163.744
L285.435 -163.744
L285.435 -163.744
L285.435 -163.744
L285.435 -163.744
L286.83 -168.934
L286.83 -168.934
L286.83 -168.934
L286.83 -168.934
L288.225 -170.962
L291.015 -165.343
L291.015 -165.343
L291.015 -165.343
L291.015 -165.343
L291.015 -165.343
L291.015 -165.343
L291.015 -165.343
L291.015 -165.343
L291.015 -165.343
L292.41 -158.117
L292.41 -158.117
L292.41 -158.117
L292.41 -158.117
L293.805 -148.507
L295.2 -137.07
L295.2 -137.07
L295.2 -137.07
L295.2 -137.07
L295.2 -137.07
L295.2 -137.07
L295.2 -137.07
L295.2 -137.07
L295.2 -137.07
L296.595 -124.418
L296.595 -124.418
L296.595 -124.418
L296.595 -124.418
L297.99 -111.165
L297.99 -111.165
L297.99 -111.165
L297.99 -111.165
L297.99 -111.165
L297.99 -111.165
L299.385 -97.8926
L300.78 -85.1233
L300.78 -85.1233
L300.78 -85.1233
L302.175 -73.3174
L302.175 -73.3174
L302.175 -73.3174
L302.175 -73.3174
L302.175 -73.3174
L302.175 -73.3174
L302.175 -73.3174
L302.175 -73.3174
L302.175 -73.3174
L302.175 -73.3174
L302.175 -73.3174
L303.57 -62.8795
L303.57 -62.8795
L304.965 -54.1729
L304.965 -54.1729
L304.965 -54.1729
L304.965 -54.1729
L306.36 -47.5229
L306.36 -47.5229
L306.36 -47.5229
L307.755 -43.2
L307.755 -43.2
L307.755 -43.2
L307.755 -43.2
L307.755 -43.2
L307.755 -43.2
L307.755 -43.2
L307.755 -43.2
L311.94 -45.3363
L311.94 -45.3363
L311.94 -45.3363
L311.94 -45.3363
L311.94 -45.3363
L311.94 -45.3363
L313.335 -50.7335
L313.335 -50.7335
L314.73 -57.9074
L314.73 -57.9074
L314.73 -57.9074
L314.73 -57.9074
L316.125 -66.3218
L316.125 -66.3218
L316.125 -66.3218
L317.52 -75.3619
L317.52 -75.3619
L317.52 -75.3619
L317.52 -75.3619
L317.52 -75.3619
L317.52 -75.3619
L317.52 -75.3619
L317.52 -75.3619
L317.52 -75.3619
L317.52 -75.3619
L317.52 -75.3619
L317.52 -75.3619
L317.52 -75.3619
L317.52 -75.3619
L317.52 -75.3619
L317.52 -75.3619
L318.915 -84.381
L318.915 -84.381
L318.915 -84.381
L320.31 -92.7488
L321.705 -99.8932
L321.705 -99.8932
L323.1 -105.336
L323.1 -105.336
L323.1 -105.336
L323.1 -105.336
L323.1 -105.336
L324.495 -108.721
L324.495 -108.721
L324.495 -108.721
L324.495 -108.721
L327.285 -108.629
L327.285 -108.629
L327.285 -108.629
L327.285 -108.629
L327.285 -108.629
L327.285 -108.629
L327.285 -108.629
L327.285 -108.629
L327.285 -108.629
L327.285 -108.629
L327.285 -108.629
L328.68 -105.236
L328.68 -105.236
L328.68 -105.236
L328.68 -105.236
L330.075 -99.9742
L332.865 -85.9512
L332.865 -85.9512
L332.865 -85.9512
L332.865 -85.9512
L332.865 -85.9512
L332.865 -85.9512
L332.865 -85.9512
L332.865 -85.9512
L332.865 -85.9512
L334.26 -78.5275
L334.26 -78.5275
L334.26 -78.5275
L334.26 -78.5275
L335.655 -71.7765
L337.05 -66.3395
L337.05 -66.3395
L337.05 -66.3395
L337.05 -66.3395
L337.05 -66.3395
L337.05 -66.3395
L337.05 -66.3395
L337.05 -66.3395
L337.05 -66.3395
L338.445 -62.7202
L338.445 -62.7202
L338.445 -62.7202
L338.445 -62.7202
L339.84 -61.2332
L339.84 -61.2332
L339.84 -61.2332
L339.84 -61.2332
L339.84 -61.2332
L339.84 -61.2332
L341.235 -61.9744
L342.63 -64.82
L342.63 -64.82
L342.63 -64.82
L344.025 -69.4553
L344.025 -69.4553
L344.025 -69.4553
L344.025 -69.4553
L344.025 -69.4553
L344.025 -69.4553
L344.025 -69.4553
L344.025 -69.4553
L344.025 -69.4553
L344.025 -69.4553
L344.025 -69.4553
L345.42 -75.4323
L345.42 -75.4323
L346.815 -82.2395
L346.815 -82.2395
L346.815 -82.2395
L346.815 -82.2395
L348.21 -89.364
L348.21 -89.364
L348.21 -89.364
L349.605 -96.3286
L349.605 -96.3286
L349.605 -96.3286
L349.605 -96.3286
L349.605 -96.3286
L349.605 -96.3286
L349.605 -96.3286
L349.605 -96.3286
L353.79 -112.209
L353.79 -112.209
L353.79 -112.209
L353.79 -112.209
L353.79 -112.209
L353.79 -112.209
L355.185 -114.742
L355.185 -114.742
L356.58 -115.518
L356.58 -115.518
L356.58 -115.518
L357.975 -114.451
L357.975 -114.451
L357.975 -114.451
L359.37 -111.567
L359.37 -111.567
L359.37 -111.567
L359.37 -111.567
L359.37 -111.567
L359.37 -111.567
L359.37 -111.567
L359.37 -111.567
L359.37 -111.567
L359.37 -111.567
L359.37 -111.567
L359.37 -111.567
L359.37 -111.567
L359.37 -111.567
L359.37 -111.567
L359.37 -111.567
L360.765 -107.015
L360.765 -107.015
L360.765 -107.015
L362.16 -101.054
L363.555 -94.0397
L363.555 -94.0397
L364.95 -86.3875
L364.95 -86.3875
L364.95 -86.3875
L364.95 -86.3875
L364.95 -86.3875
L366.345 -78.5327
L366.345 -78.5327
L366.345 -78.5327
L366.345 -78.5327
L369.135 -63.824
L369.135 -63.824
L369.135 -63.824
L369.135 -63.824
L369.135 -63.824
L369.135 -63.824
L369.135 -63.824
L369.135 -63.824
L369.135 -63.824
L369.135 -63.824
L369.135 -63.824
L370.53 -57.6314
L370.53 -57.6314
L370.53 -57.6314
L370.53 -57.6314
L371.925 -52.5429
L374.715 -46.3119
L374.715 -46.3119
L374.715 -46.3119
L374.715 -46.3119
L374.715 -46.3119
L374.715 -46.3119
L374.715 -46.3119
L374.715 -46.3119
L374.715 -46.3119
L376.11 -45.3535
L376.11 -45.3535
L376.11 -45.3535
L376.11 -45.3535
L377.505 -45.8609
L378.9 -47.7734
L378.9 -47.7734
L378.9 -47.7734
L378.9 -47.7734
L378.9 -47.7734
L378.9 -47.7734
L378.9 -47.7734
L378.9 -47.7734
L378.9 -47.7734
L380.295 -50.96
L380.295 -50.96
L380.295 -50.96
L380.295 -50.96
L381.69 -55.2223
L381.69 -55.2223
L381.69 -55.2223
L381.69 -55.2223
L381.69 -55.2223
L381.69 -55.2223
L383.085 -60.3068
L384.48 -65.9288
L384.48 -65.9288
L384.48 -65.9288
L385.875 -71.809
L385.875 -71.809
L385.875 -71.809
L385.875 -71.809
L385.875 -71.809
L385.875 -71.809
L385.875 -71.809
L385.875 -71.809
L385.875 -71.809
L385.875 -71.809
L385.875 -71.809
L387.27 -77.7197
L387.27 -77.7197
L388.665 -83.5272
L388.665 -83.5272
L388.665 -83.5272
L388.665 -83.5272
L390.06 -89.2102
L390.06 -89.2102
L390.06 -89.2102
L391.455 -94.8413
L391.455 -94.8413
L391.455 -94.8413
L391.455 -94.8413
L391.455 -94.8413
L391.455 -94.8413
L391.455 -94.8413
L391.455 -94.8413
L395.64 -112.458
L395.64 -112.458
L395.64 -112.458
L395.64 -112.458
L395.64 -112.458
L395.64 -112.458
L397.035 -118.664
L397.035 -118.664
L398.43 -124.864
L398.43 -124.864
L398.43 -124.864
L399.825 -130.827
L399.825 -130.827
L399.825 -130.827
L401.22 -136.272
L401.22 -136.272
L401.22 -136.272
L401.22 -136.272
L401.22 -136.272
L401.22 -136.272
L401.22 -136.272
L401.22 -136.272
L401.22 -136.272
L401.22 -136.272
L401.22 -136.272
L401.22 -136.272
L401.22 -136.272
L401.22 -136.272
L401.22 -136.272
L401.22 -136.272
L402.615 -140.905
L402.615 -140.905
L402.615 -140.905
L404.01 -144.462
L405.405 -146.742
L405.405 -146.742
L406.8 -147.626
L406.8 -147.626
L406.8 -147.626
L406.8 -147.626
L406.8 -147.626
L408.195 -147.091
L408.195 -147.091
L408.195 -147.091
L410.985 -142.098
L410.985 -142.098
L410.985 -142.098
L410.985 -142.098
L410.985 -142.098
L410.985 -142.098
L410.985 -142.098
L410.985 -142.098
L410.985 -142.098
L410.985 -142.098
L410.985 -142.098
L412.38 -137.99
L412.38 -137.99
L412.38 -137.99
L412.38 -137.99
L413.775 -133.149
L416.565 -122.649
L416.565 -122.649
L416.565 -122.649
L416.565 -122.649
L416.565 -122.649
L416.565 -122.649
L416.565 -122.649
L416.565 -122.649
L416.565 -122.649
L417.96 -117.805
L417.96 -117.805
L417.96 -117.805
L417.96 -117.805
L419.355 -113.817
L420.75 -111.096
L420.75 -111.096
L420.75 -111.096
L420.75 -111.096
L420.75 -111.096
L420.75 -111.096
L420.75 -111.096
L420.75 -111.096
L420.75 -111.096
L422.145 -109.985
L422.145 -109.985
L422.145 -109.985
L422.145 -109.985
L423.54 -110.714
L423.54 -110.714
L423.54 -110.714
L423.54 -110.714
L423.54 -110.714
L423.54 -110.714
L424.935 -113.381
L426.33 -117.944
L426.33 -117.944
L426.33 -117.944
L427.725 -124.235
L427.725 -124.235
L427.725 -124.235
L427.725 -124.235
L427.725 -124.235
L427.725 -124.235
L427.725 -124.235
L427.725 -124.235
L427.725 -124.235
L427.725 -124.235
L427.725 -124.235
L429.12 -131.983
L429.12 -131.983
L430.515 -140.853
L430.515 -140.853
L430.515 -140.853
L430.515 -140.853
L431.91 -150.468
L431.91 -150.468
L431.91 -150.468
L433.305 -160.436
L433.305 -160.436
L433.305 -160.436
L433.305 -160.436
L433.305 -160.436
L433.305 -160.436
L433.305 -160.436
L433.305 -160.436
L437.49 -188.387
L437.49 -188.387
L437.49 -188.387
L437.49 -188.387
L437.49 -188.387
L437.49 -188.387
L438.885 -195.697
L438.885 -195.697
L440.28 -201.366
L440.28 -201.366
L440.28 -201.366
L441.675 -205.07
L441.675 -205.07
L441.675 -205.07
L443.07 -206.55
L443.07 -206.55
L443.07 -206.55
L443.07 -206.55
L443.07 -206.55
L443.07 -206.55
L443.07 -206.55
L443.07 -206.55
L443.07 -206.55
L443.07 -206.55
L443.07 -206.55
L443.07 -206.55
L443.07 -206.55
L443.07 -206.55
L443.07 -206.55
L443.07 -206.55
L444.465 -205.63
L444.465 -205.63
L444.465 -205.63
L445.86 -202.225
L447.255 -196.365
L447.255 -196.365
L448.65 -188.225
L448.65 -188.225
L448.65 -188.225
L448.65 -188.225
L448.65 -188.225
L450.045 -178.163
L450.045 -178.163
L450.045 -178.163
L452.835 -154.685
L452.835 -154.685
L452.835 -154.685
L452.835 -154.685
L452.835 -154.685
L452.835 -154.685
L452.835 -154.685
L452.835 -154.685
L452.835 -154.685
L452.835 -154.685
L452.835 -154.685
L454.23 -142.813
L454.23 -142.813
L454.23 -142.813
L454.23 -142.813
L455.625 -131.921
L458.415 -115.717
L458.415 -115.717
L458.415 -115.717
L458.415 -115.717
L458.415 -115.717
L458.415 -115.717
L458.415 -115.717
L458.415 -115.717
L458.415 -115.717
L459.81 -111.31
L461.205 -109.649
L462.6 -110.697
L462.6 -110.697
L462.6 -110.697
L462.6 -110.697
L462.6 -110.697
L462.6 -110.697
L462.6 -110.697
L462.6 -110.697
L462.6 -110.697
L463.995 -114.225
L463.995 -114.225
L463.995 -114.225
L463.995 -114.225
L465.39 -119.84
L465.39 -119.84
L465.39 -119.84
L465.39 -119.84
L465.39 -119.84
L465.39 -119.84
L466.785 -127.012
L468.18 -135.135
L468.18 -135.135
L468.18 -135.135
L469.575 -143.593
L469.575 -143.593
L469.575 -143.593
L469.575 -143.593
L469.575 -143.593
L469.575 -143.593
L469.575 -143.593
L469.575 -143.593
L469.575 -143.593
L469.575 -143.593
L469.575 -143.593
L470.97 -151.844
L470.97 -151.844
L472.365 -159.493
L472.365 -159.493
L472.365 -159.493
L472.365 -159.493
L473.76 -166.329
L473.76 -166.329
L473.76 -166.329
L475.155 -172.299
L475.155 -172.299
L475.155 -172.299
L475.155 -172.299
L475.155 -172.299
L475.155 -172.299
L475.155 -172.299
L475.155 -172.299
L479.34 -185.639
L479.34 -185.639
L479.34 -185.639
L479.34 -185.639
L479.34 -185.639
L479.34 -185.639
L480.735 -188.755
L480.735 -188.755
L482.13 -191.185
L482.13 -191.185
L482.13 -191.185
L483.525 -192.821
L483.525 -192.821
L483.525 -192.821
L484.92 -193.501
L484.92 -193.501
L484.92 -193.501
L484.92 -193.501
L484.92 -193.501
L484.92 -193.501
L484.92 -193.501
L484.92 -193.501
L484.92 -193.501
L484.92 -193.501
L484.92 -193.501
L484.92 -193.501
L484.92 -193.501
L484.92 -193.501
L484.92 -193.501
L484.92 -193.501
L486.315 -193.012
L486.315 -193.012
L486.315 -193.012
L487.71 -191.113
L489.105 -187.578
L489.105 -187.578
L490.5 -182.264
L490.5 -182.264
L490.5 -182.264
L490.5 -182.264
L490.5 -182.264
L491.895 -175.207
L491.895 -175.207
L491.895 -175.207
L494.685 -157.229
L494.685 -157.229
L494.685 -157.229
L494.685 -157.229
L494.685 -157.229
L494.685 -157.229
L494.685 -157.229
L494.685 -157.229
L494.685 -157.229
L494.685 -157.229
L494.685 -157.229
L496.08 -147.476
L496.08 -147.476
L496.08 -147.476
L496.08 -147.476
L497.475 -138.11
L500.265 -122.878
L500.265 -122.878
L500.265 -122.878
L500.265 -122.878
L500.265 -122.878
L500.265 -122.878
L500.265 -122.878
L500.265 -122.878
L500.265 -122.878
L501.66 -117.847
L503.055 -114.831
L504.45 -113.851
L504.45 -113.851
L504.45 -113.851
L504.45 -113.851
L504.45 -113.851
L504.45 -113.851
L504.45 -113.851
L504.45 -113.851
L504.45 -113.851
L505.845 -114.81
L505.845 -114.81
L505.845 -114.81
L505.845 -114.81
L507.24 -117.542
L507.24 -117.542
L507.24 -117.542
L507.24 -117.542
L507.24 -117.542
L507.24 -117.542
L508.635 -121.877
L510.03 -127.685
L510.03 -127.685
L510.03 -127.685
L511.425 -134.911
L511.425 -134.911
L511.425 -134.911
L511.425 -134.911
L511.425 -134.911
L511.425 -134.911
L511.425 -134.911
L511.425 -134.911
L511.425 -134.911
L511.425 -134.911
L511.425 -134.911
L512.82 -143.57
L512.82 -143.57
L514.215 -153.73
L514.215 -153.73
L514.215 -153.73
L514.215 -153.73
L515.61 -165.489
L515.61 -165.489
L515.61 -165.489
L517.005 -178.95
L517.005 -178.95
L517.005 -178.95
L517.005 -178.95
L517.005 -178.95
L517.005 -178.95
L517.005 -178.95
L518.4 -194.202
L518.4 -194.202
L518.4 -194.202
L517.005 -209.167
L517.005 -209.167
L517.005 -209.167
L517.005 -209.167
L517.005 -209.167
L517.005 -209.167
L517.005 -209.167
L515.61 -219.262
L515.61 -219.262
L515.61 -219.262
L514.215 -225.081
L514.215 -225.081
L514.215 -225.081
L514.215 -225.081
L512.82 -227.409
L512.82 -227.409
L511.425 -227.148
L511.425 -227.148
L511.425 -227.148
L511.425 -227.148
L511.425 -227.148
L511.425 -227.148
L511.425 -227.148
L511.425 -227.148
L511.425 -227.148
L511.425 -227.148
L511.425 -227.148
L510.03 -225.243
L510.03 -225.243
L510.03 -225.243
L508.635 -222.586
L507.24 -219.94
L507.24 -219.94
L507.24 -219.94
L507.24 -219.94
L507.24 -219.94
L507.24 -219.94
L505.845 -217.878
L505.845 -217.878
L505.845 -217.878
L505.845 -217.878
L504.45 -216.76
L504.45 -216.76
L504.45 -216.76
L504.45 -216.76
L504.45 -216.76
L504.45 -216.76
L504.45 -216.76
L504.45 -216.76
L504.45 -216.76
L503.055 -216.755
L501.66 -217.878
L500.265 -220.045
L500.265 -220.045
L500.265 -220.045
L500.265 -220.045
L500.265 -220.045
L500.265 -220.045
L500.265 -220.045
L500.265 -220.045
L500.265 -220.045
L497.475 -226.979
L496.08 -231.498
L496.08 -231.498
L496.08 -231.498
L496.08 -231.498
L494.685 -236.613
L494.685 -236.613
L494.685 -236.613
L494.685 -236.613
L494.685 -236.613
L494.685 -236.613
L494.685 -236.613
L494.685 -236.613
L494.685 -236.613
L494.685 -236.613
L494.685 -236.613
L491.895 -248.496
L491.895 -248.496
L491.895 -248.496
L490.5 -255.11
L490.5 -255.11
L490.5 -255.11
L490.5 -255.11
L490.5 -255.11
L489.105 -261.871
L489.105 -261.871
L487.71 -268.382
L486.315 -274.178
L486.315 -274.178
L486.315 -274.178
L484.92 -278.819
L484.92 -278.819
L484.92 -278.819
L484.92 -278.819
L484.92 -278.819
L484.92 -278.819
L484.92 -278.819
L484.92 -278.819
L484.92 -278.819
L484.92 -278.819
L484.92 -278.819
L484.92 -278.819
L484.92 -278.819
L484.92 -278.819
L484.92 -278.819
L484.92 -278.819
L483.525 -281.953
L483.525 -281.953
L483.525 -281.953
L482.13 -283.343
L482.13 -283.343
L482.13 -283.343
L480.735 -282.87
L480.735 -282.87
L479.34 -280.533
L479.34 -280.533
L479.34 -280.533
L479.34 -280.533
L479.34 -280.533
L479.34 -280.533
L475.155 -264.067
L475.155 -264.067
L475.155 -264.067
L475.155 -264.067
L475.155 -264.067
L475.155 -264.067
L475.155 -264.067
L475.155 -264.067
L473.76 -256.521
L473.76 -256.521
L473.76 -256.521
L472.365 -248.668
L472.365 -248.668
L472.365 -248.668
L472.365 -248.668
L470.97 -240.943
L470.97 -240.943
L469.575 -233.703
L469.575 -233.703
L469.575 -233.703
L469.575 -233.703
L469.575 -233.703
L469.575 -233.703
L469.575 -233.703
L469.575 -233.703
L469.575 -233.703
L469.575 -233.703
L469.575 -233.703
L468.18 -227.193
L468.18 -227.193
L468.18 -227.193
L466.785 -221.563
L465.39 -216.911
L465.39 -216.911
L465.39 -216.911
L465.39 -216.911
L465.39 -216.911
L465.39 -216.911
L463.995 -213.326
L463.995 -213.326
L463.995 -213.326
L463.995 -213.326
L462.6 -210.908
L462.6 -210.908
L462.6 -210.908
L462.6 -210.908
L462.6 -210.908
L462.6 -210.908
L462.6 -210.908
L462.6 -210.908
L462.6 -210.908
L461.205 -209.77
L459.81 -210.026
L458.415 -211.768
L458.415 -211.768
L458.415 -211.768
L458.415 -211.768
L458.415 -211.768
L458.415 -211.768
L458.415 -211.768
L458.415 -211.768
L458.415 -211.768
L455.625 -219.846
L454.23 -226.104
L454.23 -226.104
L454.23 -226.104
L454.23 -226.104
L452.835 -233.676
L452.835 -233.676
L452.835 -233.676
L452.835 -233.676
L452.835 -233.676
L452.835 -233.676
L452.835 -233.676
L452.835 -233.676
L452.835 -233.676
L452.835 -233.676
L452.835 -233.676
L450.045 -251.781
L450.045 -251.781
L450.045 -251.781
L448.65 -261.549
L448.65 -261.549
L448.65 -261.549
L448.65 -261.549
L448.65 -261.549
L447.255 -271.066
L447.255 -271.066
L445.86 -279.662
L444.465 -286.666
L444.465 -286.666
L444.465 -286.666
L443.07 -291.502
L443.07 -291.502
L443.07 -291.502
L443.07 -291.502
L443.07 -291.502
L443.07 -291.502
L443.07 -291.502
L443.07 -291.502
L443.07 -291.502
L443.07 -291.502
L443.07 -291.502
L443.07 -291.502
L443.07 -291.502
L443.07 -291.502
L443.07 -291.502
L443.07 -291.502
L441.675 -293.758
L441.675 -293.758
L441.675 -293.758
L440.28 -293.222
L440.28 -293.222
L440.28 -293.222
L438.885 -289.895
L438.885 -289.895
L437.49 -283.983
L437.49 -283.983
L437.49 -283.983
L437.49 -283.983
L437.49 -283.983
L437.49 -283.983
L433.305 -255.276
L433.305 -255.276
L433.305 -255.276
L433.305 -255.276
L433.305 -255.276
L433.305 -255.276
L433.305 -255.276
L433.305 -255.276
L431.91 -244.086
L431.91 -244.086
L431.91 -244.086
L430.515 -233.176
L430.515 -233.176
L430.515 -233.176
L430.515 -233.176
L429.12 -223.118
L429.12 -223.118
L427.725 -214.366
L427.725 -214.366
L427.725 -214.366
L427.725 -214.366
L427.725 -214.366
L427.725 -214.366
L427.725 -214.366
L427.725 -214.366
L427.725 -214.366
L427.725 -214.366
L427.725 -214.366
L426.33 -207.233
L426.33 -207.233
L426.33 -207.233
L424.935 -201.892
L423.54 -198.4
L423.54 -198.4
L423.54 -198.4
L423.54 -198.4
L423.54 -198.4
L423.54 -198.4
L422.145 -196.717
L422.145 -196.717
L422.145 -196.717
L422.145 -196.717
L420.75 -196.739
L420.75 -196.739
L420.75 -196.739
L420.75 -196.739
L420.75 -196.739
L420.75 -196.739
L420.75 -196.739
L420.75 -196.739
L420.75 -196.739
L419.355 -198.308
L417.96 -201.219
L417.96 -201.219
L417.96 -201.219
L417.96 -201.219
L416.565 -205.225
L416.565 -205.225
L416.565 -205.225
L416.565 -205.225
L416.565 -205.225
L416.565 -205.225
L416.565 -205.225
L416.565 -205.225
L416.565 -205.225
L413.775 -215.3
L412.38 -220.663
L412.38 -220.663
L412.38 -220.663
L412.38 -220.663
L410.985 -225.754
L410.985 -225.754
L410.985 -225.754
L410.985 -225.754
L410.985 -225.754
L410.985 -225.754
L410.985 -225.754
L410.985 -225.754
L410.985 -225.754
L410.985 -225.754
L410.985 -225.754
L408.195 -233.822
L408.195 -233.822
L408.195 -233.822
L406.8 -236.315
L406.8 -236.315
L406.8 -236.315
L406.8 -236.315
L406.8 -236.315
L405.405 -237.583
L405.405 -237.583
L404.01 -237.559
L402.615 -236.229
L402.615 -236.229
L402.615 -236.229
L401.22 -233.614
L401.22 -233.614
L401.22 -233.614
L401.22 -233.614
L401.22 -233.614
L401.22 -233.614
L401.22 -233.614
L401.22 -233.614
L401.22 -233.614
L401.22 -233.614
L401.22 -233.614
L401.22 -233.614
L401.22 -233.614
L401.22 -233.614
L401.22 -233.614
L401.22 -233.614
L399.825 -229.769
L399.825 -229.769
L399.825 -229.769
L398.43 -224.782
L398.43 -224.782
L398.43 -224.782
L397.035 -218.78
L397.035 -218.78
L395.64 -211.934
L395.64 -211.934
L395.64 -211.934
L395.64 -211.934
L395.64 -211.934
L395.64 -211.934
L391.455 -188.66
L391.455 -188.66
L391.455 -188.66
L391.455 -188.66
L391.455 -188.66
L391.455 -188.66
L391.455 -188.66
L391.455 -188.66
L390.06 -180.901
L390.06 -180.901
L390.06 -180.901
L388.665 -173.572
L388.665 -173.572
L388.665 -173.572
L388.665 -173.572
L387.27 -166.839
L387.27 -166.839
L385.875 -160.766
L385.875 -160.766
L385.875 -160.766
L385.875 -160.766
L385.875 -160.766
L385.875 -160.766
L385.875 -160.766
L385.875 -160.766
L385.875 -160.766
L385.875 -160.766
L385.875 -160.766
L384.48 -155.323
L384.48 -155.323
L384.48 -155.323
L383.085 -150.43
L381.69 -146.014
L381.69 -146.014
L381.69 -146.014
L381.69 -146.014
L381.69 -146.014
L381.69 -146.014
L380.295 -142.066
L380.295 -142.066
L380.295 -142.066
L380.295 -142.066
L378.9 -138.665
L378.9 -138.665
L378.9 -138.665
L378.9 -138.665
L378.9 -138.665
L378.9 -138.665
L378.9 -138.665
L378.9 -138.665
L378.9 -138.665
L377.505 -135.984
L376.11 -134.274
L376.11 -134.274
L376.11 -134.274
L376.11 -134.274
L374.715 -133.814
L374.715 -133.814
L374.715 -133.814
L374.715 -133.814
L374.715 -133.814
L374.715 -133.814
L374.715 -133.814
L374.715 -133.814
L374.715 -133.814
L371.925 -137.641
L370.53 -142.198
L370.53 -142.198
L370.53 -142.198
L370.53 -142.198
L369.135 -148.471
L369.135 -148.471
L369.135 -148.471
L369.135 -148.471
L369.135 -148.471
L369.135 -148.471
L369.135 -148.471
L369.135 -148.471
L369.135 -148.471
L369.135 -148.471
L369.135 -148.471
L366.345 -165.134
L366.345 -165.134
L366.345 -165.134
L366.345 -165.134
L364.95 -174.696
L364.95 -174.696
L364.95 -174.696
L364.95 -174.696
L364.95 -174.696
L363.555 -184.38
L363.555 -184.38
L362.16 -193.604
L360.765 -201.783
L360.765 -201.783
L360.765 -201.783
L359.37 -208.37
L359.37 -208.37
L359.37 -208.37
L359.37 -208.37
L359.37 -208.37
L359.37 -208.37
L359.37 -208.37
L359.37 -208.37
L359.37 -208.37
L359.37 -208.37
L359.37 -208.37
L359.37 -208.37
L359.37 -208.37
L359.37 -208.37
L359.37 -208.37
L359.37 -208.37
L357.975 -212.897
L357.975 -212.897
L357.975 -212.897
L356.58 -215.025
L356.58 -215.025
L356.58 -215.025
L355.185 -214.585
L355.185 -214.585
L353.79 -211.609
L353.79 -211.609
L353.79 -211.609
L353.79 -211.609
L353.79 -211.609
L353.79 -211.609
L349.605 -190.935
L349.605 -190.935
L349.605 -190.935
L349.605 -190.935
L349.605 -190.935
L349.605 -190.935
L349.605 -190.935
L349.605 -190.935
L348.21 -182.154
L348.21 -182.154
L348.21 -182.154
L346.815 -173.663
L346.815 -173.663
L346.815 -173.663
L346.815 -173.663
L345.42 -166.156
L345.42 -166.156
L344.025 -160.175
L344.025 -160.175
L344.025 -160.175
L344.025 -160.175
L344.025 -160.175
L344.025 -160.175
L344.025 -160.175
L344.025 -160.175
L344.025 -160.175
L344.025 -160.175
L344.025 -160.175
L342.63 -156.066
L342.63 -156.066
L342.63 -156.066
L341.235 -153.969
L339.84 -153.849
L339.84 -153.849
L339.84 -153.849
L339.84 -153.849
L339.84 -153.849
L339.84 -153.849
L338.445 -155.527
L338.445 -155.527
L338.445 -155.527
L338.445 -155.527
L337.05 -158.725
L337.05 -158.725
L337.05 -158.725
L337.05 -158.725
L337.05 -158.725
L337.05 -158.725
L337.05 -158.725
L337.05 -158.725
L337.05 -158.725
L335.655 -163.092
L334.26 -168.235
L334.26 -168.235
L334.26 -168.235
L334.26 -168.235
L332.865 -173.741
L332.865 -173.741
L332.865 -173.741
L332.865 -173.741
L332.865 -173.741
L332.865 -173.741
L332.865 -173.741
L332.865 -173.741
L332.865 -173.741
L330.075 -184.193
L328.68 -188.354
L328.68 -188.354
L328.68 -188.354
L328.68 -188.354
L327.285 -191.335
L327.285 -191.335
L327.285 -191.335
L327.285 -191.335
L327.285 -191.335
L327.285 -191.335
L327.285 -191.335
L327.285 -191.335
L327.285 -191.335
L327.285 -191.335
L327.285 -191.335
L324.495 -192.726
L324.495 -192.726
L324.495 -192.726
L324.495 -192.726
L323.1 -190.865
L323.1 -190.865
L323.1 -190.865
L323.1 -190.865
L323.1 -190.865
L321.705 -187.328
L321.705 -187.328
L320.31 -182.295
L318.915 -176.061
L318.915 -176.061
L318.915 -176.061
L317.52 -169.006
L317.52 -169.006
L317.52 -169.006
L317.52 -169.006
L317.52 -169.006
L317.52 -169.006
L317.52 -169.006
L317.52 -169.006
L317.52 -169.006
L317.52 -169.006
L317.52 -169.006
L317.52 -169.006
L317.52 -169.006
L317.52 -169.006
L317.52 -169.006
L317.52 -169.006
L316.125 -161.575
L316.125 -161.575
L316.125 -161.575
L314.73 -154.25
L314.73 -154.25
L314.73 -154.25
L314.73 -154.25
L313.335 -147.53
L313.335 -147.53
L311.94 -141.914
L311.94 -141.914
L311.94 -141.914
L311.94 -141.914
L311.94 -141.914
L311.94 -141.914
L307.755 -136.25
L307.755 -136.25
L307.755 -136.25
L307.755 -136.25
L307.755 -136.25
L307.755 -136.25
L307.755 -136.25
L307.755 -136.25
L306.36 -139.278
L306.36 -139.278
L306.36 -139.278
L304.965 -145.061
L304.965 -145.061
L304.965 -145.061
L304.965 -145.061
L303.57 -153.513
L303.57 -153.513
L302.175 -164.327
L302.175 -164.327
L302.175 -164.327
L302.175 -164.327
L302.175 -164.327
L302.175 -164.327
L302.175 -164.327
L302.175 -164.327
L302.175 -164.327
L302.175 -164.327
L302.175 -164.327
L300.78 -176.99
L300.78 -176.99
L300.78 -176.99
L299.385 -190.824
L297.99 -205.054
L297.99 -205.054
L297.99 -205.054
L297.99 -205.054
L297.99 -205.054
L297.99 -205.054
L296.595 -218.882
L296.595 -218.882
L296.595 -218.882
L296.595 -218.882
L295.2 -231.554
L295.2 -231.554
L295.2 -231.554
L295.2 -231.554
L295.2 -231.554
L295.2 -231.554
L295.2 -231.554
L295.2 -231.554
L295.2 -231.554
L293.805 -242.409
L292.41 -250.926
L292.41 -250.926
L292.41 -250.926
L292.41 -250.926
L291.015 -256.738
L291.015 -256.738
L291.015 -256.738
L291.015 -256.738
L291.015 -256.738
L291.015 -256.738
L291.015 -256.738
L291.015 -256.738
L291.015 -256.738
L288.225 -259.623
L286.83 -256.778
L286.83 -256.778
L286.83 -256.778
L286.83 -256.778
L285.435 -251.358
L285.435 -251.358
L285.435 -251.358
L285.435 -251.358
L285.435 -251.358
L285.435 -251.358
L285.435 -251.358
L285.435 -251.358
L285.435 -251.358
L285.435 -251.358
L285.435 -251.358
L282.645 -234.313
L282.645 -234.313
L282.645 -234.313
L282.645 -234.313
L281.25 -223.668
L281.25 -223.668
L281.25 -223.668
L281.25 -223.668
L281.25 -223.668
L279.855 -212.366
L279.855 -212.366
L278.46 -201.016
L277.065 -190.218
L277.065 -190.218
L277.065 -190.218
L275.67 -180.524
L275.67 -180.524
L275.67 -180.524
L275.67 -180.524
L275.67 -180.524
L275.67 -180.524
L275.67 -180.524
L275.67 -180.524
L275.67 -180.524
L275.67 -180.524
L275.67 -180.524
L275.67 -180.524
L275.67 -180.524
L275.67 -180.524
L275.67 -180.524
L275.67 -180.524
L274.275 -172.411
L274.275 -172.411
L274.275 -172.411
L272.88 -166.256
L272.88 -166.256
L272.88 -166.256
L272.88 -166.256
L271.485 -162.332
L271.485 -162.332
L270.09 -160.797
L270.09 -160.797
L270.09 -160.797
L270.09 -160.797
L270.09 -160.797
L270.09 -160.797
L265.905 -170.637
L265.905 -170.637
L265.905 -170.637
L265.905 -170.637
L265.905 -170.637
L265.905 -170.637
L265.905 -170.637
L265.905 -170.637
L264.51 -178.296
L264.51 -178.296
L264.51 -178.296
L263.115 -187.681
L263.115 -187.681
L263.115 -187.681
L263.115 -187.681
L261.72 -198.345
L261.72 -198.345
L261.72 -198.345
L260.325 -209.722
L260.325 -209.722
L260.325 -209.722
L260.325 -209.722
L260.325 -209.722
L260.325 -209.722
L260.325 -209.722
L260.325 -209.722
L260.325 -209.722
L260.325 -209.722
L260.325 -209.722
L258.93 -221.154
L258.93 -221.154
L258.93 -221.154
L257.535 -231.951
L256.14 -241.455
L256.14 -241.455
L256.14 -241.455
L256.14 -241.455
L256.14 -241.455
L256.14 -241.455
L254.745 -249.111
L254.745 -249.111
L254.745 -249.111
L254.745 -249.111
L253.35 -254.51
L253.35 -254.51
L253.35 -254.51
L253.35 -254.51
L253.35 -254.51
L253.35 -254.51
L253.35 -254.51
L253.35 -254.51
L253.35 -254.51
L251.955 -257.426
L250.56 -257.817
L250.56 -257.817
L250.56 -257.817
L250.56 -257.817
L249.165 -255.825
L249.165 -255.825
L249.165 -255.825
L249.165 -255.825
L249.165 -255.825
L249.165 -255.825
L249.165 -255.825
L249.165 -255.825
L249.165 -255.825
L246.375 -246.018
L244.98 -239.152
L244.98 -239.152
L244.98 -239.152
L244.98 -239.152
L243.585 -231.723
L243.585 -231.723
L243.585 -231.723
L243.585 -231.723
L243.585 -231.723
L243.585 -231.723
L243.585 -231.723
L243.585 -231.723
L243.585 -231.723
L243.585 -231.723
L243.585 -231.723
L240.795 -217.521
L240.795 -217.521
L240.795 -217.521
L240.795 -217.521
L239.4 -211.861
L239.4 -211.861
L239.4 -211.861
L239.4 -211.861
L239.4 -211.861
L238.005 -207.804
L238.005 -207.804
L236.61 -205.713
L235.215 -205.831
L235.215 -205.831
L235.215 -205.831
L233.82 -208.258
L233.82 -208.258
L233.82 -208.258
L233.82 -208.258
L233.82 -208.258
L233.82 -208.258
L233.82 -208.258
L233.82 -208.258
L233.82 -208.258
L233.82 -208.258
L233.82 -208.258
L233.82 -208.258
L233.82 -208.258
L233.82 -208.258
L233.82 -208.258
L233.82 -208.258
L232.425 -212.953
L232.425 -212.953
L232.425 -212.953
L231.03 -219.742
L231.03 -219.742
L231.03 -219.742
L231.03 -219.742
L229.635 -228.34
L229.635 -228.34
L228.24 -238.385
L228.24 -238.385
L228.24 -238.385
L228.24 -238.385
L228.24 -238.385
L228.24 -238.385
L224.055 -273.075
L224.055 -273.075
L224.055 -273.075
L224.055 -273.075
L224.055 -273.075
L224.055 -273.075
L224.055 -273.075
L224.055 -273.075
L222.66 -284.804
L222.66 -284.804
L222.66 -284.804
L221.265 -295.973
L221.265 -295.973
L221.265 -295.973
L221.265 -295.973
L219.87 -306.194
L219.87 -306.194
L219.87 -306.194
L218.475 -315.051
L218.475 -315.051
L218.475 -315.051
L218.475 -315.051
L218.475 -315.051
L218.475 -315.051
L218.475 -315.051
L218.475 -315.051
L218.475 -315.051
L218.475 -315.051
L218.475 -315.051
L217.08 -322.125
L217.08 -322.125
L217.08 -322.125
L215.685 -327.034
L214.29 -329.495
L214.29 -329.495
L214.29 -329.495
L214.29 -329.495
L214.29 -329.495
L214.29 -329.495
L212.895 -329.372
L212.895 -329.372
L212.895 -329.372
L212.895 -329.372
L211.5 -326.705
L211.5 -326.705
L211.5 -326.705
L211.5 -326.705
L211.5 -326.705
L211.5 -326.705
L211.5 -326.705
L211.5 -326.705
L211.5 -326.705
L210.105 -321.708
L210.105 -321.708
L210.105 -321.708
L210.105 -321.708
L208.71 -314.757
L208.71 -314.757
L208.71 -314.757
L208.71 -314.757
L207.315 -306.357
L207.315 -306.357
L207.315 -306.357
L207.315 -306.357
L207.315 -306.357
L207.315 -306.357
L207.315 -306.357
L207.315 -306.357
L207.315 -306.357
L204.525 -287.61
L203.13 -278.505
L203.13 -278.505
L203.13 -278.505
L203.13 -278.505
L201.735 -270.335
L201.735 -270.335
L201.735 -270.335
L201.735 -270.335
L201.735 -270.335
L201.735 -270.335
L201.735 -270.335
L201.735 -270.335
L201.735 -270.335
L201.735 -270.335
L201.735 -270.335
L198.945 -258.492
L198.945 -258.492
L198.945 -258.492
L198.945 -258.492
L197.55 -255.362
L197.55 -255.362
L197.55 -255.362
L197.55 -255.362
L197.55 -255.362
L196.155 -254.256
L196.155 -254.256
L194.76 -255.16
L193.365 -257.967
L193.365 -257.967
L193.365 -257.967
L191.97 -262.489
L191.97 -262.489
L191.97 -262.489
L191.97 -262.489
L191.97 -262.489
L191.97 -262.489
L191.97 -262.489
L191.97 -262.489
L191.97 -262.489
L191.97 -262.489
L191.97 -262.489
L191.97 -262.489
L191.97 -262.489
L191.97 -262.489
L191.97 -262.489
L191.97 -262.489
L190.575 -268.473
L190.575 -268.473
L190.575 -268.473
L189.18 -275.622
L189.18 -275.622
L189.18 -275.622
L189.18 -275.622
L187.785 -283.611
L187.785 -283.611
L186.39 -292.115
L186.39 -292.115
L186.39 -292.115
L186.39 -292.115
L186.39 -292.115
L186.39 -292.115
L182.205 -317.775
L182.205 -317.775
L182.205 -317.775
L182.205 -317.775
L182.205 -317.775
L182.205 -317.775
L182.205 -317.775
L182.205 -317.775
L180.81 -325.576
L180.81 -325.576
L180.81 -325.576
L179.415 -332.683
L179.415 -332.683
L179.415 -332.683
L179.415 -332.683
L178.02 -338.921
L178.02 -338.921
L178.02 -338.921
L176.625 -344.101
L176.625 -344.101
L176.625 -344.101
L176.625 -344.101
L176.625 -344.101
L176.625 -344.101
L176.625 -344.101
L176.625 -344.101
L176.625 -344.101
L176.625 -344.101
L176.625 -344.101
L175.23 -348.009
L175.23 -348.009
L175.23 -348.009
L173.835 -350.426
L172.44 -351.171
L172.44 -351.171
L172.44 -351.171
L172.44 -351.171
L172.44 -351.171
L172.44 -351.171
L171.045 -350.144
L171.045 -350.144
L171.045 -350.144
L171.045 -350.144
L169.65 -347.365
L169.65 -347.365
L169.65 -347.365
L169.65 -347.365
L169.65 -347.365
L169.65 -347.365
L169.65 -347.365
L169.65 -347.365
L169.65 -347.365
L168.255 -342.992
L168.255 -342.992
L168.255 -342.992
L168.255 -342.992
L166.86 -337.326
L166.86 -337.326
L166.86 -337.326
L166.86 -337.326
L165.465 -330.79
L165.465 -330.79
L165.465 -330.79
L165.465 -330.79
L165.465 -330.79
L165.465 -330.79
L165.465 -330.79
L165.465 -330.79
L165.465 -330.79
L162.675 -317.262
L161.28 -311.466
L161.28 -311.466
L161.28 -311.466
L161.28 -311.466
L159.885 -307.098
L159.885 -307.098
L159.885 -307.098
L159.885 -307.098
L159.885 -307.098
L159.885 -307.098
L159.885 -307.098
L159.885 -307.098
L159.885 -307.098
L159.885 -307.098
L159.885 -307.098
L157.095 -304.521
L157.095 -304.521
L157.095 -304.521
L157.095 -304.521
L155.7 -306.879
L155.7 -306.879
L155.7 -306.879
L155.7 -306.879
L155.7 -306.879
L154.305 -311.73
L154.305 -311.73
L152.91 -318.862
L151.515 -327.868
L151.515 -327.868
L151.515 -327.868
L150.12 -338.179
L150.12 -338.179
L150.12 -338.179
L150.12 -338.179
L150.12 -338.179
L150.12 -338.179
L150.12 -338.179
L150.12 -338.179
L150.12 -338.179
L150.12 -338.179
L150.12 -338.179
L150.12 -338.179
L150.12 -338.179
L150.12 -338.179
L150.12 -338.179
L150.12 -338.179
L148.725 -349.105
L148.725 -349.105
L148.725 -349.105
L147.33 -359.898
L147.33 -359.898
L147.33 -359.898
L147.33 -359.898
L145.935 -369.808
L145.935 -369.808
L144.54 -378.142
L144.54 -378.142
L144.54 -378.142
L144.54 -378.142
L144.54 -378.142
L144.54 -378.142
L140.355 -388.8
L140.355 -388.8
L140.355 -388.8
L140.355 -388.8
L140.355 -388.8
L140.355 -388.8
L140.355 -388.8
L140.355 -388.8
L138.96 -386.837
L138.96 -386.837
L138.96 -386.837
L137.565 -382.199
L137.565 -382.199
L137.565 -382.199
L137.565 -382.199
L136.17 -375.141
L136.17 -375.141
L136.17 -375.141
L134.775 -365.99
L134.775 -365.99
L134.775 -365.99
L134.775 -365.99
L134.775 -365.99
L134.775 -365.99
L134.775 -365.99
L134.775 -365.99
L134.775 -365.99
L134.775 -365.99
L134.775 -365.99
L133.38 -355.125
L133.38 -355.125
L133.38 -355.125
L131.985 -342.98
L130.59 -330.054
L130.59 -330.054
L130.59 -330.054
L130.59 -330.054
L130.59 -330.054
L130.59 -330.054
L129.195 -316.896
L129.195 -316.896
L129.195 -316.896
L129.195 -316.896
L127.8 -304.078
L127.8 -304.078
L127.8 -304.078
L127.8 -304.078
L127.8 -304.078
L127.8 -304.078
L127.8 -304.078
L127.8 -304.078
L127.8 -304.078
L126.405 -292.142
L126.405 -292.142
L126.405 -292.142
L126.405 -292.142
L125.01 -281.548
L125.01 -281.548
L125.01 -281.548
L125.01 -281.548
L123.615 -272.635
L123.615 -272.635
L123.615 -272.635
L123.615 -272.635
L123.615 -272.635
L123.615 -272.635
L123.615 -272.635
L123.615 -272.635
L123.615 -272.635
L120.825 -260.442
L119.43 -257.084
L119.43 -257.084
L119.43 -257.084
L119.43 -257.084
L118.035 -255.29
L118.035 -255.29
L118.035 -255.29
L118.035 -255.29
L118.035 -255.29
L118.035 -255.29
L118.035 -255.29
L118.035 -255.29
L118.035 -255.29
L118.035 -255.29
L118.035 -255.29
L115.245 -255.128
L115.245 -255.128
L115.245 -255.128
L115.245 -255.128
L113.85 -256.041
L113.85 -256.041
L113.85 -256.041
L113.85 -256.041
L113.85 -256.041
L112.455 -257.123
L112.455 -257.123
L111.06 -258.022
L109.665 -258.42
L109.665 -258.42
L109.665 -258.42
L108.27 -258.061
L108.27 -258.061
L108.27 -258.061
L108.27 -258.061
L108.27 -258.061
L108.27 -258.061
L108.27 -258.061
L108.27 -258.061
L108.27 -258.061
L108.27 -258.061
L108.27 -258.061
L108.27 -258.061
L108.27 -258.061
L108.27 -258.061
L108.27 -258.061
L108.27 -258.061
L106.875 -256.77
L106.875 -256.77
L106.875 -256.77
L105.48 -254.481
L105.48 -254.481
L105.48 -254.481
L105.48 -254.481
L104.085 -251.247
L104.085 -251.247
L102.69 -247.236
L102.69 -247.236
L102.69 -247.236
L102.69 -247.236
L102.69 -247.236
L102.69 -247.236
L98.505 -233.491
L98.505 -233.491
L98.505 -233.491
L98.505 -233.491
L98.505 -233.491
L98.505 -233.491
L98.505 -233.491
L98.505 -233.491
L97.11 -229.434
L97.11 -229.434
L97.11 -229.434
L95.715 -226.043
L95.715 -226.043
L95.715 -226.043
L95.715 -226.043
L94.32 -223.365
L94.32 -223.365
L94.32 -223.365
L92.925 -221.32
L92.925 -221.32
L92.925 -221.32
L92.925 -221.32
L92.925 -221.32
L92.925 -221.32
L92.925 -221.32
L92.925 -221.32
L92.925 -221.32
L92.925 -221.32
L92.925 -221.32
L91.53 -219.747
L91.53 -219.747
L91.53 -219.747
L90.135 -218.482
L88.74 -217.419
L88.74 -217.419
L88.74 -217.419
L88.74 -217.419
L88.74 -217.419
L88.74 -217.419
L87.345 -216.537
L87.345 -216.537
L87.345 -216.537
L87.345 -216.537
L85.95 -215.882
L85.95 -215.882
L85.95 -215.882
L85.95 -215.882
L85.95 -215.882
L85.95 -215.882
L85.95 -215.882
L85.95 -215.882
L85.95 -215.882
L84.555 -215.517
L84.555 -215.517
L84.555 -215.517
L84.555 -215.517
L83.16 -215.45
L83.16 -215.45
L83.16 -215.45
L83.16 -215.45
L81.765 -215.579
L81.765 -215.579
L81.765 -215.579
L81.765 -215.579
L81.765 -215.579
L81.765 -215.579
L81.765 -215.579
L81.765 -215.579
L81.765 -215.579
L78.975 -215.413
L77.58 -214.377
L77.58 -214.377
L77.58 -214.377
L77.58 -214.377
L76.185 -212.14
L76.185 -212.14
L76.185 -212.14
L76.185 -212.14
L76.185 -212.14
L76.185 -212.14
L76.185 -212.14
L76.185 -212.14
L76.185 -212.14
L76.185 -212.14
L76.185 -212.14
L73.395 -202.411
L73.395 -202.411
L73.395 -202.411
L73.395 -202.411
L72 -194.202
z
" id="C0_0_dc17f7b36a"/>
    </defs>
    <g clip-path="url(#p7ff5b81e1d)">
     <use style="fill:#0000ff;fill-opacity:0.1;stroke:#000000;stroke-opacity:0.1;" x="0.0" xlink:href="#C0_0_dc17f7b36a" y="432.0"/>
    </g>
   </g>
   <g id="line2d_1">
    <path clip-path="url(#p7ff5b81e1d)" d="
M72 237.798
L73.395 244.41
L73.395 244.41
L73.395 244.41
L73.395 244.41
L76.185 253.966
L76.185 253.966
L77.58 256.944
L77.58 256.944
L78.975 258.844
L81.765 260.013
L81.765 260.013
L83.16 259.621
L83.16 259.621
L84.555 258.793
L85.95 257.657
L85.95 257.657
L87.345 256.3
L87.345 256.3
L88.74 254.771
L88.74 254.771
L90.135 253.074
L91.53 251.183
L91.53 251.183
L92.925 249.053
L92.925 249.053
L94.32 246.634
L94.32 246.634
L95.715 243.893
L95.715 243.893
L97.11 240.824
L97.11 240.824
L98.505 237.465
L98.505 237.465
L104.085 223.399
L105.48 220.567
L105.48 220.567
L106.875 218.353
L106.875 218.353
L108.27 216.867
L108.27 216.867
L109.665 216.146
L111.06 216.137
L112.455 216.69
L112.455 216.69
L115.245 218.412
L118.035 218.486
L118.035 218.486
L119.43 216.878
L120.825 213.678
L123.615 201.548
L123.615 201.548
L125.01 192.477
L125.01 192.477
L126.405 181.569
L127.8 169.153
L127.8 169.153
L133.38 115.41
L133.38 115.41
L134.775 104.272
L134.775 104.272
L136.17 95.3287
L136.17 95.3287
L137.565 89.0531
L137.565 89.0531
L138.96 85.7539
L138.96 85.7539
L140.355 85.5523
L144.54 101.809
L144.54 101.809
L145.935 111.401
L145.935 111.401
L150.12 143.545
L150.12 143.545
L151.515 153.049
L152.91 160.945
L154.305 166.817
L154.305 166.817
L155.7 170.407
L155.7 170.407
L157.095 171.63
L157.095 171.63
L159.885 167.434
L159.885 167.434
L161.28 162.602
L162.675 156.517
L166.86 135.926
L166.86 135.926
L168.255 129.989
L169.65 125.251
L169.65 125.251
L171.045 122.04
L171.045 122.04
L172.44 120.587
L172.44 120.587
L173.835 121.022
L175.23 123.377
L175.23 123.377
L176.625 127.59
L176.625 127.59
L178.02 133.515
L178.02 133.515
L179.415 140.932
L179.415 140.932
L180.81 149.56
L180.81 149.56
L182.205 159.072
L182.205 159.072
L187.785 198.501
L189.18 206.81
L189.18 206.81
L190.575 213.81
L190.575 213.81
L191.97 219.226
L191.97 219.226
L193.365 222.845
L193.365 222.845
L194.76 224.527
L196.155 224.21
L196.155 224.21
L197.55 221.922
L197.55 221.922
L198.945 217.775
L201.735 204.794
L201.735 204.794
L204.525 187.791
L207.315 170.193
L207.315 170.193
L208.71 162.352
L208.71 162.352
L210.105 155.759
L210.105 155.759
L211.5 150.823
L211.5 150.823
L212.895 147.883
L212.895 147.883
L214.29 147.193
L214.29 147.193
L215.685 148.901
L217.08 153.043
L217.08 153.043
L218.475 159.532
L218.475 159.532
L219.87 168.159
L219.87 168.159
L221.265 178.6
L221.265 178.6
L224.055 203.143
L228.24 240.875
L228.24 240.875
L229.635 251.431
L231.03 260.158
L231.03 260.158
L232.425 266.705
L232.425 266.705
L233.82 270.847
L233.82 270.847
L235.215 272.504
L235.215 272.504
L236.61 271.741
L238.005 268.764
L239.4 263.912
L239.4 263.912
L240.795 257.63
L244.98 235.636
L246.375 229.158
L249.165 220.531
L249.165 220.531
L250.56 219.111
L250.56 219.111
L251.955 219.912
L253.35 222.995
L253.35 222.995
L254.745 228.287
L254.745 228.287
L256.14 235.587
L256.14 235.587
L257.535 244.582
L260.325 265.915
L260.325 265.915
L263.115 288.171
L263.115 288.171
L264.51 298.219
L264.51 298.219
L265.905 306.815
L270.09 319.563
L270.09 319.563
L271.485 318.567
L272.88 314.836
L272.88 314.836
L274.275 308.531
L274.275 308.531
L275.67 299.962
L275.67 299.962
L277.065 289.576
L279.855 265.692
L279.855 265.692
L282.645 242.181
L285.435 224.449
L285.435 224.449
L286.83 219.144
L288.225 216.708
L291.015 220.96
L291.015 220.96
L292.41 227.478
L292.41 227.478
L293.805 236.542
L295.2 247.688
L295.2 247.688
L297.99 273.89
L297.99 273.89
L300.78 300.943
L300.78 300.943
L302.175 313.178
L302.175 313.178
L303.57 323.804
L303.57 323.804
L304.965 332.383
L304.965 332.383
L306.36 338.6
L306.36 338.6
L307.755 342.275
L311.94 338.375
L311.94 338.375
L313.335 332.868
L314.73 325.921
L314.73 325.921
L320.31 294.478
L321.705 288.389
L321.705 288.389
L323.1 283.899
L323.1 283.899
L324.495 281.277
L327.285 282.018
L327.285 282.018
L328.68 285.205
L328.68 285.205
L330.075 289.916
L335.655 314.566
L337.05 319.468
L337.05 319.468
L338.445 322.876
L338.445 322.876
L339.84 324.459
L339.84 324.459
L341.235 324.028
L342.63 321.557
L342.63 321.557
L344.025 317.185
L344.025 317.185
L345.42 311.206
L345.42 311.206
L346.815 304.049
L346.815 304.049
L349.605 288.368
L349.605 288.368
L353.79 270.091
L353.79 270.091
L355.185 267.336
L356.58 266.728
L356.58 266.728
L357.975 268.326
L357.975 268.326
L359.37 272.031
L359.37 272.031
L360.765 277.601
L360.765 277.601
L362.16 284.671
L364.95 301.458
L364.95 301.458
L366.345 310.167
L366.345 310.167
L369.135 325.853
L369.135 325.853
L370.53 332.085
L370.53 332.085
L371.925 336.908
L374.715 341.937
L374.715 341.937
L376.11 342.186
L376.11 342.186
L377.505 341.077
L378.9 338.781
L378.9 338.781
L380.295 335.487
L380.295 335.487
L381.69 331.382
L381.69 331.382
L383.085 326.632
L385.875 315.712
L385.875 315.712
L388.665 303.45
L388.665 303.45
L391.455 290.25
L391.455 290.25
L397.035 263.278
L397.035 263.278
L398.43 257.177
L398.43 257.177
L399.825 251.702
L399.825 251.702
L401.22 247.057
L401.22 247.057
L402.615 243.433
L402.615 243.433
L404.01 240.989
L405.405 239.838
L405.405 239.838
L406.8 240.029
L406.8 240.029
L408.195 241.543
L408.195 241.543
L410.985 248.074
L410.985 248.074
L412.38 252.673
L412.38 252.673
L416.565 268.063
L416.565 268.063
L417.96 272.488
L417.96 272.488
L419.355 275.938
L420.75 278.082
L420.75 278.082
L422.145 278.649
L422.145 278.649
L423.54 277.443
L423.54 277.443
L424.935 274.364
L426.33 269.412
L426.33 269.412
L427.725 262.7
L427.725 262.7
L429.12 254.449
L429.12 254.449
L430.515 244.986
L430.515 244.986
L433.305 224.144
L433.305 224.144
L437.49 195.815
L437.49 195.815
L438.885 189.204
L440.28 184.706
L440.28 184.706
L441.675 182.586
L441.675 182.586
L443.07 182.974
L443.07 182.974
L444.465 185.852
L444.465 185.852
L445.86 191.056
L447.255 198.284
L448.65 207.113
L448.65 207.113
L450.045 217.028
L450.045 217.028
L454.23 247.542
L454.23 247.542
L455.625 256.117
L458.415 268.258
L458.415 268.258
L459.81 271.332
L461.205 272.29
L462.6 271.198
L462.6 271.198
L463.995 268.224
L463.995 268.224
L465.39 263.625
L465.39 263.625
L466.785 257.712
L468.18 250.836
L468.18 250.836
L475.155 213.817
L475.155 213.817
L479.34 198.914
L479.34 198.914
L480.735 196.187
L482.13 194.736
L482.13 194.736
L483.525 194.613
L483.525 194.613
L484.92 195.84
L484.92 195.84
L486.315 198.405
L487.71 202.252
L489.105 207.275
L489.105 207.275
L490.5 213.313
L490.5 213.313
L491.895 220.148
L491.895 220.148
L497.475 249.456
L500.265 260.539
L500.265 260.539
L501.66 264.137
L503.055 266.207
L504.45 266.694
L504.45 266.694
L505.845 265.656
L505.845 265.656
L507.24 263.259
L507.24 263.259
L508.635 259.769
L511.425 250.97
L511.425 250.97
L512.82 246.511
L512.82 246.511
L514.215 242.595
L514.215 242.595
L515.61 239.625
L515.61 239.625
L517.005 237.941
L517.005 237.941
L518.4 237.798
L518.4 237.798" style="fill:none;stroke:#0000ff;stroke-linecap:square;"/>
   </g>
   <g id="line2d_2">
    <path clip-path="url(#p7ff5b81e1d)" d="
M72 237.798
L81.765 237.731
L84.555 237.509
L87.345 236.947
L88.74 236.469
L90.135 235.821
L91.53 234.972
L92.925 233.894
L94.32 232.562
L95.715 230.952
L97.11 229.047
L98.505 226.833
L99.9 224.299
L101.295 221.443
L102.69 218.264
L104.085 214.768
L106.875 206.874
L109.665 197.896
L112.455 188.029
L116.64 172.09
L125.01 139.437
L127.8 129.286
L130.59 119.882
L133.38 111.408
L136.17 104.008
L137.565 100.745
L138.96 97.7892
L140.355 95.1466
L141.75 92.8231
L143.145 90.8221
L144.54 89.1453
L145.935 87.7922
L147.33 86.7608
L148.725 86.0473
L150.12 85.6466
L151.515 85.5523
L152.91 85.7566
L154.305 86.2508
L155.7 87.0252
L157.095 88.0692
L158.49 89.3716
L159.885 90.9207
L161.28 92.704
L162.675 94.7089
L165.465 99.3315
L168.255 104.683
L171.045 110.657
L173.835 117.149
L178.02 127.636
L183.6 142.526
L197.55 180.368
L201.735 191.045
L205.92 201.144
L210.105 210.568
L214.29 219.245
L217.08 224.591
L219.87 229.576
L222.66 234.197
L225.45 238.452
L228.24 242.344
L231.03 245.878
L233.82 249.062
L236.61 251.905
L239.4 254.42
L242.19 256.62
L244.98 258.518
L247.77 260.131
L250.56 261.474
L253.35 262.564
L256.14 263.418
L258.93 264.053
L261.72 264.486
L264.51 264.733
L267.3 264.813
L271.485 264.651
L275.67 264.2
L279.855 263.507
L284.04 262.62
L289.62 261.205
L296.595 259.186
L310.545 254.825
L321.705 251.448
L330.075 249.142
L338.445 247.086
L346.815 245.299
L355.185 243.781
L363.555 242.515
L371.925 241.477
L381.69 240.515
L391.455 239.78
L402.615 239.159
L416.565 238.633
L433.305 238.249
L455.625 237.989
L489.105 237.847
L518.4 237.812
L518.4 237.812" style="fill:none;stroke:#008000;stroke-linecap:square;"/>
   </g>
   <g id="matplotlib.axis_1">
    <g id="xtick_1">
     <g id="line2d_3">
      <defs>
       <path d="
M0 0
L0 -4" id="m93b0483c22" style="stroke:#000000;stroke-width:0.5;"/>
      </defs>
      <g>
       <use style="stroke:#000000;stroke-width:0.5;" x="72.0" xlink:href="#m93b0483c22" y="388.8"/>
      </g>
     </g>
     <g id="line2d_4">
      <defs>
       <path d="
M0 0
L0 4" id="m741efc42ff" style="stroke:#000000;stroke-width:0.5;"/>
      </defs>
      <g>
       <use style="stroke:#000000;stroke-width:0.5;" x="72.0" xlink:href="#m741efc42ff" y="43.2"/>
      </g>
     </g>
     <g id="text_1">
      <!-- 0 -->
      <defs>
       <path d="
M31.7812 66.4062
Q24.1719 66.4062 20.3281 58.9062
Q16.5 51.4219 16.5 36.375
Q16.5 21.3906 20.3281 13.8906
Q24.1719 6.39062 31.7812 6.39062
Q39.4531 6.39062 43.2812 13.8906
Q47.125 21.3906 47.125 36.375
Q47.125 51.4219 43.2812 58.9062
Q39.4531 66.4062 31.7812 66.4062
M31.7812 74.2188
Q44.0469 74.2188 50.5156 64.5156
Q56.9844 54.8281 56.9844 36.375
Q56.9844 17.9688 50.5156 8.26562
Q44.0469 -1.42188 31.7812 -1.42188
Q19.5312 -1.42188 13.0625 8.26562
Q6.59375 17.9688 6.59375 36.375
Q6.59375 54.8281 13.0625 64.5156
Q19.5312 74.2188 31.7812 74.2188" id="DejaVuSans-30"/>
      </defs>
      <g transform="translate(68.9765625 401.918125)scale(0.12 -0.12)">
       <use xlink:href="#DejaVuSans-30"/>
      </g>
     </g>
    </g>
    <g id="xtick_2">
     <g id="line2d_5">
      <g>
       <use style="stroke:#000000;stroke-width:0.5;" x="141.75" xlink:href="#m93b0483c22" y="388.8"/>
      </g>
     </g>
     <g id="line2d_6">
      <g>
       <use style="stroke:#000000;stroke-width:0.5;" x="141.75" xlink:href="#m741efc42ff" y="43.2"/>
      </g>
     </g>
     <g id="text_2">
      <!-- 5 -->
      <defs>
       <path d="
M10.7969 72.9062
L49.5156 72.9062
L49.5156 64.5938
L19.8281 64.5938
L19.8281 46.7344
Q21.9688 47.4688 24.1094 47.8281
Q26.2656 48.1875 28.4219 48.1875
Q40.625 48.1875 47.75 41.5
Q54.8906 34.8125 54.8906 23.3906
Q54.8906 11.625 47.5625 5.09375
Q40.2344 -1.42188 26.9062 -1.42188
Q22.3125 -1.42188 17.5469 -0.640625
Q12.7969 0.140625 7.71875 1.70312
L7.71875 11.625
Q12.1094 9.23438 16.7969 8.0625
Q21.4844 6.89062 26.7031 6.89062
Q35.1562 6.89062 40.0781 11.3281
Q45.0156 15.7656 45.0156 23.3906
Q45.0156 31 40.0781 35.4375
Q35.1562 39.8906 26.7031 39.8906
Q22.75 39.8906 18.8125 39.0156
Q14.8906 38.1406 10.7969 36.2812
z
" id="DejaVuSans-35"/>
      </defs>
      <g transform="translate(138.9196875 401.918125)scale(0.12 -0.12)">
       <use xlink:href="#DejaVuSans-35"/>
      </g>
     </g>
    </g>
    <g id="xtick_3">
     <g id="line2d_7">
      <g>
       <use style="stroke:#000000;stroke-width:0.5;" x="211.5" xlink:href="#m93b0483c22" y="388.8"/>
      </g>
     </g>
     <g id="line2d_8">
      <g>
       <use style="stroke:#000000;stroke-width:0.5;" x="211.5" xlink:href="#m741efc42ff" y="43.2"/>
      </g>
     </g>
     <g id="text_3">
      <!-- 10 -->
      <defs>
       <path d="
M12.4062 8.29688
L28.5156 8.29688
L28.5156 63.9219
L10.9844 60.4062
L10.9844 69.3906
L28.4219 72.9062
L38.2812 72.9062
L38.2812 8.29688
L54.3906 8.29688
L54.3906 0
L12.4062 0
z
" id="DejaVuSans-31"/>
      </defs>
      <g transform="translate(204.9225 401.918125)scale(0.12 -0.12)">
       <use xlink:href="#DejaVuSans-31"/>
       <use x="63.623046875" xlink:href="#DejaVuSans-30"/>
      </g>
     </g>
    </g>
    <g id="xtick_4">
     <g id="line2d_9">
      <g>
       <use style="stroke:#000000;stroke-width:0.5;" x="281.25" xlink:href="#m93b0483c22" y="388.8"/>
      </g>
     </g>
     <g id="line2d_10">
      <g>
       <use style="stroke:#000000;stroke-width:0.5;" x="281.25" xlink:href="#m741efc42ff" y="43.2"/>
      </g>
     </g>
     <g id="text_4">
      <!-- 15 -->
      <g transform="translate(274.798125 401.918125)scale(0.12 -0.12)">
       <use xlink:href="#DejaVuSans-31"/>
       <use x="63.623046875" xlink:href="#DejaVuSans-35"/>
      </g>
     </g>
    </g>
    <g id="xtick_5">
     <g id="line2d_11">
      <g>
       <use style="stroke:#000000;stroke-width:0.5;" x="351.0" xlink:href="#m93b0483c22" y="388.8"/>
      </g>
     </g>
     <g id="line2d_12">
      <g>
       <use style="stroke:#000000;stroke-width:0.5;" x="351.0" xlink:href="#m741efc42ff" y="43.2"/>
      </g>
     </g>
     <g id="text_5">
      <!-- 20 -->
      <defs>
       <path d="
M19.1875 8.29688
L53.6094 8.29688
L53.6094 0
L7.32812 0
L7.32812 8.29688
Q12.9375 14.1094 22.625 23.8906
Q32.3281 33.6875 34.8125 36.5312
Q39.5469 41.8438 41.4219 45.5312
Q43.3125 49.2188 43.3125 52.7812
Q43.3125 58.5938 39.2344 62.25
Q35.1562 65.9219 28.6094 65.9219
Q23.9688 65.9219 18.8125 64.3125
Q13.6719 62.7031 7.8125 59.4219
L7.8125 69.3906
Q13.7656 71.7812 18.9375 73
Q24.125 74.2188 28.4219 74.2188
Q39.75 74.2188 46.4844 68.5469
Q53.2188 62.8906 53.2188 53.4219
Q53.2188 48.9219 51.5312 44.8906
Q49.8594 40.875 45.4062 35.4062
Q44.1875 33.9844 37.6406 27.2188
Q31.1094 20.4531 19.1875 8.29688" id="DejaVuSans-32"/>
      </defs>
      <g transform="translate(344.203125 401.918125)scale(0.12 -0.12)">
       <use xlink:href="#DejaVuSans-32"/>
       <use x="63.623046875" xlink:href="#DejaVuSans-30"/>
      </g>
     </g>
    </g>
    <g id="xtick_6">
     <g id="line2d_13">
      <g>
       <use style="stroke:#000000;stroke-width:0.5;" x="420.75" xlink:href="#m93b0483c22" y="388.8"/>
      </g>
     </g>
     <g id="line2d_14">
      <g>
       <use style="stroke:#000000;stroke-width:0.5;" x="420.75" xlink:href="#m741efc42ff" y="43.2"/>
      </g>
     </g>
     <g id="text_6">
      <!-- 25 -->
      <g transform="translate(414.07875 401.918125)scale(0.12 -0.12)">
       <use xlink:href="#DejaVuSans-32"/>
       <use x="63.623046875" xlink:href="#DejaVuSans-35"/>
      </g>
     </g>
    </g>
    <g id="xtick_7">
     <g id="line2d_15">
      <g>
       <use style="stroke:#000000;stroke-width:0.5;" x="490.5" xlink:href="#m93b0483c22" y="388.8"/>
      </g>
     </g>
     <g id="line2d_16">
      <g>
       <use style="stroke:#000000;stroke-width:0.5;" x="490.5" xlink:href="#m741efc42ff" y="43.2"/>
      </g>
     </g>
     <g id="text_7">
      <!-- 30 -->
      <defs>
       <path d="
M40.5781 39.3125
Q47.6562 37.7969 51.625 33
Q55.6094 28.2188 55.6094 21.1875
Q55.6094 10.4062 48.1875 4.48438
Q40.7656 -1.42188 27.0938 -1.42188
Q22.5156 -1.42188 17.6562 -0.515625
Q12.7969 0.390625 7.625 2.20312
L7.625 11.7188
Q11.7188 9.32812 16.5938 8.10938
Q21.4844 6.89062 26.8125 6.89062
Q36.0781 6.89062 40.9375 10.5469
Q45.7969 14.2031 45.7969 21.1875
Q45.7969 27.6406 41.2812 31.2656
Q36.7656 34.9062 28.7188 34.9062
L20.2188 34.9062
L20.2188 43.0156
L29.1094 43.0156
Q36.375 43.0156 40.2344 45.9219
Q44.0938 48.8281 44.0938 54.2969
Q44.0938 59.9062 40.1094 62.9062
Q36.1406 65.9219 28.7188 65.9219
Q24.6562 65.9219 20.0156 65.0312
Q15.375 64.1562 9.8125 62.3125
L9.8125 71.0938
Q15.4375 72.6562 20.3438 73.4375
Q25.25 74.2188 29.5938 74.2188
Q40.8281 74.2188 47.3594 69.1094
Q53.9062 64.0156 53.9062 55.3281
Q53.9062 49.2656 50.4375 45.0938
Q46.9688 40.9219 40.5781 39.3125" id="DejaVuSans-33"/>
      </defs>
      <g transform="translate(483.7209375 401.918125)scale(0.12 -0.12)">
       <use xlink:href="#DejaVuSans-33"/>
       <use x="63.623046875" xlink:href="#DejaVuSans-30"/>
      </g>
     </g>
    </g>
   </g>
   <g id="matplotlib.axis_2">
    <g id="ytick_1">
     <g id="line2d_17">
      <defs>
       <path d="
M0 0
L4 0" id="m728421d6d4" style="stroke:#000000;stroke-width:0.5;"/>
      </defs>
      <g>
       <use style="stroke:#000000;stroke-width:0.5;" x="72.0" xlink:href="#m728421d6d4" y="313.921493386"/>
      </g>
     </g>
     <g id="line2d_18">
      <defs>
       <path d="
M0 0
L-4 0" id="mcb0005524f" style="stroke:#000000;stroke-width:0.5;"/>
      </defs>
      <g>
       <use style="stroke:#000000;stroke-width:0.5;" x="518.4" xlink:href="#mcb0005524f" y="313.921493386"/>
      </g>
     </g>
     <g id="text_8">
      <!-- 0.5 -->
      <defs>
       <path d="
M10.6875 12.4062
L21 12.4062
L21 0
L10.6875 0
z
" id="DejaVuSans-2e"/>
       <path d="
M10.5938 35.5
L73.1875 35.5
L73.1875 27.2031
L10.5938 27.2031
z
" id="DejaVuSans-2212"/>
      </defs>
      <g transform="translate(41.18 317.232743386)scale(0.12 -0.12)">
       <use xlink:href="#DejaVuSans-2212"/>
       <use x="83.7890625" xlink:href="#DejaVuSans-30"/>
       <use x="147.412109375" xlink:href="#DejaVuSans-2e"/>
       <use x="179.19921875" xlink:href="#DejaVuSans-35"/>
      </g>
     </g>
    </g>
    <g id="ytick_2">
     <g id="line2d_19">
      <g>
       <use style="stroke:#000000;stroke-width:0.5;" x="72.0" xlink:href="#m728421d6d4" y="237.798423759"/>
      </g>
     </g>
     <g id="line2d_20">
      <g>
       <use style="stroke:#000000;stroke-width:0.5;" x="518.4" xlink:href="#mcb0005524f" y="237.798423759"/>
      </g>
     </g>
     <g id="text_9">
      <!-- 0.0 -->
      <g transform="translate(50.504375 241.109673759)scale(0.12 -0.12)">
       <use xlink:href="#DejaVuSans-30"/>
       <use x="63.623046875" xlink:href="#DejaVuSans-2e"/>
       <use x="95.41015625" xlink:href="#DejaVuSans-30"/>
      </g>
     </g>
    </g>
    <g id="ytick_3">
     <g id="line2d_21">
      <g>
       <use style="stroke:#000000;stroke-width:0.5;" x="72.0" xlink:href="#m728421d6d4" y="161.675354131"/>
      </g>
     </g>
     <g id="line2d_22">
      <g>
       <use style="stroke:#000000;stroke-width:0.5;" x="518.4" xlink:href="#mcb0005524f" y="161.675354131"/>
      </g>
     </g>
     <g id="text_10">
      <!-- 0.5 -->
      <g transform="translate(50.755625 164.986604131)scale(0.12 -0.12)">
       <use xlink:href="#DejaVuSans-30"/>
       <use x="63.623046875" xlink:href="#DejaVuSans-2e"/>
       <use x="95.41015625" xlink:href="#DejaVuSans-35"/>
      </g>
     </g>
    </g>
    <g id="ytick_4">
     <g id="line2d_23">
      <g>
       <use style="stroke:#000000;stroke-width:0.5;" x="72.0" xlink:href="#m728421d6d4" y="85.5522845045"/>
      </g>
     </g>
     <g id="line2d_24">
      <g>
       <use style="stroke:#000000;stroke-width:0.5;" x="518.4" xlink:href="#mcb0005524f" y="85.5522845045"/>
      </g>
     </g>
     <g id="text_11">
      <!-- 1.0 -->
      <g transform="translate(51.03125 88.8635345045)scale(0.12 -0.12)">
       <use xlink:href="#DejaVuSans-31"/>
       <use x="63.623046875" xlink:href="#DejaVuSans-2e"/>
       <use x="95.41015625" xlink:href="#DejaVuSans-30"/>
      </g>
     </g>
    </g>
   </g>
   <g id="patch_3">
    <path d="
M72 43.2
L518.4 43.2" style="fill:none;stroke:#000000;"/>
   </g>
   <g id="patch_4">
    <path d="
M518.4 388.8
L518.4 43.2" style="fill:none;stroke:#000000;"/>
   </g>
   <g id="patch_5">
    <path d="
M72 388.8
L518.4 388.8" style="fill:none;stroke:#000000;"/>
   </g>
   <g id="patch_6">
    <path d="
M72 388.8
L72 43.2" style="fill:none;stroke:#000000;"/>
   </g>
   <g id="legend_1">
    <g id="patch_7">
     <path d="
M354.157 96.9045
L511.2 96.9045
L511.2 50.4
L354.157 50.4
L354.157 96.9045
z
" style="fill:#ffffff;stroke:#000000;"/>
    </g>
    <g id="line2d_25">
     <path d="
M364.237 62.0617
L384.397 62.0617" style="fill:none;stroke:#0000ff;stroke-linecap:square;"/>
    </g>
    <g id="line2d_26"/>
    <g id="text_12">
     <!-- estimated HRF -->
     <defs>
      <path d="
M52 44.1875
Q55.375 50.25 60.0625 53.125
Q64.75 56 71.0938 56
Q79.6406 56 84.2812 50.0156
Q88.9219 44.0469 88.9219 33.0156
L88.9219 0
L79.8906 0
L79.8906 32.7188
Q79.8906 40.5781 77.0938 44.375
Q74.3125 48.1875 68.6094 48.1875
Q61.625 48.1875 57.5625 43.5469
Q53.5156 38.9219 53.5156 30.9062
L53.5156 0
L44.4844 0
L44.4844 32.7188
Q44.4844 40.625 41.7031 44.4062
Q38.9219 48.1875 33.1094 48.1875
Q26.2188 48.1875 22.1562 43.5312
Q18.1094 38.875 18.1094 30.9062
L18.1094 0
L9.07812 0
L9.07812 54.6875
L18.1094 54.6875
L18.1094 46.1875
Q21.1875 51.2188 25.4844 53.6094
Q29.7812 56 35.6875 56
Q41.6562 56 45.8281 52.9688
Q50 49.9531 52 44.1875" id="DejaVuSans-6d"/>
      <path d="
M44.3906 34.1875
Q47.5625 33.1094 50.5625 29.5938
Q53.5625 26.0781 56.5938 19.9219
L66.6094 0
L56 0
L46.6875 18.7031
Q43.0625 26.0312 39.6719 28.4219
Q36.2812 30.8125 30.4219 30.8125
L19.6719 30.8125
L19.6719 0
L9.8125 0
L9.8125 72.9062
L32.0781 72.9062
Q44.5781 72.9062 50.7344 67.6719
Q56.8906 62.4531 56.8906 51.9062
Q56.8906 45.0156 53.6875 40.4688
Q50.4844 35.9375 44.3906 34.1875
M19.6719 64.7969
L19.6719 38.9219
L32.0781 38.9219
Q39.2031 38.9219 42.8438 42.2188
Q46.4844 45.5156 46.4844 51.9062
Q46.4844 58.2969 42.8438 61.5469
Q39.2031 64.7969 32.0781 64.7969
z
" id="DejaVuSans-52"/>
      <path d="
M9.8125 72.9062
L51.7031 72.9062
L51.7031 64.5938
L19.6719 64.5938
L19.6719 43.1094
L48.5781 43.1094
L48.5781 34.8125
L19.6719 34.8125
L19.6719 0
L9.8125 0
z
" id="DejaVuSans-46"/>
      <path id="DejaVuSans-20"/>
      <path d="
M9.42188 54.6875
L18.4062 54.6875
L18.4062 0
L9.42188 0
z

M9.42188 75.9844
L18.4062 75.9844
L18.4062 64.5938
L9.42188 64.5938
z
" id="DejaVuSans-69"/>
      <path d="
M18.3125 70.2188
L18.3125 54.6875
L36.8125 54.6875
L36.8125 47.7031
L18.3125 47.7031
L18.3125 18.0156
Q18.3125 11.3281 20.1406 9.42188
Q21.9688 7.51562 27.5938 7.51562
L36.8125 7.51562
L36.8125 0
L27.5938 0
Q17.1875 0 13.2344 3.875
Q9.28125 7.76562 9.28125 18.0156
L9.28125 47.7031
L2.6875 47.7031
L2.6875 54.6875
L9.28125 54.6875
L9.28125 70.2188
z
" id="DejaVuSans-74"/>
      <path d="
M45.4062 46.3906
L45.4062 75.9844
L54.3906 75.9844
L54.3906 0
L45.4062 0
L45.4062 8.20312
Q42.5781 3.32812 38.25 0.953125
Q33.9375 -1.42188 27.875 -1.42188
Q17.9688 -1.42188 11.7344 6.48438
Q5.51562 14.4062 5.51562 27.2969
Q5.51562 40.1875 11.7344 48.0938
Q17.9688 56 27.875 56
Q33.9375 56 38.25 53.625
Q42.5781 51.2656 45.4062 46.3906
M14.7969 27.2969
Q14.7969 17.3906 18.875 11.75
Q22.9531 6.10938 30.0781 6.10938
Q37.2031 6.10938 41.2969 11.75
Q45.4062 17.3906 45.4062 27.2969
Q45.4062 37.2031 41.2969 42.8438
Q37.2031 48.4844 30.0781 48.4844
Q22.9531 48.4844 18.875 42.8438
Q14.7969 37.2031 14.7969 27.2969" id="DejaVuSans-64"/>
      <path d="
M56.2031 29.5938
L56.2031 25.2031
L14.8906 25.2031
Q15.4844 15.9219 20.4844 11.0625
Q25.4844 6.20312 34.4219 6.20312
Q39.5938 6.20312 44.4531 7.46875
Q49.3125 8.73438 54.1094 11.2812
L54.1094 2.78125
Q49.2656 0.734375 44.1875 -0.34375
Q39.1094 -1.42188 33.8906 -1.42188
Q20.7969 -1.42188 13.1562 6.1875
Q5.51562 13.8125 5.51562 26.8125
Q5.51562 40.2344 12.7656 48.1094
Q20.0156 56 32.3281 56
Q43.3594 56 49.7812 48.8906
Q56.2031 41.7969 56.2031 29.5938
M47.2188 32.2344
Q47.125 39.5938 43.0938 43.9844
Q39.0625 48.3906 32.4219 48.3906
Q24.9062 48.3906 20.3906 44.1406
Q15.875 39.8906 15.1875 32.1719
z
" id="DejaVuSans-65"/>
      <path d="
M9.8125 72.9062
L19.6719 72.9062
L19.6719 43.0156
L55.5156 43.0156
L55.5156 72.9062
L65.375 72.9062
L65.375 0
L55.5156 0
L55.5156 34.7188
L19.6719 34.7188
L19.6719 0
L9.8125 0
z
" id="DejaVuSans-48"/>
      <path d="
M44.2812 53.0781
L44.2812 44.5781
Q40.4844 46.5312 36.375 47.5
Q32.2812 48.4844 27.875 48.4844
Q21.1875 48.4844 17.8438 46.4375
Q14.5 44.3906 14.5 40.2812
Q14.5 37.1562 16.8906 35.375
Q19.2812 33.5938 26.5156 31.9844
L29.5938 31.2969
Q39.1562 29.25 43.1875 25.5156
Q47.2188 21.7812 47.2188 15.0938
Q47.2188 7.46875 41.1875 3.01562
Q35.1562 -1.42188 24.6094 -1.42188
Q20.2188 -1.42188 15.4531 -0.5625
Q10.6875 0.296875 5.42188 2
L5.42188 11.2812
Q10.4062 8.6875 15.2344 7.39062
Q20.0625 6.10938 24.8125 6.10938
Q31.1562 6.10938 34.5625 8.28125
Q37.9844 10.4531 37.9844 14.4062
Q37.9844 18.0625 35.5156 20.0156
Q33.0625 21.9688 24.7031 23.7812
L21.5781 24.5156
Q13.2344 26.2656 9.51562 29.9062
Q5.8125 33.5469 5.8125 39.8906
Q5.8125 47.6094 11.2812 51.7969
Q16.75 56 26.8125 56
Q31.7812 56 36.1719 55.2656
Q40.5781 54.5469 44.2812 53.0781" id="DejaVuSans-73"/>
      <path d="
M34.2812 27.4844
Q23.3906 27.4844 19.1875 25
Q14.9844 22.5156 14.9844 16.5
Q14.9844 11.7188 18.1406 8.90625
Q21.2969 6.10938 26.7031 6.10938
Q34.1875 6.10938 38.7031 11.4062
Q43.2188 16.7031 43.2188 25.4844
L43.2188 27.4844
z

M52.2031 31.2031
L52.2031 0
L43.2188 0
L43.2188 8.29688
Q40.1406 3.32812 35.5469 0.953125
Q30.9531 -1.42188 24.3125 -1.42188
Q15.9219 -1.42188 10.9531 3.29688
Q6 8.01562 6 15.9219
Q6 25.1406 12.1719 29.8281
Q18.3594 34.5156 30.6094 34.5156
L43.2188 34.5156
L43.2188 35.4062
Q43.2188 41.6094 39.1406 45
Q35.0625 48.3906 27.6875 48.3906
Q23 48.3906 18.5469 47.2656
Q14.1094 46.1406 10.0156 43.8906
L10.0156 52.2031
Q14.9375 54.1094 19.5781 55.0469
Q24.2188 56 28.6094 56
Q40.4844 56 46.3438 49.8438
Q52.2031 43.7031 52.2031 31.2031" id="DejaVuSans-61"/>
     </defs>
     <g transform="translate(400.236875 67.10175)scale(0.144 -0.144)">
      <use xlink:href="#DejaVuSans-65"/>
      <use x="61.5234375" xlink:href="#DejaVuSans-73"/>
      <use x="113.623046875" xlink:href="#DejaVuSans-74"/>
      <use x="152.83203125" xlink:href="#DejaVuSans-69"/>
      <use x="180.615234375" xlink:href="#DejaVuSans-6d"/>
      <use x="278.02734375" xlink:href="#DejaVuSans-61"/>
      <use x="339.306640625" xlink:href="#DejaVuSans-74"/>
      <use x="378.515625" xlink:href="#DejaVuSans-65"/>
      <use x="440.0390625" xlink:href="#DejaVuSans-64"/>
      <use x="503.515625" xlink:href="#DejaVuSans-20"/>
      <use x="535.302734375" xlink:href="#DejaVuSans-48"/>
      <use x="610.498046875" xlink:href="#DejaVuSans-52"/>
      <use x="679.98046875" xlink:href="#DejaVuSans-46"/>
     </g>
    </g>
    <g id="line2d_27">
     <path d="
M364.237 83.1983
L384.397 83.1983" style="fill:none;stroke:#008000;stroke-linecap:square;"/>
    </g>
    <g id="line2d_28"/>
    <g id="text_13">
     <!-- glover HRF -->
     <defs>
      <path d="
M30.6094 48.3906
Q23.3906 48.3906 19.1875 42.75
Q14.9844 37.1094 14.9844 27.2969
Q14.9844 17.4844 19.1562 11.8438
Q23.3438 6.20312 30.6094 6.20312
Q37.7969 6.20312 41.9844 11.8594
Q46.1875 17.5312 46.1875 27.2969
Q46.1875 37.0156 41.9844 42.7031
Q37.7969 48.3906 30.6094 48.3906
M30.6094 56
Q42.3281 56 49.0156 48.375
Q55.7188 40.7656 55.7188 27.2969
Q55.7188 13.875 49.0156 6.21875
Q42.3281 -1.42188 30.6094 -1.42188
Q18.8438 -1.42188 12.1719 6.21875
Q5.51562 13.875 5.51562 27.2969
Q5.51562 40.7656 12.1719 48.375
Q18.8438 56 30.6094 56" id="DejaVuSans-6f"/>
      <path d="
M45.4062 27.9844
Q45.4062 37.75 41.375 43.1094
Q37.3594 48.4844 30.0781 48.4844
Q22.8594 48.4844 18.8281 43.1094
Q14.7969 37.75 14.7969 27.9844
Q14.7969 18.2656 18.8281 12.8906
Q22.8594 7.51562 30.0781 7.51562
Q37.3594 7.51562 41.375 12.8906
Q45.4062 18.2656 45.4062 27.9844
M54.3906 6.78125
Q54.3906 -7.17188 48.1875 -13.9844
Q42 -20.7969 29.2031 -20.7969
Q24.4688 -20.7969 20.2656 -20.0938
Q16.0625 -19.3906 12.1094 -17.9219
L12.1094 -9.1875
Q16.0625 -11.3281 19.9219 -12.3438
Q23.7812 -13.375 27.7812 -13.375
Q36.625 -13.375 41.0156 -8.76562
Q45.4062 -4.15625 45.4062 5.17188
L45.4062 9.625
Q42.625 4.78125 38.2812 2.39062
Q33.9375 0 27.875 0
Q17.8281 0 11.6719 7.65625
Q5.51562 15.3281 5.51562 27.9844
Q5.51562 40.6719 11.6719 48.3281
Q17.8281 56 27.875 56
Q33.9375 56 38.2812 53.6094
Q42.625 51.2188 45.4062 46.3906
L45.4062 54.6875
L54.3906 54.6875
z
" id="DejaVuSans-67"/>
      <path d="
M2.98438 54.6875
L12.5 54.6875
L29.5938 8.79688
L46.6875 54.6875
L56.2031 54.6875
L35.6875 0
L23.4844 0
z
" id="DejaVuSans-76"/>
      <path d="
M9.42188 75.9844
L18.4062 75.9844
L18.4062 0
L9.42188 0
z
" id="DejaVuSans-6c"/>
      <path d="
M41.1094 46.2969
Q39.5938 47.1719 37.8125 47.5781
Q36.0312 48 33.8906 48
Q26.2656 48 22.1875 43.0469
Q18.1094 38.0938 18.1094 28.8125
L18.1094 0
L9.07812 0
L9.07812 54.6875
L18.1094 54.6875
L18.1094 46.1875
Q20.9531 51.1719 25.4844 53.5781
Q30.0312 56 36.5312 56
Q37.4531 56 38.5781 55.875
Q39.7031 55.7656 41.0625 55.5156
z
" id="DejaVuSans-72"/>
     </defs>
     <g transform="translate(400.236875 88.23825)scale(0.144 -0.144)">
      <use xlink:href="#DejaVuSans-67"/>
      <use x="63.4765625" xlink:href="#DejaVuSans-6c"/>
      <use x="91.259765625" xlink:href="#DejaVuSans-6f"/>
      <use x="152.44140625" xlink:href="#DejaVuSans-76"/>
      <use x="211.62109375" xlink:href="#DejaVuSans-65"/>
      <use x="273.14453125" xlink:href="#DejaVuSans-72"/>
      <use x="314.2578125" xlink:href="#DejaVuSans-20"/>
      <use x="346.044921875" xlink:href="#DejaVuSans-48"/>
      <use x="421.240234375" xlink:href="#DejaVuSans-52"/>
      <use x="490.72265625" xlink:href="#DejaVuSans-46"/>
     </g>
    </g>
   </g>
  </g>
 </g>
 <defs>
  <clipPath id="p7ff5b81e1d">
   <rect height="345.6" width="446.4" x="72.0" y="43.2"/>
  </clipPath>
 </defs>
</svg>
